<?xml version="1.0"?>
<svg xmlns="http://www.w3.org/2000/svg" xmlns:lc="http://www.librecad.org" xmlns:xlink="http://www.w3.org/1999/xlink" width="428mm" height="399.5mm" viewBox="0 0 428 399.5">
    <g lc:layername="0" lc:is_locked="false" lc:is_construction="false" fill="none" stroke="black" stroke-width="1">
        <line x1="364" y1="299.5" x2="369.5" y2="299.5"/>
        <line x1="364" y1="285.5" x2="369.5" y2="285.5"/>
        <line x1="364" y1="285.5" x2="364" y2="299.5"/>
        <line x1="369.5" y1="285.5" x2="369.5" y2="299.5"/>
        <line x1="364" y1="271.5" x2="369.5" y2="271.5"/>
        <line x1="364" y1="257.5" x2="369.5" y2="257.5"/>
        <line x1="364" y1="257.5" x2="364" y2="271.5"/>
        <line x1="369.5" y1="257.5" x2="369.5" y2="271.5"/>
        <line x1="364" y1="243.5" x2="369.5" y2="243.5"/>
        <line x1="364" y1="229.5" x2="369.5" y2="229.5"/>
        <line x1="364" y1="229.5" x2="364" y2="243.5"/>
        <line x1="369.5" y1="229.5" x2="369.5" y2="243.5"/>
        <line x1="364" y1="215.5" x2="369.5" y2="215.5"/>
        <line x1="364" y1="201.5" x2="369.5" y2="201.5"/>
        <line x1="364" y1="201.5" x2="364" y2="215.5"/>
        <line x1="369.5" y1="201.5" x2="369.5" y2="215.5"/>
        <line x1="364" y1="187.5" x2="369.5" y2="187.5"/>
        <line x1="364" y1="173.5" x2="369.5" y2="173.5"/>
        <line x1="364" y1="173.5" x2="364" y2="187.5"/>
        <line x1="369.5" y1="173.5" x2="369.5" y2="187.5"/>
        <line x1="364" y1="159.5" x2="369.5" y2="159.5"/>
        <line x1="364" y1="145.5" x2="369.5" y2="145.5"/>
        <line x1="364" y1="145.5" x2="364" y2="159.5"/>
        <line x1="369.5" y1="145.5" x2="369.5" y2="159.5"/>
        <line x1="364" y1="131.5" x2="369.5" y2="131.5"/>
        <line x1="364" y1="117.5" x2="369.5" y2="117.5"/>
        <line x1="364" y1="117.5" x2="364" y2="131.5"/>
        <line x1="369.5" y1="117.5" x2="369.5" y2="131.5"/>
        <line x1="364" y1="103.5" x2="369.5" y2="103.5"/>
        <line x1="364" y1="89.5" x2="369.5" y2="89.5"/>
        <line x1="364" y1="89.5" x2="364" y2="103.5"/>
        <line x1="369.5" y1="89.5" x2="369.5" y2="103.5"/>
        <line x1="364" y1="75.5" x2="369.5" y2="75.5"/>
        <line x1="364" y1="61.5" x2="369.5" y2="61.5"/>
        <line x1="364" y1="61.5" x2="364" y2="75.5"/>
        <line x1="369.5" y1="61.5" x2="369.5" y2="75.5"/>
        <line x1="364" y1="47.5" x2="369.5" y2="47.5"/>
        <line x1="364" y1="33.5" x2="369.5" y2="33.5"/>
        <line x1="364" y1="33.5" x2="364" y2="47.5"/>
        <line x1="369.5" y1="33.5" x2="369.5" y2="47.5"/>
        <line x1="369.5" y1="305.5" x2="358" y2="305.5"/>
        <line x1="64" y1="299.5" x2="58.5" y2="299.5"/>
        <line x1="64" y1="285.5" x2="58.5" y2="285.5"/>
        <line x1="64" y1="285.5" x2="64" y2="299.5"/>
        <line x1="58.5" y1="285.5" x2="58.5" y2="299.5"/>
        <line x1="64" y1="271.5" x2="58.5" y2="271.5"/>
        <line x1="64" y1="257.5" x2="58.5" y2="257.5"/>
        <line x1="64" y1="257.5" x2="64" y2="271.5"/>
        <line x1="58.5" y1="257.5" x2="58.5" y2="271.5"/>
        <line x1="64" y1="243.5" x2="58.5" y2="243.5"/>
        <line x1="64" y1="229.5" x2="58.5" y2="229.5"/>
        <line x1="64" y1="229.5" x2="64" y2="243.5"/>
        <line x1="58.5" y1="229.5" x2="58.5" y2="243.5"/>
        <line x1="64" y1="215.5" x2="58.5" y2="215.5"/>
        <line x1="64" y1="201.5" x2="58.5" y2="201.5"/>
        <line x1="64" y1="201.5" x2="64" y2="215.5"/>
        <line x1="58.5" y1="201.5" x2="58.5" y2="215.5"/>
        <line x1="64" y1="187.5" x2="58.5" y2="187.5"/>
        <line x1="64" y1="173.5" x2="58.5" y2="173.5"/>
        <line x1="64" y1="173.5" x2="64" y2="187.5"/>
        <line x1="58.5" y1="173.5" x2="58.5" y2="187.5"/>
        <line x1="64" y1="159.5" x2="58.5" y2="159.5"/>
        <line x1="64" y1="145.5" x2="58.5" y2="145.5"/>
        <line x1="64" y1="145.5" x2="64" y2="159.5"/>
        <line x1="58.5" y1="145.5" x2="58.5" y2="159.5"/>
        <line x1="64" y1="131.5" x2="58.5" y2="131.5"/>
        <line x1="64" y1="117.5" x2="58.5" y2="117.5"/>
        <line x1="64" y1="117.5" x2="64" y2="131.5"/>
        <line x1="58.5" y1="117.5" x2="58.5" y2="131.5"/>
        <line x1="64" y1="103.5" x2="58.5" y2="103.5"/>
        <line x1="64" y1="89.5" x2="58.5" y2="89.5"/>
        <line x1="64" y1="89.5" x2="64" y2="103.5"/>
        <line x1="58.5" y1="89.5" x2="58.5" y2="103.5"/>
        <line x1="64" y1="75.5" x2="58.5" y2="75.5"/>
        <line x1="64" y1="61.5" x2="58.5" y2="61.5"/>
        <line x1="64" y1="61.5" x2="64" y2="75.5"/>
        <line x1="58.5" y1="61.5" x2="58.5" y2="75.5"/>
        <line x1="64" y1="47.5" x2="58.5" y2="47.5"/>
        <line x1="64" y1="33.5" x2="58.5" y2="33.5"/>
        <line x1="64" y1="33.5" x2="64" y2="47.5"/>
        <line x1="58.5" y1="33.5" x2="58.5" y2="47.5"/>
        <line x1="58.5" y1="305.5" x2="70" y2="305.5"/>
        <line x1="70" y1="305.5" x2="70" y2="75.5"/>
        <line x1="70" y1="75.5" x2="358" y2="75.5"/>
        <line x1="358" y1="75.5" x2="358" y2="305.5"/>
        <line x1="77" y1="0" x2="87" y2="0"/>
        <line x1="76" y1="5.5" x2="76" y2="1"/>
        <line x1="88" y1="5.5" x2="88" y2="1"/>
        <path d="M88,1 A1,1 0 0,0 87,0 "/>
        <path d="M77,0 A1,1 0 0,0 76,1 "/>
        <line x1="76" y1="5.5" x2="64" y2="5.5"/>
        <line x1="101" y1="0" x2="111" y2="0"/>
        <line x1="100" y1="5.5" x2="100" y2="1"/>
        <line x1="112" y1="5.5" x2="112" y2="1"/>
        <path d="M112,1 A1,1 0 0,0 111,0 "/>
        <path d="M101,0 A1,1 0 0,0 100,1 "/>
        <line x1="112" y1="5.5" x2="124" y2="5.5"/>
        <line x1="125" y1="0" x2="135" y2="0"/>
        <line x1="124" y1="5.5" x2="124" y2="1"/>
        <line x1="136" y1="5.5" x2="136" y2="1"/>
        <path d="M136,1 A1,1 0 0,0 135,0 "/>
        <path d="M125,0 A1,1 0 0,0 124,1 "/>
        <line x1="136" y1="5.5" x2="148" y2="5.5"/>
        <line x1="149" y1="0" x2="159" y2="0"/>
        <line x1="148" y1="5.5" x2="148" y2="1"/>
        <line x1="160" y1="5.5" x2="160" y2="1"/>
        <path d="M160,1 A1,1 0 0,0 159,0 "/>
        <path d="M149,0 A1,1 0 0,0 148,1 "/>
        <line x1="160" y1="5.5" x2="172" y2="5.5"/>
        <line x1="173" y1="0" x2="183" y2="0"/>
        <line x1="172" y1="5.5" x2="172" y2="1"/>
        <line x1="184" y1="5.5" x2="184" y2="1"/>
        <path d="M184,1 A1,1 0 0,0 183,0 "/>
        <path d="M173,0 A1,1 0 0,0 172,1 "/>
        <line x1="184" y1="5.5" x2="196" y2="5.5"/>
        <line x1="197" y1="0" x2="207" y2="0"/>
        <line x1="196" y1="5.5" x2="196" y2="1"/>
        <line x1="208" y1="5.5" x2="208" y2="1"/>
        <path d="M208,1 A1,1 0 0,0 207,0 "/>
        <path d="M197,0 A1,1 0 0,0 196,1 "/>
        <line x1="221" y1="0" x2="231" y2="0"/>
        <line x1="220" y1="5.5" x2="220" y2="1"/>
        <line x1="232" y1="5.5" x2="232" y2="1"/>
        <path d="M232,1 A1,1 0 0,0 231,0 "/>
        <path d="M221,0 A1,1 0 0,0 220,1 "/>
        <line x1="232" y1="5.5" x2="244" y2="5.5"/>
        <line x1="245" y1="0" x2="255" y2="0"/>
        <line x1="244" y1="5.5" x2="244" y2="1"/>
        <line x1="256" y1="5.5" x2="256" y2="1"/>
        <path d="M256,1 A1,1 0 0,0 255,0 "/>
        <path d="M245,0 A1,1 0 0,0 244,1 "/>
        <line x1="256" y1="5.5" x2="268" y2="5.5"/>
        <line x1="269" y1="0" x2="279" y2="0"/>
        <line x1="268" y1="5.5" x2="268" y2="1"/>
        <line x1="280" y1="5.5" x2="280" y2="1"/>
        <path d="M280,1 A1,1 0 0,0 279,0 "/>
        <path d="M269,0 A1,1 0 0,0 268,1 "/>
        <line x1="280" y1="5.5" x2="292" y2="5.5"/>
        <line x1="293" y1="0" x2="303" y2="0"/>
        <line x1="292" y1="5.5" x2="292" y2="1"/>
        <line x1="304" y1="5.5" x2="304" y2="1"/>
        <path d="M304,1 A1,1 0 0,0 303,0 "/>
        <path d="M293,0 A1,1 0 0,0 292,1 "/>
        <line x1="304" y1="5.5" x2="316" y2="5.5"/>
        <line x1="317" y1="0" x2="327" y2="0"/>
        <line x1="316" y1="5.5" x2="316" y2="1"/>
        <line x1="328" y1="5.5" x2="328" y2="1"/>
        <path d="M328,1 A1,1 0 0,0 327,0 "/>
        <path d="M317,0 A1,1 0 0,0 316,1 "/>
        <line x1="341" y1="0" x2="351" y2="0"/>
        <line x1="340" y1="5.5" x2="340" y2="1"/>
        <line x1="352" y1="5.5" x2="352" y2="1"/>
        <path d="M352,1 A1,1 0 0,0 351,0 "/>
        <path d="M341,0 A1,1 0 0,0 340,1 "/>
        <line x1="352" y1="5.5" x2="364" y2="5.5"/>
        <line x1="208" y1="5.5" x2="212.5" y2="5.5"/>
        <line x1="209.5" y1="11.5" x2="212.5" y2="11.5"/>
        <line x1="218.5" y1="11.5" x2="215.5" y2="11.5"/>
        <line x1="218.5" y1="11.5" x2="218.5" y2="14.5"/>
        <line x1="209.5" y1="11.5" x2="209.5" y2="14.5"/>
        <line x1="209.5" y1="14.5" x2="212.5" y2="14.5"/>
        <line x1="218.5" y1="14.5" x2="215.5" y2="14.5"/>
        <line x1="215.5" y1="11.5" x2="215.5" y2="5.5"/>
        <line x1="212.5" y1="5.5" x2="212.5" y2="11.5"/>
        <line x1="215.5" y1="14.5" x2="215.5" y2="17.5"/>
        <line x1="215.5" y1="17.5" x2="212.5" y2="17.5"/>
        <line x1="212.5" y1="14.5" x2="212.5" y2="17.5"/>
        <line x1="220" y1="5.5" x2="215.5" y2="5.5"/>
        <line x1="212.5" y1="14.5" x2="212.5" y2="17.5"/>
        <line x1="212.5" y1="17.5" x2="215.5" y2="17.5"/>
        <line x1="365" y1="0" x2="375" y2="0"/>
        <line x1="364" y1="5.5" x2="364" y2="1"/>
        <line x1="376" y1="5.5" x2="376" y2="1"/>
        <path d="M376,1 A1,1 0 0,0 375,0 "/>
        <path d="M365,0 A1,1 0 0,0 364,1 "/>
        <line x1="376" y1="5.5" x2="388" y2="5.5"/>
        <line x1="389" y1="0" x2="399" y2="0"/>
        <line x1="388" y1="5.5" x2="388" y2="1"/>
        <line x1="400" y1="5.5" x2="400" y2="1"/>
        <path d="M400,1 A1,1 0 0,0 399,0 "/>
        <path d="M389,0 A1,1 0 0,0 388,1 "/>
        <line x1="413" y1="0" x2="423" y2="0"/>
        <line x1="412" y1="5.5" x2="412" y2="1"/>
        <line x1="424" y1="5.5" x2="424" y2="1"/>
        <path d="M424,1 A1,1 0 0,0 423,0 "/>
        <path d="M413,0 A1,1 0 0,0 412,1 "/>
        <line x1="428" y1="5.5" x2="424" y2="5.5"/>
        <line x1="63" y1="0" x2="53" y2="0"/>
        <line x1="52" y1="5.5" x2="52" y2="1"/>
        <path d="M53,0 A1,1 0 0,0 52,1 "/>
        <line x1="52" y1="5.5" x2="40" y2="5.5"/>
        <line x1="39" y1="0" x2="29" y2="0"/>
        <line x1="40" y1="5.5" x2="40" y2="1"/>
        <line x1="28" y1="5.5" x2="28" y2="1"/>
        <path d="M29,0 A1,1 0 0,0 28,1 "/>
        <path d="M40,1 A1,1 0 0,0 39,0 "/>
        <line x1="15" y1="0" x2="5" y2="0"/>
        <line x1="16" y1="5.5" x2="16" y2="1"/>
        <line x1="4" y1="5.5" x2="4" y2="1"/>
        <path d="M5,0 A1,1 0 0,0 4,1 "/>
        <path d="M16,1 A1,1 0 0,0 15,0 "/>
        <line x1="0" y1="5.5" x2="4" y2="5.5"/>
        <line x1="64" y1="5.5" x2="64" y2="1"/>
        <path d="M64,1 A1,1 0 0,0 63,0 "/>
        <line x1="16" y1="5.5" x2="20.5" y2="5.5"/>
        <line x1="17.5" y1="11.5" x2="20.5" y2="11.5"/>
        <line x1="26.5" y1="11.5" x2="23.5" y2="11.5"/>
        <line x1="26.5" y1="11.5" x2="26.5" y2="14.5"/>
        <line x1="17.5" y1="11.5" x2="17.5" y2="14.5"/>
        <line x1="17.5" y1="14.5" x2="20.5" y2="14.5"/>
        <line x1="26.5" y1="14.5" x2="23.5" y2="14.5"/>
        <line x1="23.5" y1="11.5" x2="23.5" y2="5.5"/>
        <line x1="20.5" y1="5.5" x2="20.5" y2="11.5"/>
        <line x1="23.5" y1="14.5" x2="23.5" y2="17.5"/>
        <line x1="23.5" y1="17.5" x2="20.5" y2="17.5"/>
        <line x1="20.5" y1="14.5" x2="20.5" y2="17.5"/>
        <line x1="28" y1="5.5" x2="23.5" y2="5.5"/>
        <line x1="20.5" y1="14.5" x2="20.5" y2="17.5"/>
        <line x1="20.5" y1="17.5" x2="23.5" y2="17.5"/>
        <line x1="88" y1="5.5" x2="100" y2="5.5"/>
        <line x1="400" y1="5.5" x2="404.5" y2="5.5"/>
        <line x1="401.5" y1="11.5" x2="404.5" y2="11.5"/>
        <line x1="410.5" y1="11.5" x2="407.5" y2="11.5"/>
        <line x1="410.5" y1="11.5" x2="410.5" y2="14.5"/>
        <line x1="401.5" y1="11.5" x2="401.5" y2="14.5"/>
        <line x1="401.5" y1="14.5" x2="404.5" y2="14.5"/>
        <line x1="410.5" y1="14.5" x2="407.5" y2="14.5"/>
        <line x1="407.5" y1="11.5" x2="407.5" y2="5.5"/>
        <line x1="404.5" y1="5.5" x2="404.5" y2="11.5"/>
        <line x1="407.5" y1="14.5" x2="407.5" y2="17.5"/>
        <line x1="407.5" y1="17.5" x2="404.5" y2="17.5"/>
        <line x1="404.5" y1="14.5" x2="404.5" y2="17.5"/>
        <line x1="412" y1="5.5" x2="407.5" y2="5.5"/>
        <line x1="404.5" y1="14.5" x2="404.5" y2="17.5"/>
        <line x1="404.5" y1="17.5" x2="407.5" y2="17.5"/>
        <line x1="328" y1="5.5" x2="340" y2="5.5"/>
        <line x1="58.5" y1="385.5" x2="0" y2="385.5"/>
        <line x1="0" y1="5.5" x2="0" y2="385.5"/>
        <line x1="369.5" y1="385.5" x2="428" y2="385.5"/>
        <line x1="428" y1="5.5" x2="428" y2="385.5"/>
        <line x1="230" y1="399.5" x2="230" y2="75.5"/>
        <line x1="224" y1="375.5" x2="224" y2="363.5"/>
        <line x1="224" y1="363.5" x2="218.5" y2="363.5"/>
        <line x1="218.5" y1="363.5" x2="218.5" y2="375.5"/>
        <line x1="218.5" y1="375.5" x2="224" y2="375.5"/>
        <line x1="224" y1="351.5" x2="224" y2="339.5"/>
        <line x1="224" y1="339.5" x2="218.5" y2="339.5"/>
        <line x1="218.5" y1="339.5" x2="218.5" y2="351.5"/>
        <line x1="218.5" y1="351.5" x2="224" y2="351.5"/>
        <line x1="224" y1="327.5" x2="224" y2="315.5"/>
        <line x1="224" y1="315.5" x2="218.5" y2="315.5"/>
        <line x1="218.5" y1="315.5" x2="218.5" y2="327.5"/>
        <line x1="218.5" y1="327.5" x2="224" y2="327.5"/>
        <line x1="224" y1="303.5" x2="224" y2="291.5"/>
        <line x1="224" y1="291.5" x2="218.5" y2="291.5"/>
        <line x1="218.5" y1="291.5" x2="218.5" y2="303.5"/>
        <line x1="218.5" y1="303.5" x2="224" y2="303.5"/>
        <line x1="224" y1="279.5" x2="224" y2="267.5"/>
        <line x1="224" y1="267.5" x2="218.5" y2="267.5"/>
        <line x1="218.5" y1="267.5" x2="218.5" y2="279.5"/>
        <line x1="218.5" y1="279.5" x2="224" y2="279.5"/>
        <line x1="224" y1="255.5" x2="224" y2="243.5"/>
        <line x1="224" y1="243.5" x2="218.5" y2="243.5"/>
        <line x1="218.5" y1="243.5" x2="218.5" y2="255.5"/>
        <line x1="218.5" y1="255.5" x2="224" y2="255.5"/>
        <line x1="224" y1="231.5" x2="224" y2="219.5"/>
        <line x1="224" y1="219.5" x2="218.5" y2="219.5"/>
        <line x1="218.5" y1="219.5" x2="218.5" y2="231.5"/>
        <line x1="218.5" y1="231.5" x2="224" y2="231.5"/>
        <line x1="224" y1="207.5" x2="224" y2="195.5"/>
        <line x1="224" y1="195.5" x2="218.5" y2="195.5"/>
        <line x1="218.5" y1="195.5" x2="218.5" y2="207.5"/>
        <line x1="218.5" y1="207.5" x2="224" y2="207.5"/>
        <line x1="224" y1="183.5" x2="224" y2="171.5"/>
        <line x1="224" y1="171.5" x2="218.5" y2="171.5"/>
        <line x1="218.5" y1="171.5" x2="218.5" y2="183.5"/>
        <line x1="218.5" y1="183.5" x2="224" y2="183.5"/>
        <line x1="224" y1="159.5" x2="224" y2="147.5"/>
        <line x1="224" y1="147.5" x2="218.5" y2="147.5"/>
        <line x1="218.5" y1="147.5" x2="218.5" y2="159.5"/>
        <line x1="218.5" y1="159.5" x2="224" y2="159.5"/>
        <line x1="224" y1="135.5" x2="224" y2="123.5"/>
        <line x1="224" y1="123.5" x2="218.5" y2="123.5"/>
        <line x1="218.5" y1="123.5" x2="218.5" y2="135.5"/>
        <line x1="218.5" y1="135.5" x2="224" y2="135.5"/>
        <line x1="224" y1="111.5" x2="224" y2="99.5"/>
        <line x1="224" y1="99.5" x2="218.5" y2="99.5"/>
        <line x1="218.5" y1="99.5" x2="218.5" y2="111.5"/>
        <line x1="218.5" y1="111.5" x2="224" y2="111.5"/>
        <circle cx="221.25" cy="357.5" r="1.5"/>
        <circle cx="221.25" cy="117.5" r="1.5"/>
        <line x1="172" y1="82" x2="172" y2="87.5"/>
        <line x1="172" y1="82" x2="184" y2="82"/>
        <line x1="172" y1="87.5" x2="184" y2="87.5"/>
        <line x1="184" y1="87.5" x2="184" y2="82"/>
        <line x1="196" y1="82" x2="196" y2="87.5"/>
        <line x1="196" y1="82" x2="208" y2="82"/>
        <line x1="196" y1="87.5" x2="208" y2="87.5"/>
        <line x1="208" y1="87.5" x2="208" y2="82"/>
        <circle cx="190" cy="84.75" r="1.5"/>
        <line x1="172" y1="393" x2="172" y2="387.5"/>
        <line x1="172" y1="393" x2="184" y2="393"/>
        <line x1="172" y1="387.5" x2="184" y2="387.5"/>
        <line x1="184" y1="387.5" x2="184" y2="393"/>
        <line x1="196" y1="393" x2="196" y2="387.5"/>
        <line x1="196" y1="393" x2="208" y2="393"/>
        <line x1="196" y1="387.5" x2="208" y2="387.5"/>
        <line x1="208" y1="387.5" x2="208" y2="393"/>
        <circle cx="190" cy="390.25" r="1.5"/>
        <line x1="150" y1="399.5" x2="150" y2="75.5"/>
        <line x1="150" y1="75.5" x2="230" y2="75.5"/>
        <line x1="150" y1="399.5" x2="230" y2="399.5"/>
        <line x1="213.75" y1="248.5" x2="213.75" y2="243"/>
        <line x1="213.75" y1="248.5" x2="201.75" y2="248.5"/>
        <line x1="213.75" y1="243" x2="201.75" y2="243"/>
        <line x1="201.75" y1="243" x2="201.75" y2="248.5"/>
        <line x1="189.75" y1="248.5" x2="189.75" y2="243"/>
        <line x1="189.75" y1="248.5" x2="177.75" y2="248.5"/>
        <line x1="189.75" y1="243" x2="177.75" y2="243"/>
        <line x1="177.75" y1="243" x2="177.75" y2="248.5"/>
        <circle cx="195.75" cy="245.75" r="1.5"/>
        <line x1="213.75" y1="232" x2="213.75" y2="226.5"/>
        <line x1="213.75" y1="232" x2="201.75" y2="232"/>
        <line x1="213.75" y1="226.5" x2="201.75" y2="226.5"/>
        <line x1="201.75" y1="226.5" x2="201.75" y2="232"/>
        <line x1="189.75" y1="232" x2="189.75" y2="226.5"/>
        <line x1="189.75" y1="232" x2="177.75" y2="232"/>
        <line x1="189.75" y1="226.5" x2="177.75" y2="226.5"/>
        <line x1="177.75" y1="226.5" x2="177.75" y2="232"/>
        <circle cx="195.75" cy="229.25" r="1.5"/>
        <line x1="213.75" y1="221" x2="213.75" y2="215.5"/>
        <line x1="213.75" y1="221" x2="201.75" y2="221"/>
        <line x1="213.75" y1="215.5" x2="201.75" y2="215.5"/>
        <line x1="201.75" y1="215.5" x2="201.75" y2="221"/>
        <line x1="189.75" y1="221" x2="189.75" y2="215.5"/>
        <line x1="189.75" y1="221" x2="177.75" y2="221"/>
        <line x1="189.75" y1="215.5" x2="177.75" y2="215.5"/>
        <line x1="177.75" y1="215.5" x2="177.75" y2="221"/>
        <circle cx="195.75" cy="218.25" r="1.5"/>
        <line x1="213.75" y1="259.5" x2="213.75" y2="254"/>
        <line x1="213.75" y1="259.5" x2="201.75" y2="259.5"/>
        <line x1="213.75" y1="254" x2="201.75" y2="254"/>
        <line x1="201.75" y1="254" x2="201.75" y2="259.5"/>
        <line x1="189.75" y1="259.5" x2="189.75" y2="254"/>
        <line x1="189.75" y1="259.5" x2="177.75" y2="259.5"/>
        <line x1="189.75" y1="254" x2="177.75" y2="254"/>
        <line x1="177.75" y1="254" x2="177.75" y2="259.5"/>
        <circle cx="195.75" cy="256.75" r="1.5"/>
        <line x1="172" y1="327.5" x2="172" y2="322"/>
        <line x1="172" y1="327.5" x2="184" y2="327.5"/>
        <line x1="172" y1="322" x2="184" y2="322"/>
        <line x1="184" y1="322" x2="184" y2="327.5"/>
        <line x1="196" y1="327.5" x2="196" y2="322"/>
        <line x1="196" y1="327.5" x2="208" y2="327.5"/>
        <line x1="196" y1="322" x2="208" y2="322"/>
        <line x1="208" y1="322" x2="208" y2="327.5"/>
        <circle cx="190" cy="324.75" r="1.5"/>
        <line x1="172" y1="147.5" x2="172" y2="153"/>
        <line x1="172" y1="147.5" x2="184" y2="147.5"/>
        <line x1="172" y1="153" x2="184" y2="153"/>
        <line x1="184" y1="153" x2="184" y2="147.5"/>
        <line x1="196" y1="147.5" x2="196" y2="153"/>
        <line x1="196" y1="147.5" x2="208" y2="147.5"/>
        <line x1="196" y1="153" x2="208" y2="153"/>
        <line x1="208" y1="153" x2="208" y2="147.5"/>
        <circle cx="190" cy="150.25" r="1.5"/>
        <line x1="144" y1="375.5" x2="144" y2="363.5"/>
        <line x1="144" y1="363.5" x2="138.5" y2="363.5"/>
        <line x1="138.5" y1="363.5" x2="138.5" y2="375.5"/>
        <line x1="138.5" y1="375.5" x2="144" y2="375.5"/>
        <line x1="144" y1="351.5" x2="144" y2="339.5"/>
        <line x1="144" y1="339.5" x2="138.5" y2="339.5"/>
        <line x1="138.5" y1="339.5" x2="138.5" y2="351.5"/>
        <line x1="138.5" y1="351.5" x2="144" y2="351.5"/>
        <line x1="144" y1="327.5" x2="144" y2="315.5"/>
        <line x1="144" y1="315.5" x2="138.5" y2="315.5"/>
        <line x1="138.5" y1="315.5" x2="138.5" y2="327.5"/>
        <line x1="138.5" y1="327.5" x2="144" y2="327.5"/>
        <line x1="144" y1="303.5" x2="144" y2="291.5"/>
        <line x1="144" y1="291.5" x2="138.5" y2="291.5"/>
        <line x1="138.5" y1="291.5" x2="138.5" y2="303.5"/>
        <line x1="138.5" y1="303.5" x2="144" y2="303.5"/>
        <line x1="144" y1="279.5" x2="144" y2="267.5"/>
        <line x1="144" y1="267.5" x2="138.5" y2="267.5"/>
        <line x1="138.5" y1="267.5" x2="138.5" y2="279.5"/>
        <line x1="138.5" y1="279.5" x2="144" y2="279.5"/>
        <line x1="144" y1="255.5" x2="144" y2="243.5"/>
        <line x1="144" y1="243.5" x2="138.5" y2="243.5"/>
        <line x1="138.5" y1="243.5" x2="138.5" y2="255.5"/>
        <line x1="138.5" y1="255.5" x2="144" y2="255.5"/>
        <line x1="144" y1="231.5" x2="144" y2="219.5"/>
        <line x1="144" y1="219.5" x2="138.5" y2="219.5"/>
        <line x1="138.5" y1="219.5" x2="138.5" y2="231.5"/>
        <line x1="138.5" y1="231.5" x2="144" y2="231.5"/>
        <line x1="144" y1="207.5" x2="144" y2="195.5"/>
        <line x1="144" y1="195.5" x2="138.5" y2="195.5"/>
        <line x1="138.5" y1="195.5" x2="138.5" y2="207.5"/>
        <line x1="138.5" y1="207.5" x2="144" y2="207.5"/>
        <line x1="144" y1="183.5" x2="144" y2="171.5"/>
        <line x1="144" y1="171.5" x2="138.5" y2="171.5"/>
        <line x1="138.5" y1="171.5" x2="138.5" y2="183.5"/>
        <line x1="138.5" y1="183.5" x2="144" y2="183.5"/>
        <line x1="144" y1="159.5" x2="144" y2="147.5"/>
        <line x1="144" y1="147.5" x2="138.5" y2="147.5"/>
        <line x1="138.5" y1="147.5" x2="138.5" y2="159.5"/>
        <line x1="138.5" y1="159.5" x2="144" y2="159.5"/>
        <line x1="144" y1="135.5" x2="144" y2="123.5"/>
        <line x1="144" y1="123.5" x2="138.5" y2="123.5"/>
        <line x1="138.5" y1="123.5" x2="138.5" y2="135.5"/>
        <line x1="138.5" y1="135.5" x2="144" y2="135.5"/>
        <line x1="144" y1="111.5" x2="144" y2="99.5"/>
        <line x1="144" y1="99.5" x2="138.5" y2="99.5"/>
        <line x1="138.5" y1="99.5" x2="138.5" y2="111.5"/>
        <line x1="138.5" y1="111.5" x2="144" y2="111.5"/>
        <circle cx="141.25" cy="357.5" r="1.5"/>
        <circle cx="141.25" cy="117.5" r="1.5"/>
        <line x1="92" y1="82" x2="92" y2="87.5"/>
        <line x1="92" y1="82" x2="104" y2="82"/>
        <line x1="92" y1="87.5" x2="104" y2="87.5"/>
        <line x1="104" y1="87.5" x2="104" y2="82"/>
        <line x1="116" y1="82" x2="116" y2="87.5"/>
        <line x1="116" y1="82" x2="128" y2="82"/>
        <line x1="116" y1="87.5" x2="128" y2="87.5"/>
        <line x1="128" y1="87.5" x2="128" y2="82"/>
        <circle cx="110" cy="84.75" r="1.5"/>
        <line x1="70" y1="399.5" x2="70" y2="75.5"/>
        <line x1="70" y1="75.5" x2="150" y2="75.5"/>
        <line x1="70" y1="399.5" x2="150" y2="399.5"/>
        <line x1="92" y1="228" x2="92" y2="222.5"/>
        <line x1="92" y1="228" x2="104" y2="228"/>
        <line x1="92" y1="222.5" x2="104" y2="222.5"/>
        <line x1="104" y1="222.5" x2="104" y2="228"/>
        <line x1="116" y1="228" x2="116" y2="222.5"/>
        <line x1="116" y1="228" x2="128" y2="228"/>
        <line x1="116" y1="222.5" x2="128" y2="222.5"/>
        <line x1="128" y1="222.5" x2="128" y2="228"/>
        <circle cx="110" cy="225.25" r="1.5"/>
        <line x1="92" y1="393" x2="92" y2="387.5"/>
        <line x1="92" y1="393" x2="104" y2="393"/>
        <line x1="92" y1="387.5" x2="104" y2="387.5"/>
        <line x1="104" y1="387.5" x2="104" y2="393"/>
        <line x1="116" y1="393" x2="116" y2="387.5"/>
        <line x1="116" y1="393" x2="128" y2="393"/>
        <line x1="116" y1="387.5" x2="128" y2="387.5"/>
        <line x1="128" y1="387.5" x2="128" y2="393"/>
        <circle cx="110" cy="390.25" r="1.5"/>
        <circle cx="294" cy="105.5" r="2.5"/>
        <circle cx="301.77817459" cy="97.72182541" r="1.5"/>
        <circle cx="286.22182541" cy="113.27817459" r="1.5"/>
        <circle cx="294" cy="105.5" r="15"/>
        <circle cx="294" cy="145.5" r="2.5"/>
        <circle cx="301.77817459" cy="137.72182541" r="1.5"/>
        <circle cx="286.22182541" cy="153.27817459" r="1.5"/>
        <circle cx="294" cy="145.5" r="15"/>
        <circle cx="294" cy="185.5" r="2.5"/>
        <circle cx="301.77817459" cy="177.72182541" r="1.5"/>
        <circle cx="286.22182541" cy="193.27817459" r="1.5"/>
        <circle cx="294" cy="185.5" r="15"/>
        <circle cx="294" cy="225.5" r="2.5"/>
        <circle cx="301.77817459" cy="217.72182541" r="1.5"/>
        <circle cx="286.22182541" cy="233.27817459" r="1.5"/>
        <circle cx="294" cy="225.5" r="15"/>
        <circle cx="294" cy="265.5" r="2.5"/>
        <circle cx="301.77817459" cy="257.72182541" r="1.5"/>
        <circle cx="286.22182541" cy="273.27817459" r="1.5"/>
        <circle cx="294" cy="265.5" r="15"/>
        <circle cx="294" cy="305.5" r="2.5"/>
        <circle cx="301.77817459" cy="297.72182541" r="1.5"/>
        <circle cx="286.22182541" cy="313.27817459" r="1.5"/>
        <circle cx="294" cy="305.5" r="15"/>
        <circle cx="254" cy="105.5" r="2.5"/>
        <circle cx="246.22182541" cy="97.72182541" r="1.5"/>
        <circle cx="261.77817459" cy="113.27817459" r="1.5"/>
        <circle cx="254" cy="105.5" r="15"/>
        <circle cx="254" cy="145.5" r="2.5"/>
        <circle cx="246.22182541" cy="137.72182541" r="1.5"/>
        <circle cx="261.77817459" cy="153.27817459" r="1.5"/>
        <circle cx="254" cy="145.5" r="15"/>
        <circle cx="254" cy="185.5" r="2.5"/>
        <circle cx="246.22182541" cy="177.72182541" r="1.5"/>
        <circle cx="261.77817459" cy="193.27817459" r="1.5"/>
        <circle cx="254" cy="185.5" r="15"/>
        <circle cx="254" cy="225.5" r="2.5"/>
        <circle cx="246.22182541" cy="217.72182541" r="1.5"/>
        <circle cx="261.77817459" cy="233.27817459" r="1.5"/>
        <circle cx="254" cy="225.5" r="15"/>
        <circle cx="254" cy="265.5" r="2.5"/>
        <circle cx="246.22182541" cy="257.72182541" r="1.5"/>
        <circle cx="261.77817459" cy="273.27817459" r="1.5"/>
        <circle cx="254" cy="265.5" r="15"/>
        <circle cx="254" cy="305.5" r="2.5"/>
        <circle cx="246.22182541" cy="297.72182541" r="1.5"/>
        <circle cx="261.77817459" cy="313.27817459" r="1.5"/>
        <circle cx="254" cy="305.5" r="15"/>
        <line x1="342" y1="383.99999489" x2="342" y2="389.49999489"/>
        <line x1="342" y1="383.99999489" x2="330" y2="383.99999489"/>
        <line x1="342" y1="389.49999489" x2="330" y2="389.49999489"/>
        <line x1="330" y1="389.49999489" x2="330" y2="383.99999489"/>
        <line x1="318" y1="383.99999489" x2="318" y2="389.49999489"/>
        <line x1="318" y1="383.99999489" x2="306" y2="383.99999489"/>
        <line x1="318" y1="389.49999489" x2="306" y2="389.49999489"/>
        <line x1="306" y1="389.49999489" x2="306" y2="383.99999489"/>
        <circle cx="324" cy="386.74999489" r="1.5"/>
        <line x1="354" y1="395.5" x2="300" y2="395.49999472"/>
        <circle cx="324" cy="360" r="11"/>
        <circle cx="308.5" cy="375.5" r="1.5"/>
        <circle cx="308.5" cy="344.5" r="1.5"/>
        <circle cx="339.5" cy="375.5" r="1.5"/>
        <circle cx="339.5" cy="344.5" r="1.5"/>
        <line x1="345" y1="364.5" x2="345" y2="361.5"/>
        <line x1="345" y1="355.5" x2="345" y2="358.5"/>
        <line x1="345" y1="358.5" x2="342" y2="358.5"/>
        <line x1="342" y1="358.5" x2="342" y2="361.5"/>
        <line x1="345" y1="361.5" x2="342" y2="361.5"/>
        <line x1="345" y1="361.5" x2="342" y2="361.5"/>
        <line x1="359.5" y1="377" x2="359.5" y2="367"/>
        <line x1="354" y1="378" x2="358.5" y2="378"/>
        <line x1="354" y1="366" x2="358.5" y2="366"/>
        <path d="M359.5,367 A1,1 0 0,0 358.5,366 "/>
        <path d="M358.5,378 A1,1 0 0,0 359.5,377 "/>
        <line x1="354" y1="366" x2="354" y2="361.5"/>
        <line x1="354" y1="354" x2="354" y2="358.5"/>
        <line x1="359.5" y1="343" x2="359.5" y2="353"/>
        <line x1="354" y1="342" x2="358.5" y2="342"/>
        <line x1="354" y1="354" x2="358.5" y2="354"/>
        <path d="M358.5,354 A1,1 0 0,0 359.5,353 "/>
        <path d="M359.5,343 A1,1 0 0,0 358.5,342 "/>
        <line x1="348" y1="364.5" x2="348" y2="361.5"/>
        <line x1="348" y1="355.5" x2="348" y2="358.5"/>
        <line x1="348" y1="355.5" x2="345" y2="355.5"/>
        <line x1="348" y1="358.5" x2="354" y2="358.5"/>
        <line x1="354" y1="361.5" x2="348" y2="361.5"/>
        <line x1="348" y1="364.5" x2="345" y2="364.5"/>
        <circle cx="324" cy="342" r="4"/>
        <line x1="354" y1="395.5" x2="354" y2="378"/>
        <line x1="300" y1="395.49999472" x2="300" y2="329.49999472"/>
        <line x1="306" y1="337" x2="306" y2="331.5"/>
        <line x1="306" y1="337" x2="318" y2="337"/>
        <line x1="306" y1="331.5" x2="318" y2="331.5"/>
        <line x1="318" y1="331.5" x2="318" y2="337"/>
        <line x1="330" y1="337" x2="330" y2="331.5"/>
        <line x1="330" y1="337" x2="342" y2="337"/>
        <line x1="330" y1="331.5" x2="342" y2="331.5"/>
        <line x1="342" y1="331.5" x2="342" y2="337"/>
        <circle cx="324" cy="334.25" r="1.5"/>
        <path d="M305,325.49999472 A5,5 0 0,0 300,330.49999472 "/>
        <line x1="354" y1="325.5" x2="305" y2="325.49999472"/>
        <line x1="354" y1="342" x2="354" y2="325.5"/>
        <line x1="258" y1="383.99999489" x2="258" y2="389.49999489"/>
        <line x1="258" y1="383.99999489" x2="270" y2="383.99999489"/>
        <line x1="258" y1="389.49999489" x2="270" y2="389.49999489"/>
        <line x1="270" y1="389.49999489" x2="270" y2="383.99999489"/>
        <line x1="282" y1="383.99999489" x2="282" y2="389.49999489"/>
        <line x1="282" y1="383.99999489" x2="294" y2="383.99999489"/>
        <line x1="282" y1="389.49999489" x2="294" y2="389.49999489"/>
        <line x1="294" y1="389.49999489" x2="294" y2="383.99999489"/>
        <circle cx="276" cy="386.74999489" r="1.5"/>
        <line x1="246" y1="395.5" x2="300" y2="395.49999472"/>
        <circle cx="276" cy="360" r="11"/>
        <circle cx="291.5" cy="375.5" r="1.5"/>
        <circle cx="291.5" cy="344.5" r="1.5"/>
        <circle cx="260.5" cy="375.5" r="1.5"/>
        <circle cx="260.5" cy="344.5" r="1.5"/>
        <line x1="255" y1="364.5" x2="255" y2="361.5"/>
        <line x1="255" y1="355.5" x2="255" y2="358.5"/>
        <line x1="255" y1="358.5" x2="258" y2="358.5"/>
        <line x1="258" y1="358.5" x2="258" y2="361.5"/>
        <line x1="255" y1="361.5" x2="258" y2="361.5"/>
        <line x1="255" y1="361.5" x2="258" y2="361.5"/>
        <line x1="240.5" y1="377" x2="240.5" y2="367"/>
        <line x1="246" y1="378" x2="241.5" y2="378"/>
        <line x1="246" y1="366" x2="241.5" y2="366"/>
        <path d="M241.5,366 A1,1 0 0,0 240.5,367 "/>
        <path d="M240.5,377 A1,1 0 0,0 241.5,378 "/>
        <line x1="246" y1="366" x2="246" y2="361.5"/>
        <line x1="246" y1="354" x2="246" y2="358.5"/>
        <line x1="240.5" y1="343" x2="240.5" y2="353"/>
        <line x1="246" y1="342" x2="241.5" y2="342"/>
        <line x1="246" y1="354" x2="241.5" y2="354"/>
        <path d="M240.5,353 A1,1 0 0,0 241.5,354 "/>
        <path d="M241.5,342 A1,1 0 0,0 240.5,343 "/>
        <line x1="252" y1="364.5" x2="252" y2="361.5"/>
        <line x1="252" y1="355.5" x2="252" y2="358.5"/>
        <line x1="252" y1="355.5" x2="255" y2="355.5"/>
        <line x1="252" y1="358.5" x2="246" y2="358.5"/>
        <line x1="246" y1="361.5" x2="252" y2="361.5"/>
        <line x1="252" y1="364.5" x2="255" y2="364.5"/>
        <circle cx="276" cy="342" r="4"/>
        <line x1="246" y1="395.5" x2="246" y2="378"/>
        <line x1="300" y1="395.49999472" x2="300" y2="329.49999472"/>
        <line x1="294" y1="337" x2="294" y2="331.5"/>
        <line x1="294" y1="337" x2="282" y2="337"/>
        <line x1="294" y1="331.5" x2="282" y2="331.5"/>
        <line x1="282" y1="331.5" x2="282" y2="337"/>
        <line x1="270" y1="337" x2="270" y2="331.5"/>
        <line x1="270" y1="337" x2="258" y2="337"/>
        <line x1="270" y1="331.5" x2="258" y2="331.5"/>
        <line x1="258" y1="331.5" x2="258" y2="337"/>
        <circle cx="276" cy="334.25" r="1.5"/>
        <path d="M300,330.49999472 A5,5 0 0,0 295,325.49999472 "/>
        <line x1="246" y1="325.5" x2="295" y2="325.49999472"/>
        <line x1="246" y1="342" x2="246" y2="325.5"/>
        <line x1="375.5" y1="300" x2="375.5" y2="305.5"/>
        <line x1="375.5" y1="300" x2="387.5" y2="300"/>
        <line x1="375.5" y1="305.5" x2="387.5" y2="305.5"/>
        <line x1="387.5" y1="305.5" x2="387.5" y2="300"/>
        <line x1="399.5" y1="300" x2="399.5" y2="305.5"/>
        <line x1="399.5" y1="300" x2="411.5" y2="300"/>
        <line x1="399.5" y1="305.5" x2="411.5" y2="305.5"/>
        <line x1="411.5" y1="305.5" x2="411.5" y2="300"/>
        <circle cx="393.5" cy="302.75" r="1.5"/>
        <line x1="422" y1="317.5" x2="416.5" y2="317.5"/>
        <line x1="422" y1="317.5" x2="422" y2="329.5"/>
        <line x1="416.5" y1="317.5" x2="416.5" y2="329.5"/>
        <line x1="416.5" y1="329.5" x2="422" y2="329.5"/>
        <line x1="422" y1="341.5" x2="416.5" y2="341.5"/>
        <line x1="422" y1="341.5" x2="422" y2="353.5"/>
        <line x1="416.5" y1="341.5" x2="416.5" y2="353.5"/>
        <line x1="416.5" y1="353.5" x2="422" y2="353.5"/>
        <circle cx="419.25" cy="335.5" r="1.5"/>
        <line x1="52.5" y1="300" x2="52.5" y2="305.5"/>
        <line x1="52.5" y1="300" x2="40.5" y2="300"/>
        <line x1="52.5" y1="305.5" x2="40.5" y2="305.5"/>
        <line x1="40.5" y1="305.5" x2="40.5" y2="300"/>
        <line x1="28.5" y1="300" x2="28.5" y2="305.5"/>
        <line x1="28.5" y1="300" x2="16.5" y2="300"/>
        <line x1="28.5" y1="305.5" x2="16.5" y2="305.5"/>
        <line x1="16.5" y1="305.5" x2="16.5" y2="300"/>
        <circle cx="34.5" cy="302.75" r="1.5"/>
        <line x1="6" y1="317.5" x2="11.5" y2="317.5"/>
        <line x1="6" y1="317.5" x2="6" y2="329.5"/>
        <line x1="11.5" y1="317.5" x2="11.5" y2="329.5"/>
        <line x1="11.5" y1="329.5" x2="6" y2="329.5"/>
        <line x1="6" y1="341.5" x2="11.5" y2="341.5"/>
        <line x1="6" y1="341.5" x2="6" y2="353.5"/>
        <line x1="11.5" y1="341.5" x2="11.5" y2="353.5"/>
        <line x1="11.5" y1="353.5" x2="6" y2="353.5"/>
        <circle cx="8.75" cy="335.5" r="1.5"/>
        <line x1="58.5" y1="385.5" x2="58.5" y2="305.5"/>
        <line x1="369.5" y1="305.5" x2="369.5" y2="385.5"/>
    </g>
    <g lc:layername="noname" lc:is_locked="false" lc:is_construction="false" fill="none" stroke="black" stroke-width="1"/>
    <g lc:layername="noname2" lc:is_locked="false" lc:is_construction="false" fill="none" stroke="black" stroke-width="1"/>
</svg>
