<?xml version="1.0"?>
<svg xmlns="http://www.w3.org/2000/svg" xmlns:lc="http://www.librecad.org" xmlns:xlink="http://www.w3.org/1999/xlink" width="23.50000057mm" height="128.00000022mm" viewBox="0 0 23.50000057 128.00000022">
    <g lc:layername="0" lc:is_locked="false" lc:is_construction="false" fill="none" stroke="black" stroke-width="1">
        <path d="M2.00000021,76.00000011 A4,4 0 1,0 2.00000004,68.00000011 "/>
        <path d="M1.99999996,64.00000011 A2,2 0 0,0 2.00000004,68.00000011 "/>
        <path d="M2.00000017,76.00000011 A2,2 0 0,0 2.00000022,80.00000011 "/>
        <path d="M15.50000025,79.99999989 A8.00000006,8.00000006 0 0,0 15.49999999,63.99999978 "/>
        <line x1="2.00000029" y1="80.00000011" x2="15.50000025" y2="79.99999989"/>
        <line x1="1.99999996" y1="64.00000011" x2="15.49999999" y2="63.99999989"/>
        <circle cx="15.50000012" cy="71.99999983" r="1.5"/>
        <path d="M2.00000044,92.00000011 A4,4 0 1,0 2.00000034,84.00000011 "/>
        <path d="M2.00000044,92.00000011 A2,2 0 0,0 2.00000048,96.00000011 "/>
        <path d="M2.00000022,80.00000011 A2,2 0 0,0 2.0000003,84.00000011 "/>
        <path d="M15.50000052,96 A8.00000006,8.00000006 0 0,0 15.50000025,79.99999989 "/>
        <circle cx="15.50000039" cy="87.99999994" r="1.5"/>
        <path d="M2.0000005,124.00000011 A4,4 0 1,0 2.00000053,116.00000011 "/>
        <path d="M2.0000005,124.00000011 A2,2 0 0,0 2.00000048,128.00000011 "/>
        <path d="M2.00000048,112.00000011 A2,2 0 0,0 2.0000005,116.00000011 "/>
        <path d="M15.50000052,128.00000022 A8.00000006,8.00000006 0 0,0 15.50000052,112.00000011 "/>
        <line x1="2.00000055" y1="112.00000011" x2="15.50000052" y2="112.00000011"/>
        <line x1="2.00000048" y1="128.00000011" x2="15.50000052" y2="128.00000011"/>
        <circle cx="15.50000052" cy="120.00000017" r="1.5"/>
        <path d="M2.00000053,108.00000011 A4,4 0 1,0 2.0000005,100.00000011 "/>
        <path d="M2.00000048,96.00000011 A2,2 0 0,0 2.0000005,100.00000011 "/>
        <path d="M2.0000005,108.00000011 A2,2 0 0,0 2.00000048,112.00000011 "/>
        <path d="M15.50000052,112.00000011 A8.00000006,8.00000006 0 1,0 15.50000052,96 "/>
        <line x1="2.00000048" y1="96.00000011" x2="15.50000052" y2="96.00000011"/>
        <circle cx="15.50000052" cy="104.00000006" r="1.5"/>
        <path d="M2.00000053,12.00000011 A4,4 0 1,0 2.0000005,4.00000011 "/>
        <path d="M2.00000048,0.00000011 A2,2 0 0,0 2.0000005,4.00000011 "/>
        <path d="M2.0000005,12.00000011 A2,2 0 0,0 2.00000048,16.00000011 "/>
        <path d="M15.50000052,16.00000011 A8.00000006,8.00000006 0 0,0 15.50000052,0 "/>
        <line x1="2.00000055" y1="16.00000011" x2="15.50000052" y2="16.00000011"/>
        <line x1="2.00000048" y1="0.00000011" x2="15.50000052" y2="0.00000011"/>
        <circle cx="15.50000052" cy="8.00000006" r="1.5"/>
        <path d="M2.0000005,28.00000011 A4,4 0 1,0 2.00000053,20.00000011 "/>
        <path d="M2.0000005,28.00000011 A2,2 0 0,0 2.00000048,32.00000011 "/>
        <path d="M2.00000048,16.00000011 A2,2 0 0,0 2.0000005,20.00000011 "/>
        <path d="M15.50000052,32.00000022 A8.00000006,8.00000006 0 0,0 15.50000052,16.00000011 "/>
        <circle cx="15.50000052" cy="24.00000017" r="1.5"/>
        <path d="M2.00000004,60.00000011 A4,4 0 1,0 2.00000021,52.00000011 "/>
        <path d="M2.00000004,60.00000011 A2,2 0 0,0 1.99999996,64.00000011 "/>
        <path d="M2.00000022,48.00000011 A2,2 0 0,0 2.00000017,52.00000011 "/>
        <path d="M15.49999999,64.00000044 A8.00000006,8.00000006 0 0,0 15.50000025,48.00000033 "/>
        <line x1="2.00000029" y1="48.00000011" x2="15.50000025" y2="48.00000033"/>
        <line x1="1.99999996" y1="64.00000011" x2="15.49999999" y2="64.00000033"/>
        <circle cx="15.50000012" cy="56.00000039" r="1.5"/>
        <path d="M2.00000034,44.00000011 A4,4 0 1,0 2.00000044,36.00000011 "/>
        <path d="M2.00000048,32.00000011 A2,2 0 0,0 2.00000044,36.00000011 "/>
        <path d="M2.0000003,44.00000011 A2,2 0 0,0 2.00000022,48.00000011 "/>
        <path d="M15.50000025,48.00000033 A8.00000006,8.00000006 0 0,0 15.50000052,32.00000022 "/>
        <line x1="2.00000048" y1="32.00000011" x2="15.50000052" y2="32.00000033"/>
        <circle cx="15.50000039" cy="40.00000028" r="1.5"/>
    </g>
    <g lc:layername="noname" lc:is_locked="false" lc:is_construction="false" fill="none" stroke="black" stroke-width="1"/>
    <g lc:layername="noname2" lc:is_locked="false" lc:is_construction="false" fill="none" stroke="black" stroke-width="1"/>
</svg>
