<?xml version="1.0"?>
<svg xmlns="http://www.w3.org/2000/svg" xmlns:lc="http://www.librecad.org" xmlns:xlink="http://www.w3.org/1999/xlink" width="80mm" height="324mm" viewBox="0 0 80 324">
    <g lc:layername="0" lc:is_locked="false" lc:is_construction="false" fill="none" stroke="black" stroke-width="1">
        <line x1="0" y1="230" x2="0" y2="0"/>
        <line x1="80" y1="324" x2="80" y2="0"/>
        <line x1="74" y1="300" x2="74" y2="288"/>
        <line x1="74" y1="288" x2="68.5" y2="288"/>
        <line x1="68.5" y1="288" x2="68.5" y2="300"/>
        <line x1="68.5" y1="300" x2="74" y2="300"/>
        <line x1="74" y1="276" x2="74" y2="264"/>
        <line x1="74" y1="264" x2="68.5" y2="264"/>
        <line x1="68.5" y1="264" x2="68.5" y2="276"/>
        <line x1="68.5" y1="276" x2="74" y2="276"/>
        <line x1="74" y1="252" x2="74" y2="240"/>
        <line x1="74" y1="240" x2="68.5" y2="240"/>
        <line x1="68.5" y1="240" x2="68.5" y2="252"/>
        <line x1="68.5" y1="252" x2="74" y2="252"/>
        <line x1="74" y1="228" x2="74" y2="216"/>
        <line x1="74" y1="216" x2="68.5" y2="216"/>
        <line x1="68.5" y1="216" x2="68.5" y2="228"/>
        <line x1="68.5" y1="228" x2="74" y2="228"/>
        <line x1="74" y1="204" x2="74" y2="192"/>
        <line x1="74" y1="192" x2="68.5" y2="192"/>
        <line x1="68.5" y1="192" x2="68.5" y2="204"/>
        <line x1="68.5" y1="204" x2="74" y2="204"/>
        <line x1="74" y1="180" x2="74" y2="168"/>
        <line x1="74" y1="168" x2="68.5" y2="168"/>
        <line x1="68.5" y1="168" x2="68.5" y2="180"/>
        <line x1="68.5" y1="180" x2="74" y2="180"/>
        <line x1="74" y1="156" x2="74" y2="144"/>
        <line x1="74" y1="144" x2="68.5" y2="144"/>
        <line x1="68.5" y1="144" x2="68.5" y2="156"/>
        <line x1="68.5" y1="156" x2="74" y2="156"/>
        <line x1="74" y1="132" x2="74" y2="120"/>
        <line x1="74" y1="120" x2="68.5" y2="120"/>
        <line x1="68.5" y1="120" x2="68.5" y2="132"/>
        <line x1="68.5" y1="132" x2="74" y2="132"/>
        <line x1="74" y1="108" x2="74" y2="96"/>
        <line x1="74" y1="96" x2="68.5" y2="96"/>
        <line x1="68.5" y1="96" x2="68.5" y2="108"/>
        <line x1="68.5" y1="108" x2="74" y2="108"/>
        <line x1="74" y1="84" x2="74" y2="72"/>
        <line x1="74" y1="72" x2="68.5" y2="72"/>
        <line x1="68.5" y1="72" x2="68.5" y2="84"/>
        <line x1="68.5" y1="84" x2="74" y2="84"/>
        <line x1="74" y1="60" x2="74" y2="48"/>
        <line x1="74" y1="48" x2="68.5" y2="48"/>
        <line x1="68.5" y1="48" x2="68.5" y2="60"/>
        <line x1="68.5" y1="60" x2="74" y2="60"/>
        <line x1="74" y1="36" x2="74" y2="24"/>
        <line x1="74" y1="24" x2="68.5" y2="24"/>
        <line x1="68.5" y1="24" x2="68.5" y2="36"/>
        <line x1="68.5" y1="36" x2="74" y2="36"/>
        <circle cx="71.25" cy="282" r="1.5"/>
        <circle cx="71.25" cy="42" r="1.5"/>
        <line x1="22" y1="6.5" x2="22" y2="12"/>
        <line x1="22" y1="6.5" x2="34" y2="6.5"/>
        <line x1="22" y1="12" x2="34" y2="12"/>
        <line x1="34" y1="12" x2="34" y2="6.5"/>
        <line x1="46" y1="6.5" x2="46" y2="12"/>
        <line x1="46" y1="6.5" x2="58" y2="6.5"/>
        <line x1="46" y1="12" x2="58" y2="12"/>
        <line x1="58" y1="12" x2="58" y2="6.5"/>
        <circle cx="40" cy="9.25" r="1.5"/>
        <line x1="0" y1="324" x2="0" y2="0"/>
        <line x1="0" y1="0" x2="80" y2="0"/>
        <line x1="0" y1="324" x2="80" y2="324"/>
        <line x1="22" y1="317.5" x2="22" y2="312"/>
        <line x1="22" y1="317.5" x2="34" y2="317.5"/>
        <line x1="22" y1="312" x2="34" y2="312"/>
        <line x1="34" y1="312" x2="34" y2="317.5"/>
        <line x1="46" y1="317.5" x2="46" y2="312"/>
        <line x1="46" y1="317.5" x2="58" y2="317.5"/>
        <line x1="46" y1="312" x2="58" y2="312"/>
        <line x1="58" y1="312" x2="58" y2="317.5"/>
        <circle cx="40" cy="314.75" r="1.5"/>
        <line x1="16.25" y1="147" x2="16.25" y2="141.5"/>
        <line x1="16.25" y1="147" x2="28.25" y2="147"/>
        <line x1="16.25" y1="141.5" x2="28.25" y2="141.5"/>
        <line x1="28.25" y1="141.5" x2="28.25" y2="147"/>
        <line x1="40.25" y1="147" x2="40.25" y2="141.5"/>
        <line x1="40.25" y1="147" x2="52.25" y2="147"/>
        <line x1="40.25" y1="141.5" x2="52.25" y2="141.5"/>
        <line x1="52.25" y1="141.5" x2="52.25" y2="147"/>
        <circle cx="34.25" cy="144.25" r="1.5"/>
    </g>
    <g lc:layername="noname" lc:is_locked="false" lc:is_construction="false" fill="none" stroke="black" stroke-width="1"/>
    <g lc:layername="noname2" lc:is_locked="false" lc:is_construction="false" fill="none" stroke="black" stroke-width="1"/>
</svg>
