<?xml version="1.0"?>
<svg xmlns="http://www.w3.org/2000/svg" xmlns:lc="http://www.librecad.org" xmlns:xlink="http://www.w3.org/1999/xlink" width="702.87707911mm" height="496mm" viewBox="0 0 702.87707911 496">
    <g lc:layername="0" lc:is_locked="false" lc:is_construction="false" fill="none" stroke="black" stroke-width="1">
        <line x1="261.87707911" y1="110" x2="261.87707911" y2="130"/>
        <line x1="261.87707911" y1="138" x2="261.87707911" y2="158"/>
        <line x1="261.87707911" y1="166" x2="261.87707911" y2="186"/>
        <line x1="261.87707911" y1="194" x2="261.87707911" y2="214"/>
        <line x1="261.87707911" y1="222" x2="261.87707911" y2="242"/>
        <line x1="261.87707911" y1="250" x2="261.87707911" y2="270"/>
        <line x1="261.87707911" y1="278" x2="261.87707911" y2="298"/>
        <line x1="261.87707911" y1="306" x2="261.87707911" y2="326"/>
        <line x1="261.87707911" y1="334" x2="261.87707911" y2="354"/>
        <line x1="261.87707911" y1="90" x2="261.87707911" y2="102"/>
        <line x1="261.87707911" y1="362" x2="261.87707911" y2="390"/>
        <line x1="279.37707911" y1="90" x2="261.87707911" y2="90"/>
        <line x1="280.37707911" y1="95.5" x2="290.37707911" y2="95.5"/>
        <line x1="279.37707911" y1="90" x2="279.37707911" y2="94.5"/>
        <line x1="291.37707911" y1="90" x2="291.37707911" y2="94.5"/>
        <path d="M290.37707911,95.5 A1,1 0 0,0 291.37707911,94.5 "/>
        <path d="M279.37707911,94.5 A1,1 0 0,0 280.37707911,95.5 "/>
        <line x1="291.37707911" y1="90" x2="295.87707911" y2="90"/>
        <line x1="292.87707911" y1="84" x2="295.87707911" y2="84"/>
        <line x1="301.87707911" y1="84" x2="298.87707911" y2="84"/>
        <line x1="301.87707911" y1="84" x2="301.87707911" y2="81"/>
        <line x1="292.87707911" y1="84" x2="292.87707911" y2="81"/>
        <line x1="292.87707911" y1="81" x2="295.87707911" y2="81"/>
        <line x1="301.87707911" y1="81" x2="298.87707911" y2="81"/>
        <line x1="298.87707911" y1="84" x2="298.87707911" y2="90"/>
        <line x1="295.87707911" y1="90" x2="295.87707911" y2="84"/>
        <line x1="298.87707911" y1="81" x2="298.87707911" y2="78"/>
        <line x1="298.87707911" y1="78" x2="295.87707911" y2="78"/>
        <line x1="295.87707911" y1="81" x2="295.87707911" y2="78"/>
        <line x1="303.37707911" y1="90" x2="298.87707911" y2="90"/>
        <line x1="295.87707911" y1="81" x2="295.87707911" y2="78"/>
        <line x1="295.87707911" y1="78" x2="298.87707911" y2="78"/>
        <line x1="314.37707911" y1="95.5" x2="304.37707911" y2="95.5"/>
        <line x1="315.37707911" y1="90" x2="315.37707911" y2="94.5"/>
        <line x1="303.37707911" y1="90" x2="303.37707911" y2="94.5"/>
        <path d="M303.37707911,94.5 A1,1 0 0,0 304.37707911,95.5 "/>
        <path d="M314.37707911,95.5 A1,1 0 0,0 315.37707911,94.5 "/>
        <line x1="221.87707911" y1="395.5" x2="231.87707911" y2="395.5"/>
        <line x1="220.87707911" y1="390" x2="220.87707911" y2="394.5"/>
        <line x1="232.87707911" y1="390" x2="232.87707911" y2="394.5"/>
        <path d="M231.87707911,395.5 A1,1 0 0,0 232.87707911,394.5 "/>
        <path d="M220.87707911,394.5 A1,1 0 0,0 221.87707911,395.5 "/>
        <line x1="232.87707911" y1="390" x2="237.37707911" y2="390"/>
        <line x1="234.37707911" y1="384" x2="237.37707911" y2="384"/>
        <line x1="243.37707911" y1="384" x2="240.37707911" y2="384"/>
        <line x1="243.37707911" y1="384" x2="243.37707911" y2="381"/>
        <line x1="234.37707911" y1="384" x2="234.37707911" y2="381"/>
        <line x1="234.37707911" y1="381" x2="237.37707911" y2="381"/>
        <line x1="243.37707911" y1="381" x2="240.37707911" y2="381"/>
        <line x1="240.37707911" y1="384" x2="240.37707911" y2="390"/>
        <line x1="237.37707911" y1="390" x2="237.37707911" y2="384"/>
        <line x1="240.37707911" y1="381" x2="240.37707911" y2="378"/>
        <line x1="240.37707911" y1="378" x2="237.37707911" y2="378"/>
        <line x1="237.37707911" y1="381" x2="237.37707911" y2="378"/>
        <line x1="244.87707911" y1="390" x2="240.37707911" y2="390"/>
        <line x1="237.37707911" y1="381" x2="237.37707911" y2="378"/>
        <line x1="237.37707911" y1="378" x2="240.37707911" y2="378"/>
        <line x1="255.87707911" y1="395.5" x2="245.87707911" y2="395.5"/>
        <line x1="256.87707911" y1="390" x2="256.87707911" y2="394.5"/>
        <line x1="244.87707911" y1="390" x2="244.87707911" y2="394.5"/>
        <path d="M244.87707911,394.5 A1,1 0 0,0 245.87707911,395.5 "/>
        <path d="M255.87707911,395.5 A1,1 0 0,0 256.87707911,394.5 "/>
        <line x1="261.87707911" y1="390" x2="256.87707911" y2="390"/>
        <line x1="203.87707911" y1="390" x2="220.87707911" y2="390"/>
        <line x1="387.87707911" y1="16" x2="387.87707911" y2="21.5"/>
        <line x1="387.87707911" y1="16" x2="373.87707911" y2="16"/>
        <line x1="387.87707911" y1="21.5" x2="373.87707911" y2="21.5"/>
        <line x1="373.87707911" y1="21.5" x2="373.87707911" y2="16"/>
        <line x1="359.87707911" y1="16" x2="359.87707911" y2="21.5"/>
        <line x1="359.87707911" y1="16" x2="345.87707911" y2="16"/>
        <line x1="359.87707911" y1="21.5" x2="345.87707911" y2="21.5"/>
        <line x1="345.87707911" y1="21.5" x2="345.87707911" y2="16"/>
        <line x1="331.87707911" y1="16" x2="331.87707911" y2="21.5"/>
        <line x1="331.87707911" y1="16" x2="317.87707911" y2="16"/>
        <line x1="331.87707911" y1="21.5" x2="317.87707911" y2="21.5"/>
        <line x1="317.87707911" y1="21.5" x2="317.87707911" y2="16"/>
        <line x1="303.87707911" y1="16" x2="303.87707911" y2="21.5"/>
        <line x1="303.87707911" y1="16" x2="289.87707911" y2="16"/>
        <line x1="303.87707911" y1="21.5" x2="289.87707911" y2="21.5"/>
        <line x1="275.87707911" y1="16" x2="275.87707911" y2="21.5"/>
        <line x1="275.87707911" y1="16" x2="261.87707911" y2="16"/>
        <line x1="275.87707911" y1="21.5" x2="261.87707911" y2="21.5"/>
        <line x1="247.87707911" y1="16" x2="247.87707911" y2="21.5"/>
        <line x1="247.87707911" y1="16" x2="233.87707911" y2="16"/>
        <line x1="247.87707911" y1="21.5" x2="233.87707911" y2="21.5"/>
        <line x1="233.87707911" y1="21.5" x2="233.87707911" y2="16"/>
        <line x1="219.87707911" y1="16" x2="219.87707911" y2="21.5"/>
        <line x1="219.87707911" y1="16" x2="205.87707911" y2="16"/>
        <line x1="219.87707911" y1="21.5" x2="205.87707911" y2="21.5"/>
        <line x1="205.87707911" y1="21.5" x2="205.87707911" y2="16"/>
        <line x1="289.87707911" y1="21.5" x2="289.87707911" y2="16"/>
        <line x1="261.87707911" y1="21.5" x2="261.87707911" y2="16"/>
        <line x1="205.87707911" y1="21.5" x2="205.87707911" y2="16"/>
        <line x1="191.87707911" y1="16" x2="191.87707911" y2="21.5"/>
        <line x1="191.87707911" y1="16" x2="177.87707911" y2="16"/>
        <line x1="191.87707911" y1="21.5" x2="177.87707911" y2="21.5"/>
        <line x1="177.87707911" y1="21.5" x2="177.87707911" y2="16"/>
        <line x1="177.87707911" y1="21.5" x2="177.87707911" y2="16"/>
        <line x1="567.37707911" y1="67" x2="567.37707911" y2="57"/>
        <line x1="561.87707911" y1="68" x2="566.37707911" y2="68"/>
        <line x1="561.87707911" y1="56" x2="566.37707911" y2="56"/>
        <path d="M567.37707911,57 A1,1 0 0,0 566.37707911,56 "/>
        <path d="M566.37707911,68 A1,1 0 0,0 567.37707911,67 "/>
        <line x1="561.87707911" y1="56" x2="561.87707911" y2="51.5"/>
        <line x1="555.87707911" y1="54.5" x2="555.87707911" y2="51.5"/>
        <line x1="555.87707911" y1="45.5" x2="555.87707911" y2="48.5"/>
        <line x1="555.87707911" y1="45.5" x2="552.87707911" y2="45.5"/>
        <line x1="555.87707911" y1="54.5" x2="552.87707911" y2="54.5"/>
        <line x1="552.87707911" y1="54.5" x2="552.87707911" y2="51.5"/>
        <line x1="552.87707911" y1="45.5" x2="552.87707911" y2="48.5"/>
        <line x1="555.87707911" y1="48.5" x2="561.87707911" y2="48.5"/>
        <line x1="561.87707911" y1="51.5" x2="555.87707911" y2="51.5"/>
        <line x1="552.87707911" y1="48.5" x2="549.87707911" y2="48.5"/>
        <line x1="549.87707911" y1="48.5" x2="549.87707911" y2="51.5"/>
        <line x1="552.87707911" y1="51.5" x2="549.87707911" y2="51.5"/>
        <line x1="561.87707911" y1="44" x2="561.87707911" y2="48.5"/>
        <line x1="552.87707911" y1="51.5" x2="549.87707911" y2="51.5"/>
        <line x1="549.87707911" y1="51.5" x2="549.87707911" y2="48.5"/>
        <line x1="567.37707911" y1="33" x2="567.37707911" y2="43"/>
        <line x1="561.87707911" y1="32" x2="566.37707911" y2="32"/>
        <line x1="561.87707911" y1="44" x2="566.37707911" y2="44"/>
        <path d="M566.37707911,44 A1,1 0 0,0 567.37707911,43 "/>
        <path d="M567.37707911,33 A1,1 0 0,0 566.37707911,32 "/>
        <line x1="555.87707911" y1="16" x2="555.87707911" y2="21.5"/>
        <line x1="555.87707911" y1="16" x2="541.87707911" y2="16"/>
        <line x1="555.87707911" y1="21.5" x2="541.87707911" y2="21.5"/>
        <line x1="541.87707911" y1="21.5" x2="541.87707911" y2="16"/>
        <line x1="527.87707911" y1="16" x2="527.87707911" y2="21.5"/>
        <line x1="527.87707911" y1="16" x2="513.87707911" y2="16"/>
        <line x1="527.87707911" y1="21.5" x2="513.87707911" y2="21.5"/>
        <line x1="513.87707911" y1="21.5" x2="513.87707911" y2="16"/>
        <line x1="499.87707911" y1="16" x2="499.87707911" y2="21.5"/>
        <line x1="499.87707911" y1="16" x2="485.87707911" y2="16"/>
        <line x1="499.87707911" y1="21.5" x2="485.87707911" y2="21.5"/>
        <line x1="485.87707911" y1="21.5" x2="485.87707911" y2="16"/>
        <line x1="471.87707911" y1="16" x2="471.87707911" y2="21.5"/>
        <line x1="471.87707911" y1="16" x2="457.87707911" y2="16"/>
        <line x1="471.87707911" y1="21.5" x2="457.87707911" y2="21.5"/>
        <line x1="457.87707911" y1="21.5" x2="457.87707911" y2="16"/>
        <path d="M470.25430251,10 C474.23368832,6.85401928 479.10757259,4.33699673 484.55657103,2.61387212 C490.00556947,0.89074752 495.90800038,0 501.87707911,0 C507.84615783,-0 513.74858874,0.89074752 519.19758718,2.61387212 C524.64658562,4.33699673 529.52046989,6.85401928 533.49985571,10 "/>
        <line x1="561.87707911" y1="10" x2="533.49985571" y2="10"/>
        <line x1="561.87707911" y1="90" x2="561.87707911" y2="68"/>
        <line x1="561.87707911" y1="32" x2="561.87707911" y2="10"/>
        <line x1="12.37707911" y1="67" x2="12.37707911" y2="57"/>
        <line x1="17.87707911" y1="68" x2="13.37707911" y2="68"/>
        <line x1="17.87707911" y1="56" x2="13.37707911" y2="56"/>
        <path d="M13.37707911,56 A1,1 0 0,0 12.37707911,57 "/>
        <path d="M12.37707911,67 A1,1 0 0,0 13.37707911,68 "/>
        <line x1="17.87707911" y1="56" x2="17.87707911" y2="51.5"/>
        <line x1="23.87707911" y1="54.5" x2="23.87707911" y2="51.5"/>
        <line x1="23.87707911" y1="45.5" x2="23.87707911" y2="48.5"/>
        <line x1="23.87707911" y1="45.5" x2="26.87707911" y2="45.5"/>
        <line x1="23.87707911" y1="54.5" x2="26.87707911" y2="54.5"/>
        <line x1="26.87707911" y1="54.5" x2="26.87707911" y2="51.5"/>
        <line x1="26.87707911" y1="45.5" x2="26.87707911" y2="48.5"/>
        <line x1="23.87707911" y1="48.5" x2="17.87707911" y2="48.5"/>
        <line x1="17.87707911" y1="51.5" x2="23.87707911" y2="51.5"/>
        <line x1="26.87707911" y1="48.5" x2="29.87707911" y2="48.5"/>
        <line x1="29.87707911" y1="48.5" x2="29.87707911" y2="51.5"/>
        <line x1="26.87707911" y1="51.5" x2="29.87707911" y2="51.5"/>
        <line x1="17.87707911" y1="44" x2="17.87707911" y2="48.5"/>
        <line x1="26.87707911" y1="51.5" x2="29.87707911" y2="51.5"/>
        <line x1="29.87707911" y1="51.5" x2="29.87707911" y2="48.5"/>
        <line x1="12.37707911" y1="33" x2="12.37707911" y2="43"/>
        <line x1="17.87707911" y1="32" x2="13.37707911" y2="32"/>
        <line x1="17.87707911" y1="44" x2="13.37707911" y2="44"/>
        <path d="M12.37707911,43 A1,1 0 0,0 13.37707911,44 "/>
        <path d="M13.37707911,32 A1,1 0 0,0 12.37707911,33 "/>
        <line x1="107.87707911" y1="16" x2="107.87707911" y2="21.5"/>
        <line x1="107.87707911" y1="16" x2="93.87707911" y2="16"/>
        <line x1="107.87707911" y1="21.5" x2="93.87707911" y2="21.5"/>
        <line x1="93.87707911" y1="21.5" x2="93.87707911" y2="16"/>
        <line x1="79.87707911" y1="16" x2="79.87707911" y2="21.5"/>
        <line x1="79.87707911" y1="16" x2="65.87707911" y2="16"/>
        <line x1="79.87707911" y1="21.5" x2="65.87707911" y2="21.5"/>
        <line x1="65.87707911" y1="21.5" x2="65.87707911" y2="16"/>
        <line x1="51.87707911" y1="16" x2="51.87707911" y2="21.5"/>
        <line x1="51.87707911" y1="16" x2="37.87707911" y2="16"/>
        <line x1="51.87707911" y1="21.5" x2="37.87707911" y2="21.5"/>
        <line x1="37.87707911" y1="21.5" x2="37.87707911" y2="16"/>
        <path d="M46.25430251,10 C50.23368832,6.85401928 55.10757259,4.33699673 60.55657103,2.61387212 C66.00556947,0.89074752 71.90800038,0 77.87707911,0 C83.84615783,-0 89.74858874,0.89074752 95.19758718,2.61387212 C100.64658562,4.33699673 105.52046989,6.85401928 109.49985571,10 "/>
        <line x1="17.87707911" y1="10" x2="46.25430251" y2="10"/>
        <line x1="17.87707911" y1="90" x2="17.87707911" y2="68"/>
        <line x1="17.87707911" y1="32" x2="17.87707911" y2="10"/>
        <line x1="443.87707911" y1="16" x2="443.87707911" y2="21.5"/>
        <line x1="443.87707911" y1="16" x2="429.87707911" y2="16"/>
        <line x1="443.87707911" y1="21.5" x2="429.87707911" y2="21.5"/>
        <line x1="429.87707911" y1="21.5" x2="429.87707911" y2="16"/>
        <line x1="415.87707911" y1="16" x2="415.87707911" y2="21.5"/>
        <line x1="415.87707911" y1="16" x2="401.87707911" y2="16"/>
        <line x1="415.87707911" y1="21.5" x2="401.87707911" y2="21.5"/>
        <line x1="401.87707911" y1="21.5" x2="401.87707911" y2="16"/>
        <line x1="163.87707911" y1="16" x2="163.87707911" y2="21.5"/>
        <line x1="163.87707911" y1="16" x2="149.87707911" y2="16"/>
        <line x1="163.87707911" y1="21.5" x2="149.87707911" y2="21.5"/>
        <line x1="149.87707911" y1="21.5" x2="149.87707911" y2="16"/>
        <line x1="135.87707911" y1="16" x2="135.87707911" y2="21.5"/>
        <line x1="135.87707911" y1="16" x2="121.87707911" y2="16"/>
        <line x1="135.87707911" y1="21.5" x2="121.87707911" y2="21.5"/>
        <line x1="121.87707911" y1="21.5" x2="121.87707911" y2="16"/>
        <circle cx="196.67707911" cy="177.63" r="1.5"/>
        <circle cx="191.59707911" cy="125.56" r="1.5"/>
        <circle cx="196.67707911" cy="95.08" r="1.5"/>
        <circle cx="148.41707911" cy="176.36" r="1.5"/>
        <circle cx="148.41707911" cy="101.43" r="1.5"/>
        <circle cx="148.41707911" cy="177.63" r="1.5"/>
        <circle cx="153.49707911" cy="125.56" r="1.5"/>
        <circle cx="148.41707911" cy="95.08" r="1.5"/>
        <circle cx="196.67707911" cy="176.36" r="1.5"/>
        <circle cx="196.67707911" cy="101.43" r="1.5"/>
        <circle cx="196.67707911" cy="103.97" r="1.5"/>
        <circle cx="191.59707911" cy="156.04" r="1.5"/>
        <circle cx="196.67707911" cy="186.52" r="1.5"/>
        <circle cx="148.41707911" cy="105.24" r="1.5"/>
        <circle cx="148.41707911" cy="180.17" r="1.5"/>
        <circle cx="148.41707911" cy="103.97" r="1.5"/>
        <circle cx="153.49707911" cy="156.04" r="1.5"/>
        <circle cx="148.41707911" cy="186.52" r="1.5"/>
        <circle cx="196.67707911" cy="105.24" r="1.5"/>
        <circle cx="196.67707911" cy="180.17" r="1.5"/>
        <line x1="315.37707911" y1="90" x2="561.87707911" y2="90"/>
        <line x1="19.32827001" y1="95.18824276" x2="195.32827001" y2="385.18824276"/>
        <path d="M195.32827001,385.18824276 A10,10 0 0,0 203.87707911,390 "/>
        <path d="M17.87707911,90 A10,10 0 0,0 19.87707911,96 "/>
        <line x1="470.25430251" y1="10" x2="109.49985571" y2="10"/>
        <line x1="54.87707911" y1="396" x2="64.87707911" y2="396"/>
        <line x1="53.87707911" y1="390.5" x2="53.87707911" y2="395"/>
        <line x1="65.87707911" y1="390.5" x2="65.87707911" y2="395"/>
        <path d="M64.87707911,396 A1,1 0 0,0 65.87707911,395 "/>
        <path d="M53.87707911,395 A1,1 0 0,0 54.87707911,396 "/>
        <line x1="65.87707911" y1="390.5" x2="70.37707911" y2="390.5"/>
        <line x1="67.37707911" y1="384.5" x2="70.37707911" y2="384.5"/>
        <line x1="76.37707911" y1="384.5" x2="73.37707911" y2="384.5"/>
        <line x1="76.37707911" y1="384.5" x2="76.37707911" y2="381.5"/>
        <line x1="67.37707911" y1="384.5" x2="67.37707911" y2="381.5"/>
        <line x1="67.37707911" y1="381.5" x2="70.37707911" y2="381.5"/>
        <line x1="76.37707911" y1="381.5" x2="73.37707911" y2="381.5"/>
        <line x1="73.37707911" y1="384.5" x2="73.37707911" y2="390.5"/>
        <line x1="70.37707911" y1="390.5" x2="70.37707911" y2="384.5"/>
        <line x1="73.37707911" y1="381.5" x2="73.37707911" y2="378.5"/>
        <line x1="73.37707911" y1="378.5" x2="70.37707911" y2="378.5"/>
        <line x1="70.37707911" y1="381.5" x2="70.37707911" y2="378.5"/>
        <line x1="77.87707911" y1="390.5" x2="73.37707911" y2="390.5"/>
        <line x1="70.37707911" y1="381.5" x2="70.37707911" y2="378.5"/>
        <line x1="70.37707911" y1="378.5" x2="73.37707911" y2="378.5"/>
        <line x1="88.87707911" y1="396" x2="78.87707911" y2="396"/>
        <line x1="89.87707911" y1="390.5" x2="89.87707911" y2="395"/>
        <line x1="77.87707911" y1="390.5" x2="77.87707911" y2="395"/>
        <path d="M77.87707911,395 A1,1 0 0,0 78.87707911,396 "/>
        <path d="M88.87707911,396 A1,1 0 0,0 89.87707911,395 "/>
        <circle cx="51.87707911" cy="380.5" r="1.5"/>
        <circle cx="91.87707911" cy="380.5" r="1.5"/>
        <line x1="36.87707911" y1="390.5" x2="41.87707911" y2="390.5"/>
        <line x1="53.87707911" y1="390.5" x2="48.87707911" y2="390.5"/>
        <line x1="41.87707911" y1="390.5" x2="41.87707911" y2="388.5"/>
        <line x1="41.87707911" y1="388.5" x2="48.87707911" y2="388.5"/>
        <line x1="48.87707911" y1="388.5" x2="48.87707911" y2="390.5"/>
        <line x1="106.87707911" y1="390.5" x2="101.87707911" y2="390.5"/>
        <line x1="89.87707911" y1="390.5" x2="94.87707911" y2="390.5"/>
        <line x1="101.87707911" y1="390.5" x2="101.87707911" y2="388.5"/>
        <line x1="101.87707911" y1="388.5" x2="94.87707911" y2="388.5"/>
        <line x1="94.87707911" y1="388.5" x2="94.87707911" y2="390.5"/>
        <line x1="75.87707911" y1="342" x2="79.87707911" y2="342"/>
        <line x1="67.87707911" y1="342" x2="63.87707911" y2="342"/>
        <path d="M67.87707911,342 A4,4 0 1,0 75.87707911,342 "/>
        <circle cx="71.87707911" cy="355.5" r="1.5"/>
        <line x1="63.87707911" y1="342" x2="36.87707911" y2="390.5"/>
        <line x1="79.87707911" y1="342" x2="106.87707911" y2="390.5"/>
        <line x1="22.71951318" y1="378.0978499" x2="17.45135903" y2="369.59805274"/>
        <line x1="27.92121704" y1="376.05034483" x2="24.09630832" y2="378.4210142"/>
        <line x1="21.59943205" y1="365.85058824" x2="17.77452333" y2="368.22125761"/>
        <path d="M17.77452333,368.22125761 A1,1 0 0,0 17.45135903,369.59805274 "/>
        <path d="M22.71951318,378.0978499 A1,1 0 0,0 24.09630832,378.4210142 "/>
        <line x1="21.59943205" y1="365.85058824" x2="19.22876268" y2="362.02567951"/>
        <line x1="25.90908722" y1="361.41472617" x2="24.32864097" y2="358.86478702"/>
        <line x1="21.16774848" y1="353.76490872" x2="22.74819473" y2="356.31484787"/>
        <line x1="21.16774848" y1="353.76490872" x2="23.71768763" y2="352.18446247"/>
        <line x1="25.90908722" y1="361.41472617" x2="28.45902637" y2="359.83427992"/>
        <line x1="28.45902637" y1="359.83427992" x2="26.87858012" y2="357.28434077"/>
        <line x1="23.71768763" y1="352.18446247" x2="25.29813387" y2="354.73440162"/>
        <line x1="22.74819473" y1="356.31484787" x2="17.64831643" y2="359.47574037"/>
        <line x1="19.22876268" y1="362.02567951" x2="24.32864097" y2="358.86478702"/>
        <line x1="25.29813387" y1="354.73440162" x2="27.84807302" y2="353.15395538"/>
        <line x1="27.84807302" y1="353.15395538" x2="29.42851927" y2="355.70389452"/>
        <line x1="26.87858012" y1="357.28434077" x2="29.42851927" y2="355.70389452"/>
        <line x1="15.27764706" y1="355.65083164" x2="17.64831643" y2="359.47574037"/>
        <line x1="26.87858012" y1="357.28434077" x2="29.42851927" y2="355.70389452"/>
        <line x1="29.42851927" y1="355.70389452" x2="27.84807302" y2="353.15395538"/>
        <line x1="4.80778905" y1="349.19853955" x2="10.0759432" y2="357.69833671"/>
        <line x1="8.95586207" y1="345.45107505" x2="5.13095335" y2="347.82174442"/>
        <line x1="15.27764706" y1="355.65083164" x2="11.45273834" y2="358.02150101"/>
        <path d="M10.0759432,357.69833671 A1,1 0 0,0 11.45273834,358.02150101 "/>
        <path d="M5.13095335,347.82174442 A1,1 0 0,0 4.80778905,349.19853955 "/>
        <circle cx="37.47464503" cy="372.4821501" r="1.5"/>
        <circle cx="16.4020284" cy="338.48296146" r="1.5"/>
        <line x1="36.87707911" y1="390.5" x2="34.24300203" y2="386.25010142"/>
        <line x1="27.92121704" y1="376.05034483" x2="30.55529412" y2="380.30024341"/>
        <line x1="34.24300203" y1="386.25010142" x2="35.94296146" y2="385.19647059"/>
        <line x1="35.94296146" y1="385.19647059" x2="32.25525355" y2="379.24661258"/>
        <line x1="32.25525355" y1="379.24661258" x2="30.55529412" y2="380.30024341"/>
        <line x1="0" y1="331.00141988" x2="2.63407708" y2="335.25131846"/>
        <line x1="8.95586207" y1="345.45107505" x2="6.32178499" y2="341.20117647"/>
        <line x1="2.63407708" y1="335.25131846" x2="4.33403651" y2="334.19768763"/>
        <line x1="4.33403651" y1="334.19768763" x2="8.02174442" y2="340.14754564"/>
        <line x1="8.02174442" y1="340.14754564" x2="6.32178499" y2="341.20117647"/>
        <line x1="57.55529412" y1="331.80024341" x2="55.44803245" y2="328.40032454"/>
        <line x1="61.76981744" y1="338.60008114" x2="63.87707911" y2="342"/>
        <path d="M57.55529412,331.80024341 A4,4 0 1,0 61.76981744,338.60008114 "/>
        <circle cx="48.18782961" cy="342.31217039" r="1.5"/>
        <line x1="55.44803245" y1="328.40032454" x2="0" y2="331.00141988"/>
        <line x1="48.55124245" y1="261.15096472" x2="58.50732717" y2="260.21481466"/>
        <line x1="48.07051651" y1="266.72042632" x2="47.64924898" y2="262.2401882"/>
        <line x1="60.01781818" y1="265.59704625" x2="59.59655065" y2="261.11680812"/>
        <path d="M59.59655065,261.11680812 A1,1 0 0,0 58.50732717,260.21481466 "/>
        <path d="M48.55124245,261.15096472 A1,1 0 0,0 47.64924898,262.2401882 "/>
        <line x1="60.01781818" y1="265.59704625" x2="64.4980563" y2="265.17577872"/>
        <line x1="62.07292092" y1="271.43027458" x2="65.05974634" y2="271.14942956"/>
        <line x1="71.03339717" y1="270.58773952" x2="68.04657176" y2="270.86858454"/>
        <line x1="71.03339717" y1="270.58773952" x2="71.31424219" y2="273.57456494"/>
        <line x1="62.07292092" y1="271.43027458" x2="62.35376594" y2="274.41709999"/>
        <line x1="62.35376594" y1="274.41709999" x2="65.34059136" y2="274.13625498"/>
        <line x1="71.31424219" y1="273.57456494" x2="68.32741677" y2="273.85540996"/>
        <line x1="68.04657176" y1="270.86858454" x2="67.48488172" y2="264.89493371"/>
        <line x1="64.4980563" y1="265.17577872" x2="65.05974634" y2="271.14942956"/>
        <line x1="68.32741677" y1="273.85540996" x2="68.60826179" y2="276.84223538"/>
        <line x1="68.60826179" y1="276.84223538" x2="65.62143637" y2="277.12308039"/>
        <line x1="65.34059136" y1="274.13625498" x2="65.62143637" y2="277.12308039"/>
        <line x1="71.96511985" y1="264.47366618" x2="67.48488172" y2="264.89493371"/>
        <line x1="65.34059136" y1="274.13625498" x2="65.62143637" y2="277.12308039"/>
        <line x1="65.62143637" y1="277.12308039" x2="68.60826179" y2="276.84223538"/>
        <line x1="82.40193051" y1="257.96805451" x2="72.44584579" y2="258.90420457"/>
        <line x1="83.91242152" y1="263.35028611" x2="83.49115399" y2="258.87004798"/>
        <line x1="71.96511985" y1="264.47366618" x2="71.54385232" y2="259.99342805"/>
        <path d="M72.44584579,258.90420457 A1,1 0 0,0 71.54385232,259.99342805 "/>
        <path d="M83.49115399,258.87004798 A1,1 0 0,0 82.40193051,257.96805451 "/>
        <circle cx="47.01544962" cy="276.86374106" r="1.5"/>
        <circle cx="86.83978852" cy="273.11914082" r="1.5"/>
        <line x1="31.14517247" y1="268.31188142" x2="36.12321483" y2="267.84380639"/>
        <line x1="48.07051651" y1="266.72042632" x2="43.09247414" y2="267.18850135"/>
        <line x1="36.12321483" y1="267.84380639" x2="36.31044485" y2="269.83502334"/>
        <line x1="36.31044485" y1="269.83502334" x2="43.27970415" y2="269.1797183"/>
        <line x1="43.27970415" y1="269.1797183" x2="43.09247414" y2="267.18850135"/>
        <line x1="100.83776555" y1="261.75883101" x2="95.85972319" y2="262.22690604"/>
        <line x1="83.91242152" y1="263.35028611" x2="88.89046388" y2="262.88221108"/>
        <line x1="95.85972319" y1="262.22690604" x2="96.0469532" y2="264.21812298"/>
        <line x1="96.0469532" y1="264.21812298" x2="89.07769389" y2="264.87342802"/>
        <line x1="89.07769389" y1="264.87342802" x2="88.89046388" y2="262.88221108"/>
        <line x1="74.51423069" y1="312.94790711" x2="78.49666458" y2="312.57344709"/>
        <line x1="66.54936291" y1="313.69682716" x2="62.56692902" y2="314.07128718"/>
        <path d="M74.51423069,312.94790711 A4,4 0 1,0 66.54936291,313.69682716 "/>
        <circle cx="69.26799422" cy="299.88165276" r="1.5"/>
        <line x1="62.56692902" y1="314.07128718" x2="31.14517247" y2="268.31188142"/>
        <line x1="78.49666458" y1="312.57344709" x2="100.83776555" y2="261.75883101"/>
        <line x1="18.21080724" y1="281.98492776" x2="13.76149689" y2="290.94057611"/>
        <line x1="23.58134487" y1="283.53648362" x2="19.55130311" y2="281.53429396"/>
        <line x1="18.24217245" y1="294.28326164" x2="14.21213069" y2="292.28107198"/>
        <path d="M13.76149689,290.94057611 A1,1 0 0,0 14.21213069,292.28107198 "/>
        <path d="M19.55130311,281.53429396 A1,1 0 0,0 18.21080724,281.98492776 "/>
        <line x1="18.24217245" y1="294.28326164" x2="16.23998279" y2="298.3133034"/>
        <line x1="22.94816491" y1="298.2961951" x2="21.6133718" y2="300.98288961"/>
        <line x1="18.94378559" y1="306.35627862" x2="20.27857869" y2="303.66958412"/>
        <line x1="18.94378559" y1="306.35627862" x2="21.63048009" y2="307.69107173"/>
        <line x1="22.94816491" y1="298.2961951" x2="25.63485941" y2="299.63098821"/>
        <line x1="25.63485941" y1="299.63098821" x2="24.3000663" y2="302.31768272"/>
        <line x1="21.63048009" y1="307.69107173" x2="22.9652732" y2="305.00437722"/>
        <line x1="20.27857869" y1="303.66958412" x2="14.90518968" y2="300.9999979"/>
        <line x1="16.23998279" y1="298.3133034" x2="21.6133718" y2="300.98288961"/>
        <line x1="22.9652732" y1="305.00437722" x2="25.6519677" y2="306.33917033"/>
        <line x1="25.6519677" y1="306.33917033" x2="26.98676081" y2="303.65247582"/>
        <line x1="24.3000663" y1="302.31768272" x2="26.98676081" y2="303.65247582"/>
        <line x1="12.90300002" y1="305.03003966" x2="14.90518968" y2="300.9999979"/>
        <line x1="24.3000663" y1="302.31768272" x2="26.98676081" y2="303.65247582"/>
        <line x1="26.98676081" y1="303.65247582" x2="25.6519677" y2="306.33917033"/>
        <line x1="3.08315204" y1="312.43413215" x2="7.5324624" y2="303.4784838"/>
        <line x1="7.5638276" y1="315.77681768" x2="3.53378584" y2="313.77462802"/>
        <line x1="12.90300002" y1="305.03003966" x2="8.87295827" y2="303.02785"/>
        <path d="M8.87295827,303.02785 A1,1 0 0,0 7.5324624,303.4784838 "/>
        <path d="M3.08315204,312.43413215 A1,1 0 0,0 3.53378584,313.77462802 "/>
        <circle cx="33.42685529" cy="286.1946643" r="1.5"/>
        <circle cx="15.62961388" cy="322.01725771" r="1.5"/>
        <line x1="31.14517247" y1="268.31188142" x2="28.92051729" y2="272.7897056"/>
        <line x1="23.58134487" y1="283.53648362" x2="25.80600005" y2="279.05865944"/>
        <line x1="28.92051729" y1="272.7897056" x2="30.71164697" y2="273.67956767"/>
        <line x1="30.71164697" y1="273.67956767" x2="27.59712972" y2="279.94852151"/>
        <line x1="27.59712972" y1="279.94852151" x2="25.80600005" y2="279.05865944"/>
        <line x1="0" y1="331.00141988" x2="2.22465518" y2="326.5235957"/>
        <line x1="7.5638276" y1="315.77681768" x2="5.33917242" y2="320.25464186"/>
        <line x1="2.22465518" y1="326.5235957" x2="4.01578485" y2="327.41345777"/>
        <line x1="4.01578485" y1="327.41345777" x2="7.13030209" y2="321.14450393"/>
        <line x1="7.13030209" y1="321.14450393" x2="5.33917242" y2="320.25464186"/>
        <line x1="57.2277566" y1="324.8180652" x2="55.44803245" y2="328.40032454"/>
        <line x1="60.78720488" y1="317.65354652" x2="62.56692902" y2="314.07128718"/>
        <path d="M60.78720488,317.65354652 A4,4 0 1,0 57.2277566,324.8180652 "/>
        <circle cx="46.91735546" cy="315.22923689" r="1.5"/>
        <line x1="82.41560773" y1="340.25686049" x2="117.98314181" y2="382.87376464"/>
        <line x1="136.63265891" y1="299.87674818" x2="130.59193143" y2="291.90745639"/>
        <line x1="132.85362118" y1="303.99607747" x2="136.43980248" y2="301.2777501"/>
        <line x1="125.6047482" y1="294.43292733" x2="129.19092951" y2="291.71459996"/>
        <path d="M130.59193143,291.90745639 A1,1 0 0,0 129.19092951,291.71459996 "/>
        <path d="M136.43980248,301.2777501 A1,1 0 0,0 136.63265891,299.87674818 "/>
        <line x1="125.6047482" y1="294.43292733" x2="122.88642084" y2="290.84674602"/>
        <line x1="119.91706401" y1="296.86197004" x2="118.10484577" y2="294.47118251"/>
        <line x1="114.48040928" y1="289.68960744" x2="116.29262753" y2="292.08039497"/>
        <line x1="114.48040928" y1="289.68960744" x2="112.08962175" y2="291.50182568"/>
        <line x1="119.91706401" y1="296.86197004" x2="117.52627648" y2="298.67418829"/>
        <line x1="117.52627648" y1="298.67418829" x2="115.71405823" y2="296.28340075"/>
        <line x1="112.08962175" y1="291.50182568" x2="113.90183999" y2="293.89261322"/>
        <line x1="116.29262753" y1="292.08039497" x2="121.0742026" y2="288.45595849"/>
        <line x1="122.88642084" y1="290.84674602" x2="118.10484577" y2="294.47118251"/>
        <line x1="113.90183999" y1="293.89261322" x2="111.51105246" y2="295.70483146"/>
        <line x1="111.51105246" y1="295.70483146" x2="113.3232707" y2="298.09561899"/>
        <line x1="115.71405823" y1="296.28340075" x2="113.3232707" y2="298.09561899"/>
        <line x1="118.35587523" y1="284.86977718" x2="121.0742026" y2="288.45595849"/>
        <line x1="115.71405823" y1="296.28340075" x2="113.3232707" y2="298.09561899"/>
        <line x1="113.3232707" y1="298.09561899" x2="111.51105246" y2="295.70483146"/>
        <line x1="116.09418549" y1="272.78115611" x2="122.13491297" y2="280.75044789"/>
        <line x1="111.10700226" y1="275.30662704" x2="114.69318356" y2="272.58829968"/>
        <line x1="118.35587523" y1="284.86977718" x2="121.94205654" y2="282.15144982"/>
        <path d="M121.94205654,282.15144982 A1,1 0 0,0 122.13491297,280.75044789 "/>
        <path d="M116.09418549,272.78115611 A1,1 0 0,0 114.69318356,272.58829968 "/>
        <circle cx="126.09247489" cy="311.6306633" r="1.5"/>
        <circle cx="101.92956498" cy="279.75349616" r="1.5"/>
        <line x1="143.12285789" y1="317.5438735" x2="140.10249415" y2="313.55922761"/>
        <line x1="132.85362118" y1="303.99607747" x2="135.87398491" y2="307.98072336"/>
        <line x1="140.10249415" y1="313.55922761" x2="138.50863579" y2="314.76737311"/>
        <line x1="138.50863579" y1="314.76737311" x2="134.28012656" y2="309.18886886"/>
        <line x1="134.28012656" y1="309.18886886" x2="135.87398491" y2="307.98072336"/>
        <line x1="100.83776555" y1="261.75883101" x2="103.85812929" y2="265.7434769"/>
        <line x1="111.10700226" y1="275.30662704" x2="108.08663852" y2="271.32198115"/>
        <line x1="103.85812929" y1="265.7434769" x2="102.26427093" y2="266.95162239"/>
        <line x1="102.26427093" y1="266.95162239" x2="106.49278017" y2="272.53012664"/>
        <line x1="106.49278017" y1="272.53012664" x2="108.08663852" y2="271.32198115"/>
        <line x1="80.91295557" y1="315.7611638" x2="78.49666458" y2="312.57344709"/>
        <line x1="85.74553755" y1="322.13659723" x2="88.16182854" y2="325.32431394"/>
        <path d="M85.74553755,322.13659723 A4,4 0 1,0 80.91295557,315.7611638 "/>
        <circle cx="94.08779047" cy="310.79389842" r="1.5"/>
        <line x1="88.16182854" y1="325.32431394" x2="143.12285789" y2="317.5438735"/>
        <line x1="78.49666458" y1="312.57344709" x2="100.83776555" y2="261.75883101"/>
        <line x1="141.79142234" y1="336.31825177" x2="138.20003433" y2="345.65109336"/>
        <line x1="137.01749827" y1="333.40970421" x2="141.21727698" y2="335.02582881"/>
        <line x1="132.70783265" y1="344.60911411" x2="136.90761137" y2="346.22523872"/>
        <path d="M136.90761137,346.22523872 A1,1 0 0,0 138.20003433,345.65109336 "/>
        <path d="M141.79142234,336.31825177 A1,1 0 0,0 141.21727698,335.02582881 "/>
        <line x1="132.70783265" y1="344.60911411" x2="131.09170805" y2="348.80889283"/>
        <line x1="126.5694195" y1="343.85420755" x2="125.4920031" y2="346.65406002"/>
        <line x1="123.33717029" y1="352.25376498" x2="124.41458669" y2="349.4539125"/>
        <line x1="123.33717029" y1="352.25376498" x2="120.53731781" y2="351.17634858"/>
        <line x1="126.5694195" y1="343.85420755" x2="123.76956702" y2="342.77679114"/>
        <line x1="123.76956702" y1="342.77679114" x2="122.69215062" y2="345.57664362"/>
        <line x1="120.53731781" y1="351.17634858" x2="121.61473421" y2="348.3764961"/>
        <line x1="124.41458669" y1="349.4539125" x2="130.01429165" y2="351.60874531"/>
        <line x1="131.09170805" y1="348.80889283" x2="125.4920031" y2="346.65406002"/>
        <line x1="121.61473421" y1="348.3764961" x2="118.81488174" y2="347.29907969"/>
        <line x1="118.81488174" y1="347.29907969" x2="119.89229814" y2="344.49922722"/>
        <line x1="122.69215062" y1="345.57664362" x2="119.89229814" y2="344.49922722"/>
        <line x1="128.39816704" y1="355.80852402" x2="130.01429165" y2="351.60874531"/>
        <line x1="122.69215062" y1="345.57664362" x2="119.89229814" y2="344.49922722"/>
        <line x1="119.89229814" y1="344.49922722" x2="118.81488174" y2="347.29907969"/>
        <line x1="129.5807031" y1="368.04991318" x2="133.17209112" y2="358.71707159"/>
        <line x1="124.08850143" y1="367.00793393" x2="128.28828014" y2="368.62405854"/>
        <line x1="128.39816704" y1="355.80852402" x2="132.59794576" y2="357.42464863"/>
        <path d="M133.17209112,358.71707159 A1,1 0 0,0 132.59794576,357.42464863 "/>
        <path d="M128.28828014,368.62405854 A1,1 0 0,0 129.5807031,368.04991318 "/>
        <circle cx="128.40293428" cy="327.95174788" r="1.5"/>
        <circle cx="114.03738224" cy="365.28311424" r="1.5"/>
        <line x1="143.12285789" y1="317.5438735" x2="141.32716388" y2="322.2102943"/>
        <line x1="137.01749827" y1="333.40970421" x2="138.81319227" y2="328.74328341"/>
        <line x1="141.32716388" y1="322.2102943" x2="139.46059556" y2="321.4920167"/>
        <line x1="139.46059556" y1="321.4920167" x2="136.94662396" y2="328.02500581"/>
        <line x1="136.94662396" y1="328.02500581" x2="138.81319227" y2="328.74328341"/>
        <line x1="117.98314181" y1="382.87376464" x2="119.77883582" y2="378.20734384"/>
        <line x1="124.08850143" y1="367.00793393" x2="122.29280742" y2="371.67435473"/>
        <line x1="119.77883582" y1="378.20734384" x2="117.9122675" y2="377.48906624"/>
        <line x1="117.9122675" y1="377.48906624" x2="120.4262391" y2="370.95607713"/>
        <line x1="120.4262391" y1="370.95607713" x2="122.29280742" y2="371.67435473"/>
        <line x1="83.85216293" y1="336.52372385" x2="82.41560773" y2="340.25686049"/>
        <line x1="86.72527334" y1="329.05745058" x2="88.16182854" y2="325.32431394"/>
        <path d="M83.85216293,336.52372385 A4,4 0 1,0 86.72527334,329.05745058 "/>
        <circle cx="97.88805428" cy="337.63896103" r="1.5"/>
        <line x1="261.87707911" y1="362" x2="267.37707911" y2="362"/>
        <path d="M273.87707911,366 A2,2 0 0,1 271.87707911,368 "/>
        <path d="M267.37707911,366 A2,2 0 0,0 269.37707911,368 "/>
        <path d="M273.87707911,356 A2,2 0 0,0 271.87707911,354 "/>
        <line x1="261.87707911" y1="354" x2="271.87707911" y2="354"/>
        <line x1="273.87707911" y1="356" x2="273.87707911" y2="366"/>
        <line x1="267.37707911" y1="366" x2="267.37707911" y2="362"/>
        <line x1="271.87707911" y1="368" x2="269.37707911" y2="368"/>
        <line x1="261.87707911" y1="334" x2="267.37707911" y2="334"/>
        <path d="M273.87707911,338 A2,2 0 0,1 271.87707911,340 "/>
        <path d="M267.37707911,338 A2,2 0 0,0 269.37707911,340 "/>
        <path d="M273.87707911,328 A2,2 0 0,0 271.87707911,326 "/>
        <line x1="261.87707911" y1="326" x2="271.87707911" y2="326"/>
        <line x1="273.87707911" y1="328" x2="273.87707911" y2="338"/>
        <line x1="267.37707911" y1="338" x2="267.37707911" y2="334"/>
        <line x1="271.87707911" y1="340" x2="269.37707911" y2="340"/>
        <line x1="261.87707911" y1="306" x2="267.37707911" y2="306"/>
        <path d="M273.87707911,310 A2,2 0 0,1 271.87707911,312 "/>
        <path d="M267.37707911,310 A2,2 0 0,0 269.37707911,312 "/>
        <path d="M273.87707911,300 A2,2 0 0,0 271.87707911,298 "/>
        <line x1="261.87707911" y1="298" x2="271.87707911" y2="298"/>
        <line x1="273.87707911" y1="300" x2="273.87707911" y2="310"/>
        <line x1="267.37707911" y1="310" x2="267.37707911" y2="306"/>
        <line x1="271.87707911" y1="312" x2="269.37707911" y2="312"/>
        <line x1="261.87707911" y1="278" x2="267.37707911" y2="278"/>
        <path d="M273.87707911,282 A2,2 0 0,1 271.87707911,284 "/>
        <path d="M267.37707911,282 A2,2 0 0,0 269.37707911,284 "/>
        <path d="M273.87707911,272 A2,2 0 0,0 271.87707911,270 "/>
        <line x1="261.87707911" y1="270" x2="271.87707911" y2="270"/>
        <line x1="273.87707911" y1="272" x2="273.87707911" y2="282"/>
        <line x1="267.37707911" y1="282" x2="267.37707911" y2="278"/>
        <line x1="271.87707911" y1="284" x2="269.37707911" y2="284"/>
        <line x1="261.87707911" y1="250" x2="267.37707911" y2="250"/>
        <path d="M273.87707911,254 A2,2 0 0,1 271.87707911,256 "/>
        <path d="M267.37707911,254 A2,2 0 0,0 269.37707911,256 "/>
        <path d="M273.87707911,244 A2,2 0 0,0 271.87707911,242 "/>
        <line x1="261.87707911" y1="242" x2="271.87707911" y2="242"/>
        <line x1="273.87707911" y1="244" x2="273.87707911" y2="254"/>
        <line x1="267.37707911" y1="254" x2="267.37707911" y2="250"/>
        <line x1="271.87707911" y1="256" x2="269.37707911" y2="256"/>
        <line x1="261.87707911" y1="222" x2="267.37707911" y2="222"/>
        <path d="M273.87707911,226 A2,2 0 0,1 271.87707911,228 "/>
        <path d="M267.37707911,226 A2,2 0 0,0 269.37707911,228 "/>
        <path d="M273.87707911,216 A2,2 0 0,0 271.87707911,214 "/>
        <line x1="261.87707911" y1="214" x2="271.87707911" y2="214"/>
        <line x1="273.87707911" y1="216" x2="273.87707911" y2="226"/>
        <line x1="267.37707911" y1="226" x2="267.37707911" y2="222"/>
        <line x1="271.87707911" y1="228" x2="269.37707911" y2="228"/>
        <line x1="261.87707911" y1="194" x2="267.37707911" y2="194"/>
        <path d="M273.87707911,198 A2,2 0 0,1 271.87707911,200 "/>
        <path d="M267.37707911,198 A2,2 0 0,0 269.37707911,200 "/>
        <path d="M273.87707911,188 A2,2 0 0,0 271.87707911,186 "/>
        <line x1="261.87707911" y1="186" x2="271.87707911" y2="186"/>
        <line x1="273.87707911" y1="188" x2="273.87707911" y2="198"/>
        <line x1="267.37707911" y1="198" x2="267.37707911" y2="194"/>
        <line x1="271.87707911" y1="200" x2="269.37707911" y2="200"/>
        <line x1="261.87707911" y1="166" x2="267.37707911" y2="166"/>
        <path d="M273.87707911,170 A2,2 0 0,1 271.87707911,172 "/>
        <path d="M267.37707911,170 A2,2 0 0,0 269.37707911,172 "/>
        <path d="M273.87707911,160 A2,2 0 0,0 271.87707911,158 "/>
        <line x1="261.87707911" y1="158" x2="271.87707911" y2="158"/>
        <line x1="273.87707911" y1="160" x2="273.87707911" y2="170"/>
        <line x1="267.37707911" y1="170" x2="267.37707911" y2="166"/>
        <line x1="271.87707911" y1="172" x2="269.37707911" y2="172"/>
        <line x1="261.87707911" y1="138" x2="267.37707911" y2="138"/>
        <path d="M273.87707911,142 A2,2 0 0,1 271.87707911,144 "/>
        <path d="M267.37707911,142 A2,2 0 0,0 269.37707911,144 "/>
        <path d="M273.87707911,132 A2,2 0 0,0 271.87707911,130 "/>
        <line x1="261.87707911" y1="130" x2="271.87707911" y2="130"/>
        <line x1="273.87707911" y1="132" x2="273.87707911" y2="142"/>
        <line x1="267.37707911" y1="142" x2="267.37707911" y2="138"/>
        <line x1="271.87707911" y1="144" x2="269.37707911" y2="144"/>
        <line x1="261.87707911" y1="110" x2="267.37707911" y2="110"/>
        <path d="M273.87707911,114 A2,2 0 0,1 271.87707911,116 "/>
        <path d="M267.37707911,114 A2,2 0 0,0 269.37707911,116 "/>
        <path d="M273.87707911,104 A2,2 0 0,0 271.87707911,102 "/>
        <line x1="261.87707911" y1="102" x2="271.87707911" y2="102"/>
        <line x1="273.87707911" y1="104" x2="273.87707911" y2="114"/>
        <line x1="267.37707911" y1="114" x2="267.37707911" y2="110"/>
        <line x1="271.87707911" y1="116" x2="269.37707911" y2="116"/>
        <line x1="638.87707911" y1="396" x2="644.37707911" y2="396"/>
        <line x1="638.87707911" y1="382" x2="644.37707911" y2="382"/>
        <line x1="638.87707911" y1="382" x2="638.87707911" y2="396"/>
        <line x1="644.37707911" y1="382" x2="644.37707911" y2="396"/>
        <line x1="638.87707911" y1="368" x2="644.37707911" y2="368"/>
        <line x1="638.87707911" y1="354" x2="644.37707911" y2="354"/>
        <line x1="638.87707911" y1="354" x2="638.87707911" y2="368"/>
        <line x1="644.37707911" y1="354" x2="644.37707911" y2="368"/>
        <line x1="638.87707911" y1="340" x2="644.37707911" y2="340"/>
        <line x1="638.87707911" y1="326" x2="644.37707911" y2="326"/>
        <line x1="638.87707911" y1="326" x2="638.87707911" y2="340"/>
        <line x1="644.37707911" y1="326" x2="644.37707911" y2="340"/>
        <line x1="638.87707911" y1="312" x2="644.37707911" y2="312"/>
        <line x1="638.87707911" y1="298" x2="644.37707911" y2="298"/>
        <line x1="638.87707911" y1="298" x2="638.87707911" y2="312"/>
        <line x1="644.37707911" y1="298" x2="644.37707911" y2="312"/>
        <line x1="638.87707911" y1="284" x2="644.37707911" y2="284"/>
        <line x1="638.87707911" y1="270" x2="644.37707911" y2="270"/>
        <line x1="638.87707911" y1="270" x2="638.87707911" y2="284"/>
        <line x1="644.37707911" y1="270" x2="644.37707911" y2="284"/>
        <line x1="638.87707911" y1="256" x2="644.37707911" y2="256"/>
        <line x1="638.87707911" y1="242" x2="644.37707911" y2="242"/>
        <line x1="638.87707911" y1="242" x2="638.87707911" y2="256"/>
        <line x1="644.37707911" y1="242" x2="644.37707911" y2="256"/>
        <line x1="638.87707911" y1="228" x2="644.37707911" y2="228"/>
        <line x1="638.87707911" y1="214" x2="644.37707911" y2="214"/>
        <line x1="638.87707911" y1="214" x2="638.87707911" y2="228"/>
        <line x1="644.37707911" y1="214" x2="644.37707911" y2="228"/>
        <line x1="638.87707911" y1="200" x2="644.37707911" y2="200"/>
        <line x1="638.87707911" y1="186" x2="644.37707911" y2="186"/>
        <line x1="638.87707911" y1="186" x2="638.87707911" y2="200"/>
        <line x1="644.37707911" y1="186" x2="644.37707911" y2="200"/>
        <line x1="638.87707911" y1="172" x2="644.37707911" y2="172"/>
        <line x1="638.87707911" y1="158" x2="644.37707911" y2="158"/>
        <line x1="638.87707911" y1="158" x2="638.87707911" y2="172"/>
        <line x1="644.37707911" y1="158" x2="644.37707911" y2="172"/>
        <line x1="638.87707911" y1="144" x2="644.37707911" y2="144"/>
        <line x1="638.87707911" y1="130" x2="644.37707911" y2="130"/>
        <line x1="638.87707911" y1="130" x2="638.87707911" y2="144"/>
        <line x1="644.37707911" y1="130" x2="644.37707911" y2="144"/>
        <line x1="644.37707911" y1="402" x2="632.87707911" y2="402"/>
        <line x1="338.87707911" y1="396" x2="333.37707911" y2="396"/>
        <line x1="338.87707911" y1="382" x2="333.37707911" y2="382"/>
        <line x1="338.87707911" y1="382" x2="338.87707911" y2="396"/>
        <line x1="333.37707911" y1="382" x2="333.37707911" y2="396"/>
        <line x1="338.87707911" y1="368" x2="333.37707911" y2="368"/>
        <line x1="338.87707911" y1="354" x2="333.37707911" y2="354"/>
        <line x1="338.87707911" y1="354" x2="338.87707911" y2="368"/>
        <line x1="333.37707911" y1="354" x2="333.37707911" y2="368"/>
        <line x1="338.87707911" y1="340" x2="333.37707911" y2="340"/>
        <line x1="338.87707911" y1="326" x2="333.37707911" y2="326"/>
        <line x1="338.87707911" y1="326" x2="338.87707911" y2="340"/>
        <line x1="333.37707911" y1="326" x2="333.37707911" y2="340"/>
        <line x1="338.87707911" y1="312" x2="333.37707911" y2="312"/>
        <line x1="338.87707911" y1="298" x2="333.37707911" y2="298"/>
        <line x1="338.87707911" y1="298" x2="338.87707911" y2="312"/>
        <line x1="333.37707911" y1="298" x2="333.37707911" y2="312"/>
        <line x1="338.87707911" y1="284" x2="333.37707911" y2="284"/>
        <line x1="338.87707911" y1="270" x2="333.37707911" y2="270"/>
        <line x1="338.87707911" y1="270" x2="338.87707911" y2="284"/>
        <line x1="333.37707911" y1="270" x2="333.37707911" y2="284"/>
        <line x1="338.87707911" y1="256" x2="333.37707911" y2="256"/>
        <line x1="338.87707911" y1="242" x2="333.37707911" y2="242"/>
        <line x1="338.87707911" y1="242" x2="338.87707911" y2="256"/>
        <line x1="333.37707911" y1="242" x2="333.37707911" y2="256"/>
        <line x1="338.87707911" y1="228" x2="333.37707911" y2="228"/>
        <line x1="338.87707911" y1="214" x2="333.37707911" y2="214"/>
        <line x1="338.87707911" y1="214" x2="338.87707911" y2="228"/>
        <line x1="333.37707911" y1="214" x2="333.37707911" y2="228"/>
        <line x1="338.87707911" y1="200" x2="333.37707911" y2="200"/>
        <line x1="338.87707911" y1="186" x2="333.37707911" y2="186"/>
        <line x1="338.87707911" y1="186" x2="338.87707911" y2="200"/>
        <line x1="333.37707911" y1="186" x2="333.37707911" y2="200"/>
        <line x1="338.87707911" y1="172" x2="333.37707911" y2="172"/>
        <line x1="338.87707911" y1="158" x2="333.37707911" y2="158"/>
        <line x1="338.87707911" y1="158" x2="338.87707911" y2="172"/>
        <line x1="333.37707911" y1="158" x2="333.37707911" y2="172"/>
        <line x1="338.87707911" y1="144" x2="333.37707911" y2="144"/>
        <line x1="338.87707911" y1="130" x2="333.37707911" y2="130"/>
        <line x1="338.87707911" y1="130" x2="338.87707911" y2="144"/>
        <line x1="333.37707911" y1="130" x2="333.37707911" y2="144"/>
        <line x1="333.37707911" y1="402" x2="344.87707911" y2="402"/>
        <line x1="344.87707911" y1="402" x2="344.87707911" y2="172"/>
        <line x1="344.87707911" y1="172" x2="632.87707911" y2="172"/>
        <line x1="632.87707911" y1="172" x2="632.87707911" y2="402"/>
        <line x1="350.87707911" y1="102" x2="338.87707911" y2="102"/>
        <line x1="386.87707911" y1="102" x2="398.87707911" y2="102"/>
        <line x1="410.87707911" y1="102" x2="422.87707911" y2="102"/>
        <line x1="434.87707911" y1="102" x2="446.87707911" y2="102"/>
        <line x1="458.87707911" y1="102" x2="470.87707911" y2="102"/>
        <line x1="506.87707911" y1="102" x2="518.87707911" y2="102"/>
        <line x1="530.87707911" y1="102" x2="542.87707911" y2="102"/>
        <line x1="554.87707911" y1="102" x2="566.87707911" y2="102"/>
        <line x1="578.87707911" y1="102" x2="590.87707911" y2="102"/>
        <line x1="626.87707911" y1="102" x2="638.87707911" y2="102"/>
        <line x1="482.87707911" y1="102" x2="487.37707911" y2="102"/>
        <line x1="484.37707911" y1="108" x2="487.37707911" y2="108"/>
        <line x1="493.37707911" y1="108" x2="490.37707911" y2="108"/>
        <line x1="493.37707911" y1="108" x2="493.37707911" y2="111"/>
        <line x1="484.37707911" y1="108" x2="484.37707911" y2="111"/>
        <line x1="484.37707911" y1="111" x2="487.37707911" y2="111"/>
        <line x1="493.37707911" y1="111" x2="490.37707911" y2="111"/>
        <line x1="490.37707911" y1="108" x2="490.37707911" y2="102"/>
        <line x1="487.37707911" y1="102" x2="487.37707911" y2="108"/>
        <line x1="490.37707911" y1="111" x2="490.37707911" y2="114"/>
        <line x1="490.37707911" y1="114" x2="487.37707911" y2="114"/>
        <line x1="487.37707911" y1="111" x2="487.37707911" y2="114"/>
        <line x1="494.87707911" y1="102" x2="490.37707911" y2="102"/>
        <line x1="487.37707911" y1="111" x2="487.37707911" y2="114"/>
        <line x1="487.37707911" y1="114" x2="490.37707911" y2="114"/>
        <line x1="650.87707911" y1="102" x2="662.87707911" y2="102"/>
        <line x1="702.87707911" y1="102" x2="698.87707911" y2="102"/>
        <line x1="326.87707911" y1="102" x2="314.87707911" y2="102"/>
        <line x1="274.87707911" y1="102" x2="278.87707911" y2="102"/>
        <line x1="290.87707911" y1="102" x2="295.37707911" y2="102"/>
        <line x1="292.37707911" y1="108" x2="295.37707911" y2="108"/>
        <line x1="301.37707911" y1="108" x2="298.37707911" y2="108"/>
        <line x1="301.37707911" y1="108" x2="301.37707911" y2="111"/>
        <line x1="292.37707911" y1="108" x2="292.37707911" y2="111"/>
        <line x1="292.37707911" y1="111" x2="295.37707911" y2="111"/>
        <line x1="301.37707911" y1="111" x2="298.37707911" y2="111"/>
        <line x1="298.37707911" y1="108" x2="298.37707911" y2="102"/>
        <line x1="295.37707911" y1="102" x2="295.37707911" y2="108"/>
        <line x1="298.37707911" y1="111" x2="298.37707911" y2="114"/>
        <line x1="298.37707911" y1="114" x2="295.37707911" y2="114"/>
        <line x1="295.37707911" y1="111" x2="295.37707911" y2="114"/>
        <line x1="302.87707911" y1="102" x2="298.37707911" y2="102"/>
        <line x1="295.37707911" y1="111" x2="295.37707911" y2="114"/>
        <line x1="295.37707911" y1="114" x2="298.37707911" y2="114"/>
        <line x1="362.87707911" y1="102" x2="374.87707911" y2="102"/>
        <line x1="674.87707911" y1="102" x2="679.37707911" y2="102"/>
        <line x1="676.37707911" y1="108" x2="679.37707911" y2="108"/>
        <line x1="685.37707911" y1="108" x2="682.37707911" y2="108"/>
        <line x1="685.37707911" y1="108" x2="685.37707911" y2="111"/>
        <line x1="676.37707911" y1="108" x2="676.37707911" y2="111"/>
        <line x1="676.37707911" y1="111" x2="679.37707911" y2="111"/>
        <line x1="685.37707911" y1="111" x2="682.37707911" y2="111"/>
        <line x1="682.37707911" y1="108" x2="682.37707911" y2="102"/>
        <line x1="679.37707911" y1="102" x2="679.37707911" y2="108"/>
        <line x1="682.37707911" y1="111" x2="682.37707911" y2="114"/>
        <line x1="682.37707911" y1="114" x2="679.37707911" y2="114"/>
        <line x1="679.37707911" y1="111" x2="679.37707911" y2="114"/>
        <line x1="686.87707911" y1="102" x2="682.37707911" y2="102"/>
        <line x1="679.37707911" y1="111" x2="679.37707911" y2="114"/>
        <line x1="679.37707911" y1="114" x2="682.37707911" y2="114"/>
        <line x1="602.87707911" y1="102" x2="614.87707911" y2="102"/>
        <line x1="504.87707911" y1="496" x2="504.87707911" y2="172"/>
        <line x1="498.87707911" y1="472" x2="498.87707911" y2="460"/>
        <line x1="498.87707911" y1="460" x2="493.37707911" y2="460"/>
        <line x1="493.37707911" y1="460" x2="493.37707911" y2="472"/>
        <line x1="493.37707911" y1="472" x2="498.87707911" y2="472"/>
        <line x1="498.87707911" y1="448" x2="498.87707911" y2="436"/>
        <line x1="498.87707911" y1="436" x2="493.37707911" y2="436"/>
        <line x1="493.37707911" y1="436" x2="493.37707911" y2="448"/>
        <line x1="493.37707911" y1="448" x2="498.87707911" y2="448"/>
        <line x1="498.87707911" y1="424" x2="498.87707911" y2="412"/>
        <line x1="498.87707911" y1="412" x2="493.37707911" y2="412"/>
        <line x1="493.37707911" y1="412" x2="493.37707911" y2="424"/>
        <line x1="493.37707911" y1="424" x2="498.87707911" y2="424"/>
        <line x1="498.87707911" y1="400" x2="498.87707911" y2="388"/>
        <line x1="498.87707911" y1="388" x2="493.37707911" y2="388"/>
        <line x1="493.37707911" y1="388" x2="493.37707911" y2="400"/>
        <line x1="493.37707911" y1="400" x2="498.87707911" y2="400"/>
        <line x1="498.87707911" y1="376" x2="498.87707911" y2="364"/>
        <line x1="498.87707911" y1="364" x2="493.37707911" y2="364"/>
        <line x1="493.37707911" y1="364" x2="493.37707911" y2="376"/>
        <line x1="493.37707911" y1="376" x2="498.87707911" y2="376"/>
        <line x1="498.87707911" y1="352" x2="498.87707911" y2="340"/>
        <line x1="498.87707911" y1="340" x2="493.37707911" y2="340"/>
        <line x1="493.37707911" y1="340" x2="493.37707911" y2="352"/>
        <line x1="493.37707911" y1="352" x2="498.87707911" y2="352"/>
        <line x1="498.87707911" y1="328" x2="498.87707911" y2="316"/>
        <line x1="498.87707911" y1="316" x2="493.37707911" y2="316"/>
        <line x1="493.37707911" y1="316" x2="493.37707911" y2="328"/>
        <line x1="493.37707911" y1="328" x2="498.87707911" y2="328"/>
        <line x1="498.87707911" y1="304" x2="498.87707911" y2="292"/>
        <line x1="498.87707911" y1="292" x2="493.37707911" y2="292"/>
        <line x1="493.37707911" y1="292" x2="493.37707911" y2="304"/>
        <line x1="493.37707911" y1="304" x2="498.87707911" y2="304"/>
        <line x1="498.87707911" y1="280" x2="498.87707911" y2="268"/>
        <line x1="498.87707911" y1="268" x2="493.37707911" y2="268"/>
        <line x1="493.37707911" y1="268" x2="493.37707911" y2="280"/>
        <line x1="493.37707911" y1="280" x2="498.87707911" y2="280"/>
        <line x1="498.87707911" y1="256" x2="498.87707911" y2="244"/>
        <line x1="498.87707911" y1="244" x2="493.37707911" y2="244"/>
        <line x1="493.37707911" y1="244" x2="493.37707911" y2="256"/>
        <line x1="493.37707911" y1="256" x2="498.87707911" y2="256"/>
        <line x1="498.87707911" y1="232" x2="498.87707911" y2="220"/>
        <line x1="498.87707911" y1="220" x2="493.37707911" y2="220"/>
        <line x1="493.37707911" y1="220" x2="493.37707911" y2="232"/>
        <line x1="493.37707911" y1="232" x2="498.87707911" y2="232"/>
        <line x1="498.87707911" y1="208" x2="498.87707911" y2="196"/>
        <line x1="498.87707911" y1="196" x2="493.37707911" y2="196"/>
        <line x1="493.37707911" y1="196" x2="493.37707911" y2="208"/>
        <line x1="493.37707911" y1="208" x2="498.87707911" y2="208"/>
        <circle cx="496.12707911" cy="454" r="1.5"/>
        <circle cx="496.12707911" cy="214" r="1.5"/>
        <line x1="446.87707911" y1="178.5" x2="446.87707911" y2="184"/>
        <line x1="446.87707911" y1="178.5" x2="458.87707911" y2="178.5"/>
        <line x1="446.87707911" y1="184" x2="458.87707911" y2="184"/>
        <line x1="458.87707911" y1="184" x2="458.87707911" y2="178.5"/>
        <line x1="470.87707911" y1="178.5" x2="470.87707911" y2="184"/>
        <line x1="470.87707911" y1="178.5" x2="482.87707911" y2="178.5"/>
        <line x1="470.87707911" y1="184" x2="482.87707911" y2="184"/>
        <line x1="482.87707911" y1="184" x2="482.87707911" y2="178.5"/>
        <circle cx="464.87707911" cy="181.25" r="1.5"/>
        <line x1="446.87707911" y1="489.5" x2="446.87707911" y2="484"/>
        <line x1="446.87707911" y1="489.5" x2="458.87707911" y2="489.5"/>
        <line x1="446.87707911" y1="484" x2="458.87707911" y2="484"/>
        <line x1="458.87707911" y1="484" x2="458.87707911" y2="489.5"/>
        <line x1="470.87707911" y1="489.5" x2="470.87707911" y2="484"/>
        <line x1="470.87707911" y1="489.5" x2="482.87707911" y2="489.5"/>
        <line x1="470.87707911" y1="484" x2="482.87707911" y2="484"/>
        <line x1="482.87707911" y1="484" x2="482.87707911" y2="489.5"/>
        <circle cx="464.87707911" cy="486.75" r="1.5"/>
        <line x1="424.87707911" y1="496" x2="424.87707911" y2="172"/>
        <line x1="424.87707911" y1="172" x2="504.87707911" y2="172"/>
        <line x1="424.87707911" y1="496" x2="504.87707911" y2="496"/>
        <line x1="488.62707911" y1="345" x2="488.62707911" y2="339.5"/>
        <line x1="488.62707911" y1="345" x2="476.62707911" y2="345"/>
        <line x1="488.62707911" y1="339.5" x2="476.62707911" y2="339.5"/>
        <line x1="476.62707911" y1="339.5" x2="476.62707911" y2="345"/>
        <line x1="464.62707911" y1="345" x2="464.62707911" y2="339.5"/>
        <line x1="464.62707911" y1="345" x2="452.62707911" y2="345"/>
        <line x1="464.62707911" y1="339.5" x2="452.62707911" y2="339.5"/>
        <line x1="452.62707911" y1="339.5" x2="452.62707911" y2="345"/>
        <circle cx="470.62707911" cy="342.25" r="1.5"/>
        <line x1="488.62707911" y1="328.5" x2="488.62707911" y2="323"/>
        <line x1="488.62707911" y1="328.5" x2="476.62707911" y2="328.5"/>
        <line x1="488.62707911" y1="323" x2="476.62707911" y2="323"/>
        <line x1="476.62707911" y1="323" x2="476.62707911" y2="328.5"/>
        <line x1="464.62707911" y1="328.5" x2="464.62707911" y2="323"/>
        <line x1="464.62707911" y1="328.5" x2="452.62707911" y2="328.5"/>
        <line x1="464.62707911" y1="323" x2="452.62707911" y2="323"/>
        <line x1="452.62707911" y1="323" x2="452.62707911" y2="328.5"/>
        <circle cx="470.62707911" cy="325.75" r="1.5"/>
        <line x1="488.62707911" y1="317.5" x2="488.62707911" y2="312"/>
        <line x1="488.62707911" y1="317.5" x2="476.62707911" y2="317.5"/>
        <line x1="488.62707911" y1="312" x2="476.62707911" y2="312"/>
        <line x1="476.62707911" y1="312" x2="476.62707911" y2="317.5"/>
        <line x1="464.62707911" y1="317.5" x2="464.62707911" y2="312"/>
        <line x1="464.62707911" y1="317.5" x2="452.62707911" y2="317.5"/>
        <line x1="464.62707911" y1="312" x2="452.62707911" y2="312"/>
        <line x1="452.62707911" y1="312" x2="452.62707911" y2="317.5"/>
        <circle cx="470.62707911" cy="314.75" r="1.5"/>
        <line x1="488.62707911" y1="356" x2="488.62707911" y2="350.5"/>
        <line x1="488.62707911" y1="356" x2="476.62707911" y2="356"/>
        <line x1="488.62707911" y1="350.5" x2="476.62707911" y2="350.5"/>
        <line x1="476.62707911" y1="350.5" x2="476.62707911" y2="356"/>
        <line x1="464.62707911" y1="356" x2="464.62707911" y2="350.5"/>
        <line x1="464.62707911" y1="356" x2="452.62707911" y2="356"/>
        <line x1="464.62707911" y1="350.5" x2="452.62707911" y2="350.5"/>
        <line x1="452.62707911" y1="350.5" x2="452.62707911" y2="356"/>
        <circle cx="470.62707911" cy="353.25" r="1.5"/>
        <line x1="446.87707911" y1="424" x2="446.87707911" y2="418.5"/>
        <line x1="446.87707911" y1="424" x2="458.87707911" y2="424"/>
        <line x1="446.87707911" y1="418.5" x2="458.87707911" y2="418.5"/>
        <line x1="458.87707911" y1="418.5" x2="458.87707911" y2="424"/>
        <line x1="470.87707911" y1="424" x2="470.87707911" y2="418.5"/>
        <line x1="470.87707911" y1="424" x2="482.87707911" y2="424"/>
        <line x1="470.87707911" y1="418.5" x2="482.87707911" y2="418.5"/>
        <line x1="482.87707911" y1="418.5" x2="482.87707911" y2="424"/>
        <circle cx="464.87707911" cy="421.25" r="1.5"/>
        <line x1="446.87707911" y1="244" x2="446.87707911" y2="249.5"/>
        <line x1="446.87707911" y1="244" x2="458.87707911" y2="244"/>
        <line x1="446.87707911" y1="249.5" x2="458.87707911" y2="249.5"/>
        <line x1="458.87707911" y1="249.5" x2="458.87707911" y2="244"/>
        <line x1="470.87707911" y1="244" x2="470.87707911" y2="249.5"/>
        <line x1="470.87707911" y1="244" x2="482.87707911" y2="244"/>
        <line x1="470.87707911" y1="249.5" x2="482.87707911" y2="249.5"/>
        <line x1="482.87707911" y1="249.5" x2="482.87707911" y2="244"/>
        <circle cx="464.87707911" cy="246.75" r="1.5"/>
        <line x1="418.87707911" y1="472" x2="418.87707911" y2="460"/>
        <line x1="418.87707911" y1="460" x2="413.37707911" y2="460"/>
        <line x1="413.37707911" y1="460" x2="413.37707911" y2="472"/>
        <line x1="413.37707911" y1="472" x2="418.87707911" y2="472"/>
        <line x1="418.87707911" y1="448" x2="418.87707911" y2="436"/>
        <line x1="418.87707911" y1="436" x2="413.37707911" y2="436"/>
        <line x1="413.37707911" y1="436" x2="413.37707911" y2="448"/>
        <line x1="413.37707911" y1="448" x2="418.87707911" y2="448"/>
        <line x1="418.87707911" y1="424" x2="418.87707911" y2="412"/>
        <line x1="418.87707911" y1="412" x2="413.37707911" y2="412"/>
        <line x1="413.37707911" y1="412" x2="413.37707911" y2="424"/>
        <line x1="413.37707911" y1="424" x2="418.87707911" y2="424"/>
        <line x1="418.87707911" y1="400" x2="418.87707911" y2="388"/>
        <line x1="418.87707911" y1="388" x2="413.37707911" y2="388"/>
        <line x1="413.37707911" y1="388" x2="413.37707911" y2="400"/>
        <line x1="413.37707911" y1="400" x2="418.87707911" y2="400"/>
        <line x1="418.87707911" y1="376" x2="418.87707911" y2="364"/>
        <line x1="418.87707911" y1="364" x2="413.37707911" y2="364"/>
        <line x1="413.37707911" y1="364" x2="413.37707911" y2="376"/>
        <line x1="413.37707911" y1="376" x2="418.87707911" y2="376"/>
        <line x1="418.87707911" y1="352" x2="418.87707911" y2="340"/>
        <line x1="418.87707911" y1="340" x2="413.37707911" y2="340"/>
        <line x1="413.37707911" y1="340" x2="413.37707911" y2="352"/>
        <line x1="413.37707911" y1="352" x2="418.87707911" y2="352"/>
        <line x1="418.87707911" y1="328" x2="418.87707911" y2="316"/>
        <line x1="418.87707911" y1="316" x2="413.37707911" y2="316"/>
        <line x1="413.37707911" y1="316" x2="413.37707911" y2="328"/>
        <line x1="413.37707911" y1="328" x2="418.87707911" y2="328"/>
        <line x1="418.87707911" y1="304" x2="418.87707911" y2="292"/>
        <line x1="418.87707911" y1="292" x2="413.37707911" y2="292"/>
        <line x1="413.37707911" y1="292" x2="413.37707911" y2="304"/>
        <line x1="413.37707911" y1="304" x2="418.87707911" y2="304"/>
        <line x1="418.87707911" y1="280" x2="418.87707911" y2="268"/>
        <line x1="418.87707911" y1="268" x2="413.37707911" y2="268"/>
        <line x1="413.37707911" y1="268" x2="413.37707911" y2="280"/>
        <line x1="413.37707911" y1="280" x2="418.87707911" y2="280"/>
        <line x1="418.87707911" y1="256" x2="418.87707911" y2="244"/>
        <line x1="418.87707911" y1="244" x2="413.37707911" y2="244"/>
        <line x1="413.37707911" y1="244" x2="413.37707911" y2="256"/>
        <line x1="413.37707911" y1="256" x2="418.87707911" y2="256"/>
        <line x1="418.87707911" y1="232" x2="418.87707911" y2="220"/>
        <line x1="418.87707911" y1="220" x2="413.37707911" y2="220"/>
        <line x1="413.37707911" y1="220" x2="413.37707911" y2="232"/>
        <line x1="413.37707911" y1="232" x2="418.87707911" y2="232"/>
        <line x1="418.87707911" y1="208" x2="418.87707911" y2="196"/>
        <line x1="418.87707911" y1="196" x2="413.37707911" y2="196"/>
        <line x1="413.37707911" y1="196" x2="413.37707911" y2="208"/>
        <line x1="413.37707911" y1="208" x2="418.87707911" y2="208"/>
        <circle cx="416.12707911" cy="454" r="1.5"/>
        <circle cx="416.12707911" cy="214" r="1.5"/>
        <line x1="366.87707911" y1="178.5" x2="366.87707911" y2="184"/>
        <line x1="366.87707911" y1="178.5" x2="378.87707911" y2="178.5"/>
        <line x1="366.87707911" y1="184" x2="378.87707911" y2="184"/>
        <line x1="378.87707911" y1="184" x2="378.87707911" y2="178.5"/>
        <line x1="390.87707911" y1="178.5" x2="390.87707911" y2="184"/>
        <line x1="390.87707911" y1="178.5" x2="402.87707911" y2="178.5"/>
        <line x1="390.87707911" y1="184" x2="402.87707911" y2="184"/>
        <line x1="402.87707911" y1="184" x2="402.87707911" y2="178.5"/>
        <circle cx="384.87707911" cy="181.25" r="1.5"/>
        <line x1="344.87707911" y1="496" x2="344.87707911" y2="172"/>
        <line x1="344.87707911" y1="172" x2="424.87707911" y2="172"/>
        <line x1="344.87707911" y1="496" x2="424.87707911" y2="496"/>
        <line x1="366.87707911" y1="324.5" x2="366.87707911" y2="319"/>
        <line x1="366.87707911" y1="324.5" x2="378.87707911" y2="324.5"/>
        <line x1="366.87707911" y1="319" x2="378.87707911" y2="319"/>
        <line x1="378.87707911" y1="319" x2="378.87707911" y2="324.5"/>
        <line x1="390.87707911" y1="324.5" x2="390.87707911" y2="319"/>
        <line x1="390.87707911" y1="324.5" x2="402.87707911" y2="324.5"/>
        <line x1="390.87707911" y1="319" x2="402.87707911" y2="319"/>
        <line x1="402.87707911" y1="319" x2="402.87707911" y2="324.5"/>
        <circle cx="384.87707911" cy="321.75" r="1.5"/>
        <line x1="366.87707911" y1="489.5" x2="366.87707911" y2="484"/>
        <line x1="366.87707911" y1="489.5" x2="378.87707911" y2="489.5"/>
        <line x1="366.87707911" y1="484" x2="378.87707911" y2="484"/>
        <line x1="378.87707911" y1="484" x2="378.87707911" y2="489.5"/>
        <line x1="390.87707911" y1="489.5" x2="390.87707911" y2="484"/>
        <line x1="390.87707911" y1="489.5" x2="402.87707911" y2="489.5"/>
        <line x1="390.87707911" y1="484" x2="402.87707911" y2="484"/>
        <line x1="402.87707911" y1="484" x2="402.87707911" y2="489.5"/>
        <circle cx="384.87707911" cy="486.75" r="1.5"/>
        <circle cx="568.87707911" cy="202" r="2.5"/>
        <circle cx="576.6552537" cy="194.22182541" r="1.5"/>
        <circle cx="561.09890451" cy="209.77817459" r="1.5"/>
        <circle cx="568.87707911" cy="202" r="15"/>
        <circle cx="568.87707911" cy="242" r="2.5"/>
        <circle cx="576.6552537" cy="234.22182541" r="1.5"/>
        <circle cx="561.09890451" cy="249.77817459" r="1.5"/>
        <circle cx="568.87707911" cy="242" r="15"/>
        <circle cx="568.87707911" cy="282" r="2.5"/>
        <circle cx="576.6552537" cy="274.22182541" r="1.5"/>
        <circle cx="561.09890451" cy="289.77817459" r="1.5"/>
        <circle cx="568.87707911" cy="282" r="15"/>
        <circle cx="568.87707911" cy="322" r="2.5"/>
        <circle cx="576.6552537" cy="314.22182541" r="1.5"/>
        <circle cx="561.09890451" cy="329.77817459" r="1.5"/>
        <circle cx="568.87707911" cy="322" r="15"/>
        <circle cx="568.87707911" cy="362" r="2.5"/>
        <circle cx="576.6552537" cy="354.22182541" r="1.5"/>
        <circle cx="561.09890451" cy="369.77817459" r="1.5"/>
        <circle cx="568.87707911" cy="362" r="15"/>
        <circle cx="568.87707911" cy="402" r="2.5"/>
        <circle cx="576.6552537" cy="394.22182541" r="1.5"/>
        <circle cx="561.09890451" cy="409.77817459" r="1.5"/>
        <circle cx="568.87707911" cy="402" r="15"/>
        <circle cx="528.87707911" cy="202" r="2.5"/>
        <circle cx="521.09890451" cy="194.22182541" r="1.5"/>
        <circle cx="536.6552537" cy="209.77817459" r="1.5"/>
        <circle cx="528.87707911" cy="202" r="15"/>
        <circle cx="528.87707911" cy="242" r="2.5"/>
        <circle cx="521.09890451" cy="234.22182541" r="1.5"/>
        <circle cx="536.6552537" cy="249.77817459" r="1.5"/>
        <circle cx="528.87707911" cy="242" r="15"/>
        <circle cx="528.87707911" cy="282" r="2.5"/>
        <circle cx="521.09890451" cy="274.22182541" r="1.5"/>
        <circle cx="536.6552537" cy="289.77817459" r="1.5"/>
        <circle cx="528.87707911" cy="282" r="15"/>
        <circle cx="528.87707911" cy="322" r="2.5"/>
        <circle cx="521.09890451" cy="314.22182541" r="1.5"/>
        <circle cx="536.6552537" cy="329.77817459" r="1.5"/>
        <circle cx="528.87707911" cy="322" r="15"/>
        <circle cx="528.87707911" cy="362" r="2.5"/>
        <circle cx="521.09890451" cy="354.22182541" r="1.5"/>
        <circle cx="536.6552537" cy="369.77817459" r="1.5"/>
        <circle cx="528.87707911" cy="362" r="15"/>
        <circle cx="528.87707911" cy="402" r="2.5"/>
        <circle cx="521.09890451" cy="394.22182541" r="1.5"/>
        <circle cx="536.6552537" cy="409.77817459" r="1.5"/>
        <circle cx="528.87707911" cy="402" r="15"/>
        <line x1="616.87707911" y1="480.49999489" x2="616.87707911" y2="485.99999489"/>
        <line x1="616.87707911" y1="480.49999489" x2="604.87707911" y2="480.49999489"/>
        <line x1="616.87707911" y1="485.99999489" x2="604.87707911" y2="485.99999489"/>
        <line x1="604.87707911" y1="485.99999489" x2="604.87707911" y2="480.49999489"/>
        <line x1="592.87707911" y1="480.49999489" x2="592.87707911" y2="485.99999489"/>
        <line x1="592.87707911" y1="480.49999489" x2="580.87707911" y2="480.49999489"/>
        <line x1="592.87707911" y1="485.99999489" x2="580.87707911" y2="485.99999489"/>
        <line x1="580.87707911" y1="485.99999489" x2="580.87707911" y2="480.49999489"/>
        <circle cx="598.87707911" cy="483.24999489" r="1.5"/>
        <line x1="628.87707911" y1="492" x2="574.87707911" y2="491.99999472"/>
        <circle cx="598.87707911" cy="456.5" r="11"/>
        <circle cx="583.37707911" cy="472" r="1.5"/>
        <circle cx="583.37707911" cy="441" r="1.5"/>
        <circle cx="614.37707911" cy="472" r="1.5"/>
        <circle cx="614.37707911" cy="441" r="1.5"/>
        <line x1="619.87707911" y1="461" x2="619.87707911" y2="458"/>
        <line x1="619.87707911" y1="452" x2="619.87707911" y2="455"/>
        <line x1="619.87707911" y1="455" x2="616.87707911" y2="455"/>
        <line x1="616.87707911" y1="455" x2="616.87707911" y2="458"/>
        <line x1="619.87707911" y1="458" x2="616.87707911" y2="458"/>
        <line x1="619.87707911" y1="458" x2="616.87707911" y2="458"/>
        <line x1="634.37707911" y1="473.5" x2="634.37707911" y2="463.5"/>
        <line x1="628.87707911" y1="474.5" x2="633.37707911" y2="474.5"/>
        <line x1="628.87707911" y1="462.5" x2="633.37707911" y2="462.5"/>
        <path d="M634.37707911,463.5 A1,1 0 0,0 633.37707911,462.5 "/>
        <path d="M633.37707911,474.5 A1,1 0 0,0 634.37707911,473.5 "/>
        <line x1="628.87707911" y1="462.5" x2="628.87707911" y2="458"/>
        <line x1="628.87707911" y1="450.5" x2="628.87707911" y2="455"/>
        <line x1="634.37707911" y1="439.5" x2="634.37707911" y2="449.5"/>
        <line x1="628.87707911" y1="438.5" x2="633.37707911" y2="438.5"/>
        <line x1="628.87707911" y1="450.5" x2="633.37707911" y2="450.5"/>
        <path d="M633.37707911,450.5 A1,1 0 0,0 634.37707911,449.5 "/>
        <path d="M634.37707911,439.5 A1,1 0 0,0 633.37707911,438.5 "/>
        <line x1="622.87707911" y1="461" x2="622.87707911" y2="458"/>
        <line x1="622.87707911" y1="452" x2="622.87707911" y2="455"/>
        <line x1="622.87707911" y1="452" x2="619.87707911" y2="452"/>
        <line x1="622.87707911" y1="455" x2="628.87707911" y2="455"/>
        <line x1="628.87707911" y1="458" x2="622.87707911" y2="458"/>
        <line x1="622.87707911" y1="461" x2="619.87707911" y2="461"/>
        <circle cx="598.87707911" cy="438.5" r="4"/>
        <line x1="628.87707911" y1="492" x2="628.87707911" y2="474.5"/>
        <line x1="574.87707911" y1="491.99999472" x2="574.87707911" y2="425.99999472"/>
        <line x1="580.87707911" y1="433.5" x2="580.87707911" y2="428"/>
        <line x1="580.87707911" y1="433.5" x2="592.87707911" y2="433.5"/>
        <line x1="580.87707911" y1="428" x2="592.87707911" y2="428"/>
        <line x1="592.87707911" y1="428" x2="592.87707911" y2="433.5"/>
        <line x1="604.87707911" y1="433.5" x2="604.87707911" y2="428"/>
        <line x1="604.87707911" y1="433.5" x2="616.87707911" y2="433.5"/>
        <line x1="604.87707911" y1="428" x2="616.87707911" y2="428"/>
        <line x1="616.87707911" y1="428" x2="616.87707911" y2="433.5"/>
        <circle cx="598.87707911" cy="430.75" r="1.5"/>
        <path d="M579.87707911,421.99999472 A5,5 0 0,0 574.87707911,426.99999472 "/>
        <line x1="628.87707911" y1="422" x2="579.87707911" y2="421.99999472"/>
        <line x1="628.87707911" y1="438.5" x2="628.87707911" y2="422"/>
        <line x1="532.87707911" y1="480.49999489" x2="532.87707911" y2="485.99999489"/>
        <line x1="532.87707911" y1="480.49999489" x2="544.87707911" y2="480.49999489"/>
        <line x1="532.87707911" y1="485.99999489" x2="544.87707911" y2="485.99999489"/>
        <line x1="544.87707911" y1="485.99999489" x2="544.87707911" y2="480.49999489"/>
        <line x1="556.87707911" y1="480.49999489" x2="556.87707911" y2="485.99999489"/>
        <line x1="556.87707911" y1="480.49999489" x2="568.87707911" y2="480.49999489"/>
        <line x1="556.87707911" y1="485.99999489" x2="568.87707911" y2="485.99999489"/>
        <line x1="568.87707911" y1="485.99999489" x2="568.87707911" y2="480.49999489"/>
        <circle cx="550.87707911" cy="483.24999489" r="1.5"/>
        <line x1="520.87707911" y1="492" x2="574.87707911" y2="491.99999472"/>
        <circle cx="550.87707911" cy="456.5" r="11"/>
        <circle cx="566.37707911" cy="472" r="1.5"/>
        <circle cx="566.37707911" cy="441" r="1.5"/>
        <circle cx="535.37707911" cy="472" r="1.5"/>
        <circle cx="535.37707911" cy="441" r="1.5"/>
        <line x1="529.87707911" y1="461" x2="529.87707911" y2="458"/>
        <line x1="529.87707911" y1="452" x2="529.87707911" y2="455"/>
        <line x1="529.87707911" y1="455" x2="532.87707911" y2="455"/>
        <line x1="532.87707911" y1="455" x2="532.87707911" y2="458"/>
        <line x1="529.87707911" y1="458" x2="532.87707911" y2="458"/>
        <line x1="529.87707911" y1="458" x2="532.87707911" y2="458"/>
        <line x1="515.37707911" y1="473.5" x2="515.37707911" y2="463.5"/>
        <line x1="520.87707911" y1="474.5" x2="516.37707911" y2="474.5"/>
        <line x1="520.87707911" y1="462.5" x2="516.37707911" y2="462.5"/>
        <path d="M516.37707911,462.5 A1,1 0 0,0 515.37707911,463.5 "/>
        <path d="M515.37707911,473.5 A1,1 0 0,0 516.37707911,474.5 "/>
        <line x1="520.87707911" y1="462.5" x2="520.87707911" y2="458"/>
        <line x1="520.87707911" y1="450.5" x2="520.87707911" y2="455"/>
        <line x1="515.37707911" y1="439.5" x2="515.37707911" y2="449.5"/>
        <line x1="520.87707911" y1="438.5" x2="516.37707911" y2="438.5"/>
        <line x1="520.87707911" y1="450.5" x2="516.37707911" y2="450.5"/>
        <path d="M515.37707911,449.5 A1,1 0 0,0 516.37707911,450.5 "/>
        <path d="M516.37707911,438.5 A1,1 0 0,0 515.37707911,439.5 "/>
        <line x1="526.87707911" y1="461" x2="526.87707911" y2="458"/>
        <line x1="526.87707911" y1="452" x2="526.87707911" y2="455"/>
        <line x1="526.87707911" y1="452" x2="529.87707911" y2="452"/>
        <line x1="526.87707911" y1="455" x2="520.87707911" y2="455"/>
        <line x1="520.87707911" y1="458" x2="526.87707911" y2="458"/>
        <line x1="526.87707911" y1="461" x2="529.87707911" y2="461"/>
        <circle cx="550.87707911" cy="438.5" r="4"/>
        <line x1="520.87707911" y1="492" x2="520.87707911" y2="474.5"/>
        <line x1="574.87707911" y1="491.99999472" x2="574.87707911" y2="425.99999472"/>
        <line x1="568.87707911" y1="433.5" x2="568.87707911" y2="428"/>
        <line x1="568.87707911" y1="433.5" x2="556.87707911" y2="433.5"/>
        <line x1="568.87707911" y1="428" x2="556.87707911" y2="428"/>
        <line x1="556.87707911" y1="428" x2="556.87707911" y2="433.5"/>
        <line x1="544.87707911" y1="433.5" x2="544.87707911" y2="428"/>
        <line x1="544.87707911" y1="433.5" x2="532.87707911" y2="433.5"/>
        <line x1="544.87707911" y1="428" x2="532.87707911" y2="428"/>
        <line x1="532.87707911" y1="428" x2="532.87707911" y2="433.5"/>
        <circle cx="550.87707911" cy="430.75" r="1.5"/>
        <path d="M574.87707911,426.99999472 A5,5 0 0,0 569.87707911,421.99999472 "/>
        <line x1="520.87707911" y1="422" x2="569.87707911" y2="421.99999472"/>
        <line x1="520.87707911" y1="438.5" x2="520.87707911" y2="422"/>
        <line x1="650.37707911" y1="396.5" x2="650.37707911" y2="402"/>
        <line x1="650.37707911" y1="396.5" x2="662.37707911" y2="396.5"/>
        <line x1="650.37707911" y1="402" x2="662.37707911" y2="402"/>
        <line x1="662.37707911" y1="402" x2="662.37707911" y2="396.5"/>
        <line x1="674.37707911" y1="396.5" x2="674.37707911" y2="402"/>
        <line x1="674.37707911" y1="396.5" x2="686.37707911" y2="396.5"/>
        <line x1="674.37707911" y1="402" x2="686.37707911" y2="402"/>
        <line x1="686.37707911" y1="402" x2="686.37707911" y2="396.5"/>
        <circle cx="668.37707911" cy="399.25" r="1.5"/>
        <line x1="696.87707911" y1="414" x2="691.37707911" y2="414"/>
        <line x1="696.87707911" y1="414" x2="696.87707911" y2="426"/>
        <line x1="691.37707911" y1="414" x2="691.37707911" y2="426"/>
        <line x1="691.37707911" y1="426" x2="696.87707911" y2="426"/>
        <line x1="696.87707911" y1="438" x2="691.37707911" y2="438"/>
        <line x1="696.87707911" y1="438" x2="696.87707911" y2="450"/>
        <line x1="691.37707911" y1="438" x2="691.37707911" y2="450"/>
        <line x1="691.37707911" y1="450" x2="696.87707911" y2="450"/>
        <circle cx="694.12707911" cy="432" r="1.5"/>
        <line x1="327.37707911" y1="396.5" x2="327.37707911" y2="402"/>
        <line x1="327.37707911" y1="396.5" x2="315.37707911" y2="396.5"/>
        <line x1="327.37707911" y1="402" x2="315.37707911" y2="402"/>
        <line x1="315.37707911" y1="402" x2="315.37707911" y2="396.5"/>
        <line x1="303.37707911" y1="396.5" x2="303.37707911" y2="402"/>
        <line x1="303.37707911" y1="396.5" x2="291.37707911" y2="396.5"/>
        <line x1="303.37707911" y1="402" x2="291.37707911" y2="402"/>
        <line x1="291.37707911" y1="402" x2="291.37707911" y2="396.5"/>
        <circle cx="309.37707911" cy="399.25" r="1.5"/>
        <line x1="280.87707911" y1="414" x2="286.37707911" y2="414"/>
        <line x1="280.87707911" y1="414" x2="280.87707911" y2="426"/>
        <line x1="286.37707911" y1="414" x2="286.37707911" y2="426"/>
        <line x1="286.37707911" y1="426" x2="280.87707911" y2="426"/>
        <line x1="280.87707911" y1="438" x2="286.37707911" y2="438"/>
        <line x1="280.87707911" y1="438" x2="280.87707911" y2="450"/>
        <line x1="286.37707911" y1="438" x2="286.37707911" y2="450"/>
        <line x1="286.37707911" y1="450" x2="280.87707911" y2="450"/>
        <circle cx="283.62707911" cy="432" r="1.5"/>
        <line x1="333.37707911" y1="470" x2="274.87707911" y2="470"/>
        <line x1="644.37707911" y1="470" x2="702.87707911" y2="470"/>
        <line x1="333.37707911" y1="470" x2="333.37707911" y2="402"/>
        <line x1="274.87707911" y1="102" x2="274.87707911" y2="470"/>
        <line x1="644.37707911" y1="402" x2="644.37707911" y2="470"/>
        <line x1="702.87707911" y1="102" x2="702.87707911" y2="470"/>
        <path d="M698.87707911,98.5 A2,2 0 0,0 696.87707911,96.5 "/>
        <path d="M686.87707911,98.5 A2,2 0 0,1 688.87707911,96.5 "/>
        <line x1="698.87707911" y1="98.5" x2="698.87707911" y2="102"/>
        <line x1="696.87707911" y1="96.5" x2="688.87707911" y2="96.5"/>
        <line x1="686.87707911" y1="98.5" x2="686.87707911" y2="102"/>
        <path d="M674.87707911,98.5 A2,2 0 0,0 672.87707911,96.5 "/>
        <path d="M662.87707911,98.5 A2,2 0 0,1 664.87707911,96.5 "/>
        <line x1="674.87707911" y1="98.5" x2="674.87707911" y2="102"/>
        <line x1="672.87707911" y1="96.5" x2="664.87707911" y2="96.5"/>
        <line x1="662.87707911" y1="98.5" x2="662.87707911" y2="102"/>
        <path d="M650.87707911,98.5 A2,2 0 0,0 648.87707911,96.5 "/>
        <path d="M638.87707911,98.5 A2,2 0 0,1 640.87707911,96.5 "/>
        <line x1="650.87707911" y1="98.5" x2="650.87707911" y2="102"/>
        <line x1="648.87707911" y1="96.5" x2="640.87707911" y2="96.5"/>
        <line x1="638.87707911" y1="98.5" x2="638.87707911" y2="102"/>
        <path d="M626.87707911,98.5 A2,2 0 0,0 624.87707911,96.5 "/>
        <path d="M614.87707911,98.5 A2,2 0 0,1 616.87707911,96.5 "/>
        <line x1="626.87707911" y1="98.5" x2="626.87707911" y2="102"/>
        <line x1="624.87707911" y1="96.5" x2="616.87707911" y2="96.5"/>
        <line x1="614.87707911" y1="98.5" x2="614.87707911" y2="102"/>
        <path d="M602.87707911,98.5 A2,2 0 0,0 600.87707911,96.5 "/>
        <path d="M590.87707911,98.5 A2,2 0 0,1 592.87707911,96.5 "/>
        <line x1="602.87707911" y1="98.5" x2="602.87707911" y2="102"/>
        <line x1="600.87707911" y1="96.5" x2="592.87707911" y2="96.5"/>
        <line x1="590.87707911" y1="98.5" x2="590.87707911" y2="102"/>
        <path d="M578.87707911,98.5 A2,2 0 0,0 576.87707911,96.5 "/>
        <path d="M566.87707911,98.5 A2,2 0 0,1 568.87707911,96.5 "/>
        <line x1="578.87707911" y1="98.5" x2="578.87707911" y2="102"/>
        <line x1="576.87707911" y1="96.5" x2="568.87707911" y2="96.5"/>
        <line x1="566.87707911" y1="98.5" x2="566.87707911" y2="102"/>
        <path d="M554.87707911,98.5 A2,2 0 0,0 552.87707911,96.5 "/>
        <path d="M542.87707911,98.5 A2,2 0 0,1 544.87707911,96.5 "/>
        <line x1="554.87707911" y1="98.5" x2="554.87707911" y2="102"/>
        <line x1="552.87707911" y1="96.5" x2="544.87707911" y2="96.5"/>
        <line x1="542.87707911" y1="98.5" x2="542.87707911" y2="102"/>
        <path d="M530.87707911,98.5 A2,2 0 0,0 528.87707911,96.5 "/>
        <path d="M518.87707911,98.5 A2,2 0 0,1 520.87707911,96.5 "/>
        <line x1="530.87707911" y1="98.5" x2="530.87707911" y2="102"/>
        <line x1="528.87707911" y1="96.5" x2="520.87707911" y2="96.5"/>
        <line x1="518.87707911" y1="98.5" x2="518.87707911" y2="102"/>
        <path d="M506.87707911,98.5 A2,2 0 0,0 504.87707911,96.5 "/>
        <path d="M494.87707911,98.5 A2,2 0 0,1 496.87707911,96.5 "/>
        <line x1="506.87707911" y1="98.5" x2="506.87707911" y2="102"/>
        <line x1="504.87707911" y1="96.5" x2="496.87707911" y2="96.5"/>
        <line x1="494.87707911" y1="98.5" x2="494.87707911" y2="102"/>
        <path d="M482.87707911,98.5 A2,2 0 0,0 480.87707911,96.5 "/>
        <path d="M470.87707911,98.5 A2,2 0 0,1 472.87707911,96.5 "/>
        <line x1="482.87707911" y1="98.5" x2="482.87707911" y2="102"/>
        <line x1="480.87707911" y1="96.5" x2="472.87707911" y2="96.5"/>
        <line x1="470.87707911" y1="98.5" x2="470.87707911" y2="102"/>
        <path d="M458.87707911,98.5 A2,2 0 0,0 456.87707911,96.5 "/>
        <path d="M446.87707911,98.5 A2,2 0 0,1 448.87707911,96.5 "/>
        <line x1="458.87707911" y1="98.5" x2="458.87707911" y2="102"/>
        <line x1="456.87707911" y1="96.5" x2="448.87707911" y2="96.5"/>
        <line x1="446.87707911" y1="98.5" x2="446.87707911" y2="102"/>
        <path d="M434.87707911,98.5 A2,2 0 0,0 432.87707911,96.5 "/>
        <path d="M422.87707911,98.5 A2,2 0 0,1 424.87707911,96.5 "/>
        <line x1="434.87707911" y1="98.5" x2="434.87707911" y2="102"/>
        <line x1="432.87707911" y1="96.5" x2="424.87707911" y2="96.5"/>
        <line x1="422.87707911" y1="98.5" x2="422.87707911" y2="102"/>
        <path d="M410.87707911,98.5 A2,2 0 0,0 408.87707911,96.5 "/>
        <path d="M398.87707911,98.5 A2,2 0 0,1 400.87707911,96.5 "/>
        <line x1="410.87707911" y1="98.5" x2="410.87707911" y2="102"/>
        <line x1="408.87707911" y1="96.5" x2="400.87707911" y2="96.5"/>
        <line x1="398.87707911" y1="98.5" x2="398.87707911" y2="102"/>
        <path d="M386.87707911,98.5 A2,2 0 0,0 384.87707911,96.5 "/>
        <path d="M374.87707911,98.5 A2,2 0 0,1 376.87707911,96.5 "/>
        <line x1="386.87707911" y1="98.5" x2="386.87707911" y2="102"/>
        <line x1="384.87707911" y1="96.5" x2="376.87707911" y2="96.5"/>
        <line x1="374.87707911" y1="98.5" x2="374.87707911" y2="102"/>
        <path d="M362.87707911,98.5 A2,2 0 0,0 360.87707911,96.5 "/>
        <path d="M350.87707911,98.5 A2,2 0 0,1 352.87707911,96.5 "/>
        <line x1="362.87707911" y1="98.5" x2="362.87707911" y2="102"/>
        <line x1="360.87707911" y1="96.5" x2="352.87707911" y2="96.5"/>
        <line x1="350.87707911" y1="98.5" x2="350.87707911" y2="102"/>
        <path d="M338.87707911,98.5 A2,2 0 0,0 336.87707911,96.5 "/>
        <path d="M326.87707911,98.5 A2,2 0 0,1 328.87707911,96.5 "/>
        <line x1="338.87707911" y1="98.5" x2="338.87707911" y2="102"/>
        <line x1="336.87707911" y1="96.5" x2="328.87707911" y2="96.5"/>
        <line x1="326.87707911" y1="98.5" x2="326.87707911" y2="102"/>
        <path d="M314.87707911,98.5 A2,2 0 0,0 312.87707911,96.5 "/>
        <path d="M302.87707911,98.5 A2,2 0 0,1 304.87707911,96.5 "/>
        <line x1="314.87707911" y1="98.5" x2="314.87707911" y2="102"/>
        <line x1="312.87707911" y1="96.5" x2="304.87707911" y2="96.5"/>
        <line x1="302.87707911" y1="98.5" x2="302.87707911" y2="102"/>
        <path d="M290.87707911,98.5 A2,2 0 0,0 288.87707911,96.5 "/>
        <path d="M278.87707911,98.5 A2,2 0 0,1 280.87707911,96.5 "/>
        <line x1="290.87707911" y1="98.5" x2="290.87707911" y2="102"/>
        <line x1="288.87707911" y1="96.5" x2="280.87707911" y2="96.5"/>
        <line x1="278.87707911" y1="98.5" x2="278.87707911" y2="102"/>
    </g>
    <g lc:layername="noname" lc:is_locked="false" lc:is_construction="false" fill="none" stroke="black" stroke-width="1"/>
    <g lc:layername="noname2" lc:is_locked="false" lc:is_construction="false" fill="none" stroke="black" stroke-width="1"/>
</svg>
