<?xml version="1.0"?>
<svg xmlns="http://www.w3.org/2000/svg" xmlns:lc="http://www.librecad.org" xmlns:xlink="http://www.w3.org/1999/xlink" width="220mm" height="400mm" viewBox="0 0 220 400">
    <g lc:layername="0" lc:is_locked="false" lc:is_construction="false" fill="none" stroke="black" stroke-width="1">
        <line x1="15.5" y1="190.92893219" x2="24.5" y2="190.92893219"/>
        <line x1="15.5" y1="214.92893219" x2="24.5" y2="214.92893219"/>
        <line x1="15.5" y1="214.92893219" x2="15.5" y2="190.92893219"/>
        <line x1="24.5" y1="214.92893219" x2="24.5" y2="190.92893219"/>
        <line x1="10" y1="196.92893219" x2="10" y2="192.92893219"/>
        <line x1="12.5" y1="196.92893219" x2="12.5" y2="192.92893219"/>
        <line x1="10" y1="192.92893219" x2="12.5" y2="192.92893219"/>
        <line x1="10" y1="196.92893219" x2="12.5" y2="196.92893219"/>
        <line x1="10" y1="208.92893219" x2="10" y2="212.92893219"/>
        <line x1="12.5" y1="208.92893219" x2="12.5" y2="212.92893219"/>
        <line x1="10" y1="212.92893219" x2="12.5" y2="212.92893219"/>
        <line x1="10" y1="208.92893219" x2="12.5" y2="208.92893219"/>
        <line x1="30" y1="196.92893219" x2="30" y2="192.92893219"/>
        <line x1="27.5" y1="196.92893219" x2="27.5" y2="192.92893219"/>
        <line x1="30" y1="192.92893219" x2="27.5" y2="192.92893219"/>
        <line x1="30" y1="196.92893219" x2="27.5" y2="196.92893219"/>
        <line x1="30" y1="208.92893219" x2="30" y2="212.92893219"/>
        <line x1="27.5" y1="208.92893219" x2="27.5" y2="212.92893219"/>
        <line x1="30" y1="212.92893219" x2="27.5" y2="212.92893219"/>
        <line x1="30" y1="208.92893219" x2="27.5" y2="208.92893219"/>
        <line x1="195.5" y1="312.92893219" x2="204.5" y2="312.92893219"/>
        <line x1="195.5" y1="336.92893219" x2="204.5" y2="336.92893219"/>
        <line x1="195.5" y1="336.92893219" x2="195.5" y2="312.92893219"/>
        <line x1="204.5" y1="336.92893219" x2="204.5" y2="312.92893219"/>
        <line x1="190" y1="318.92893219" x2="190" y2="314.92893219"/>
        <line x1="192.5" y1="318.92893219" x2="192.5" y2="314.92893219"/>
        <line x1="190" y1="314.92893219" x2="192.5" y2="314.92893219"/>
        <line x1="190" y1="318.92893219" x2="192.5" y2="318.92893219"/>
        <line x1="190" y1="330.92893219" x2="190" y2="334.92893219"/>
        <line x1="192.5" y1="330.92893219" x2="192.5" y2="334.92893219"/>
        <line x1="190" y1="334.92893219" x2="192.5" y2="334.92893219"/>
        <line x1="190" y1="330.92893219" x2="192.5" y2="330.92893219"/>
        <line x1="210" y1="318.92893219" x2="210" y2="314.92893219"/>
        <line x1="207.5" y1="318.92893219" x2="207.5" y2="314.92893219"/>
        <line x1="210" y1="314.92893219" x2="207.5" y2="314.92893219"/>
        <line x1="210" y1="318.92893219" x2="207.5" y2="318.92893219"/>
        <line x1="210" y1="330.92893219" x2="210" y2="334.92893219"/>
        <line x1="207.5" y1="330.92893219" x2="207.5" y2="334.92893219"/>
        <line x1="210" y1="334.92893219" x2="207.5" y2="334.92893219"/>
        <line x1="210" y1="330.92893219" x2="207.5" y2="330.92893219"/>
        <line x1="195.5" y1="68.92893219" x2="204.5" y2="68.92893219"/>
        <line x1="195.5" y1="92.92893219" x2="204.5" y2="92.92893219"/>
        <line x1="195.5" y1="92.92893219" x2="195.5" y2="68.92893219"/>
        <line x1="204.5" y1="92.92893219" x2="204.5" y2="68.92893219"/>
        <line x1="190" y1="74.92893219" x2="190" y2="70.92893219"/>
        <line x1="192.5" y1="74.92893219" x2="192.5" y2="70.92893219"/>
        <line x1="190" y1="70.92893219" x2="192.5" y2="70.92893219"/>
        <line x1="190" y1="74.92893219" x2="192.5" y2="74.92893219"/>
        <line x1="190" y1="86.92893219" x2="190" y2="90.92893219"/>
        <line x1="192.5" y1="86.92893219" x2="192.5" y2="90.92893219"/>
        <line x1="190" y1="90.92893219" x2="192.5" y2="90.92893219"/>
        <line x1="190" y1="86.92893219" x2="192.5" y2="86.92893219"/>
        <line x1="210" y1="74.92893219" x2="210" y2="70.92893219"/>
        <line x1="207.5" y1="74.92893219" x2="207.5" y2="70.92893219"/>
        <line x1="210" y1="70.92893219" x2="207.5" y2="70.92893219"/>
        <line x1="210" y1="74.92893219" x2="207.5" y2="74.92893219"/>
        <line x1="210" y1="86.92893219" x2="210" y2="90.92893219"/>
        <line x1="207.5" y1="86.92893219" x2="207.5" y2="90.92893219"/>
        <line x1="210" y1="90.92893219" x2="207.5" y2="90.92893219"/>
        <line x1="210" y1="86.92893219" x2="207.5" y2="86.92893219"/>
        <circle cx="6" cy="98.92893219" r="1.5"/>
        <circle cx="6" cy="306.92893219" r="1.5"/>
        <circle cx="214" cy="98.92893219" r="1.5"/>
        <circle cx="214" cy="306.92893219" r="1.5"/>
        <path d="M220,72.92893219 A10,10 0 0,0 210,62.92893219 "/>
        <path d="M220,72.92893219 A10,10 0 0,0 210,62.92893219 "/>
        <line x1="190" y1="62.92893219" x2="210" y2="62.92893219"/>
        <path d="M190,62.92893219 A10,10 0 0,0 182.92894103,65.85785554 "/>
        <circle cx="6" cy="98.92893219" r="1.5"/>
        <path d="M10,82.92893219 A10,10 0 0,0 0,92.92893219 "/>
        <path d="M30,92.92893219 A10,10 0 0,0 20,82.92893219 "/>
        <line x1="10" y1="82.92893219" x2="20" y2="82.92893219"/>
        <line x1="115.85786438" y1="132.92893219" x2="182.92893219" y2="65.85786438"/>
        <line x1="50" y1="132.92893219" x2="30" y2="112.92893219"/>
        <line x1="30" y1="112.92893219" x2="30" y2="92.92893219"/>
        <line x1="115.85786438" y1="132.92893219" x2="50" y2="132.92893219"/>
        <path d="M210,342.92893219 A10,10 0 0,0 220,332.92893219 "/>
        <line x1="190" y1="342.92893219" x2="210" y2="342.92893219"/>
        <path d="M182.92894103,340.00000884 A10,10 0 0,0 190,342.92893219 "/>
        <path d="M0,312.92893219 A10,10 0 0,0 10,322.92893219 "/>
        <path d="M20,322.92893219 A10,10 0 0,0 30,312.92893219 "/>
        <line x1="10" y1="322.92893219" x2="20" y2="322.92893219"/>
        <line x1="115.85786438" y1="272.92893219" x2="182.92893219" y2="340"/>
        <line x1="50" y1="272.92893219" x2="30" y2="292.92893219"/>
        <line x1="30" y1="292.92893219" x2="30" y2="312.92893219"/>
        <line x1="115.85786438" y1="272.92893219" x2="50" y2="272.92893219"/>
        <line x1="0" y1="312.92893219" x2="0" y2="92.92893219"/>
        <line x1="220" y1="332.92893219" x2="220" y2="72.92893219"/>
        <line x1="34.5" y1="177.92893219" x2="40" y2="177.92893219"/>
        <line x1="34.5" y1="177.92893219" x2="34.5" y2="165.92893219"/>
        <line x1="40" y1="177.92893219" x2="40" y2="165.92893219"/>
        <line x1="40" y1="165.92893219" x2="34.5" y2="165.92893219"/>
        <line x1="34.5" y1="153.92893219" x2="40" y2="153.92893219"/>
        <line x1="34.5" y1="153.92893219" x2="34.5" y2="141.92893219"/>
        <line x1="40" y1="153.92893219" x2="40" y2="141.92893219"/>
        <line x1="40" y1="141.92893219" x2="34.5" y2="141.92893219"/>
        <circle cx="37.25" cy="159.92893219" r="1.5"/>
        <line x1="34.5" y1="227.92893219" x2="40" y2="227.92893219"/>
        <line x1="34.5" y1="227.92893219" x2="34.5" y2="239.92893219"/>
        <line x1="40" y1="227.92893219" x2="40" y2="239.92893219"/>
        <line x1="40" y1="239.92893219" x2="34.5" y2="239.92893219"/>
        <line x1="34.5" y1="251.92893219" x2="40" y2="251.92893219"/>
        <line x1="34.5" y1="251.92893219" x2="34.5" y2="263.92893219"/>
        <line x1="40" y1="251.92893219" x2="40" y2="263.92893219"/>
        <line x1="40" y1="263.92893219" x2="34.5" y2="263.92893219"/>
        <circle cx="37.25" cy="245.92893219" r="1.5"/>
        <line x1="185.5" y1="177.92893219" x2="180" y2="177.92893219"/>
        <line x1="185.5" y1="177.92893219" x2="185.5" y2="165.92893219"/>
        <line x1="180" y1="177.92893219" x2="180" y2="165.92893219"/>
        <line x1="180" y1="165.92893219" x2="185.5" y2="165.92893219"/>
        <line x1="185.5" y1="153.92893219" x2="180" y2="153.92893219"/>
        <line x1="185.5" y1="153.92893219" x2="185.5" y2="141.92893219"/>
        <line x1="180" y1="153.92893219" x2="180" y2="141.92893219"/>
        <line x1="180" y1="141.92893219" x2="185.5" y2="141.92893219"/>
        <circle cx="182.75" cy="159.92893219" r="1.5"/>
        <line x1="185.5" y1="227.92893219" x2="180" y2="227.92893219"/>
        <line x1="185.5" y1="227.92893219" x2="185.5" y2="239.92893219"/>
        <line x1="180" y1="227.92893219" x2="180" y2="239.92893219"/>
        <line x1="180" y1="239.92893219" x2="185.5" y2="239.92893219"/>
        <line x1="185.5" y1="251.92893219" x2="180" y2="251.92893219"/>
        <line x1="185.5" y1="251.92893219" x2="185.5" y2="263.92893219"/>
        <line x1="180" y1="251.92893219" x2="180" y2="263.92893219"/>
        <line x1="180" y1="263.92893219" x2="185.5" y2="263.92893219"/>
        <circle cx="182.75" cy="245.92893219" r="1.5"/>
        <line x1="115.5" y1="144.92893219" x2="115.5" y2="156.92893219"/>
        <line x1="115.5" y1="168.92893219" x2="115.5" y2="180.92893219"/>
        <line x1="104.5" y1="144.92893219" x2="104.5" y2="156.92893219"/>
        <line x1="104.5" y1="168.92893219" x2="104.5" y2="180.92893219"/>
        <line x1="115.5" y1="260.92893219" x2="115.5" y2="248.92893219"/>
        <line x1="115.5" y1="236.92893219" x2="115.5" y2="224.92893219"/>
        <line x1="104.5" y1="260.92893219" x2="104.5" y2="248.92893219"/>
        <line x1="104.5" y1="236.92893219" x2="104.5" y2="224.92893219"/>
        <line x1="121.4" y1="144.92893219" x2="121.4" y2="156.92893219"/>
        <line x1="121.4" y1="168.92893219" x2="121.4" y2="180.92893219"/>
        <circle cx="118.65" cy="162.92893219" r="1.5"/>
        <line x1="121.4" y1="260.92893219" x2="121.4" y2="248.92893219"/>
        <line x1="121.4" y1="236.92893219" x2="121.4" y2="224.92893219"/>
        <circle cx="118.65" cy="242.92893219" r="1.5"/>
        <line x1="98.6" y1="144.92893219" x2="98.6" y2="156.92893219"/>
        <line x1="98.6" y1="168.92893219" x2="98.6" y2="180.92893219"/>
        <circle cx="101.35" cy="162.92893219" r="1.5"/>
        <line x1="98.6" y1="260.92893219" x2="98.6" y2="248.92893219"/>
        <line x1="98.6" y1="236.92893219" x2="98.6" y2="224.92893219"/>
        <circle cx="101.35" cy="242.92893219" r="1.5"/>
        <line x1="98.6" y1="260.92893219" x2="104.5" y2="260.92893219"/>
        <line x1="115.5" y1="248.92893219" x2="121.4" y2="248.92893219"/>
        <line x1="115.5" y1="260.92893219" x2="121.4" y2="260.92893219"/>
        <line x1="98.6" y1="248.92893219" x2="104.5" y2="248.92893219"/>
        <line x1="98.6" y1="224.92893219" x2="104.5" y2="224.92893219"/>
        <line x1="115.5" y1="236.92893219" x2="121.4" y2="236.92893219"/>
        <line x1="115.5" y1="224.92893219" x2="121.4" y2="224.92893219"/>
        <line x1="98.6" y1="236.92893219" x2="104.5" y2="236.92893219"/>
        <line x1="98.6" y1="180.92893219" x2="104.5" y2="180.92893219"/>
        <line x1="115.5" y1="180.92893219" x2="121.4" y2="180.92893219"/>
        <line x1="98.6" y1="168.92893219" x2="104.5" y2="168.92893219"/>
        <line x1="98.6" y1="144.92893219" x2="104.5" y2="144.92893219"/>
        <line x1="115.5" y1="144.92893219" x2="121.4" y2="144.92893219"/>
        <line x1="98.6" y1="156.92893219" x2="104.5" y2="156.92893219"/>
        <line x1="115.5" y1="156.92893219" x2="121.4" y2="156.92893219"/>
        <line x1="115.5" y1="168.92893219" x2="121.4" y2="168.92893219"/>
        <line x1="132.57106781" y1="107" x2="132.57106781" y2="97"/>
        <line x1="127.07106781" y1="108" x2="131.57106781" y2="108"/>
        <line x1="127.07106781" y1="96" x2="131.57106781" y2="96"/>
        <path d="M132.57106781,97 A1,1 0 0,0 131.57106781,96 "/>
        <path d="M131.57106781,108 A1,1 0 0,0 132.57106781,107 "/>
        <line x1="127.07106781" y1="96" x2="127.07106781" y2="91.5"/>
        <line x1="121.07106781" y1="94.5" x2="121.07106781" y2="91.5"/>
        <line x1="121.07106781" y1="85.5" x2="121.07106781" y2="88.5"/>
        <line x1="121.07106781" y1="85.5" x2="118.07106781" y2="85.5"/>
        <line x1="121.07106781" y1="94.5" x2="118.07106781" y2="94.5"/>
        <line x1="118.07106781" y1="94.5" x2="118.07106781" y2="91.5"/>
        <line x1="118.07106781" y1="85.5" x2="118.07106781" y2="88.5"/>
        <line x1="121.07106781" y1="88.5" x2="127.07106781" y2="88.5"/>
        <line x1="127.07106781" y1="91.5" x2="121.07106781" y2="91.5"/>
        <line x1="118.07106781" y1="88.5" x2="115.07106781" y2="88.5"/>
        <line x1="115.07106781" y1="88.5" x2="115.07106781" y2="91.5"/>
        <line x1="118.07106781" y1="91.5" x2="115.07106781" y2="91.5"/>
        <line x1="127.07106781" y1="84" x2="127.07106781" y2="88.5"/>
        <line x1="118.07106781" y1="91.5" x2="115.07106781" y2="91.5"/>
        <line x1="115.07106781" y1="91.5" x2="115.07106781" y2="88.5"/>
        <line x1="132.57106781" y1="73" x2="132.57106781" y2="83"/>
        <line x1="127.07106781" y1="72" x2="131.57106781" y2="72"/>
        <line x1="127.07106781" y1="84" x2="131.57106781" y2="84"/>
        <path d="M131.57106781,84 A1,1 0 0,0 132.57106781,83 "/>
        <path d="M132.57106781,73 A1,1 0 0,0 131.57106781,72 "/>
        <line x1="127.07106781" y1="60" x2="127.07106781" y2="72"/>
        <line x1="127.07106781" y1="120" x2="127.07106781" y2="108"/>
        <line x1="127.07106781" y1="60" x2="97.07106781" y2="60"/>
        <line x1="87.07106781" y1="70" x2="87.07106781" y2="110"/>
        <line x1="97.07106781" y1="120" x2="127.07106781" y2="120"/>
        <path d="M87.07106781,109.99998951 A10,10 0 0,0 97.07106781,119.99998951 "/>
        <path d="M97.07106781,60.00001049 A10,10 0 0,0 87.07106781,70.00001049 "/>
        <circle cx="107.07106781" cy="70" r="1.5"/>
        <circle cx="107.07106781" cy="110" r="1.5"/>
        <line x1="41.57106781" y1="107" x2="41.57106781" y2="97"/>
        <line x1="47.07106781" y1="108" x2="42.57106781" y2="108"/>
        <line x1="47.07106781" y1="96" x2="42.57106781" y2="96"/>
        <path d="M42.57106781,96 A1,1 0 0,0 41.57106781,97 "/>
        <path d="M41.57106781,107 A1,1 0 0,0 42.57106781,108 "/>
        <line x1="47.07106781" y1="96" x2="47.07106781" y2="91.5"/>
        <line x1="53.07106781" y1="94.5" x2="53.07106781" y2="91.5"/>
        <line x1="53.07106781" y1="85.5" x2="53.07106781" y2="88.5"/>
        <line x1="53.07106781" y1="85.5" x2="56.07106781" y2="85.5"/>
        <line x1="53.07106781" y1="94.5" x2="56.07106781" y2="94.5"/>
        <line x1="56.07106781" y1="94.5" x2="56.07106781" y2="91.5"/>
        <line x1="56.07106781" y1="85.5" x2="56.07106781" y2="88.5"/>
        <line x1="53.07106781" y1="88.5" x2="47.07106781" y2="88.5"/>
        <line x1="47.07106781" y1="91.5" x2="53.07106781" y2="91.5"/>
        <line x1="56.07106781" y1="88.5" x2="59.07106781" y2="88.5"/>
        <line x1="59.07106781" y1="88.5" x2="59.07106781" y2="91.5"/>
        <line x1="56.07106781" y1="91.5" x2="59.07106781" y2="91.5"/>
        <line x1="47.07106781" y1="84" x2="47.07106781" y2="88.5"/>
        <line x1="56.07106781" y1="91.5" x2="59.07106781" y2="91.5"/>
        <line x1="59.07106781" y1="91.5" x2="59.07106781" y2="88.5"/>
        <line x1="41.57106781" y1="73" x2="41.57106781" y2="83"/>
        <line x1="47.07106781" y1="72" x2="42.57106781" y2="72"/>
        <line x1="47.07106781" y1="84" x2="42.57106781" y2="84"/>
        <path d="M41.57106781,83 A1,1 0 0,0 42.57106781,84 "/>
        <path d="M42.57106781,72 A1,1 0 0,0 41.57106781,73 "/>
        <line x1="47.07106781" y1="60" x2="47.07106781" y2="72"/>
        <line x1="47.07106781" y1="120" x2="47.07106781" y2="108"/>
        <line x1="47.07106781" y1="60" x2="77.07106781" y2="60"/>
        <line x1="77.07106781" y1="120" x2="47.07106781" y2="120"/>
        <path d="M77.07106781,119.99998951 A10,10 0 0,0 87.07106781,109.99998951 "/>
        <path d="M87.07106781,70.00001049 A10,10 0 0,0 77.07106781,60.00001049 "/>
        <circle cx="67.07106781" cy="70" r="1.5"/>
        <circle cx="67.07106781" cy="110" r="1.5"/>
        <line x1="132.57106781" y1="13" x2="132.57106781" y2="23"/>
        <line x1="127.07106781" y1="12" x2="131.57106781" y2="12"/>
        <line x1="127.07106781" y1="24" x2="131.57106781" y2="24"/>
        <path d="M131.57106781,24 A1,1 0 0,0 132.57106781,23 "/>
        <path d="M132.57106781,13 A1,1 0 0,0 131.57106781,12 "/>
        <line x1="127.07106781" y1="24" x2="127.07106781" y2="28.5"/>
        <line x1="121.07106781" y1="25.5" x2="121.07106781" y2="28.5"/>
        <line x1="121.07106781" y1="34.5" x2="121.07106781" y2="31.5"/>
        <line x1="121.07106781" y1="34.5" x2="118.07106781" y2="34.5"/>
        <line x1="121.07106781" y1="25.5" x2="118.07106781" y2="25.5"/>
        <line x1="118.07106781" y1="25.5" x2="118.07106781" y2="28.5"/>
        <line x1="118.07106781" y1="34.5" x2="118.07106781" y2="31.5"/>
        <line x1="121.07106781" y1="31.5" x2="127.07106781" y2="31.5"/>
        <line x1="127.07106781" y1="28.5" x2="121.07106781" y2="28.5"/>
        <line x1="118.07106781" y1="31.5" x2="115.07106781" y2="31.5"/>
        <line x1="115.07106781" y1="31.5" x2="115.07106781" y2="28.5"/>
        <line x1="118.07106781" y1="28.5" x2="115.07106781" y2="28.5"/>
        <line x1="127.07106781" y1="36" x2="127.07106781" y2="31.5"/>
        <line x1="118.07106781" y1="28.5" x2="115.07106781" y2="28.5"/>
        <line x1="115.07106781" y1="28.5" x2="115.07106781" y2="31.5"/>
        <line x1="132.57106781" y1="47" x2="132.57106781" y2="37"/>
        <line x1="127.07106781" y1="48" x2="131.57106781" y2="48"/>
        <line x1="127.07106781" y1="36" x2="131.57106781" y2="36"/>
        <path d="M132.57106781,37 A1,1 0 0,0 131.57106781,36 "/>
        <path d="M131.57106781,48 A1,1 0 0,0 132.57106781,47 "/>
        <line x1="127.07106781" y1="60" x2="127.07106781" y2="48"/>
        <line x1="127.07106781" y1="0" x2="127.07106781" y2="12"/>
        <line x1="87.07106781" y1="50" x2="87.07106781" y2="10"/>
        <line x1="97.07106781" y1="0" x2="127.07106781" y2="0"/>
        <path d="M97.07106781,0.00001049 A10,10 0 0,0 87.07106781,10.00001049 "/>
        <path d="M87.07106781,49.99998951 A10,10 0 0,0 97.07106781,59.99998951 "/>
        <circle cx="107.07106781" cy="50" r="1.5"/>
        <circle cx="107.07106781" cy="10" r="1.5"/>
        <line x1="41.57106781" y1="13" x2="41.57106781" y2="23"/>
        <line x1="47.07106781" y1="12" x2="42.57106781" y2="12"/>
        <line x1="47.07106781" y1="24" x2="42.57106781" y2="24"/>
        <path d="M41.57106781,23 A1,1 0 0,0 42.57106781,24 "/>
        <path d="M42.57106781,12 A1,1 0 0,0 41.57106781,13 "/>
        <line x1="47.07106781" y1="24" x2="47.07106781" y2="28.5"/>
        <line x1="53.07106781" y1="25.5" x2="53.07106781" y2="28.5"/>
        <line x1="53.07106781" y1="34.5" x2="53.07106781" y2="31.5"/>
        <line x1="53.07106781" y1="34.5" x2="56.07106781" y2="34.5"/>
        <line x1="53.07106781" y1="25.5" x2="56.07106781" y2="25.5"/>
        <line x1="56.07106781" y1="25.5" x2="56.07106781" y2="28.5"/>
        <line x1="56.07106781" y1="34.5" x2="56.07106781" y2="31.5"/>
        <line x1="53.07106781" y1="31.5" x2="47.07106781" y2="31.5"/>
        <line x1="47.07106781" y1="28.5" x2="53.07106781" y2="28.5"/>
        <line x1="56.07106781" y1="31.5" x2="59.07106781" y2="31.5"/>
        <line x1="59.07106781" y1="31.5" x2="59.07106781" y2="28.5"/>
        <line x1="56.07106781" y1="28.5" x2="59.07106781" y2="28.5"/>
        <line x1="47.07106781" y1="36" x2="47.07106781" y2="31.5"/>
        <line x1="56.07106781" y1="28.5" x2="59.07106781" y2="28.5"/>
        <line x1="59.07106781" y1="28.5" x2="59.07106781" y2="31.5"/>
        <line x1="41.57106781" y1="47" x2="41.57106781" y2="37"/>
        <line x1="47.07106781" y1="48" x2="42.57106781" y2="48"/>
        <line x1="47.07106781" y1="36" x2="42.57106781" y2="36"/>
        <path d="M42.57106781,36 A1,1 0 0,0 41.57106781,37 "/>
        <path d="M41.57106781,47 A1,1 0 0,0 42.57106781,48 "/>
        <line x1="47.07106781" y1="60" x2="47.07106781" y2="48"/>
        <line x1="47.07106781" y1="0" x2="47.07106781" y2="12"/>
        <line x1="77.07106781" y1="0" x2="47.07106781" y2="0"/>
        <path d="M87.07106781,10.00001049 A10,10 0 0,0 77.07106781,0.00001049 "/>
        <path d="M77.07106781,59.99998951 A10,10 0 0,0 87.07106781,49.99998951 "/>
        <circle cx="67.07106781" cy="50" r="1.5"/>
        <circle cx="67.07106781" cy="10" r="1.5"/>
        <path d="M87.07106781,329.99998951 A10,10 0 0,0 97.07106781,339.99998951 "/>
        <path d="M97.07106781,280.00001049 A10,10 0 0,0 87.07106781,290.00001049 "/>
        <circle cx="107.07106781" cy="290" r="1.5"/>
        <circle cx="107.07106781" cy="330" r="1.5"/>
        <line x1="121.07106781" y1="305.5" x2="121.07106781" y2="314.5"/>
        <line x1="118.07106781" y1="305.5" x2="118.07106781" y2="314.5"/>
        <line x1="121.07106781" y1="305.5" x2="118.07106781" y2="305.5"/>
        <line x1="121.07106781" y1="314.5" x2="118.07106781" y2="314.5"/>
        <path d="M117.07106781,339.99998951 A10,10 0 0,0 127.07106781,329.99998951 "/>
        <path d="M127.07106781,290.00001049 A10,10 0 0,0 117.07106781,280.00001049 "/>
        <line x1="117.07106781" y1="340" x2="97.07106781" y2="340"/>
        <line x1="127.07106781" y1="290.00001049" x2="128.07106781" y2="290"/>
        <line x1="128.07106781" y1="290" x2="128.07106781" y2="291"/>
        <line x1="128.07106781" y1="291" x2="127.07106781" y2="291"/>
        <line x1="127.07106781" y1="291" x2="127.07106781" y2="292"/>
        <line x1="127.07106781" y1="292.00001049" x2="128.07106781" y2="292"/>
        <line x1="128.07106781" y1="292" x2="128.07106781" y2="293"/>
        <line x1="128.07106781" y1="293" x2="127.07106781" y2="293"/>
        <line x1="127.07106781" y1="293" x2="127.07106781" y2="294"/>
        <line x1="127.07106781" y1="294.00001049" x2="128.07106781" y2="294"/>
        <line x1="128.07106781" y1="294" x2="128.07106781" y2="295"/>
        <line x1="128.07106781" y1="295" x2="127.07106781" y2="295"/>
        <line x1="127.07106781" y1="295" x2="127.07106781" y2="296"/>
        <line x1="127.07106781" y1="296.00001049" x2="128.07106781" y2="296"/>
        <line x1="128.07106781" y1="296" x2="128.07106781" y2="297"/>
        <line x1="128.07106781" y1="297" x2="127.07106781" y2="297"/>
        <line x1="127.07106781" y1="297" x2="127.07106781" y2="298"/>
        <line x1="127.07106781" y1="298.00001049" x2="128.07106781" y2="298"/>
        <line x1="128.07106781" y1="298" x2="128.07106781" y2="299"/>
        <line x1="128.07106781" y1="299" x2="127.07106781" y2="299"/>
        <line x1="127.07106781" y1="299" x2="127.07106781" y2="300"/>
        <line x1="127.07106781" y1="300.00001049" x2="128.07106781" y2="300"/>
        <line x1="128.07106781" y1="300" x2="128.07106781" y2="301"/>
        <line x1="128.07106781" y1="301" x2="127.07106781" y2="301"/>
        <line x1="127.07106781" y1="301" x2="127.07106781" y2="302"/>
        <line x1="127.07106781" y1="302.00001049" x2="128.07106781" y2="302"/>
        <line x1="128.07106781" y1="302" x2="128.07106781" y2="303"/>
        <line x1="128.07106781" y1="303" x2="127.07106781" y2="303"/>
        <line x1="127.07106781" y1="303" x2="127.07106781" y2="304"/>
        <line x1="127.07106781" y1="304.00001049" x2="128.07106781" y2="304"/>
        <line x1="128.07106781" y1="304" x2="128.07106781" y2="305"/>
        <line x1="128.07106781" y1="305" x2="127.07106781" y2="305"/>
        <line x1="127.07106781" y1="305" x2="127.07106781" y2="306"/>
        <line x1="127.07106781" y1="306.00001049" x2="128.07106781" y2="306"/>
        <line x1="128.07106781" y1="306" x2="128.07106781" y2="307"/>
        <line x1="128.07106781" y1="307" x2="127.07106781" y2="307"/>
        <line x1="127.07106781" y1="307" x2="127.07106781" y2="308"/>
        <line x1="127.07106781" y1="308.00001049" x2="128.07106781" y2="308"/>
        <line x1="128.07106781" y1="308" x2="128.07106781" y2="309"/>
        <line x1="128.07106781" y1="309" x2="127.07106781" y2="309"/>
        <line x1="127.07106781" y1="309" x2="127.07106781" y2="310"/>
        <line x1="127.07106781" y1="310.00001049" x2="128.07106781" y2="310"/>
        <line x1="128.07106781" y1="310" x2="128.07106781" y2="311"/>
        <line x1="128.07106781" y1="311" x2="127.07106781" y2="311"/>
        <line x1="127.07106781" y1="311" x2="127.07106781" y2="312"/>
        <line x1="127.07106781" y1="312.00001049" x2="128.07106781" y2="312"/>
        <line x1="128.07106781" y1="312" x2="128.07106781" y2="313"/>
        <line x1="128.07106781" y1="313" x2="127.07106781" y2="313"/>
        <line x1="127.07106781" y1="313" x2="127.07106781" y2="314"/>
        <line x1="127.07106781" y1="314.00001049" x2="128.07106781" y2="314"/>
        <line x1="128.07106781" y1="314" x2="128.07106781" y2="315"/>
        <line x1="128.07106781" y1="315" x2="127.07106781" y2="315"/>
        <line x1="127.07106781" y1="315" x2="127.07106781" y2="316"/>
        <line x1="127.07106781" y1="316.00001049" x2="128.07106781" y2="316"/>
        <line x1="128.07106781" y1="316" x2="128.07106781" y2="317"/>
        <line x1="128.07106781" y1="317" x2="127.07106781" y2="317"/>
        <line x1="127.07106781" y1="317" x2="127.07106781" y2="318"/>
        <line x1="127.07106781" y1="318.00001049" x2="128.07106781" y2="318"/>
        <line x1="128.07106781" y1="318" x2="128.07106781" y2="319"/>
        <line x1="128.07106781" y1="319" x2="127.07106781" y2="319"/>
        <line x1="127.07106781" y1="319" x2="127.07106781" y2="320"/>
        <line x1="127.07106781" y1="320.00001049" x2="128.07106781" y2="320"/>
        <line x1="128.07106781" y1="320" x2="128.07106781" y2="321"/>
        <line x1="128.07106781" y1="321" x2="127.07106781" y2="321"/>
        <line x1="127.07106781" y1="321" x2="127.07106781" y2="322"/>
        <line x1="127.07106781" y1="322.00001049" x2="128.07106781" y2="322"/>
        <line x1="128.07106781" y1="322" x2="128.07106781" y2="323"/>
        <line x1="128.07106781" y1="323" x2="127.07106781" y2="323"/>
        <line x1="127.07106781" y1="323" x2="127.07106781" y2="324"/>
        <line x1="127.07106781" y1="324.00001049" x2="128.07106781" y2="324"/>
        <line x1="128.07106781" y1="324" x2="128.07106781" y2="325"/>
        <line x1="128.07106781" y1="325" x2="127.07106781" y2="325"/>
        <line x1="127.07106781" y1="325" x2="127.07106781" y2="326"/>
        <line x1="127.07106781" y1="326.00001049" x2="128.07106781" y2="326"/>
        <line x1="128.07106781" y1="326" x2="128.07106781" y2="327"/>
        <line x1="128.07106781" y1="327" x2="127.07106781" y2="327"/>
        <line x1="127.07106781" y1="327" x2="127.07106781" y2="328"/>
        <line x1="127.07106781" y1="328.00001049" x2="128.07106781" y2="328"/>
        <line x1="128.07106781" y1="328" x2="128.07106781" y2="329"/>
        <line x1="128.07106781" y1="329" x2="127.07106781" y2="329"/>
        <line x1="127.07106781" y1="329" x2="127.07106781" y2="330"/>
        <line x1="87.07106781" y1="290" x2="87.07106781" y2="330"/>
        <path d="M77.07106781,339.99998951 A10,10 0 0,0 87.07106781,329.99998951 "/>
        <path d="M87.07106781,290.00001049 A10,10 0 0,0 77.07106781,280.00001049 "/>
        <circle cx="67.07106781" cy="290" r="1.5"/>
        <circle cx="67.07106781" cy="330" r="1.5"/>
        <line x1="53.07106781" y1="305.5" x2="53.07106781" y2="314.5"/>
        <line x1="56.07106781" y1="305.5" x2="56.07106781" y2="314.5"/>
        <line x1="53.07106781" y1="305.5" x2="56.07106781" y2="305.5"/>
        <line x1="53.07106781" y1="314.5" x2="56.07106781" y2="314.5"/>
        <path d="M47.07106781,329.99998951 A10,10 0 0,0 57.07106781,339.99998951 "/>
        <path d="M57.07106781,280.00001049 A10,10 0 0,0 47.07106781,290.00001049 "/>
        <line x1="57.07106781" y1="340" x2="77.07106781" y2="340"/>
        <line x1="47.07106781" y1="290.00001049" x2="46.07106781" y2="290"/>
        <line x1="46.07106781" y1="290" x2="46.07106781" y2="291"/>
        <line x1="46.07106781" y1="291" x2="47.07106781" y2="291"/>
        <line x1="47.07106781" y1="291" x2="47.07106781" y2="292"/>
        <line x1="47.07106781" y1="292.00001049" x2="46.07106781" y2="292"/>
        <line x1="46.07106781" y1="292" x2="46.07106781" y2="293"/>
        <line x1="46.07106781" y1="293" x2="47.07106781" y2="293"/>
        <line x1="47.07106781" y1="293" x2="47.07106781" y2="294"/>
        <line x1="47.07106781" y1="294.00001049" x2="46.07106781" y2="294"/>
        <line x1="46.07106781" y1="294" x2="46.07106781" y2="295"/>
        <line x1="46.07106781" y1="295" x2="47.07106781" y2="295"/>
        <line x1="47.07106781" y1="295" x2="47.07106781" y2="296"/>
        <line x1="47.07106781" y1="296.00001049" x2="46.07106781" y2="296"/>
        <line x1="46.07106781" y1="296" x2="46.07106781" y2="297"/>
        <line x1="46.07106781" y1="297" x2="47.07106781" y2="297"/>
        <line x1="47.07106781" y1="297" x2="47.07106781" y2="298"/>
        <line x1="47.07106781" y1="298.00001049" x2="46.07106781" y2="298"/>
        <line x1="46.07106781" y1="298" x2="46.07106781" y2="299"/>
        <line x1="46.07106781" y1="299" x2="47.07106781" y2="299"/>
        <line x1="47.07106781" y1="299" x2="47.07106781" y2="300"/>
        <line x1="47.07106781" y1="300.00001049" x2="46.07106781" y2="300"/>
        <line x1="46.07106781" y1="300" x2="46.07106781" y2="301"/>
        <line x1="46.07106781" y1="301" x2="47.07106781" y2="301"/>
        <line x1="47.07106781" y1="301" x2="47.07106781" y2="302"/>
        <line x1="47.07106781" y1="302.00001049" x2="46.07106781" y2="302"/>
        <line x1="46.07106781" y1="302" x2="46.07106781" y2="303"/>
        <line x1="46.07106781" y1="303" x2="47.07106781" y2="303"/>
        <line x1="47.07106781" y1="303" x2="47.07106781" y2="304"/>
        <line x1="47.07106781" y1="304.00001049" x2="46.07106781" y2="304"/>
        <line x1="46.07106781" y1="304" x2="46.07106781" y2="305"/>
        <line x1="46.07106781" y1="305" x2="47.07106781" y2="305"/>
        <line x1="47.07106781" y1="305" x2="47.07106781" y2="306"/>
        <line x1="47.07106781" y1="306.00001049" x2="46.07106781" y2="306"/>
        <line x1="46.07106781" y1="306" x2="46.07106781" y2="307"/>
        <line x1="46.07106781" y1="307" x2="47.07106781" y2="307"/>
        <line x1="47.07106781" y1="307" x2="47.07106781" y2="308"/>
        <line x1="47.07106781" y1="308.00001049" x2="46.07106781" y2="308"/>
        <line x1="46.07106781" y1="308" x2="46.07106781" y2="309"/>
        <line x1="46.07106781" y1="309" x2="47.07106781" y2="309"/>
        <line x1="47.07106781" y1="309" x2="47.07106781" y2="310"/>
        <line x1="47.07106781" y1="310.00001049" x2="46.07106781" y2="310"/>
        <line x1="46.07106781" y1="310" x2="46.07106781" y2="311"/>
        <line x1="46.07106781" y1="311" x2="47.07106781" y2="311"/>
        <line x1="47.07106781" y1="311" x2="47.07106781" y2="312"/>
        <line x1="47.07106781" y1="312.00001049" x2="46.07106781" y2="312"/>
        <line x1="46.07106781" y1="312" x2="46.07106781" y2="313"/>
        <line x1="46.07106781" y1="313" x2="47.07106781" y2="313"/>
        <line x1="47.07106781" y1="313" x2="47.07106781" y2="314"/>
        <line x1="47.07106781" y1="314.00001049" x2="46.07106781" y2="314"/>
        <line x1="46.07106781" y1="314" x2="46.07106781" y2="315"/>
        <line x1="46.07106781" y1="315" x2="47.07106781" y2="315"/>
        <line x1="47.07106781" y1="315" x2="47.07106781" y2="316"/>
        <line x1="47.07106781" y1="316.00001049" x2="46.07106781" y2="316"/>
        <line x1="46.07106781" y1="316" x2="46.07106781" y2="317"/>
        <line x1="46.07106781" y1="317" x2="47.07106781" y2="317"/>
        <line x1="47.07106781" y1="317" x2="47.07106781" y2="318"/>
        <line x1="47.07106781" y1="318.00001049" x2="46.07106781" y2="318"/>
        <line x1="46.07106781" y1="318" x2="46.07106781" y2="319"/>
        <line x1="46.07106781" y1="319" x2="47.07106781" y2="319"/>
        <line x1="47.07106781" y1="319" x2="47.07106781" y2="320"/>
        <line x1="47.07106781" y1="320.00001049" x2="46.07106781" y2="320"/>
        <line x1="46.07106781" y1="320" x2="46.07106781" y2="321"/>
        <line x1="46.07106781" y1="321" x2="47.07106781" y2="321"/>
        <line x1="47.07106781" y1="321" x2="47.07106781" y2="322"/>
        <line x1="47.07106781" y1="322.00001049" x2="46.07106781" y2="322"/>
        <line x1="46.07106781" y1="322" x2="46.07106781" y2="323"/>
        <line x1="46.07106781" y1="323" x2="47.07106781" y2="323"/>
        <line x1="47.07106781" y1="323" x2="47.07106781" y2="324"/>
        <line x1="47.07106781" y1="324.00001049" x2="46.07106781" y2="324"/>
        <line x1="46.07106781" y1="324" x2="46.07106781" y2="325"/>
        <line x1="46.07106781" y1="325" x2="47.07106781" y2="325"/>
        <line x1="47.07106781" y1="325" x2="47.07106781" y2="326"/>
        <line x1="47.07106781" y1="326.00001049" x2="46.07106781" y2="326"/>
        <line x1="46.07106781" y1="326" x2="46.07106781" y2="327"/>
        <line x1="46.07106781" y1="327" x2="47.07106781" y2="327"/>
        <line x1="47.07106781" y1="327" x2="47.07106781" y2="328"/>
        <line x1="47.07106781" y1="328.00001049" x2="46.07106781" y2="328"/>
        <line x1="46.07106781" y1="328" x2="46.07106781" y2="329"/>
        <line x1="46.07106781" y1="329" x2="47.07106781" y2="329"/>
        <line x1="47.07106781" y1="329" x2="47.07106781" y2="330"/>
        <line x1="87.07106781" y1="390" x2="87.07106781" y2="350"/>
        <path d="M97.07106781,340.00001049 A10,10 0 0,0 87.07106781,350.00001049 "/>
        <path d="M87.07106781,389.99998951 A10,10 0 0,0 97.07106781,399.99998951 "/>
        <circle cx="107.07106781" cy="390" r="1.5"/>
        <circle cx="107.07106781" cy="350" r="1.5"/>
        <line x1="121.07106781" y1="374.5" x2="121.07106781" y2="365.5"/>
        <line x1="118.07106781" y1="374.5" x2="118.07106781" y2="365.5"/>
        <line x1="121.07106781" y1="374.5" x2="118.07106781" y2="374.5"/>
        <line x1="121.07106781" y1="365.5" x2="118.07106781" y2="365.5"/>
        <path d="M127.07106781,350.00001049 A10,10 0 0,0 117.07106781,340.00001049 "/>
        <path d="M117.07106781,399.99998951 A10,10 0 0,0 127.07106781,389.99998951 "/>
        <line x1="117.07106781" y1="400" x2="97.07106781" y2="400"/>
        <line x1="127.07106781" y1="389.99998951" x2="128.07106781" y2="390"/>
        <line x1="128.07106781" y1="390" x2="128.07106781" y2="389"/>
        <line x1="128.07106781" y1="389" x2="127.07106781" y2="389"/>
        <line x1="127.07106781" y1="389" x2="127.07106781" y2="388"/>
        <line x1="127.07106781" y1="387.99998951" x2="128.07106781" y2="388"/>
        <line x1="128.07106781" y1="388" x2="128.07106781" y2="387"/>
        <line x1="128.07106781" y1="387" x2="127.07106781" y2="387"/>
        <line x1="127.07106781" y1="387" x2="127.07106781" y2="386"/>
        <line x1="127.07106781" y1="385.99998951" x2="128.07106781" y2="386"/>
        <line x1="128.07106781" y1="386" x2="128.07106781" y2="385"/>
        <line x1="128.07106781" y1="385" x2="127.07106781" y2="385"/>
        <line x1="127.07106781" y1="385" x2="127.07106781" y2="384"/>
        <line x1="127.07106781" y1="383.99998951" x2="128.07106781" y2="384"/>
        <line x1="128.07106781" y1="384" x2="128.07106781" y2="383"/>
        <line x1="128.07106781" y1="383" x2="127.07106781" y2="383"/>
        <line x1="127.07106781" y1="383" x2="127.07106781" y2="382"/>
        <line x1="127.07106781" y1="381.99998951" x2="128.07106781" y2="382"/>
        <line x1="128.07106781" y1="382" x2="128.07106781" y2="381"/>
        <line x1="128.07106781" y1="381" x2="127.07106781" y2="381"/>
        <line x1="127.07106781" y1="381" x2="127.07106781" y2="380"/>
        <line x1="127.07106781" y1="379.99998951" x2="128.07106781" y2="380"/>
        <line x1="128.07106781" y1="380" x2="128.07106781" y2="379"/>
        <line x1="128.07106781" y1="379" x2="127.07106781" y2="379"/>
        <line x1="127.07106781" y1="379" x2="127.07106781" y2="378"/>
        <line x1="127.07106781" y1="377.99998951" x2="128.07106781" y2="378"/>
        <line x1="128.07106781" y1="378" x2="128.07106781" y2="377"/>
        <line x1="128.07106781" y1="377" x2="127.07106781" y2="377"/>
        <line x1="127.07106781" y1="377" x2="127.07106781" y2="376"/>
        <line x1="127.07106781" y1="375.99998951" x2="128.07106781" y2="376"/>
        <line x1="128.07106781" y1="376" x2="128.07106781" y2="375"/>
        <line x1="128.07106781" y1="375" x2="127.07106781" y2="375"/>
        <line x1="127.07106781" y1="375" x2="127.07106781" y2="374"/>
        <line x1="127.07106781" y1="373.99998951" x2="128.07106781" y2="374"/>
        <line x1="128.07106781" y1="374" x2="128.07106781" y2="373"/>
        <line x1="128.07106781" y1="373" x2="127.07106781" y2="373"/>
        <line x1="127.07106781" y1="373" x2="127.07106781" y2="372"/>
        <line x1="127.07106781" y1="371.99998951" x2="128.07106781" y2="372"/>
        <line x1="128.07106781" y1="372" x2="128.07106781" y2="371"/>
        <line x1="128.07106781" y1="371" x2="127.07106781" y2="371"/>
        <line x1="127.07106781" y1="371" x2="127.07106781" y2="370"/>
        <line x1="127.07106781" y1="369.99998951" x2="128.07106781" y2="370"/>
        <line x1="128.07106781" y1="370" x2="128.07106781" y2="369"/>
        <line x1="128.07106781" y1="369" x2="127.07106781" y2="369"/>
        <line x1="127.07106781" y1="369" x2="127.07106781" y2="368"/>
        <line x1="127.07106781" y1="367.99998951" x2="128.07106781" y2="368"/>
        <line x1="128.07106781" y1="368" x2="128.07106781" y2="367"/>
        <line x1="128.07106781" y1="367" x2="127.07106781" y2="367"/>
        <line x1="127.07106781" y1="367" x2="127.07106781" y2="366"/>
        <line x1="127.07106781" y1="365.99998951" x2="128.07106781" y2="366"/>
        <line x1="128.07106781" y1="366" x2="128.07106781" y2="365"/>
        <line x1="128.07106781" y1="365" x2="127.07106781" y2="365"/>
        <line x1="127.07106781" y1="365" x2="127.07106781" y2="364"/>
        <line x1="127.07106781" y1="363.99998951" x2="128.07106781" y2="364"/>
        <line x1="128.07106781" y1="364" x2="128.07106781" y2="363"/>
        <line x1="128.07106781" y1="363" x2="127.07106781" y2="363"/>
        <line x1="127.07106781" y1="363" x2="127.07106781" y2="362"/>
        <line x1="127.07106781" y1="361.99998951" x2="128.07106781" y2="362"/>
        <line x1="128.07106781" y1="362" x2="128.07106781" y2="361"/>
        <line x1="128.07106781" y1="361" x2="127.07106781" y2="361"/>
        <line x1="127.07106781" y1="361" x2="127.07106781" y2="360"/>
        <line x1="127.07106781" y1="359.99998951" x2="128.07106781" y2="360"/>
        <line x1="128.07106781" y1="360" x2="128.07106781" y2="359"/>
        <line x1="128.07106781" y1="359" x2="127.07106781" y2="359"/>
        <line x1="127.07106781" y1="359" x2="127.07106781" y2="358"/>
        <line x1="127.07106781" y1="357.99998951" x2="128.07106781" y2="358"/>
        <line x1="128.07106781" y1="358" x2="128.07106781" y2="357"/>
        <line x1="128.07106781" y1="357" x2="127.07106781" y2="357"/>
        <line x1="127.07106781" y1="357" x2="127.07106781" y2="356"/>
        <line x1="127.07106781" y1="355.99998951" x2="128.07106781" y2="356"/>
        <line x1="128.07106781" y1="356" x2="128.07106781" y2="355"/>
        <line x1="128.07106781" y1="355" x2="127.07106781" y2="355"/>
        <line x1="127.07106781" y1="355" x2="127.07106781" y2="354"/>
        <line x1="127.07106781" y1="353.99998951" x2="128.07106781" y2="354"/>
        <line x1="128.07106781" y1="354" x2="128.07106781" y2="353"/>
        <line x1="128.07106781" y1="353" x2="127.07106781" y2="353"/>
        <line x1="127.07106781" y1="353" x2="127.07106781" y2="352"/>
        <line x1="127.07106781" y1="351.99998951" x2="128.07106781" y2="352"/>
        <line x1="128.07106781" y1="352" x2="128.07106781" y2="351"/>
        <line x1="128.07106781" y1="351" x2="127.07106781" y2="351"/>
        <line x1="127.07106781" y1="351" x2="127.07106781" y2="350"/>
        <path d="M87.07106781,350.00001049 A10,10 0 0,0 77.07106781,340.00001049 "/>
        <path d="M77.07106781,399.99998951 A10,10 0 0,0 87.07106781,389.99998951 "/>
        <circle cx="67.07106781" cy="390" r="1.5"/>
        <circle cx="67.07106781" cy="350" r="1.5"/>
        <line x1="53.07106781" y1="374.5" x2="53.07106781" y2="365.5"/>
        <line x1="56.07106781" y1="374.5" x2="56.07106781" y2="365.5"/>
        <line x1="53.07106781" y1="374.5" x2="56.07106781" y2="374.5"/>
        <line x1="53.07106781" y1="365.5" x2="56.07106781" y2="365.5"/>
        <path d="M57.07106781,340.00001049 A10,10 0 0,0 47.07106781,350.00001049 "/>
        <path d="M47.07106781,389.99998951 A10,10 0 0,0 57.07106781,399.99998951 "/>
        <line x1="57.07106781" y1="400" x2="77.07106781" y2="400"/>
        <line x1="47.07106781" y1="389.99998951" x2="46.07106781" y2="390"/>
        <line x1="46.07106781" y1="390" x2="46.07106781" y2="389"/>
        <line x1="46.07106781" y1="389" x2="47.07106781" y2="389"/>
        <line x1="47.07106781" y1="389" x2="47.07106781" y2="388"/>
        <line x1="47.07106781" y1="387.99998951" x2="46.07106781" y2="388"/>
        <line x1="46.07106781" y1="388" x2="46.07106781" y2="387"/>
        <line x1="46.07106781" y1="387" x2="47.07106781" y2="387"/>
        <line x1="47.07106781" y1="387" x2="47.07106781" y2="386"/>
        <line x1="47.07106781" y1="385.99998951" x2="46.07106781" y2="386"/>
        <line x1="46.07106781" y1="386" x2="46.07106781" y2="385"/>
        <line x1="46.07106781" y1="385" x2="47.07106781" y2="385"/>
        <line x1="47.07106781" y1="385" x2="47.07106781" y2="384"/>
        <line x1="47.07106781" y1="383.99998951" x2="46.07106781" y2="384"/>
        <line x1="46.07106781" y1="384" x2="46.07106781" y2="383"/>
        <line x1="46.07106781" y1="383" x2="47.07106781" y2="383"/>
        <line x1="47.07106781" y1="383" x2="47.07106781" y2="382"/>
        <line x1="47.07106781" y1="381.99998951" x2="46.07106781" y2="382"/>
        <line x1="46.07106781" y1="382" x2="46.07106781" y2="381"/>
        <line x1="46.07106781" y1="381" x2="47.07106781" y2="381"/>
        <line x1="47.07106781" y1="381" x2="47.07106781" y2="380"/>
        <line x1="47.07106781" y1="379.99998951" x2="46.07106781" y2="380"/>
        <line x1="46.07106781" y1="380" x2="46.07106781" y2="379"/>
        <line x1="46.07106781" y1="379" x2="47.07106781" y2="379"/>
        <line x1="47.07106781" y1="379" x2="47.07106781" y2="378"/>
        <line x1="47.07106781" y1="377.99998951" x2="46.07106781" y2="378"/>
        <line x1="46.07106781" y1="378" x2="46.07106781" y2="377"/>
        <line x1="46.07106781" y1="377" x2="47.07106781" y2="377"/>
        <line x1="47.07106781" y1="377" x2="47.07106781" y2="376"/>
        <line x1="47.07106781" y1="375.99998951" x2="46.07106781" y2="376"/>
        <line x1="46.07106781" y1="376" x2="46.07106781" y2="375"/>
        <line x1="46.07106781" y1="375" x2="47.07106781" y2="375"/>
        <line x1="47.07106781" y1="375" x2="47.07106781" y2="374"/>
        <line x1="47.07106781" y1="373.99998951" x2="46.07106781" y2="374"/>
        <line x1="46.07106781" y1="374" x2="46.07106781" y2="373"/>
        <line x1="46.07106781" y1="373" x2="47.07106781" y2="373"/>
        <line x1="47.07106781" y1="373" x2="47.07106781" y2="372"/>
        <line x1="47.07106781" y1="371.99998951" x2="46.07106781" y2="372"/>
        <line x1="46.07106781" y1="372" x2="46.07106781" y2="371"/>
        <line x1="46.07106781" y1="371" x2="47.07106781" y2="371"/>
        <line x1="47.07106781" y1="371" x2="47.07106781" y2="370"/>
        <line x1="47.07106781" y1="369.99998951" x2="46.07106781" y2="370"/>
        <line x1="46.07106781" y1="370" x2="46.07106781" y2="369"/>
        <line x1="46.07106781" y1="369" x2="47.07106781" y2="369"/>
        <line x1="47.07106781" y1="369" x2="47.07106781" y2="368"/>
        <line x1="47.07106781" y1="367.99998951" x2="46.07106781" y2="368"/>
        <line x1="46.07106781" y1="368" x2="46.07106781" y2="367"/>
        <line x1="46.07106781" y1="367" x2="47.07106781" y2="367"/>
        <line x1="47.07106781" y1="367" x2="47.07106781" y2="366"/>
        <line x1="47.07106781" y1="365.99998951" x2="46.07106781" y2="366"/>
        <line x1="46.07106781" y1="366" x2="46.07106781" y2="365"/>
        <line x1="46.07106781" y1="365" x2="47.07106781" y2="365"/>
        <line x1="47.07106781" y1="365" x2="47.07106781" y2="364"/>
        <line x1="47.07106781" y1="363.99998951" x2="46.07106781" y2="364"/>
        <line x1="46.07106781" y1="364" x2="46.07106781" y2="363"/>
        <line x1="46.07106781" y1="363" x2="47.07106781" y2="363"/>
        <line x1="47.07106781" y1="363" x2="47.07106781" y2="362"/>
        <line x1="47.07106781" y1="361.99998951" x2="46.07106781" y2="362"/>
        <line x1="46.07106781" y1="362" x2="46.07106781" y2="361"/>
        <line x1="46.07106781" y1="361" x2="47.07106781" y2="361"/>
        <line x1="47.07106781" y1="361" x2="47.07106781" y2="360"/>
        <line x1="47.07106781" y1="359.99998951" x2="46.07106781" y2="360"/>
        <line x1="46.07106781" y1="360" x2="46.07106781" y2="359"/>
        <line x1="46.07106781" y1="359" x2="47.07106781" y2="359"/>
        <line x1="47.07106781" y1="359" x2="47.07106781" y2="358"/>
        <line x1="47.07106781" y1="357.99998951" x2="46.07106781" y2="358"/>
        <line x1="46.07106781" y1="358" x2="46.07106781" y2="357"/>
        <line x1="46.07106781" y1="357" x2="47.07106781" y2="357"/>
        <line x1="47.07106781" y1="357" x2="47.07106781" y2="356"/>
        <line x1="47.07106781" y1="355.99998951" x2="46.07106781" y2="356"/>
        <line x1="46.07106781" y1="356" x2="46.07106781" y2="355"/>
        <line x1="46.07106781" y1="355" x2="47.07106781" y2="355"/>
        <line x1="47.07106781" y1="355" x2="47.07106781" y2="354"/>
        <line x1="47.07106781" y1="353.99998951" x2="46.07106781" y2="354"/>
        <line x1="46.07106781" y1="354" x2="46.07106781" y2="353"/>
        <line x1="46.07106781" y1="353" x2="47.07106781" y2="353"/>
        <line x1="47.07106781" y1="353" x2="47.07106781" y2="352"/>
        <line x1="47.07106781" y1="351.99998951" x2="46.07106781" y2="352"/>
        <line x1="46.07106781" y1="352" x2="46.07106781" y2="351"/>
        <line x1="46.07106781" y1="351" x2="47.07106781" y2="351"/>
        <line x1="47.07106781" y1="351" x2="47.07106781" y2="350"/>
        <line x1="57.07106781" y1="280.00001049" x2="77.07106781" y2="280.00001049"/>
        <line x1="97.07106781" y1="280" x2="117.07106781" y2="280.00001049"/>
    </g>
    <g lc:layername="noname" lc:is_locked="false" lc:is_construction="false" fill="none" stroke="black" stroke-width="1"/>
    <g lc:layername="noname2" lc:is_locked="false" lc:is_construction="false" fill="none" stroke="black" stroke-width="1"/>
</svg>
