999
dxfrw 0.6.3
  0
SECTION
  2
HEADER
  9
$ACADVER
  1
AC1021
  9
$DWGCODEPAGE
  3
ANSI_1252
  9
$INSBASE
 10
0
 20
0
 30
0
  9
$EXTMIN
 10
1005.5
 20
549.9643311523818
 30
0
  9
$EXTMAX
 10
2670
 20
1696
 30
0
  9
$LIMMIN
 10
0
 20
0
  9
$LIMMAX
 10
420
 20
297
  9
$ORTHOMODE
 70
    0
  9
$REGENMODE
 70
    1
  9
$FILLMODE
 70
    1
  9
$QTEXTMODE
 70
    0
  9
$MIRRTEXT
 70
    0
  9
$LTSCALE
 40
1
  9
$ATTMODE
 70
    0
  9
$TEXTSIZE
 40
2.5
  9
$TRACEWID
 40
15.68
  9
$TEXTSTYLE
  7
STANDARD
  9
$CLAYER
  8
0
  9
$CELTYPE
  6
BYLAYER
  9
$CECOLOR
 62
  256
  9
$CELTSCALE
 40
1
  9
$DISPSILH
 70
    0
  9
$DIMSCALE
 40
2.5
  9
$DIMASZ
 40
2.5
  9
$DIMEXO
 40
0.625
  9
$DIMDLI
 40
3.75
  9
$DIMRND
 40
0
  9
$DIMDLE
 40
0
  9
$DIMEXE
 40
1.25
  9
$DIMTP
 40
0
  9
$DIMTM
 40
0
  9
$DIMTXT
 40
2.5
  9
$DIMCEN
 40
2.5
  9
$DIMTSZ
 40
0
  9
$DIMTOL
 70
    0
  9
$DIMLIM
 70
    0
  9
$DIMTIH
 70
    0
  9
$DIMTOH
 70
    0
  9
$DIMSE1
 70
    0
  9
$DIMSE2
 70
    0
  9
$DIMTAD
 70
    1
  9
$DIMZIN
 70
    8
  9
$DIMBLK
  1

  9
$DIMASO
 70
    1
  9
$DIMSHO
 70
    1
  9
$DIMPOST
  1

  9
$DIMAPOST
  1

  9
$DIMALT
 70
    0
  9
$DIMALTD
 70
    3
  9
$DIMALTF
 40
0.03937
  9
$DIMLFAC
 40
1
  9
$DIMTOFL
 70
    1
  9
$DIMTVP
 40
0
  9
$DIMTIX
 70
    0
  9
$DIMSOXD
 70
    0
  9
$DIMSAH
 70
    0
  9
$DIMBLK1
  1

  9
$DIMBLK2
  1

  9
$DIMSTYLE
  2
STANDARD
  9
$DIMCLRD
 70
    0
  9
$DIMCLRE
 70
    0
  9
$DIMCLRT
 70
    0
  9
$DIMTFAC
 40
1
  9
$DIMGAP
 40
0.625
  9
$DIMJUST
 70
    0
  9
$DIMSD1
 70
    0
  9
$DIMSD2
 70
    0
  9
$DIMTOLJ
 70
    0
  9
$DIMTZIN
 70
    8
  9
$DIMALTZ
 70
    0
  9
$DIMALTTZ
 70
    0
  9
$DIMUPT
 70
    0
  9
$DIMDEC
 70
    2
  9
$DIMTDEC
 70
    2
  9
$DIMALTU
 70
    2
  9
$DIMALTTD
 70
    3
  9
$DIMTXSTY
  7
STANDARD
  9
$DIMAUNIT
 70
    0
  9
$DIMADEC
 70
    0
  9
$DIMALTRND
 40
0
  9
$DIMAZIN
 70
    0
  9
$DIMDSEP
 70
   44
  9
$DIMATFIT
 70
    3
  9
$DIMFRAC
 70
    0
  9
$DIMLDRBLK
  1
STANDARD
  9
$DIMLUNIT
 70
    2
  9
$DIMLWD
 70
   -2
  9
$DIMLWE
 70
   -2
  9
$DIMTMOVE
 70
    0
  9
$DIMFXL
 40
1
  9
$DIMFXLON
 70
    0
  9
$DIMJOGANG
 40
0.7854
  9
$DIMTFILL
 70
    0
  9
$DIMTFILLCLR
 70
    0
  9
$DIMARCSYM
 70
    0
  9
$DIMLTYPE
  6

  9
$DIMLTEX1
  6

  9
$DIMLTEX2
  6

  9
$LUNITS
 70
    2
  9
$LUPREC
 70
    4
  9
$SKETCHINC
 40
1
  9
$FILLETRAD
 40
0
  9
$AUNITS
 70
    0
  9
$AUPREC
 70
    2
  9
$MENU
  1
.
  9
$ELEVATION
 40
0
  9
$PELEVATION
 40
0
  9
$THICKNESS
 40
0
  9
$LIMCHECK
 70
    0
  9
$CHAMFERA
 40
0
  9
$CHAMFERB
 40
0
  9
$CHAMFERC
 40
0
  9
$CHAMFERD
 40
0
  9
$SKPOLY
 70
    0
  9
$USRTIMER
 70
    1
  9
$ANGBASE
 50
0
  9
$ANGDIR
 70
    0
  9
$PDMODE
 70
   34
  9
$PDSIZE
 40
0
  9
$PLINEWID
 40
0
  9
$SPLFRAME
 70
    0
  9
$SPLINETYPE
 70
    2
  9
$SPLINESEGS
 70
    8
  9
$HANDSEED
  5
20000
  9
$SURFTAB1
 70
    6
  9
$SURFTAB2
 70
    6
  9
$SURFTYPE
 70
    6
  9
$SURFU
 70
    6
  9
$SURFV
 70
    6
  9
$UCSBASE
  2

  9
$UCSNAME
  2

  9
$UCSORG
 10
0
 20
0
 30
0
  9
$UCSXDIR
 10
1
 20
0
 30
0
  9
$UCSYDIR
 10
0
 20
1
 30
0
  9
$UCSORTHOREF
  2

  9
$UCSORTHOVIEW
 70
    0
  9
$UCSORGTOP
 10
0
 20
0
 30
0
  9
$UCSORGBOTTOM
 10
0
 20
0
 30
0
  9
$UCSORGLEFT
 10
0
 20
0
 30
0
  9
$UCSORGRIGHT
 10
0
 20
0
 30
0
  9
$UCSORGFRONT
 10
0
 20
0
 30
0
  9
$UCSORGBACK
 10
0
 20
0
 30
0
  9
$PUCSBASE
  2

  9
$PUCSNAME
  2

  9
$PUCSORG
 10
0
 20
0
 30
0
  9
$PUCSXDIR
 10
1
 20
0
 30
0
  9
$PUCSYDIR
 10
0
 20
1
 30
0
  9
$PUCSORTHOREF
  2

  9
$PUCSORTHOVIEW
 70
    0
  9
$PUCSORGTOP
 10
0
 20
0
 30
0
  9
$PUCSORGBOTTOM
 10
0
 20
0
 30
0
  9
$PUCSORGLEFT
 10
0
 20
0
 30
0
  9
$PUCSORGRIGHT
 10
0
 20
0
 30
0
  9
$PUCSORGFRONT
 10
0
 20
0
 30
0
  9
$PUCSORGBACK
 10
0
 20
0
 30
0
  9
$USERI1
 70
    0
  9
$USERI2
 70
    0
  9
$USERI3
 70
    0
  9
$USERI4
 70
    0
  9
$USERI5
 70
    0
  9
$USERR1
 40
0
  9
$USERR2
 40
0
  9
$USERR3
 40
0
  9
$USERR4
 40
0
  9
$USERR5
 40
0
  9
$WORLDVIEW
 70
    1
  9
$SHADEDGE
 70
    3
  9
$SHADEDIF
 70
   70
  9
$TILEMODE
 70
    1
  9
$MAXACTVP
 70
   64
  9
$PINSBASE
 10
0
 20
0
 30
0
  9
$PLIMCHECK
 70
    0
  9
$PEXTMIN
 10
0
 20
0
 30
0
  9
$PEXTMAX
 10
0
 20
0
 30
0
  9
$GRIDMODE
 70
    1
  9
$SNAPSTYLE
 70
    0
  9
$PLIMMIN
 10
0
 20
0
  9
$PLIMMAX
 10
210
 20
297
  9
$UNITMODE
 70
    0
  9
$VISRETAIN
 70
    1
  9
$PLINEGEN
 70
    0
  9
$PSLTSCALE
 70
    1
  9
$TREEDEPTH
 70
 3020
  9
$CMLSTYLE
  2
Standard
  9
$CMLJUST
 70
    0
  9
$CMLSCALE
 40
20
  9
$PROXYGRAPHICS
 70
    1
  9
$MEASUREMENT
 70
    1
  9
$CELWEIGHT
370
   -1
  9
$ENDCAPS
280
    0
  9
$JOINSTYLE
280
    0
  9
$LWDISPLAY
290
    0
  9
$INSUNITS
 70
    4
  9
$HYPERLINKBASE
  1

  9
$STYLESHEET
  1

  9
$XEDIT
290
    1
  9
$CEPSNTYPE
380
    0
  9
$PSTYLEMODE
290
    1
  9
$EXTNAMES
290
    1
  9
$PSVPSCALE
 40
1
  9
$OLESTARTUP
290
    0
  9
$SORTENTS
280
  127
  9
$INDEXCTL
280
    0
  9
$HIDETEXT
280
    1
  9
$XCLIPFRAME
290
    0
  9
$HALOGAP
280
    0
  9
$OBSCOLOR
 70
  257
  9
$OBSLTYPE
280
    0
  9
$INTERSECTIONDISPLAY
280
    0
  9
$INTERSECTIONCOLOR
 70
  257
  9
$DIMASSOC
280
    1
  9
$PROJECTNAME
  1

  9
$CAMERADISPLAY
290
    0
  9
$LENSLENGTH
 40
50
  9
$CAMERAHEIGHT
 40
0
  9
$STEPSPERSEC
 40
2
  9
$STEPSIZE
 40
50
  9
$3DDWFPREC
 40
2
  9
$PSOLWIDTH
 40
5
  9
$PSOLHEIGHT
 40
80
  9
$LOFTANG1
 40
1.570796326794897
  9
$LOFTANG2
 40
1.570796326794897
  9
$LOFTMAG1
 40
0
  9
$LOFTMAG2
 40
0
  9
$LOFTPARAM
 70
    7
  9
$LOFTNORMALS
280
    1
  9
$LATITUDE
 40
1
  9
$LONGITUDE
 40
1
  9
$NORTHDIRECTION
 40
0
  9
$TIMEZONE
 70
-8000
  9
$LIGHTGLYPHDISPLAY
280
    1
  9
$TILEMODELIGHTSYNCH
280
    1
  9
$SOLIDHIST
280
    1
  9
$SHOWHIST
280
    1
  9
$DWFFRAME
280
    2
  9
$DGNFRAME
280
    0
  9
$REALWORLDSCALE
290
    1
  9
$INTERFERECOLOR
 62
    1
  9
$CSHADOW
280
    0
  9
$SHADOWPLANELOCATION
 40
0
  0
ENDSEC
  0
SECTION
  2
CLASSES
  0
ENDSEC
  0
SECTION
  2
TABLES
  0
TABLE
  2
VPORT
  5
8
330
0
100
AcDbSymbolTable
 70
    1
  0
VPORT
  5
31
330
2
100
AcDbSymbolTableRecord
100
AcDbViewportTableRecord
  2
*ACTIVE
 70
    0
 10
0
 20
0
 11
1
 21
1
 12
1451.166877172533
 22
887.2150644821098
 13
0
 23
0
 14
10
 24
10
 15
10
 25
10
 16
0
 26
0
 36
1
 17
0
 27
0
 37
0
 40
496.1887255450865
 41
1.674626865671642
 42
50
 43
0
 44
0
 50
0
 51
0
 71
    0
 72
  100
 73
    1
 74
    3
 75
    0
 76
    1
 77
    0
 78
    0
281
    0
 65
    1
110
0
120
0
130
0
111
1
121
0
131
0
112
0
122
1
132
0
 79
    0
146
0
348
10020
 60
    7
 61
    5
292
1
282
    1
141
0
142
0
 63
  250
421
3358443
  0
ENDTAB
  0
TABLE
  2
LTYPE
  5
5
330
0
100
AcDbSymbolTable
 70
    4
  0
LTYPE
  5
14
330
5
100
AcDbSymbolTableRecord
100
AcDbLinetypeTableRecord
  2
ByBlock
 70
    0
  3

 72
   65
 73
    0
 40
0
  0
LTYPE
  5
15
330
5
100
AcDbSymbolTableRecord
100
AcDbLinetypeTableRecord
  2
ByLayer
 70
    0
  3

 72
   65
 73
    0
 40
0
  0
LTYPE
  5
16
330
5
100
AcDbSymbolTableRecord
100
AcDbLinetypeTableRecord
  2
Continuous
 70
    0
  3
Solid line
 72
   65
 73
    0
 40
0
  0
LTYPE
  5
32
330
5
100
AcDbSymbolTableRecord
100
AcDbLinetypeTableRecord
  2
DOT
 70
    0
  3
Dot . . . . . . . . . . . . . . . . . . . . . .
 72
   65
 73
    2
 40
6.35
 49
0
 74
    0
 49
-6.35
 74
    0
  0
LTYPE
  5
33
330
5
100
AcDbSymbolTableRecord
100
AcDbLinetypeTableRecord
  2
DOTTINY
 70
    0
  3
Dot (.15x) .....................................
 72
   65
 73
    2
 40
0.9525
 49
0
 74
    0
 49
-0.9525
 74
    0
  0
LTYPE
  5
34
330
5
100
AcDbSymbolTableRecord
100
AcDbLinetypeTableRecord
  2
DOT2
 70
    0
  3
Dot (.5x) .....................................
 72
   65
 73
    2
 40
3.175
 49
0
 74
    0
 49
-3.175
 74
    0
  0
LTYPE
  5
35
330
5
100
AcDbSymbolTableRecord
100
AcDbLinetypeTableRecord
  2
DOTX2
 70
    0
  3
Dot (2x) .  .  .  .  .  .  .  .  .  .  .  .  .
 72
   65
 73
    2
 40
12.7
 49
0
 74
    0
 49
-12.7
 74
    0
  0
LTYPE
  5
36
330
5
100
AcDbSymbolTableRecord
100
AcDbLinetypeTableRecord
  2
DASHED
 70
    0
  3
Dashed _ _ _ _ _ _ _ _ _ _ _ _ _ _ _ _ _
 72
   65
 73
    2
 40
19.05
 49
12.7
 74
    0
 49
-6.35
 74
    0
  0
LTYPE
  5
37
330
5
100
AcDbSymbolTableRecord
100
AcDbLinetypeTableRecord
  2
DASHEDTINY
 70
    0
  3
Dashed (.15x) _ _ _ _ _ _ _ _ _ _ _ _ _ _ _ _ _
 72
   65
 73
    2
 40
2.8575
 49
1.905
 74
    0
 49
-0.9525
 74
    0
  0
LTYPE
  5
38
330
5
100
AcDbSymbolTableRecord
100
AcDbLinetypeTableRecord
  2
DASHED2
 70
    0
  3
Dashed (.5x) _ _ _ _ _ _ _ _ _ _ _ _ _ _ _ _ _
 72
   65
 73
    2
 40
9.524999999999999
 49
6.35
 74
    0
 49
-3.175
 74
    0
  0
LTYPE
  5
39
330
5
100
AcDbSymbolTableRecord
100
AcDbLinetypeTableRecord
  2
DASHEDX2
 70
    0
  3
Dashed (2x) ____  ____  ____  ____  ____  ___
 72
   65
 73
    2
 40
38.09999999999999
 49
25.4
 74
    0
 49
-12.7
 74
    0
  0
LTYPE
  5
3A
330
5
100
AcDbSymbolTableRecord
100
AcDbLinetypeTableRecord
  2
DASHDOT
 70
    0
  3
Dash dot __ . __ . __ . __ . __ . __ . __ . __
 72
   65
 73
    4
 40
25.4
 49
12.7
 74
    0
 49
-6.35
 74
    0
 49
0
 74
    0
 49
-6.35
 74
    0
  0
LTYPE
  5
3B
330
5
100
AcDbSymbolTableRecord
100
AcDbLinetypeTableRecord
  2
DASHDOTTINY
 70
    0
  3
Dash dot (.15x) _._._._._._._._._._._._._._._.
 72
   65
 73
    4
 40
3.81
 49
1.905
 74
    0
 49
-0.9525
 74
    0
 49
0
 74
    0
 49
-0.9525
 74
    0
  0
LTYPE
  5
3C
330
5
100
AcDbSymbolTableRecord
100
AcDbLinetypeTableRecord
  2
DASHDOT2
 70
    0
  3
Dash dot (.5x) _._._._._._._._._._._._._._._.
 72
   65
 73
    4
 40
12.7
 49
6.35
 74
    0
 49
-3.175
 74
    0
 49
0
 74
    0
 49
-3.175
 74
    0
  0
LTYPE
  5
3D
330
5
100
AcDbSymbolTableRecord
100
AcDbLinetypeTableRecord
  2
DASHDOTX2
 70
    0
  3
Dash dot (2x) ____  .  ____  .  ____  .  ___
 72
   65
 73
    4
 40
50.8
 49
25.4
 74
    0
 49
-12.7
 74
    0
 49
0
 74
    0
 49
-12.7
 74
    0
  0
LTYPE
  5
3E
330
5
100
AcDbSymbolTableRecord
100
AcDbLinetypeTableRecord
  2
DIVIDE
 70
    0
  3
Divide ____ . . ____ . . ____ . . ____ . . ____
 72
   65
 73
    6
 40
31.75
 49
12.7
 74
    0
 49
-6.35
 74
    0
 49
0
 74
    0
 49
-6.35
 74
    0
 49
0
 74
    0
 49
-6.35
 74
    0
  0
LTYPE
  5
3F
330
5
100
AcDbSymbolTableRecord
100
AcDbLinetypeTableRecord
  2
DIVIDETINY
 70
    0
  3
Divide (.15x) __..__..__..__..__..__..__..__.._
 72
   65
 73
    6
 40
4.7625
 49
1.905
 74
    0
 49
-0.9525
 74
    0
 49
0
 74
    0
 49
-0.9525
 74
    0
 49
0
 74
    0
 49
-0.9525
 74
    0
  0
LTYPE
  5
40
330
5
100
AcDbSymbolTableRecord
100
AcDbLinetypeTableRecord
  2
DIVIDE2
 70
    0
  3
Divide (.5x) __..__..__..__..__..__..__..__.._
 72
   65
 73
    6
 40
15.875
 49
6.35
 74
    0
 49
-3.175
 74
    0
 49
0
 74
    0
 49
-3.175
 74
    0
 49
0
 74
    0
 49
-3.175
 74
    0
  0
LTYPE
  5
41
330
5
100
AcDbSymbolTableRecord
100
AcDbLinetypeTableRecord
  2
DIVIDEX2
 70
    0
  3
Divide (2x) ________  .  .  ________  .  .  _
 72
   65
 73
    6
 40
63.5
 49
25.4
 74
    0
 49
-12.7
 74
    0
 49
0
 74
    0
 49
-12.7
 74
    0
 49
0
 74
    0
 49
-12.7
 74
    0
  0
LTYPE
  5
42
330
5
100
AcDbSymbolTableRecord
100
AcDbLinetypeTableRecord
  2
BORDER
 70
    0
  3
Border __ __ . __ __ . __ __ . __ __ . __ __ .
 72
   65
 73
    6
 40
44.45
 49
12.7
 74
    0
 49
-6.35
 74
    0
 49
12.7
 74
    0
 49
-6.35
 74
    0
 49
0
 74
    0
 49
-6.35
 74
    0
  0
LTYPE
  5
43
330
5
100
AcDbSymbolTableRecord
100
AcDbLinetypeTableRecord
  2
BORDERTINY
 70
    0
  3
Border (.15x) __.__.__.__.__.__.__.__.__.__.__.
 72
   65
 73
    6
 40
6.6675
 49
1.905
 74
    0
 49
-0.9525
 74
    0
 49
1.905
 74
    0
 49
-0.9525
 74
    0
 49
0
 74
    0
 49
-0.9525
 74
    0
  0
LTYPE
  5
44
330
5
100
AcDbSymbolTableRecord
100
AcDbLinetypeTableRecord
  2
BORDER2
 70
    0
  3
Border (.5x) __.__.__.__.__.__.__.__.__.__.__.
 72
   65
 73
    6
 40
22.225
 49
6.35
 74
    0
 49
-3.175
 74
    0
 49
6.35
 74
    0
 49
-3.175
 74
    0
 49
0
 74
    0
 49
-3.175
 74
    0
  0
LTYPE
  5
45
330
5
100
AcDbSymbolTableRecord
100
AcDbLinetypeTableRecord
  2
BORDERX2
 70
    0
  3
Border (2x) ____  ____  .  ____  ____  .  ___
 72
   65
 73
    6
 40
88.89999999999999
 49
25.4
 74
    0
 49
-12.7
 74
    0
 49
25.4
 74
    0
 49
-12.7
 74
    0
 49
0
 74
    0
 49
-12.7
 74
    0
  0
LTYPE
  5
46
330
5
100
AcDbSymbolTableRecord
100
AcDbLinetypeTableRecord
  2
CENTER
 70
    0
  3
Center ____ _ ____ _ ____ _ ____ _ ____ _ ____
 72
   65
 73
    4
 40
50.8
 49
31.75
 74
    0
 49
-6.35
 74
    0
 49
6.35
 74
    0
 49
-6.35
 74
    0
  0
LTYPE
  5
47
330
5
100
AcDbSymbolTableRecord
100
AcDbLinetypeTableRecord
  2
CENTERTINY
 70
    0
  3
Center (.15x) ___ _ ___ _ ___ _ ___ _ ___ _ ___
 72
   65
 73
    4
 40
7.62
 49
4.7625
 74
    0
 49
-0.9525
 74
    0
 49
0.9525
 74
    0
 49
-0.9525
 74
    0
  0
LTYPE
  5
48
330
5
100
AcDbSymbolTableRecord
100
AcDbLinetypeTableRecord
  2
CENTER2
 70
    0
  3
Center (.5x) ___ _ ___ _ ___ _ ___ _ ___ _ ___
 72
   65
 73
    4
 40
28.575
 49
19.05
 74
    0
 49
-3.175
 74
    0
 49
3.175
 74
    0
 49
-3.175
 74
    0
  0
LTYPE
  5
49
330
5
100
AcDbSymbolTableRecord
100
AcDbLinetypeTableRecord
  2
CENTERX2
 70
    0
  3
Center (2x) ________  __  ________  __  _____
 72
   65
 73
    4
 40
101.6
 49
63.5
 74
    0
 49
-12.7
 74
    0
 49
12.7
 74
    0
 49
-12.7
 74
    0
  0
ENDTAB
  0
TABLE
  2
LAYER
  5
2
330
0
100
AcDbSymbolTable
 70
    1
  0
LAYER
  5
10
330
2
100
AcDbSymbolTableRecord
100
AcDbLayerTableRecord
  2
0
 70
    0
 62
    7
  6
CONTINUOUS
370
    0
390
F
  0
LAYER
  5
4A
330
2
100
AcDbSymbolTableRecord
100
AcDbLayerTableRecord
  2
noname
 70
    0
 62
    3
  6
CONTINUOUS
370
    0
390
F
  0
LAYER
  5
4B
330
2
100
AcDbSymbolTableRecord
100
AcDbLayerTableRecord
  2
noname2
 70
    0
 62
    5
  6
CONTINUOUS
370
    0
390
F
  0
ENDTAB
  0
TABLE
  2
STYLE
  5
3
330
0
100
AcDbSymbolTable
 70
    3
  0
STYLE
  5
4C
330
2
100
AcDbSymbolTableRecord
100
AcDbTextStyleTableRecord
  2
Standard
 70
    0
 40
0
 41
1
 50
0
 71
    0
 42
1
  3
txt
  4

  0
ENDTAB
  0
TABLE
  2
VIEW
  5
6
330
0
100
AcDbSymbolTable
 70
    0
  0
ENDTAB
  0
TABLE
  2
UCS
  5
7
330
0
100
AcDbSymbolTable
 70
    0
  0
ENDTAB
  0
TABLE
  2
APPID
  5
9
330
0
100
AcDbSymbolTable
 70
    1
  0
APPID
  5
12
330
9
100
AcDbSymbolTableRecord
100
AcDbRegAppTableRecord
  2
ACAD
 70
    0
  0
APPID
  5
4D
330
9
100
AcDbSymbolTableRecord
100
AcDbRegAppTableRecord
  2
LibreCad
 70
    0
  0
ENDTAB
  0
TABLE
  2
DIMSTYLE
  5
A
330
0
100
AcDbSymbolTable
 70
    1
100
AcDbDimStyleTable
 71
    1
  0
DIMSTYLE
105
4E
330
A
100
AcDbSymbolTableRecord
100
AcDbDimStyleTableRecord
  2
Standard
 70
    0
 40
2.5
 41
2.5
 42
0.625
 43
0.38
 44
1.25
 45
0
 46
0
 47
0
 48
0
 49
1
140
2.5
141
0.09
142
0
143
25.4
144
1
145
0
146
1
147
0.625
148
0
 71
    0
 72
    0
 73
    0
 74
    1
 75
    0
 76
    0
 77
    0
 78
    8
 79
    0
170
    0
171
    2
172
    0
173
    0
174
    0
175
    0
176
    0
177
    0
178
    0
179
    0
271
    2
272
    4
273
    2
274
    2
275
    0
276
    0
277
    2
278
   44
279
    0
280
    0
281
    0
282
    0
283
    1
284
    0
285
    0
286
    0
288
    0
289
    3
340
STANDARD
341

371
   -2
372
   -2
  0
ENDTAB
  0
TABLE
  2
BLOCK_RECORD
  5
1
330
0
100
AcDbSymbolTable
 70
    2
  0
BLOCK_RECORD
  5
1F
330
1
100
AcDbSymbolTableRecord
100
AcDbBlockTableRecord
  2
*Model_Space
 70
    0
280
    1
281
    0
  0
BLOCK_RECORD
  5
1E
330
1
100
AcDbSymbolTableRecord
100
AcDbBlockTableRecord
  2
*Paper_Space
 70
    0
280
    1
281
    0
  0
BLOCK_RECORD
  5
4F
330
1
100
AcDbSymbolTableRecord
100
AcDbBlockTableRecord
  2
esquemaArduino
 70
    0
280
    1
281
    0
  0
ENDTAB
  0
ENDSEC
  0
SECTION
  2
BLOCKS
  0
BLOCK
  5
20
330
1F
100
AcDbEntity
  8
0
100
AcDbBlockBegin
  2
*Model_Space
 70
    0
 10
0
 20
0
 30
0
  3
*Model_Space
  1

  0
ENDBLK
  5
21
330
1F
100
AcDbEntity
  8
0
100
AcDbBlockEnd
  0
BLOCK
  5
1C
330
1B
100
AcDbEntity
  8
0
100
AcDbBlockBegin
  2
*Paper_Space
 70
    0
 10
0
 20
0
 30
0
  3
*Paper_Space
  1

  0
ENDBLK
  5
1D
330
1F
100
AcDbEntity
  8
0
100
AcDbBlockEnd
  0
BLOCK
  5
50
330
4F
100
AcDbEntity
  8
0
100
AcDbBlockBegin
  2
esquemaArduino
 70
    0
 10
0
 20
0
  3
esquemaArduino
  1

  0
CIRCLE
  5
52
100
AcDbEntity
  8
0
  6
ByLayer
 62
  256
370
   -1
100
AcDbCircle
 10
13.97
 20
2.54000000000002
 40
1.5
  0
CIRCLE
  5
53
100
AcDbEntity
  8
0
  6
ByLayer
 62
  256
370
   -1
100
AcDbCircle
 10
66.04000000000002
 20
7.620000000000005
 40
1.5
  0
CIRCLE
  5
54
100
AcDbEntity
  8
0
  6
ByLayer
 62
  256
370
   -1
100
AcDbCircle
 10
96.51999999999998
 20
2.54000000000002
 40
1.5
  0
CIRCLE
  5
55
100
AcDbEntity
  8
0
  6
ByLayer
 62
  256
370
   -1
100
AcDbCircle
 10
15.23999999999999
 20
50.80000000000001
 40
1.5
  0
CIRCLE
  5
56
100
AcDbEntity
  8
0
  6
ByLayer
 62
  256
370
   -1
100
AcDbCircle
 10
90.17000000000002
 20
50.80000000000001
 40
1.5
  0
LINE
  5
57
100
AcDbEntity
  8
0
  6
ByLayer
 62
  256
370
   -1
100
AcDbLine
 10
0
 20
0
 11
0
 21
53.34
  0
LINE
  5
58
100
AcDbEntity
  8
0
  6
ByLayer
 62
  256
370
   -1
100
AcDbLine
 10
0
 20
53.34
 11
101.6
 21
53.34
  0
LINE
  5
59
100
AcDbEntity
  8
0
  6
ByLayer
 62
  256
370
   -1
100
AcDbLine
 10
101.6
 20
53.34
 11
101.6
 21
0
  0
LINE
  5
5A
100
AcDbEntity
  8
0
  6
ByLayer
 62
  256
370
   -1
100
AcDbLine
 10
101.6
 20
0
 11
0
 21
0
  0
ENDBLK
  5
51
330
4F
100
AcDbEntity
  8
0
100
AcDbBlockEnd
  0
ENDSEC
  0
SECTION
  2
ENTITIES
  0
LINE
  5
5B
100
AcDbEntity
  8
0
  6
ByLayer
 62
  256
370
   -1
100
AcDbLine
 10
2420
 20
1501.500049844082
 11
2509
 21
1501.500049844082
  0
LINE
  5
5C
100
AcDbEntity
  8
0
  6
ByLayer
 62
  256
370
   -1
100
AcDbLine
 10
2420
 20
1501.500049844083
 11
2509
 21
1501.500049844082
  0
CIRCLE
  5
5D
100
AcDbEntity
  8
0
  6
ByLayer
 62
  256
370
   -1
100
AcDbCircle
 10
2440.5
 20
1521.000099688165
 40
4
  0
CIRCLE
  5
5E
100
AcDbEntity
  8
0
  6
ByLayer
 62
  256
370
   -1
100
AcDbCircle
 10
2488.499999999845
 20
1521.000099688536
 40
4
  0
LINE
  5
5F
100
AcDbEntity
  8
0
  6
ByLayer
 62
  256
370
   -1
100
AcDbLine
 10
2456.5
 20
1527.000099688165
 11
2456.5
 21
1515.000099688165
  0
LINE
  5
60
100
AcDbEntity
  8
0
  6
ByLayer
 62
  256
370
   -1
100
AcDbLine
 10
2472.5
 20
1527.000099688165
 11
2472.5
 21
1515.000099688165
  0
LINE
  5
61
100
AcDbEntity
  8
0
  6
ByLayer
 62
  256
370
   -1
100
AcDbLine
 10
2456.5
 20
1515.000099688165
 11
2472.5
 21
1515.000099688165
  0
LINE
  5
62
100
AcDbEntity
  8
0
  6
ByLayer
 62
  256
370
   -1
100
AcDbLine
 10
2456.5
 20
1527.000099688165
 11
2472.5
 21
1527.000099688165
  0
LINE
  5
63
100
AcDbEntity
  8
0
  6
ByLayer
 62
  256
370
   -1
100
AcDbLine
 10
2419.999980154575
 20
1568.500099688271
 11
2509.000019845426
 21
1568.50009968827
  0
LINE
  5
64
100
AcDbEntity
  8
0
  6
ByLayer
 62
  256
370
   -1
100
AcDbLine
 10
2470.5
 20
1543.000099688165
 11
2470.5
 21
1548.500099688165
  0
LINE
  5
65
100
AcDbEntity
  8
0
  6
ByLayer
 62
  256
370
   -1
100
AcDbLine
 10
2482.5
 20
1543.000099688165
 11
2482.5
 21
1548.500099688165
  0
LINE
  5
66
100
AcDbEntity
  8
0
  6
ByLayer
 62
  256
370
   -1
100
AcDbLine
 10
2458.5
 20
1543.000099688165
 11
2458.5
 21
1548.500099688165
  0
LINE
  5
67
100
AcDbEntity
  8
0
  6
ByLayer
 62
  256
370
   -1
100
AcDbLine
 10
2446.5
 20
1543.000099688165
 11
2446.5
 21
1548.500099688165
  0
LINE
  5
68
100
AcDbEntity
  8
0
  6
ByLayer
 62
  256
370
   -1
100
AcDbLine
 10
2446.5
 20
1543.000099688165
 11
2458.5
 21
1543.000099688165
  0
LINE
  5
69
100
AcDbEntity
  8
0
  6
ByLayer
 62
  256
370
   -1
100
AcDbLine
 10
2446.5
 20
1548.500099688165
 11
2458.5
 21
1548.500099688165
  0
LINE
  5
6A
100
AcDbEntity
  8
0
  6
ByLayer
 62
  256
370
   -1
100
AcDbLine
 10
2470.5
 20
1543.000099688165
 11
2482.5
 21
1543.000099688165
  0
LINE
  5
6B
100
AcDbEntity
  8
0
  6
ByLayer
 62
  256
370
   -1
100
AcDbLine
 10
2470.5
 20
1548.500099688165
 11
2482.5
 21
1548.500099688165
  0
LINE
  5
6C
100
AcDbEntity
  8
0
  6
ByLayer
 62
  256
370
   -1
100
AcDbLine
 10
2509.00004668563
 20
1520.000142481851
 11
2513.500046685086
 21
1520.000072455224
  0
ARC
  5
6D
100
AcDbEntity
  8
0
  6
ByLayer
 62
  256
370
   -1
100
AcDbCircle
 10
2513.500031123613
 20
1519.000072455345
 40
1
100
AcDbArc
 50
359.9991083933004
 51
89.99910839330025
  0
LINE
  5
6E
100
AcDbEntity
  8
0
  6
ByLayer
 62
  256
370
   -1
100
AcDbLine
 10
2509.00000000088
 20
1529.000099688164
 11
2513.50000000088
 21
1529.000099688164
  0
ARC
  5
6F
100
AcDbEntity
  8
0
  6
ByLayer
 62
  256
370
   -1
100
AcDbCircle
 10
2513.50000000088
 20
1530.000099688164
 40
1
100
AcDbArc
 50
269.9999999999997
 51
359.9999999999997
  0
LINE
  5
70
100
AcDbEntity
  8
0
  6
ByLayer
 62
  256
370
   -1
100
AcDbLine
 10
2500.000000000879
 20
1520.000099688164
 11
2500.00000000088
 21
1523.000099688164
  0
LINE
  5
71
100
AcDbEntity
  8
0
  6
ByLayer
 62
  256
370
   -1
100
AcDbLine
 10
2500.00000000088
 20
1529.000099688164
 11
2500.00000000088
 21
1526.000099688164
  0
LINE
  5
72
100
AcDbEntity
  8
0
  6
ByLayer
 62
  256
370
   -1
100
AcDbLine
 10
2503.000000000879
 20
1520.000099688164
 11
2503.00000000088
 21
1523.000099688164
  0
LINE
  5
73
100
AcDbEntity
  8
0
  6
ByLayer
 62
  256
370
   -1
100
AcDbLine
 10
2503.00000000088
 20
1529.000099688164
 11
2503.00000000088
 21
1526.000099688164
  0
LINE
  5
74
100
AcDbEntity
  8
0
  6
ByLayer
 62
  256
370
   -1
100
AcDbLine
 10
2503.00000000088
 20
1529.000099688164
 11
2500.00000000088
 21
1529.000099688164
  0
LINE
  5
75
100
AcDbEntity
  8
0
  6
ByLayer
 62
  256
370
   -1
100
AcDbLine
 10
2503.00000000088
 20
1526.000099688164
 11
2509.00000000088
 21
1526.000099688164
  0
LINE
  5
76
100
AcDbEntity
  8
0
  6
ByLayer
 62
  256
370
   -1
100
AcDbLine
 10
2509.00000000088
 20
1523.000099688164
 11
2503.00000000088
 21
1523.000099688164
  0
LINE
  5
77
100
AcDbEntity
  8
0
  6
ByLayer
 62
  256
370
   -1
100
AcDbLine
 10
2503.000000000879
 20
1520.000099688164
 11
2500.000000000879
 21
1520.000099688164
  0
LINE
  5
78
100
AcDbEntity
  8
0
  6
ByLayer
 62
  256
370
   -1
100
AcDbLine
 10
2500.00000000088
 20
1526.000099688164
 11
2499.00000000088
 21
1526.000099688164
  0
LINE
  5
79
100
AcDbEntity
  8
0
  6
ByLayer
 62
  256
370
   -1
100
AcDbLine
 10
2499.00000000088
 20
1526.000099688164
 11
2499.00000000088
 21
1523.000099688164
  0
LINE
  5
7A
100
AcDbEntity
  8
0
  6
ByLayer
 62
  256
370
   -1
100
AcDbLine
 10
2499.00000000088
 20
1523.000099688164
 11
2500.00000000088
 21
1523.000099688164
  0
LINE
  5
7B
100
AcDbEntity
  8
0
  6
ByLayer
 62
  256
370
   -1
100
AcDbLine
 10
2509.00000000088
 20
1529.000099688164
 11
2509.00000000088
 21
1526.000099688164
  0
LINE
  5
7C
100
AcDbEntity
  8
0
  6
ByLayer
 62
  256
370
   -1
100
AcDbLine
 10
2508.999978592677
 20
1520.000132559501
 11
2509.00000000088
 21
1523.000099688164
  0
LINE
  5
7D
100
AcDbEntity
  8
0
  6
ByLayer
 62
  256
370
   -1
100
AcDbLine
 10
2428.999999999121
 20
1520.000099688165
 11
2428.99999999912
 21
1523.000099688165
  0
LINE
  5
7E
100
AcDbEntity
  8
0
  6
ByLayer
 62
  256
370
   -1
100
AcDbLine
 10
2428.99999999912
 20
1529.000099688165
 11
2428.99999999912
 21
1526.000099688165
  0
LINE
  5
7F
100
AcDbEntity
  8
0
  6
ByLayer
 62
  256
370
   -1
100
AcDbLine
 10
2425.999999999121
 20
1520.000099688165
 11
2425.99999999912
 21
1523.000099688165
  0
LINE
  5
80
100
AcDbEntity
  8
0
  6
ByLayer
 62
  256
370
   -1
100
AcDbLine
 10
2425.99999999912
 20
1529.000099688165
 11
2425.99999999912
 21
1526.000099688165
  0
LINE
  5
81
100
AcDbEntity
  8
0
  6
ByLayer
 62
  256
370
   -1
100
AcDbLine
 10
2425.99999999912
 20
1529.000099688165
 11
2428.99999999912
 21
1529.000099688165
  0
LINE
  5
82
100
AcDbEntity
  8
0
  6
ByLayer
 62
  256
370
   -1
100
AcDbLine
 10
2425.99999999912
 20
1526.000099688165
 11
2419.99999999912
 21
1526.000099688165
  0
LINE
  5
83
100
AcDbEntity
  8
0
  6
ByLayer
 62
  256
370
   -1
100
AcDbLine
 10
2419.99999999912
 20
1523.000099688165
 11
2425.99999999912
 21
1523.000099688165
  0
LINE
  5
84
100
AcDbEntity
  8
0
  6
ByLayer
 62
  256
370
   -1
100
AcDbLine
 10
2425.999999999121
 20
1520.000099688165
 11
2428.999999999121
 21
1520.000099688165
  0
LINE
  5
85
100
AcDbEntity
  8
0
  6
ByLayer
 62
  256
370
   -1
100
AcDbLine
 10
2428.99999999912
 20
1526.000099688165
 11
2429.99999999912
 21
1526.000099688165
  0
LINE
  5
86
100
AcDbEntity
  8
0
  6
ByLayer
 62
  256
370
   -1
100
AcDbLine
 10
2429.99999999912
 20
1526.000099688165
 11
2429.99999999912
 21
1523.000099688165
  0
LINE
  5
87
100
AcDbEntity
  8
0
  6
ByLayer
 62
  256
370
   -1
100
AcDbLine
 10
2429.99999999912
 20
1523.000099688165
 11
2428.99999999912
 21
1523.000099688165
  0
LINE
  5
88
100
AcDbEntity
  8
0
  6
ByLayer
 62
  256
370
   -1
100
AcDbLine
 10
2509.00000000088
 20
1512.000099688164
 11
2513.50000000088
 21
1512.000099688164
  0
ARC
  5
89
100
AcDbEntity
  8
0
  6
ByLayer
 62
  256
370
   -1
100
AcDbCircle
 10
2513.50000000088
 20
1513.000099688164
 40
1
100
AcDbArc
 50
269.9999999999997
 51
359.9999999999997
  0
LINE
  5
8A
100
AcDbEntity
  8
0
  6
ByLayer
 62
  256
370
   -1
100
AcDbLine
 10
2514.50000000088
 20
1513.000099688164
 11
2514.500031123492
 21
1519.000056893873
  0
LINE
  5
8B
100
AcDbEntity
  8
0
  6
ByLayer
 62
  256
370
   -1
100
AcDbLine
 10
2509
 20
1501.500049844082
 11
2509.00000000088
 21
1512.000099688164
  0
LINE
  5
8C
100
AcDbEntity
  8
0
  6
ByLayer
 62
  256
370
   -1
100
AcDbLine
 10
2509.00004668563
 20
1537.000142481851
 11
2513.500046685086
 21
1537.000072455224
  0
ARC
  5
8D
100
AcDbEntity
  8
0
  6
ByLayer
 62
  256
370
   -1
100
AcDbCircle
 10
2513.500031123613
 20
1536.000072455345
 40
1
100
AcDbArc
 50
359.9991083933004
 51
89.99910839330025
  0
LINE
  5
8E
100
AcDbEntity
  8
0
  6
ByLayer
 62
  256
370
   -1
100
AcDbLine
 10
2514.50000000088
 20
1530.000099688164
 11
2514.500031123492
 21
1536.000056893873
  0
LINE
  5
8F
100
AcDbEntity
  8
0
  6
ByLayer
 62
  256
370
   -1
100
AcDbLine
 10
2509
 20
1537.000099688164
 11
2509
 21
1543.000099688164
  0
LINE
  5
90
100
AcDbEntity
  8
0
  6
ByLayer
 62
  256
370
   -1
100
AcDbLine
 10
2419.99995331437
 20
1520.000142481851
 11
2415.499953314914
 21
1520.000072455225
  0
ARC
  5
91
100
AcDbEntity
  8
0
  6
ByLayer
 62
  256
370
   -1
100
AcDbCircle
 10
2415.499968876387
 20
1519.000072455346
 40
1
100
AcDbArc
 50
90.00089160669908
 51
180.0008916066991
  0
LINE
  5
92
100
AcDbEntity
  8
0
  6
ByLayer
 62
  256
370
   -1
100
AcDbLine
 10
2419.99999999912
 20
1529.000099688165
 11
2415.49999999912
 21
1529.000099688165
  0
ARC
  5
93
100
AcDbEntity
  8
0
  6
ByLayer
 62
  256
370
   -1
100
AcDbCircle
 10
2415.49999999912
 20
1530.000099688165
 40
1
100
AcDbArc
 50
179.9999999999997
 51
269.9999999999997
  0
LINE
  5
94
100
AcDbEntity
  8
0
  6
ByLayer
 62
  256
370
   -1
100
AcDbLine
 10
2419.99999999912
 20
1529.000099688165
 11
2419.99999999912
 21
1526.000099688165
  0
LINE
  5
95
100
AcDbEntity
  8
0
  6
ByLayer
 62
  256
370
   -1
100
AcDbLine
 10
2420.000021407323
 20
1520.000132559501
 11
2419.99999999912
 21
1523.000099688165
  0
LINE
  5
96
100
AcDbEntity
  8
0
  6
ByLayer
 62
  256
370
   -1
100
AcDbLine
 10
2419.99999999912
 20
1512.000099688165
 11
2415.49999999912
 21
1512.000099688165
  0
ARC
  5
97
100
AcDbEntity
  8
0
  6
ByLayer
 62
  256
370
   -1
100
AcDbCircle
 10
2415.49999999912
 20
1513.000099688165
 40
1
100
AcDbArc
 50
179.9999999999997
 51
269.9999999999997
  0
LINE
  5
98
100
AcDbEntity
  8
0
  6
ByLayer
 62
  256
370
   -1
100
AcDbLine
 10
2414.49999999912
 20
1513.000099688165
 11
2414.499968876508
 21
1519.000056893873
  0
LINE
  5
99
100
AcDbEntity
  8
0
  6
ByLayer
 62
  256
370
   -1
100
AcDbLine
 10
2420
 20
1501.500049844083
 11
2419.99999999912
 21
1512.000099688165
  0
LINE
  5
9A
100
AcDbEntity
  8
0
  6
ByLayer
 62
  256
370
   -1
100
AcDbLine
 10
2419.99995331437
 20
1537.000142481851
 11
2415.499953314914
 21
1537.000072455225
  0
ARC
  5
9B
100
AcDbEntity
  8
0
  6
ByLayer
 62
  256
370
   -1
100
AcDbCircle
 10
2415.499968876387
 20
1536.000072455346
 40
1
100
AcDbArc
 50
90.00089160669908
 51
180.0008916066991
  0
LINE
  5
9C
100
AcDbEntity
  8
0
  6
ByLayer
 62
  256
370
   -1
100
AcDbLine
 10
2414.49999999912
 20
1530.000099688165
 11
2414.499968876508
 21
1536.000056893873
  0
LINE
  5
9D
100
AcDbEntity
  8
0
  6
ByLayer
 62
  256
370
   -1
100
AcDbLine
 10
2420
 20
1537.000099688165
 11
2420
 21
1543.000099688165
  0
LINE
  5
9E
100
AcDbEntity
  8
0
  6
ByLayer
 62
  256
370
   -1
100
AcDbLine
 10
2509
 20
1554.700099688164
 11
2513.5
 21
1554.700099688164
  0
ARC
  5
9F
100
AcDbEntity
  8
0
  6
ByLayer
 62
  256
370
   -1
100
AcDbCircle
 10
2513.5
 20
1555.700099688164
 40
1
100
AcDbArc
 50
269.9999999999997
 51
359.9999999999997
  0
LINE
  5
A0
100
AcDbEntity
  8
0
  6
ByLayer
 62
  256
370
   -1
100
AcDbLine
 10
2509.000046684751
 20
1562.70014248185
 11
2513.500046684206
 21
1562.700072455224
  0
ARC
  5
A1
100
AcDbEntity
  8
0
  6
ByLayer
 62
  256
370
   -1
100
AcDbCircle
 10
2513.500031122734
 20
1561.700072455345
 40
1
100
AcDbArc
 50
359.9991083933004
 51
89.99910839330025
  0
LINE
  5
A2
100
AcDbEntity
  8
0
  6
ByLayer
 62
  256
370
   -1
100
AcDbLine
 10
2514.5
 20
1555.700099688164
 11
2514.500031122613
 21
1561.700056893872
  0
LINE
  5
A3
100
AcDbEntity
  8
0
  6
ByLayer
 62
  256
370
   -1
100
AcDbLine
 10
2509.000019845426
 20
1568.50009968827
 11
2509.000046684751
 21
1562.70014248185
  0
LINE
  5
A4
100
AcDbEntity
  8
0
  6
ByLayer
 62
  256
370
   -1
100
AcDbLine
 10
2509
 20
1548.700099688165
 11
2509
 21
1554.700099688164
  0
LINE
  5
A5
100
AcDbEntity
  8
0
  6
ByLayer
 62
  256
370
   -1
100
AcDbLine
 10
2420
 20
1554.700099688165
 11
2415.5
 21
1554.700099688165
  0
ARC
  5
A6
100
AcDbEntity
  8
0
  6
ByLayer
 62
  256
370
   -1
100
AcDbCircle
 10
2415.5
 20
1555.700099688165
 40
1
100
AcDbArc
 50
179.9999999999997
 51
269.9999999999997
  0
LINE
  5
A7
100
AcDbEntity
  8
0
  6
ByLayer
 62
  256
370
   -1
100
AcDbLine
 10
2419.99995331525
 20
1562.700142481851
 11
2415.499953315795
 21
1562.700072455224
  0
ARC
  5
A8
100
AcDbEntity
  8
0
  6
ByLayer
 62
  256
370
   -1
100
AcDbCircle
 10
2415.499968877267
 20
1561.700072455345
 40
1
100
AcDbArc
 50
90.00089160669908
 51
180.0008916066991
  0
LINE
  5
A9
100
AcDbEntity
  8
0
  6
ByLayer
 62
  256
370
   -1
100
AcDbLine
 10
2414.5
 20
1555.700099688165
 11
2414.499968877388
 21
1561.700056893873
  0
LINE
  5
AA
100
AcDbEntity
  8
0
  6
ByLayer
 62
  256
370
   -1
100
AcDbLine
 10
2419.999980154575
 20
1568.500099688271
 11
2419.99995331525
 21
1562.700142481851
  0
LINE
  5
AB
100
AcDbEntity
  8
0
  6
ByLayer
 62
  256
370
   -1
100
AcDbLine
 10
2420
 20
1548.700099688165
 11
2420
 21
1554.700099688165
  0
CIRCLE
  5
AC
100
AcDbEntity
  8
0
  6
ByLayer
 62
  256
370
   -1
100
AcDbCircle
 10
2464.5
 20
1545.750099688165
 40
1.5
  0
LINE
  5
AD
100
AcDbEntity
  8
0
  6
ByLayer
 62
  256
370
   -1
100
AcDbLine
 10
2436.5
 20
1543.000099688165
 11
2436.5
 21
1548.700099688165
  0
LINE
  5
AE
100
AcDbEntity
  8
0
  6
ByLayer
 62
  256
370
   -1
100
AcDbLine
 10
2420
 20
1548.700099688165
 11
2436.5
 21
1548.700099688165
  0
LINE
  5
AF
100
AcDbEntity
  8
0
  6
ByLayer
 62
  256
370
   -1
100
AcDbLine
 10
2420
 20
1543.000099688165
 11
2436.5
 21
1543.000099688165
  0
LINE
  5
B0
100
AcDbEntity
  8
0
  6
ByLayer
 62
  256
370
   -1
100
AcDbLine
 10
2492.5
 20
1543.000099688165
 11
2492.5
 21
1548.700099688165
  0
LINE
  5
B1
100
AcDbEntity
  8
0
  6
ByLayer
 62
  256
370
   -1
100
AcDbLine
 10
2509
 20
1548.700099688165
 11
2492.5
 21
1548.700099688165
  0
LINE
  5
B2
100
AcDbEntity
  8
0
  6
ByLayer
 62
  256
370
   -1
100
AcDbLine
 10
2509
 20
1543.000099688165
 11
2492.5
 21
1543.000099688165
  0
LINE
  5
B3
100
AcDbEntity
  8
0
  6
ByLayer
 62
  256
370
   -1
100
AcDbLine
 10
2420.000025876558
 20
1582.500142481957
 11
2415.500025877103
 21
1582.50007245533
  0
ARC
  5
B4
100
AcDbEntity
  8
0
  6
ByLayer
 62
  256
370
   -1
100
AcDbCircle
 10
2415.500041438575
 20
1581.500072455451
 40
1
100
AcDbArc
 50
90.0008916066994
 51
180.0008916066993
  0
LINE
  5
B5
100
AcDbEntity
  8
0
  6
ByLayer
 62
  256
370
   -1
100
AcDbLine
 10
2420.000072561308
 20
1591.500099688271
 11
2415.500072561308
 21
1591.500099688271
  0
ARC
  5
B6
100
AcDbEntity
  8
0
  6
ByLayer
 62
  256
370
   -1
100
AcDbCircle
 10
2415.500072561308
 20
1592.500099688271
 40
1
100
AcDbArc
 50
180
 51
270
  0
LINE
  5
B7
100
AcDbEntity
  8
0
  6
ByLayer
 62
  256
370
   -1
100
AcDbLine
 10
2429.000072561309
 20
1582.500099688271
 11
2429.000072561308
 21
1585.500099688271
  0
LINE
  5
B8
100
AcDbEntity
  8
0
  6
ByLayer
 62
  256
370
   -1
100
AcDbLine
 10
2429.000072561308
 20
1591.500099688271
 11
2429.000072561308
 21
1588.500099688271
  0
LINE
  5
B9
100
AcDbEntity
  8
0
  6
ByLayer
 62
  256
370
   -1
100
AcDbLine
 10
2426.000072561309
 20
1582.500099688271
 11
2426.000072561308
 21
1585.500099688271
  0
LINE
  5
BA
100
AcDbEntity
  8
0
  6
ByLayer
 62
  256
370
   -1
100
AcDbLine
 10
2426.000072561308
 20
1591.500099688271
 11
2426.000072561308
 21
1588.500099688271
  0
LINE
  5
BB
100
AcDbEntity
  8
0
  6
ByLayer
 62
  256
370
   -1
100
AcDbLine
 10
2426.000072561308
 20
1591.500099688271
 11
2429.000072561308
 21
1591.500099688271
  0
LINE
  5
BC
100
AcDbEntity
  8
0
  6
ByLayer
 62
  256
370
   -1
100
AcDbLine
 10
2426.000072561308
 20
1588.500099688271
 11
2420.000072561308
 21
1588.500099688271
  0
LINE
  5
BD
100
AcDbEntity
  8
0
  6
ByLayer
 62
  256
370
   -1
100
AcDbLine
 10
2420.000072561308
 20
1585.500099688271
 11
2426.000072561308
 21
1585.500099688271
  0
LINE
  5
BE
100
AcDbEntity
  8
0
  6
ByLayer
 62
  256
370
   -1
100
AcDbLine
 10
2426.000072561309
 20
1582.500099688271
 11
2429.000072561309
 21
1582.500099688271
  0
LINE
  5
BF
100
AcDbEntity
  8
0
  6
ByLayer
 62
  256
370
   -1
100
AcDbLine
 10
2429.000072561308
 20
1588.500099688271
 11
2430.000072561308
 21
1588.500099688271
  0
LINE
  5
C0
100
AcDbEntity
  8
0
  6
ByLayer
 62
  256
370
   -1
100
AcDbLine
 10
2430.000072561308
 20
1588.500099688271
 11
2430.000072561308
 21
1585.500099688271
  0
LINE
  5
C1
100
AcDbEntity
  8
0
  6
ByLayer
 62
  256
370
   -1
100
AcDbLine
 10
2430.000072561308
 20
1585.500099688271
 11
2429.000072561308
 21
1585.500099688271
  0
LINE
  5
C2
100
AcDbEntity
  8
0
  6
ByLayer
 62
  256
370
   -1
100
AcDbLine
 10
2420.000072561308
 20
1591.500099688271
 11
2420.000072561308
 21
1588.500099688271
  0
LINE
  5
C3
100
AcDbEntity
  8
0
  6
ByLayer
 62
  256
370
   -1
100
AcDbLine
 10
2420.000093969512
 20
1582.500132559607
 11
2420.000072561308
 21
1585.500099688271
  0
LINE
  5
C4
100
AcDbEntity
  8
0
  6
ByLayer
 62
  256
370
   -1
100
AcDbLine
 10
2500.000072563068
 20
1582.500099688271
 11
2500.000072563068
 21
1585.500099688271
  0
LINE
  5
C5
100
AcDbEntity
  8
0
  6
ByLayer
 62
  256
370
   -1
100
AcDbLine
 10
2500.000072563068
 20
1591.500099688271
 11
2500.000072563068
 21
1588.500099688271
  0
LINE
  5
C6
100
AcDbEntity
  8
0
  6
ByLayer
 62
  256
370
   -1
100
AcDbLine
 10
2503.000072563068
 20
1582.500099688271
 11
2503.000072563068
 21
1585.500099688271
  0
LINE
  5
C7
100
AcDbEntity
  8
0
  6
ByLayer
 62
  256
370
   -1
100
AcDbLine
 10
2503.000072563068
 20
1591.500099688271
 11
2503.000072563068
 21
1588.500099688271
  0
LINE
  5
C8
100
AcDbEntity
  8
0
  6
ByLayer
 62
  256
370
   -1
100
AcDbLine
 10
2503.000072563068
 20
1591.500099688271
 11
2500.000072563068
 21
1591.500099688271
  0
LINE
  5
C9
100
AcDbEntity
  8
0
  6
ByLayer
 62
  256
370
   -1
100
AcDbLine
 10
2503.000072563068
 20
1588.500099688271
 11
2509.000072563068
 21
1588.500099688271
  0
LINE
  5
CA
100
AcDbEntity
  8
0
  6
ByLayer
 62
  256
370
   -1
100
AcDbLine
 10
2509.000072563068
 20
1585.500099688271
 11
2503.000072563068
 21
1585.500099688271
  0
LINE
  5
CB
100
AcDbEntity
  8
0
  6
ByLayer
 62
  256
370
   -1
100
AcDbLine
 10
2503.000072563068
 20
1582.500099688271
 11
2500.000072563068
 21
1582.500099688271
  0
LINE
  5
CC
100
AcDbEntity
  8
0
  6
ByLayer
 62
  256
370
   -1
100
AcDbLine
 10
2500.000072563068
 20
1588.500099688271
 11
2499.000072563068
 21
1588.500099688271
  0
LINE
  5
CD
100
AcDbEntity
  8
0
  6
ByLayer
 62
  256
370
   -1
100
AcDbLine
 10
2499.000072563068
 20
1588.500099688271
 11
2499.000072563068
 21
1585.500099688271
  0
LINE
  5
CE
100
AcDbEntity
  8
0
  6
ByLayer
 62
  256
370
   -1
100
AcDbLine
 10
2499.000072563068
 20
1585.500099688271
 11
2500.000072563068
 21
1585.500099688271
  0
LINE
  5
CF
100
AcDbEntity
  8
0
  6
ByLayer
 62
  256
370
   -1
100
AcDbLine
 10
2420.000072561308
 20
1574.500099688271
 11
2415.500072561308
 21
1574.500099688271
  0
ARC
  5
D0
100
AcDbEntity
  8
0
  6
ByLayer
 62
  256
370
   -1
100
AcDbCircle
 10
2415.500072561308
 20
1575.500099688271
 40
1
100
AcDbArc
 50
180
 51
270
  0
LINE
  5
D1
100
AcDbEntity
  8
0
  6
ByLayer
 62
  256
370
   -1
100
AcDbLine
 10
2414.500072561308
 20
1575.500099688271
 11
2414.500041438696
 21
1581.500056893979
  0
LINE
  5
D2
100
AcDbEntity
  8
0
  6
ByLayer
 62
  256
370
   -1
100
AcDbLine
 10
2420.000025876558
 20
1599.500142481957
 11
2415.500025877103
 21
1599.50007245533
  0
ARC
  5
D3
100
AcDbEntity
  8
0
  6
ByLayer
 62
  256
370
   -1
100
AcDbCircle
 10
2415.500041438575
 20
1598.500072455451
 40
1
100
AcDbArc
 50
90.0008916066994
 51
180.0008916066993
  0
LINE
  5
D4
100
AcDbEntity
  8
0
  6
ByLayer
 62
  256
370
   -1
100
AcDbLine
 10
2414.500072561308
 20
1592.500099688271
 11
2414.500041438696
 21
1598.500056893979
  0
LINE
  5
D5
100
AcDbEntity
  8
0
  6
ByLayer
 62
  256
370
   -1
100
AcDbLine
 10
2420.000072562188
 20
1599.500099688271
 11
2420.000072562188
 21
1605.500099688271
  0
LINE
  5
D6
100
AcDbEntity
  8
0
  6
ByLayer
 62
  256
370
   -1
100
AcDbLine
 10
2509.000119247819
 20
1582.500142481957
 11
2513.500119247274
 21
1582.50007245533
  0
ARC
  5
D7
100
AcDbEntity
  8
0
  6
ByLayer
 62
  256
370
   -1
100
AcDbCircle
 10
2513.500103685801
 20
1581.500072455451
 40
1
100
AcDbArc
 50
359.9991083933006
 51
89.9991083933006
  0
LINE
  5
D8
100
AcDbEntity
  8
0
  6
ByLayer
 62
  256
370
   -1
100
AcDbLine
 10
2509.000072563068
 20
1591.500099688271
 11
2513.500072563068
 21
1591.500099688271
  0
ARC
  5
D9
100
AcDbEntity
  8
0
  6
ByLayer
 62
  256
370
   -1
100
AcDbCircle
 10
2513.500072563068
 20
1592.500099688271
 40
1
100
AcDbArc
 50
270
 51
360
  0
LINE
  5
DA
100
AcDbEntity
  8
0
  6
ByLayer
 62
  256
370
   -1
100
AcDbLine
 10
2509.000072563068
 20
1591.500099688271
 11
2509.000072563068
 21
1588.500099688271
  0
LINE
  5
DB
100
AcDbEntity
  8
0
  6
ByLayer
 62
  256
370
   -1
100
AcDbLine
 10
2509.000051154865
 20
1582.500132559607
 11
2509.000072563068
 21
1585.500099688271
  0
LINE
  5
DC
100
AcDbEntity
  8
0
  6
ByLayer
 62
  256
370
   -1
100
AcDbLine
 10
2509.000072563068
 20
1574.500099688271
 11
2513.500072563068
 21
1574.500099688271
  0
ARC
  5
DD
100
AcDbEntity
  8
0
  6
ByLayer
 62
  256
370
   -1
100
AcDbCircle
 10
2513.500072563068
 20
1575.500099688271
 40
1
100
AcDbArc
 50
270
 51
360
  0
LINE
  5
DE
100
AcDbEntity
  8
0
  6
ByLayer
 62
  256
370
   -1
100
AcDbLine
 10
2514.500072563068
 20
1575.500099688271
 11
2514.50010368568
 21
1581.500056893979
  0
LINE
  5
DF
100
AcDbEntity
  8
0
  6
ByLayer
 62
  256
370
   -1
100
AcDbLine
 10
2509.000119247819
 20
1599.500142481957
 11
2513.500119247274
 21
1599.50007245533
  0
ARC
  5
E0
100
AcDbEntity
  8
0
  6
ByLayer
 62
  256
370
   -1
100
AcDbCircle
 10
2513.500103685801
 20
1598.500072455451
 40
1
100
AcDbArc
 50
359.9991083933006
 51
89.9991083933006
  0
LINE
  5
E1
100
AcDbEntity
  8
0
  6
ByLayer
 62
  256
370
   -1
100
AcDbLine
 10
2514.500072563068
 20
1592.500099688271
 11
2514.50010368568
 21
1598.500056893979
  0
LINE
  5
E2
100
AcDbEntity
  8
0
  6
ByLayer
 62
  256
370
   -1
100
AcDbLine
 10
2509.000072562188
 20
1599.500099688271
 11
2509.000072562188
 21
1605.500099688271
  0
LINE
  5
E3
100
AcDbEntity
  8
0
  6
ByLayer
 62
  256
370
   -1
100
AcDbLine
 10
2420.000019845426
 20
1605.500099688271
 11
2509.000072562188
 21
1605.500099688271
  0
LINE
  5
E4
100
AcDbEntity
  8
0
  6
ByLayer
 62
  256
370
   -1
100
AcDbLine
 10
2509.000019845426
 20
1568.50009968827
 11
2509.000072563068
 21
1574.500099688271
  0
LINE
  5
E5
100
AcDbEntity
  8
0
  6
ByLayer
 62
  256
370
   -1
100
AcDbLine
 10
2420.000019845426
 20
1568.500099688271
 11
2420.000072561308
 21
1574.500099688271
  0
CIRCLE
  5
E6
100
AcDbEntity
  8
0
  6
ByLayer
 62
  256
370
   -1
100
AcDbCircle
 10
2464.500033024616
 20
1582.500099688271
 40
2.5
  0
LINE
  5
E7
100
AcDbEntity
  8
0
  6
ByLayer
 62
  256
370
   -1
100
AcDbLine
 10
2420.000025876558
 20
1628.500056894585
 11
2415.500025877103
 21
1628.500126921212
  0
ARC
  5
E8
100
AcDbEntity
  8
0
  6
ByLayer
 62
  256
370
   -1
100
AcDbCircle
 10
2415.500041438575
 20
1629.500126921091
 40
1
100
AcDbArc
 50
179.9991083933006
 51
269.9991083933006
  0
LINE
  5
E9
100
AcDbEntity
  8
0
  6
ByLayer
 62
  256
370
   -1
100
AcDbLine
 10
2420.000072561308
 20
1619.500099688271
 11
2415.500072561308
 21
1619.500099688271
  0
ARC
  5
EA
100
AcDbEntity
  8
0
  6
ByLayer
 62
  256
370
   -1
100
AcDbCircle
 10
2415.500072561308
 20
1618.500099688271
 40
1
100
AcDbArc
 50
90
 51
180
  0
LINE
  5
EB
100
AcDbEntity
  8
0
  6
ByLayer
 62
  256
370
   -1
100
AcDbLine
 10
2429.000072561309
 20
1628.500099688271
 11
2429.000072561308
 21
1625.500099688271
  0
LINE
  5
EC
100
AcDbEntity
  8
0
  6
ByLayer
 62
  256
370
   -1
100
AcDbLine
 10
2429.000072561308
 20
1619.500099688271
 11
2429.000072561308
 21
1622.500099688271
  0
LINE
  5
ED
100
AcDbEntity
  8
0
  6
ByLayer
 62
  256
370
   -1
100
AcDbLine
 10
2426.000072561309
 20
1628.500099688271
 11
2426.000072561308
 21
1625.500099688271
  0
LINE
  5
EE
100
AcDbEntity
  8
0
  6
ByLayer
 62
  256
370
   -1
100
AcDbLine
 10
2426.000072561308
 20
1619.500099688271
 11
2426.000072561308
 21
1622.500099688271
  0
LINE
  5
EF
100
AcDbEntity
  8
0
  6
ByLayer
 62
  256
370
   -1
100
AcDbLine
 10
2426.000072561308
 20
1619.500099688271
 11
2429.000072561308
 21
1619.500099688271
  0
LINE
  5
F0
100
AcDbEntity
  8
0
  6
ByLayer
 62
  256
370
   -1
100
AcDbLine
 10
2426.000072561308
 20
1622.500099688271
 11
2420.000072561308
 21
1622.500099688271
  0
LINE
  5
F1
100
AcDbEntity
  8
0
  6
ByLayer
 62
  256
370
   -1
100
AcDbLine
 10
2420.000072561308
 20
1625.500099688271
 11
2426.000072561308
 21
1625.500099688271
  0
LINE
  5
F2
100
AcDbEntity
  8
0
  6
ByLayer
 62
  256
370
   -1
100
AcDbLine
 10
2426.000072561309
 20
1628.500099688271
 11
2429.000072561309
 21
1628.500099688271
  0
LINE
  5
F3
100
AcDbEntity
  8
0
  6
ByLayer
 62
  256
370
   -1
100
AcDbLine
 10
2429.000072561308
 20
1622.500099688271
 11
2430.000072561308
 21
1622.500099688271
  0
LINE
  5
F4
100
AcDbEntity
  8
0
  6
ByLayer
 62
  256
370
   -1
100
AcDbLine
 10
2430.000072561308
 20
1622.500099688271
 11
2430.000072561308
 21
1625.500099688271
  0
LINE
  5
F5
100
AcDbEntity
  8
0
  6
ByLayer
 62
  256
370
   -1
100
AcDbLine
 10
2430.000072561308
 20
1625.500099688271
 11
2429.000072561308
 21
1625.500099688271
  0
LINE
  5
F6
100
AcDbEntity
  8
0
  6
ByLayer
 62
  256
370
   -1
100
AcDbLine
 10
2420.000072561308
 20
1619.500099688271
 11
2420.000072561308
 21
1622.500099688271
  0
LINE
  5
F7
100
AcDbEntity
  8
0
  6
ByLayer
 62
  256
370
   -1
100
AcDbLine
 10
2420.000093969512
 20
1628.500066816935
 11
2420.000072561308
 21
1625.500099688271
  0
LINE
  5
F8
100
AcDbEntity
  8
0
  6
ByLayer
 62
  256
370
   -1
100
AcDbLine
 10
2500.000072563068
 20
1628.500099688271
 11
2500.000072563068
 21
1625.500099688271
  0
LINE
  5
F9
100
AcDbEntity
  8
0
  6
ByLayer
 62
  256
370
   -1
100
AcDbLine
 10
2500.000072563068
 20
1619.500099688271
 11
2500.000072563068
 21
1622.500099688271
  0
LINE
  5
FA
100
AcDbEntity
  8
0
  6
ByLayer
 62
  256
370
   -1
100
AcDbLine
 10
2503.000072563068
 20
1628.500099688271
 11
2503.000072563068
 21
1625.500099688271
  0
LINE
  5
FB
100
AcDbEntity
  8
0
  6
ByLayer
 62
  256
370
   -1
100
AcDbLine
 10
2503.000072563068
 20
1619.500099688271
 11
2503.000072563068
 21
1622.500099688271
  0
LINE
  5
FC
100
AcDbEntity
  8
0
  6
ByLayer
 62
  256
370
   -1
100
AcDbLine
 10
2503.000072563068
 20
1619.500099688271
 11
2500.000072563068
 21
1619.500099688271
  0
LINE
  5
FD
100
AcDbEntity
  8
0
  6
ByLayer
 62
  256
370
   -1
100
AcDbLine
 10
2503.000072563068
 20
1622.500099688271
 11
2509.000072563068
 21
1622.500099688271
  0
LINE
  5
FE
100
AcDbEntity
  8
0
  6
ByLayer
 62
  256
370
   -1
100
AcDbLine
 10
2509.000072563068
 20
1625.500099688271
 11
2503.000072563068
 21
1625.500099688271
  0
LINE
  5
FF
100
AcDbEntity
  8
0
  6
ByLayer
 62
  256
370
   -1
100
AcDbLine
 10
2503.000072563068
 20
1628.500099688271
 11
2500.000072563068
 21
1628.500099688271
  0
LINE
  5
100
100
AcDbEntity
  8
0
  6
ByLayer
 62
  256
370
   -1
100
AcDbLine
 10
2500.000072563068
 20
1622.500099688271
 11
2499.000072563068
 21
1622.500099688271
  0
LINE
  5
101
100
AcDbEntity
  8
0
  6
ByLayer
 62
  256
370
   -1
100
AcDbLine
 10
2499.000072563068
 20
1622.500099688271
 11
2499.000072563068
 21
1625.500099688271
  0
LINE
  5
102
100
AcDbEntity
  8
0
  6
ByLayer
 62
  256
370
   -1
100
AcDbLine
 10
2499.000072563068
 20
1625.500099688271
 11
2500.000072563068
 21
1625.500099688271
  0
LINE
  5
103
100
AcDbEntity
  8
0
  6
ByLayer
 62
  256
370
   -1
100
AcDbLine
 10
2420.000072561308
 20
1636.500099688271
 11
2415.500072561308
 21
1636.500099688271
  0
ARC
  5
104
100
AcDbEntity
  8
0
  6
ByLayer
 62
  256
370
   -1
100
AcDbCircle
 10
2415.500072561308
 20
1635.500099688271
 40
1
100
AcDbArc
 50
90
 51
180
  0
LINE
  5
105
100
AcDbEntity
  8
0
  6
ByLayer
 62
  256
370
   -1
100
AcDbLine
 10
2414.500072561308
 20
1635.500099688271
 11
2414.500041438696
 21
1629.500142482563
  0
LINE
  5
106
100
AcDbEntity
  8
0
  6
ByLayer
 62
  256
370
   -1
100
AcDbLine
 10
2420.000025876558
 20
1611.500056894585
 11
2415.500025877103
 21
1611.500126921212
  0
ARC
  5
107
100
AcDbEntity
  8
0
  6
ByLayer
 62
  256
370
   -1
100
AcDbCircle
 10
2415.500041438575
 20
1612.500126921091
 40
1
100
AcDbArc
 50
179.9991083933006
 51
269.9991083933006
  0
LINE
  5
108
100
AcDbEntity
  8
0
  6
ByLayer
 62
  256
370
   -1
100
AcDbLine
 10
2414.500072561308
 20
1618.500099688271
 11
2414.500041438696
 21
1612.500142482563
  0
LINE
  5
109
100
AcDbEntity
  8
0
  6
ByLayer
 62
  256
370
   -1
100
AcDbLine
 10
2420.000072562188
 20
1611.500099688271
 11
2420.000072562188
 21
1605.500099688271
  0
LINE
  5
10A
100
AcDbEntity
  8
0
  6
ByLayer
 62
  256
370
   -1
100
AcDbLine
 10
2509.000119247819
 20
1628.500056894585
 11
2513.500119247274
 21
1628.500126921212
  0
ARC
  5
10B
100
AcDbEntity
  8
0
  6
ByLayer
 62
  256
370
   -1
100
AcDbCircle
 10
2513.500103685801
 20
1629.500126921091
 40
1
100
AcDbArc
 50
270.0008916066994
 51
0.0008916066993919493
  0
LINE
  5
10C
100
AcDbEntity
  8
0
  6
ByLayer
 62
  256
370
   -1
100
AcDbLine
 10
2509.000072563068
 20
1619.500099688271
 11
2513.500072563068
 21
1619.500099688271
  0
ARC
  5
10D
100
AcDbEntity
  8
0
  6
ByLayer
 62
  256
370
   -1
100
AcDbCircle
 10
2513.500072563068
 20
1618.500099688271
 40
1
100
AcDbArc
 50
360
 51
90
  0
LINE
  5
10E
100
AcDbEntity
  8
0
  6
ByLayer
 62
  256
370
   -1
100
AcDbLine
 10
2509.000072563068
 20
1619.500099688271
 11
2509.000072563068
 21
1622.500099688271
  0
LINE
  5
10F
100
AcDbEntity
  8
0
  6
ByLayer
 62
  256
370
   -1
100
AcDbLine
 10
2509.000051154865
 20
1628.500066816935
 11
2509.000072563068
 21
1625.500099688271
  0
LINE
  5
110
100
AcDbEntity
  8
0
  6
ByLayer
 62
  256
370
   -1
100
AcDbLine
 10
2509.000072563068
 20
1636.500099688271
 11
2513.500072563068
 21
1636.500099688271
  0
ARC
  5
111
100
AcDbEntity
  8
0
  6
ByLayer
 62
  256
370
   -1
100
AcDbCircle
 10
2513.500072563068
 20
1635.500099688271
 40
1
100
AcDbArc
 50
360
 51
90
  0
LINE
  5
112
100
AcDbEntity
  8
0
  6
ByLayer
 62
  256
370
   -1
100
AcDbLine
 10
2514.500072563068
 20
1635.500099688271
 11
2514.50010368568
 21
1629.500142482563
  0
LINE
  5
113
100
AcDbEntity
  8
0
  6
ByLayer
 62
  256
370
   -1
100
AcDbLine
 10
2509.000119247819
 20
1611.500056894585
 11
2513.500119247274
 21
1611.500126921212
  0
ARC
  5
114
100
AcDbEntity
  8
0
  6
ByLayer
 62
  256
370
   -1
100
AcDbCircle
 10
2513.500103685801
 20
1612.500126921091
 40
1
100
AcDbArc
 50
270.0008916066994
 51
0.0008916066993919493
  0
LINE
  5
115
100
AcDbEntity
  8
0
  6
ByLayer
 62
  256
370
   -1
100
AcDbLine
 10
2514.500072563068
 20
1618.500099688271
 11
2514.50010368568
 21
1612.500142482563
  0
LINE
  5
116
100
AcDbEntity
  8
0
  6
ByLayer
 62
  256
370
   -1
100
AcDbLine
 10
2509.000072562188
 20
1611.500099688271
 11
2509.000072562188
 21
1605.500099688271
  0
LINE
  5
117
100
AcDbEntity
  8
0
  6
ByLayer
 62
  256
370
   -1
100
AcDbLine
 10
2420.000019845426
 20
1605.500099688271
 11
2509.000072562188
 21
1605.500099688271
  0
LINE
  5
118
100
AcDbEntity
  8
0
  6
ByLayer
 62
  256
370
   -1
100
AcDbLine
 10
2509.000019845426
 20
1642.500099688272
 11
2509.000072563068
 21
1636.500099688271
  0
LINE
  5
119
100
AcDbEntity
  8
0
  6
ByLayer
 62
  256
370
   -1
100
AcDbLine
 10
2420.000019845426
 20
1642.500099688271
 11
2420.000072561308
 21
1636.500099688271
  0
CIRCLE
  5
11A
100
AcDbEntity
  8
0
  6
ByLayer
 62
  256
370
   -1
100
AcDbCircle
 10
2464.500033024616
 20
1628.500099688271
 40
2.5
  0
LINE
  5
11B
100
AcDbEntity
  8
0
  6
ByLayer
 62
  256
370
   -1
100
AcDbLine
 10
2530.999947283238
 20
1561.500049844082
 11
2619.999947283238
 21
1561.500049844082
  0
LINE
  5
11C
100
AcDbEntity
  8
0
  6
ByLayer
 62
  256
370
   -1
100
AcDbLine
 10
2613.999947283238
 20
1603.000099688164
 11
2619.999947283238
 21
1603.000099688164
  0
LINE
  5
11D
100
AcDbEntity
  8
0
  6
ByLayer
 62
  256
370
   -1
100
AcDbLine
 10
2536.999947283238
 20
1603.000099688165
 11
2530.999947283238
 21
1603.000099688165
  0
LINE
  5
11E
100
AcDbEntity
  8
0
  6
ByLayer
 62
  256
370
   -1
100
AcDbLine
 10
2570.999947283238
 20
1603.000099688165
 11
2570.999947283238
 21
1601.000099688165
  0
LINE
  5
11F
100
AcDbEntity
  8
0
  6
ByLayer
 62
  256
370
   -1
100
AcDbLine
 10
2570.999947283238
 20
1601.000099688165
 11
2579.999947283238
 21
1601.000099688165
  0
LINE
  5
120
100
AcDbEntity
  8
0
  6
ByLayer
 62
  256
370
   -1
100
AcDbLine
 10
2579.999947283238
 20
1601.000099688165
 11
2579.999947283238
 21
1603.000099688165
  0
LINE
  5
121
100
AcDbEntity
  8
0
  6
ByLayer
 62
  256
370
   -1
100
AcDbLine
 10
2536.999947283238
 20
1603.000099688165
 11
2536.999947283238
 21
1601.000099688165
  0
LINE
  5
122
100
AcDbEntity
  8
0
  6
ByLayer
 62
  256
370
   -1
100
AcDbLine
 10
2536.999947283238
 20
1601.000099688165
 11
2539.999947283238
 21
1601.000099688165
  0
LINE
  5
123
100
AcDbEntity
  8
0
  6
ByLayer
 62
  256
370
   -1
100
AcDbLine
 10
2539.999947283238
 20
1601.000099688165
 11
2539.999947283238
 21
1603.000099688165
  0
LINE
  5
124
100
AcDbEntity
  8
0
  6
ByLayer
 62
  256
370
   -1
100
AcDbLine
 10
2610.999947283238
 20
1603.000099688164
 11
2610.999947283238
 21
1601.000099688164
  0
LINE
  5
125
100
AcDbEntity
  8
0
  6
ByLayer
 62
  256
370
   -1
100
AcDbLine
 10
2610.999947283238
 20
1601.000099688164
 11
2613.999947283238
 21
1601.000099688164
  0
LINE
  5
126
100
AcDbEntity
  8
0
  6
ByLayer
 62
  256
370
   -1
100
AcDbLine
 10
2613.999947283238
 20
1601.000099688164
 11
2613.999947283238
 21
1603.000099688164
  0
LINE
  5
127
100
AcDbEntity
  8
0
  6
ByLayer
 62
  256
370
   -1
100
AcDbLine
 10
2605.499990077287
 20
1603.000099688164
 11
2605.499990077288
 21
1607.500099688164
  0
ARC
  5
128
100
AcDbEntity
  8
0
  6
ByLayer
 62
  256
370
   -1
100
AcDbCircle
 10
2604.499990077288
 20
1607.500099688164
 40
1
100
AcDbArc
 50
359.9999999999997
 51
89.99999999999969
  0
LINE
  5
129
100
AcDbEntity
  8
0
  6
ByLayer
 62
  256
370
   -1
100
AcDbLine
 10
2599.499947283601
 20
1603.000146372915
 11
2599.500017310228
 21
1607.50014637237
  0
ARC
  5
12A
100
AcDbEntity
  8
0
  6
ByLayer
 62
  256
370
   -1
100
AcDbCircle
 10
2600.500017310107
 20
1607.500130810898
 40
1
100
AcDbArc
 50
89.99910839330035
 51
179.9991083933003
  0
LINE
  5
12B
100
AcDbEntity
  8
0
  6
ByLayer
 62
  256
370
   -1
100
AcDbLine
 10
2600.50003287158
 20
1608.500130810776
 11
2604.499990077288
 21
1608.500099688164
  0
LINE
  5
12C
100
AcDbEntity
  8
0
  6
ByLayer
 62
  256
370
   -1
100
AcDbLine
 10
2590.499990077287
 20
1603.000099688165
 11
2590.499990077287
 21
1607.500099688165
  0
ARC
  5
12D
100
AcDbEntity
  8
0
  6
ByLayer
 62
  256
370
   -1
100
AcDbCircle
 10
2589.499990077287
 20
1607.500099688165
 40
1
100
AcDbArc
 50
359.9999999999997
 51
89.99999999999969
  0
LINE
  5
12E
100
AcDbEntity
  8
0
  6
ByLayer
 62
  256
370
   -1
100
AcDbLine
 10
2584.499947283601
 20
1603.000146372915
 11
2584.500017310228
 21
1607.50014637237
  0
ARC
  5
12F
100
AcDbEntity
  8
0
  6
ByLayer
 62
  256
370
   -1
100
AcDbCircle
 10
2585.500017310107
 20
1607.500130810898
 40
1
100
AcDbArc
 50
89.99910839330035
 51
179.9991083933003
  0
LINE
  5
130
100
AcDbEntity
  8
0
  6
ByLayer
 62
  256
370
   -1
100
AcDbLine
 10
2585.50003287158
 20
1608.500130810777
 11
2589.499990077288
 21
1608.500099688165
  0
LINE
  5
131
100
AcDbEntity
  8
0
  6
ByLayer
 62
  256
370
   -1
100
AcDbLine
 10
2566.49997513577
 20
1603.000099688165
 11
2566.499975135771
 21
1607.500099688165
  0
ARC
  5
132
100
AcDbEntity
  8
0
  6
ByLayer
 62
  256
370
   -1
100
AcDbCircle
 10
2565.499975135771
 20
1607.500099688165
 40
1
100
AcDbArc
 50
359.9999999999997
 51
89.99999999999969
  0
LINE
  5
133
100
AcDbEntity
  8
0
  6
ByLayer
 62
  256
370
   -1
100
AcDbLine
 10
2560.499932342084
 20
1603.000146372915
 11
2560.500002368711
 21
1607.50014637237
  0
ARC
  5
134
100
AcDbEntity
  8
0
  6
ByLayer
 62
  256
370
   -1
100
AcDbCircle
 10
2561.50000236859
 20
1607.500130810898
 40
1
100
AcDbArc
 50
89.99910839330035
 51
179.9991083933003
  0
LINE
  5
135
100
AcDbEntity
  8
0
  6
ByLayer
 62
  256
370
   -1
100
AcDbLine
 10
2561.500017930063
 20
1608.500130810777
 11
2565.499975135771
 21
1608.500099688165
  0
LINE
  5
136
100
AcDbEntity
  8
0
  6
ByLayer
 62
  256
370
   -1
100
AcDbLine
 10
2551.499951173606
 20
1603.000099688165
 11
2551.499951173607
 21
1607.500099688165
  0
ARC
  5
137
100
AcDbEntity
  8
0
  6
ByLayer
 62
  256
370
   -1
100
AcDbCircle
 10
2550.499951173607
 20
1607.500099688165
 40
1
100
AcDbArc
 50
359.9999999999997
 51
89.99999999999969
  0
LINE
  5
138
100
AcDbEntity
  8
0
  6
ByLayer
 62
  256
370
   -1
100
AcDbLine
 10
2545.49990837992
 20
1603.000146372915
 11
2545.499978406547
 21
1607.500146372371
  0
ARC
  5
139
100
AcDbEntity
  8
0
  6
ByLayer
 62
  256
370
   -1
100
AcDbCircle
 10
2546.499978406426
 20
1607.500130810898
 40
1
100
AcDbArc
 50
89.99910839330035
 51
179.9991083933003
  0
LINE
  5
13A
100
AcDbEntity
  8
0
  6
ByLayer
 62
  256
370
   -1
100
AcDbLine
 10
2546.499993967899
 20
1608.500130810777
 11
2550.499951173607
 21
1608.500099688165
  0
LINE
  5
13B
100
AcDbEntity
  8
0
  6
ByLayer
 62
  256
370
   -1
100
AcDbLine
 10
2605.499990077287
 20
1603.000099688164
 11
2610.999947283238
 21
1603.000099688164
  0
LINE
  5
13C
100
AcDbEntity
  8
0
  6
ByLayer
 62
  256
370
   -1
100
AcDbLine
 10
2584.499947283601
 20
1603.000146372915
 11
2579.999947283238
 21
1603.000099688165
  0
LINE
  5
13D
100
AcDbEntity
  8
0
  6
ByLayer
 62
  256
370
   -1
100
AcDbLine
 10
2570.999947283238
 20
1603.000099688165
 11
2566.49997513577
 21
1603.000099688165
  0
LINE
  5
13E
100
AcDbEntity
  8
0
  6
ByLayer
 62
  256
370
   -1
100
AcDbLine
 10
2539.999947283238
 20
1603.000099688165
 11
2545.49990837992
 21
1603.000146372915
  0
LINE
  5
13F
100
AcDbEntity
  8
0
  6
ByLayer
 62
  256
370
   -1
100
AcDbLine
 10
2530.999947283238
 20
1561.500049844083
 11
2619.999947283238
 21
1561.500049844082
  0
LINE
  5
140
100
AcDbEntity
  8
0
  6
ByLayer
 62
  256
370
   -1
100
AcDbLine
 10
2619.999993968868
 20
1580.00014248185
 11
2624.499993968323
 21
1580.000072455224
  0
ARC
  5
141
100
AcDbEntity
  8
0
  6
ByLayer
 62
  256
370
   -1
100
AcDbCircle
 10
2624.499978406851
 20
1579.000072455345
 40
1
100
AcDbArc
 50
359.9991083933004
 51
89.9991083933003
  0
LINE
  5
142
100
AcDbEntity
  8
0
  6
ByLayer
 62
  256
370
   -1
100
AcDbLine
 10
2619.999947284118
 20
1589.000099688164
 11
2624.499947284118
 21
1589.000099688164
  0
ARC
  5
143
100
AcDbEntity
  8
0
  6
ByLayer
 62
  256
370
   -1
100
AcDbCircle
 10
2624.499947284118
 20
1590.000099688164
 40
1
100
AcDbArc
 50
269.9999999999997
 51
359.9999999999997
  0
LINE
  5
144
100
AcDbEntity
  8
0
  6
ByLayer
 62
  256
370
   -1
100
AcDbLine
 10
2551.49991830227
 20
1594.000121096368
 11
2554.49991830227
 21
1594.000121096368
  0
LINE
  5
145
100
AcDbEntity
  8
0
  6
ByLayer
 62
  256
370
   -1
100
AcDbLine
 10
2560.49991830227
 20
1594.000121096368
 11
2557.49991830227
 21
1594.000121096368
  0
LINE
  5
146
100
AcDbEntity
  8
0
  6
ByLayer
 62
  256
370
   -1
100
AcDbLine
 10
2551.49991830227
 20
1597.000121096368
 11
2554.49991830227
 21
1597.000121096368
  0
LINE
  5
147
100
AcDbEntity
  8
0
  6
ByLayer
 62
  256
370
   -1
100
AcDbLine
 10
2560.49991830227
 20
1597.000121096368
 11
2557.49991830227
 21
1597.000121096368
  0
LINE
  5
148
100
AcDbEntity
  8
0
  6
ByLayer
 62
  256
370
   -1
100
AcDbLine
 10
2560.49991830227
 20
1597.000121096368
 11
2560.49991830227
 21
1594.000121096368
  0
LINE
  5
149
100
AcDbEntity
  8
0
  6
ByLayer
 62
  256
370
   -1
100
AcDbLine
 10
2557.49991830227
 20
1597.000121096368
 11
2557.49991830227
 21
1603.000121096368
  0
LINE
  5
14A
100
AcDbEntity
  8
0
  6
ByLayer
 62
  256
370
   -1
100
AcDbLine
 10
2554.49991830227
 20
1603.000121096368
 11
2554.49991830227
 21
1597.000121096368
  0
LINE
  5
14B
100
AcDbEntity
  8
0
  6
ByLayer
 62
  256
370
   -1
100
AcDbLine
 10
2551.49991830227
 20
1597.000121096368
 11
2551.49991830227
 21
1594.000121096368
  0
LINE
  5
14C
100
AcDbEntity
  8
0
  6
ByLayer
 62
  256
370
   -1
100
AcDbLine
 10
2557.49991830227
 20
1594.000121096368
 11
2557.49991830227
 21
1593.000121096368
  0
LINE
  5
14D
100
AcDbEntity
  8
0
  6
ByLayer
 62
  256
370
   -1
100
AcDbLine
 10
2557.49991830227
 20
1593.000121096368
 11
2554.49991830227
 21
1593.000121096368
  0
LINE
  5
14E
100
AcDbEntity
  8
0
  6
ByLayer
 62
  256
370
   -1
100
AcDbLine
 10
2554.49991830227
 20
1593.000121096368
 11
2554.49991830227
 21
1594.000121096368
  0
LINE
  5
14F
100
AcDbEntity
  8
0
  6
ByLayer
 62
  256
370
   -1
100
AcDbLine
 10
2560.49991830227
 20
1603.000121096368
 11
2557.49991830227
 21
1603.000121096368
  0
LINE
  5
150
100
AcDbEntity
  8
0
  6
ByLayer
 62
  256
370
   -1
100
AcDbLine
 10
2551.499951173606
 20
1603.000099688165
 11
2554.49991830227
 21
1603.000121096368
  0
LINE
  5
151
100
AcDbEntity
  8
0
  6
ByLayer
 62
  256
370
   -1
100
AcDbLine
 10
2590.499947283601
 20
1594.000146372915
 11
2593.499947283601
 21
1594.000146372915
  0
LINE
  5
152
100
AcDbEntity
  8
0
  6
ByLayer
 62
  256
370
   -1
100
AcDbLine
 10
2599.499947283601
 20
1594.000146372915
 11
2596.499947283601
 21
1594.000146372915
  0
LINE
  5
153
100
AcDbEntity
  8
0
  6
ByLayer
 62
  256
370
   -1
100
AcDbLine
 10
2590.499947283601
 20
1597.000146372915
 11
2593.499947283601
 21
1597.000146372915
  0
LINE
  5
154
100
AcDbEntity
  8
0
  6
ByLayer
 62
  256
370
   -1
100
AcDbLine
 10
2599.499947283601
 20
1597.000146372915
 11
2596.499947283601
 21
1597.000146372915
  0
LINE
  5
155
100
AcDbEntity
  8
0
  6
ByLayer
 62
  256
370
   -1
100
AcDbLine
 10
2599.499947283601
 20
1597.000146372915
 11
2599.499947283601
 21
1594.000146372915
  0
LINE
  5
156
100
AcDbEntity
  8
0
  6
ByLayer
 62
  256
370
   -1
100
AcDbLine
 10
2596.499947283601
 20
1597.000146372915
 11
2596.499947283602
 21
1603.000146372915
  0
LINE
  5
157
100
AcDbEntity
  8
0
  6
ByLayer
 62
  256
370
   -1
100
AcDbLine
 10
2593.499947283601
 20
1603.000146372915
 11
2593.499947283601
 21
1597.000146372915
  0
LINE
  5
158
100
AcDbEntity
  8
0
  6
ByLayer
 62
  256
370
   -1
100
AcDbLine
 10
2590.499947283601
 20
1597.000146372915
 11
2590.499947283601
 21
1594.000146372915
  0
LINE
  5
159
100
AcDbEntity
  8
0
  6
ByLayer
 62
  256
370
   -1
100
AcDbLine
 10
2596.499947283601
 20
1594.000146372915
 11
2596.499947283601
 21
1593.000146372915
  0
LINE
  5
15A
100
AcDbEntity
  8
0
  6
ByLayer
 62
  256
370
   -1
100
AcDbLine
 10
2596.499947283601
 20
1593.000146372915
 11
2593.499947283601
 21
1593.000146372915
  0
LINE
  5
15B
100
AcDbEntity
  8
0
  6
ByLayer
 62
  256
370
   -1
100
AcDbLine
 10
2593.499947283601
 20
1593.000146372915
 11
2593.499947283601
 21
1594.000146372915
  0
LINE
  5
15C
100
AcDbEntity
  8
0
  6
ByLayer
 62
  256
370
   -1
100
AcDbLine
 10
2599.499947283601
 20
1603.000146372915
 11
2596.499947283602
 21
1603.000146372915
  0
LINE
  5
15D
100
AcDbEntity
  8
0
  6
ByLayer
 62
  256
370
   -1
100
AcDbLine
 10
2590.499980154937
 20
1603.000124964712
 11
2593.499947283601
 21
1603.000146372915
  0
LINE
  5
15E
100
AcDbEntity
  8
0
  6
ByLayer
 62
  256
370
   -1
100
AcDbLine
 10
2610.999947284117
 20
1580.000099688164
 11
2610.999947284118
 21
1583.000099688164
  0
LINE
  5
15F
100
AcDbEntity
  8
0
  6
ByLayer
 62
  256
370
   -1
100
AcDbLine
 10
2610.999947284118
 20
1589.000099688164
 11
2610.999947284118
 21
1586.000099688164
  0
LINE
  5
160
100
AcDbEntity
  8
0
  6
ByLayer
 62
  256
370
   -1
100
AcDbLine
 10
2613.999947284117
 20
1580.000099688164
 11
2613.999947284118
 21
1583.000099688164
  0
LINE
  5
161
100
AcDbEntity
  8
0
  6
ByLayer
 62
  256
370
   -1
100
AcDbLine
 10
2613.999947284118
 20
1589.000099688164
 11
2613.999947284118
 21
1586.000099688164
  0
LINE
  5
162
100
AcDbEntity
  8
0
  6
ByLayer
 62
  256
370
   -1
100
AcDbLine
 10
2613.999947284118
 20
1589.000099688164
 11
2610.999947284118
 21
1589.000099688164
  0
LINE
  5
163
100
AcDbEntity
  8
0
  6
ByLayer
 62
  256
370
   -1
100
AcDbLine
 10
2613.999947284118
 20
1586.000099688164
 11
2619.999947284118
 21
1586.000099688164
  0
LINE
  5
164
100
AcDbEntity
  8
0
  6
ByLayer
 62
  256
370
   -1
100
AcDbLine
 10
2619.999947284118
 20
1583.000099688164
 11
2613.999947284118
 21
1583.000099688164
  0
LINE
  5
165
100
AcDbEntity
  8
0
  6
ByLayer
 62
  256
370
   -1
100
AcDbLine
 10
2613.999947284117
 20
1580.000099688164
 11
2610.999947284117
 21
1580.000099688164
  0
LINE
  5
166
100
AcDbEntity
  8
0
  6
ByLayer
 62
  256
370
   -1
100
AcDbLine
 10
2610.999947284118
 20
1586.000099688164
 11
2609.999947284118
 21
1586.000099688164
  0
LINE
  5
167
100
AcDbEntity
  8
0
  6
ByLayer
 62
  256
370
   -1
100
AcDbLine
 10
2609.999947284118
 20
1586.000099688164
 11
2609.999947284118
 21
1583.000099688164
  0
LINE
  5
168
100
AcDbEntity
  8
0
  6
ByLayer
 62
  256
370
   -1
100
AcDbLine
 10
2609.999947284118
 20
1583.000099688164
 11
2610.999947284118
 21
1583.000099688164
  0
LINE
  5
169
100
AcDbEntity
  8
0
  6
ByLayer
 62
  256
370
   -1
100
AcDbLine
 10
2619.999947284118
 20
1589.000099688164
 11
2619.999947284118
 21
1586.000099688164
  0
LINE
  5
16A
100
AcDbEntity
  8
0
  6
ByLayer
 62
  256
370
   -1
100
AcDbLine
 10
2619.999925875914
 20
1580.000132559501
 11
2619.999947284118
 21
1583.000099688164
  0
LINE
  5
16B
100
AcDbEntity
  8
0
  6
ByLayer
 62
  256
370
   -1
100
AcDbLine
 10
2539.999947282358
 20
1580.000099688165
 11
2539.999947282358
 21
1583.000099688165
  0
LINE
  5
16C
100
AcDbEntity
  8
0
  6
ByLayer
 62
  256
370
   -1
100
AcDbLine
 10
2539.999947282358
 20
1589.000099688165
 11
2539.999947282358
 21
1586.000099688165
  0
LINE
  5
16D
100
AcDbEntity
  8
0
  6
ByLayer
 62
  256
370
   -1
100
AcDbLine
 10
2536.999947282358
 20
1580.000099688165
 11
2536.999947282358
 21
1583.000099688165
  0
LINE
  5
16E
100
AcDbEntity
  8
0
  6
ByLayer
 62
  256
370
   -1
100
AcDbLine
 10
2536.999947282358
 20
1589.000099688165
 11
2536.999947282358
 21
1586.000099688165
  0
LINE
  5
16F
100
AcDbEntity
  8
0
  6
ByLayer
 62
  256
370
   -1
100
AcDbLine
 10
2536.999947282358
 20
1589.000099688165
 11
2539.999947282358
 21
1589.000099688165
  0
LINE
  5
170
100
AcDbEntity
  8
0
  6
ByLayer
 62
  256
370
   -1
100
AcDbLine
 10
2536.999947282358
 20
1586.000099688165
 11
2530.999947282358
 21
1586.000099688165
  0
LINE
  5
171
100
AcDbEntity
  8
0
  6
ByLayer
 62
  256
370
   -1
100
AcDbLine
 10
2530.999947282358
 20
1583.000099688165
 11
2536.999947282358
 21
1583.000099688165
  0
LINE
  5
172
100
AcDbEntity
  8
0
  6
ByLayer
 62
  256
370
   -1
100
AcDbLine
 10
2536.999947282358
 20
1580.000099688165
 11
2539.999947282358
 21
1580.000099688165
  0
LINE
  5
173
100
AcDbEntity
  8
0
  6
ByLayer
 62
  256
370
   -1
100
AcDbLine
 10
2539.999947282358
 20
1586.000099688165
 11
2540.999947282358
 21
1586.000099688165
  0
LINE
  5
174
100
AcDbEntity
  8
0
  6
ByLayer
 62
  256
370
   -1
100
AcDbLine
 10
2540.999947282358
 20
1586.000099688165
 11
2540.999947282358
 21
1583.000099688165
  0
LINE
  5
175
100
AcDbEntity
  8
0
  6
ByLayer
 62
  256
370
   -1
100
AcDbLine
 10
2540.999947282358
 20
1583.000099688165
 11
2539.999947282358
 21
1583.000099688165
  0
CIRCLE
  5
176
100
AcDbEntity
  8
0
  6
ByLayer
 62
  256
370
   -1
100
AcDbCircle
 10
2551.499947283238
 20
1581.000099688165
 40
4
  0
CIRCLE
  5
177
100
AcDbEntity
  8
0
  6
ByLayer
 62
  256
370
   -1
100
AcDbCircle
 10
2599.499947283083
 20
1581.000099688536
 40
4
  0
LINE
  5
178
100
AcDbEntity
  8
0
  6
ByLayer
 62
  256
370
   -1
100
AcDbLine
 10
2567.499947283238
 20
1587.000099688165
 11
2567.499947283238
 21
1575.000099688165
  0
LINE
  5
179
100
AcDbEntity
  8
0
  6
ByLayer
 62
  256
370
   -1
100
AcDbLine
 10
2583.499947283238
 20
1587.000099688165
 11
2583.499947283238
 21
1575.000099688165
  0
LINE
  5
17A
100
AcDbEntity
  8
0
  6
ByLayer
 62
  256
370
   -1
100
AcDbLine
 10
2567.499947283238
 20
1575.000099688165
 11
2583.499947283238
 21
1575.000099688165
  0
LINE
  5
17B
100
AcDbEntity
  8
0
  6
ByLayer
 62
  256
370
   -1
100
AcDbLine
 10
2567.499947283238
 20
1587.000099688165
 11
2583.499947283238
 21
1587.000099688165
  0
LINE
  5
17C
100
AcDbEntity
  8
0
  6
ByLayer
 62
  256
370
   -1
100
AcDbLine
 10
2619.999947284118
 20
1572.000099688164
 11
2624.499947284118
 21
1572.000099688164
  0
ARC
  5
17D
100
AcDbEntity
  8
0
  6
ByLayer
 62
  256
370
   -1
100
AcDbCircle
 10
2624.499947284118
 20
1573.000099688164
 40
1
100
AcDbArc
 50
269.9999999999997
 51
359.9999999999997
  0
LINE
  5
17E
100
AcDbEntity
  8
0
  6
ByLayer
 62
  256
370
   -1
100
AcDbLine
 10
2625.499947284118
 20
1573.000099688164
 11
2625.49997840673
 21
1579.000056893872
  0
LINE
  5
17F
100
AcDbEntity
  8
0
  6
ByLayer
 62
  256
370
   -1
100
AcDbLine
 10
2619.999947283238
 20
1561.500049844082
 11
2619.999947284118
 21
1572.000099688164
  0
LINE
  5
180
100
AcDbEntity
  8
0
  6
ByLayer
 62
  256
370
   -1
100
AcDbLine
 10
2619.999993968868
 20
1597.00014248185
 11
2624.499993968323
 21
1597.000072455224
  0
ARC
  5
181
100
AcDbEntity
  8
0
  6
ByLayer
 62
  256
370
   -1
100
AcDbCircle
 10
2624.499978406851
 20
1596.000072455345
 40
1
100
AcDbArc
 50
359.9991083933004
 51
89.9991083933003
  0
LINE
  5
182
100
AcDbEntity
  8
0
  6
ByLayer
 62
  256
370
   -1
100
AcDbLine
 10
2625.499947284118
 20
1590.000099688164
 11
2625.49997840673
 21
1596.000056893872
  0
LINE
  5
183
100
AcDbEntity
  8
0
  6
ByLayer
 62
  256
370
   -1
100
AcDbLine
 10
2619.999947283238
 20
1597.000099688164
 11
2619.999947283238
 21
1603.000099688164
  0
LINE
  5
184
100
AcDbEntity
  8
0
  6
ByLayer
 62
  256
370
   -1
100
AcDbLine
 10
2530.999900597607
 20
1580.000142481851
 11
2526.499900598152
 21
1580.000072455224
  0
ARC
  5
185
100
AcDbEntity
  8
0
  6
ByLayer
 62
  256
370
   -1
100
AcDbCircle
 10
2526.499916159625
 20
1579.000072455345
 40
1
100
AcDbArc
 50
90.00089160669908
 51
180.0008916066991
  0
LINE
  5
186
100
AcDbEntity
  8
0
  6
ByLayer
 62
  256
370
   -1
100
AcDbLine
 10
2530.999947282358
 20
1589.000099688165
 11
2526.499947282358
 21
1589.000099688165
  0
ARC
  5
187
100
AcDbEntity
  8
0
  6
ByLayer
 62
  256
370
   -1
100
AcDbCircle
 10
2526.499947282358
 20
1590.000099688165
 40
1
100
AcDbArc
 50
179.9999999999997
 51
269.9999999999997
  0
LINE
  5
188
100
AcDbEntity
  8
0
  6
ByLayer
 62
  256
370
   -1
100
AcDbLine
 10
2530.999947282358
 20
1589.000099688165
 11
2530.999947282358
 21
1586.000099688165
  0
LINE
  5
189
100
AcDbEntity
  8
0
  6
ByLayer
 62
  256
370
   -1
100
AcDbLine
 10
2530.999968690561
 20
1580.000132559501
 11
2530.999947282358
 21
1583.000099688165
  0
LINE
  5
18A
100
AcDbEntity
  8
0
  6
ByLayer
 62
  256
370
   -1
100
AcDbLine
 10
2530.999947282358
 20
1572.000099688165
 11
2526.499947282358
 21
1572.000099688165
  0
ARC
  5
18B
100
AcDbEntity
  8
0
  6
ByLayer
 62
  256
370
   -1
100
AcDbCircle
 10
2526.499947282358
 20
1573.000099688165
 40
1
100
AcDbArc
 50
179.9999999999997
 51
269.9999999999997
  0
LINE
  5
18C
100
AcDbEntity
  8
0
  6
ByLayer
 62
  256
370
   -1
100
AcDbLine
 10
2525.499947282358
 20
1573.000099688165
 11
2525.499916159746
 21
1579.000056893873
  0
LINE
  5
18D
100
AcDbEntity
  8
0
  6
ByLayer
 62
  256
370
   -1
100
AcDbLine
 10
2530.999947283238
 20
1561.500049844083
 11
2530.999947282358
 21
1572.000099688165
  0
LINE
  5
18E
100
AcDbEntity
  8
0
  6
ByLayer
 62
  256
370
   -1
100
AcDbLine
 10
2530.999900597607
 20
1597.000142481851
 11
2526.499900598152
 21
1597.000072455224
  0
ARC
  5
18F
100
AcDbEntity
  8
0
  6
ByLayer
 62
  256
370
   -1
100
AcDbCircle
 10
2526.499916159625
 20
1596.000072455345
 40
1
100
AcDbArc
 50
90.00089160669908
 51
180.0008916066991
  0
LINE
  5
190
100
AcDbEntity
  8
0
  6
ByLayer
 62
  256
370
   -1
100
AcDbLine
 10
2525.499947282358
 20
1590.000099688165
 11
2525.499916159746
 21
1596.000056893873
  0
LINE
  5
191
100
AcDbEntity
  8
0
  6
ByLayer
 62
  256
370
   -1
100
AcDbLine
 10
2530.999947283238
 20
1597.000099688165
 11
2530.999947283238
 21
1603.000099688165
  0
LINE
  5
192
100
AcDbEntity
  8
0
  6
ByLayer
 62
  256
370
   -1
100
AcDbLine
 10
2613.999947283237
 20
1520
 11
2619.999947283237
 21
1520
  0
LINE
  5
193
100
AcDbEntity
  8
0
  6
ByLayer
 62
  256
370
   -1
100
AcDbLine
 10
2536.999947283237
 20
1520.000000000001
 11
2530.999947283237
 21
1520.000000000001
  0
LINE
  5
194
100
AcDbEntity
  8
0
  6
ByLayer
 62
  256
370
   -1
100
AcDbLine
 10
2570.999947283237
 20
1520
 11
2570.999947283237
 21
1522
  0
LINE
  5
195
100
AcDbEntity
  8
0
  6
ByLayer
 62
  256
370
   -1
100
AcDbLine
 10
2570.999947283237
 20
1522
 11
2579.999947283237
 21
1522
  0
LINE
  5
196
100
AcDbEntity
  8
0
  6
ByLayer
 62
  256
370
   -1
100
AcDbLine
 10
2579.999947283237
 20
1522
 11
2579.999947283237
 21
1520
  0
LINE
  5
197
100
AcDbEntity
  8
0
  6
ByLayer
 62
  256
370
   -1
100
AcDbLine
 10
2536.999947283237
 20
1520.000000000001
 11
2536.999947283237
 21
1522.000000000001
  0
LINE
  5
198
100
AcDbEntity
  8
0
  6
ByLayer
 62
  256
370
   -1
100
AcDbLine
 10
2536.999947283237
 20
1522.000000000001
 11
2539.999947283237
 21
1522.000000000001
  0
LINE
  5
199
100
AcDbEntity
  8
0
  6
ByLayer
 62
  256
370
   -1
100
AcDbLine
 10
2539.999947283237
 20
1522.000000000001
 11
2539.999947283237
 21
1520.000000000001
  0
LINE
  5
19A
100
AcDbEntity
  8
0
  6
ByLayer
 62
  256
370
   -1
100
AcDbLine
 10
2610.999947283237
 20
1520
 11
2610.999947283237
 21
1522
  0
LINE
  5
19B
100
AcDbEntity
  8
0
  6
ByLayer
 62
  256
370
   -1
100
AcDbLine
 10
2610.999947283237
 20
1522
 11
2613.999947283237
 21
1522
  0
LINE
  5
19C
100
AcDbEntity
  8
0
  6
ByLayer
 62
  256
370
   -1
100
AcDbLine
 10
2613.999947283237
 20
1522
 11
2613.999947283237
 21
1520
  0
LINE
  5
19D
100
AcDbEntity
  8
0
  6
ByLayer
 62
  256
370
   -1
100
AcDbLine
 10
2605.499990077286
 20
1520
 11
2605.499990077287
 21
1515.5
  0
ARC
  5
19E
100
AcDbEntity
  8
0
  6
ByLayer
 62
  256
370
   -1
100
AcDbCircle
 10
2604.499990077287
 20
1515.5
 40
1
100
AcDbArc
 50
269.9999999999991
 51
359.9999999999991
  0
LINE
  5
19F
100
AcDbEntity
  8
0
  6
ByLayer
 62
  256
370
   -1
100
AcDbLine
 10
2599.4999472836
 20
1519.99995331525
 11
2599.500017310227
 21
1515.499953315795
  0
ARC
  5
1A0
100
AcDbEntity
  8
0
  6
ByLayer
 62
  256
370
   -1
100
AcDbCircle
 10
2600.500017310106
 20
1515.499968877266
 40
1
100
AcDbArc
 50
180.0008916066985
 51
270.0008916066985
  0
LINE
  5
1A1
100
AcDbEntity
  8
0
  6
ByLayer
 62
  256
370
   -1
100
AcDbLine
 10
2600.500032871579
 20
1514.499968877388
 11
2604.499990077287
 21
1514.5
  0
LINE
  5
1A2
100
AcDbEntity
  8
0
  6
ByLayer
 62
  256
370
   -1
100
AcDbLine
 10
2590.499990077286
 20
1520
 11
2590.499990077286
 21
1515.5
  0
ARC
  5
1A3
100
AcDbEntity
  8
0
  6
ByLayer
 62
  256
370
   -1
100
AcDbCircle
 10
2589.499990077286
 20
1515.5
 40
1
100
AcDbArc
 50
269.9999999999991
 51
359.9999999999991
  0
LINE
  5
1A4
100
AcDbEntity
  8
0
  6
ByLayer
 62
  256
370
   -1
100
AcDbLine
 10
2584.4999472836
 20
1519.99995331525
 11
2584.500017310227
 21
1515.499953315795
  0
ARC
  5
1A5
100
AcDbEntity
  8
0
  6
ByLayer
 62
  256
370
   -1
100
AcDbCircle
 10
2585.500017310106
 20
1515.499968877267
 40
1
100
AcDbArc
 50
180.0008916066985
 51
270.0008916066985
  0
LINE
  5
1A6
100
AcDbEntity
  8
0
  6
ByLayer
 62
  256
370
   -1
100
AcDbLine
 10
2585.500032871579
 20
1514.499968877388
 11
2589.499990077287
 21
1514.5
  0
LINE
  5
1A7
100
AcDbEntity
  8
0
  6
ByLayer
 62
  256
370
   -1
100
AcDbLine
 10
2566.499975135769
 20
1520
 11
2566.49997513577
 21
1515.5
  0
ARC
  5
1A8
100
AcDbEntity
  8
0
  6
ByLayer
 62
  256
370
   -1
100
AcDbCircle
 10
2565.49997513577
 20
1515.5
 40
1
100
AcDbArc
 50
269.9999999999991
 51
359.9999999999991
  0
LINE
  5
1A9
100
AcDbEntity
  8
0
  6
ByLayer
 62
  256
370
   -1
100
AcDbLine
 10
2560.499932342083
 20
1519.99995331525
 11
2560.50000236871
 21
1515.499953315795
  0
ARC
  5
1AA
100
AcDbEntity
  8
0
  6
ByLayer
 62
  256
370
   -1
100
AcDbCircle
 10
2561.500002368589
 20
1515.499968877267
 40
1
100
AcDbArc
 50
180.0008916066985
 51
270.0008916066985
  0
LINE
  5
1AB
100
AcDbEntity
  8
0
  6
ByLayer
 62
  256
370
   -1
100
AcDbLine
 10
2561.500017930062
 20
1514.499968877388
 11
2565.49997513577
 21
1514.5
  0
LINE
  5
1AC
100
AcDbEntity
  8
0
  6
ByLayer
 62
  256
370
   -1
100
AcDbLine
 10
2551.499951173605
 20
1520
 11
2551.499951173606
 21
1515.5
  0
ARC
  5
1AD
100
AcDbEntity
  8
0
  6
ByLayer
 62
  256
370
   -1
100
AcDbCircle
 10
2550.499951173606
 20
1515.5
 40
1
100
AcDbArc
 50
269.9999999999991
 51
359.9999999999991
  0
LINE
  5
1AE
100
AcDbEntity
  8
0
  6
ByLayer
 62
  256
370
   -1
100
AcDbLine
 10
2545.499908379919
 20
1519.999953315251
 11
2545.499978406546
 21
1515.499953315795
  0
ARC
  5
1AF
100
AcDbEntity
  8
0
  6
ByLayer
 62
  256
370
   -1
100
AcDbCircle
 10
2546.499978406425
 20
1515.499968877268
 40
1
100
AcDbArc
 50
180.0008916066985
 51
270.0008916066985
  0
LINE
  5
1B0
100
AcDbEntity
  8
0
  6
ByLayer
 62
  256
370
   -1
100
AcDbLine
 10
2546.499993967898
 20
1514.499968877389
 11
2550.499951173606
 21
1514.5
  0
LINE
  5
1B1
100
AcDbEntity
  8
0
  6
ByLayer
 62
  256
370
   -1
100
AcDbLine
 10
2605.499990077286
 20
1520
 11
2610.999947283237
 21
1520
  0
LINE
  5
1B2
100
AcDbEntity
  8
0
  6
ByLayer
 62
  256
370
   -1
100
AcDbLine
 10
2584.4999472836
 20
1519.99995331525
 11
2579.999947283237
 21
1520
  0
LINE
  5
1B3
100
AcDbEntity
  8
0
  6
ByLayer
 62
  256
370
   -1
100
AcDbLine
 10
2570.999947283237
 20
1520
 11
2566.499975135769
 21
1520
  0
LINE
  5
1B4
100
AcDbEntity
  8
0
  6
ByLayer
 62
  256
370
   -1
100
AcDbLine
 10
2539.999947283237
 20
1520.000000000001
 11
2545.499908379919
 21
1519.999953315251
  0
LINE
  5
1B5
100
AcDbEntity
  8
0
  6
ByLayer
 62
  256
370
   -1
100
AcDbLine
 10
2530.999947283238
 20
1561.500049844083
 11
2619.999947283238
 21
1561.500049844082
  0
LINE
  5
1B6
100
AcDbEntity
  8
0
  6
ByLayer
 62
  256
370
   -1
100
AcDbLine
 10
2619.999993968867
 20
1542.999957206314
 11
2624.499993968323
 21
1543.00002723294
  0
ARC
  5
1B7
100
AcDbEntity
  8
0
  6
ByLayer
 62
  256
370
   -1
100
AcDbCircle
 10
2624.49997840685
 20
1544.000027232819
 40
1
100
AcDbArc
 50
270.0008916066985
 51
0.0008916066984250606
  0
LINE
  5
1B8
100
AcDbEntity
  8
0
  6
ByLayer
 62
  256
370
   -1
100
AcDbLine
 10
2619.999947284118
 20
1534
 11
2624.499947284118
 21
1534
  0
ARC
  5
1B9
100
AcDbEntity
  8
0
  6
ByLayer
 62
  256
370
   -1
100
AcDbCircle
 10
2624.499947284118
 20
1533
 40
1
100
AcDbArc
 50
359.9999999999991
 51
89.99999999999913
  0
LINE
  5
1BA
100
AcDbEntity
  8
0
  6
ByLayer
 62
  256
370
   -1
100
AcDbLine
 10
2551.49991830227
 20
1528.999978591797
 11
2554.49991830227
 21
1528.999978591797
  0
LINE
  5
1BB
100
AcDbEntity
  8
0
  6
ByLayer
 62
  256
370
   -1
100
AcDbLine
 10
2560.49991830227
 20
1528.999978591797
 11
2557.49991830227
 21
1528.999978591797
  0
LINE
  5
1BC
100
AcDbEntity
  8
0
  6
ByLayer
 62
  256
370
   -1
100
AcDbLine
 10
2551.499918302269
 20
1525.999978591797
 11
2554.499918302269
 21
1525.999978591797
  0
LINE
  5
1BD
100
AcDbEntity
  8
0
  6
ByLayer
 62
  256
370
   -1
100
AcDbLine
 10
2560.499918302269
 20
1525.999978591797
 11
2557.499918302269
 21
1525.999978591797
  0
LINE
  5
1BE
100
AcDbEntity
  8
0
  6
ByLayer
 62
  256
370
   -1
100
AcDbLine
 10
2560.499918302269
 20
1525.999978591797
 11
2560.49991830227
 21
1528.999978591797
  0
LINE
  5
1BF
100
AcDbEntity
  8
0
  6
ByLayer
 62
  256
370
   -1
100
AcDbLine
 10
2557.499918302269
 20
1525.999978591797
 11
2557.499918302269
 21
1519.999978591797
  0
LINE
  5
1C0
100
AcDbEntity
  8
0
  6
ByLayer
 62
  256
370
   -1
100
AcDbLine
 10
2554.499918302269
 20
1519.999978591797
 11
2554.499918302269
 21
1525.999978591797
  0
LINE
  5
1C1
100
AcDbEntity
  8
0
  6
ByLayer
 62
  256
370
   -1
100
AcDbLine
 10
2551.499918302269
 20
1525.999978591797
 11
2551.49991830227
 21
1528.999978591797
  0
LINE
  5
1C2
100
AcDbEntity
  8
0
  6
ByLayer
 62
  256
370
   -1
100
AcDbLine
 10
2557.49991830227
 20
1528.999978591797
 11
2557.49991830227
 21
1529.999978591797
  0
LINE
  5
1C3
100
AcDbEntity
  8
0
  6
ByLayer
 62
  256
370
   -1
100
AcDbLine
 10
2557.49991830227
 20
1529.999978591797
 11
2554.49991830227
 21
1529.999978591797
  0
LINE
  5
1C4
100
AcDbEntity
  8
0
  6
ByLayer
 62
  256
370
   -1
100
AcDbLine
 10
2554.49991830227
 20
1529.999978591797
 11
2554.49991830227
 21
1528.999978591797
  0
LINE
  5
1C5
100
AcDbEntity
  8
0
  6
ByLayer
 62
  256
370
   -1
100
AcDbLine
 10
2560.499918302269
 20
1519.999978591797
 11
2557.499918302269
 21
1519.999978591797
  0
LINE
  5
1C6
100
AcDbEntity
  8
0
  6
ByLayer
 62
  256
370
   -1
100
AcDbLine
 10
2551.499951173605
 20
1520
 11
2554.499918302269
 21
1519.999978591797
  0
LINE
  5
1C7
100
AcDbEntity
  8
0
  6
ByLayer
 62
  256
370
   -1
100
AcDbLine
 10
2590.499947283601
 20
1528.99995331525
 11
2593.499947283601
 21
1528.99995331525
  0
LINE
  5
1C8
100
AcDbEntity
  8
0
  6
ByLayer
 62
  256
370
   -1
100
AcDbLine
 10
2599.499947283601
 20
1528.99995331525
 11
2596.499947283601
 21
1528.99995331525
  0
LINE
  5
1C9
100
AcDbEntity
  8
0
  6
ByLayer
 62
  256
370
   -1
100
AcDbLine
 10
2590.4999472836
 20
1525.99995331525
 11
2593.4999472836
 21
1525.99995331525
  0
LINE
  5
1CA
100
AcDbEntity
  8
0
  6
ByLayer
 62
  256
370
   -1
100
AcDbLine
 10
2599.4999472836
 20
1525.99995331525
 11
2596.4999472836
 21
1525.99995331525
  0
LINE
  5
1CB
100
AcDbEntity
  8
0
  6
ByLayer
 62
  256
370
   -1
100
AcDbLine
 10
2599.4999472836
 20
1525.99995331525
 11
2599.499947283601
 21
1528.99995331525
  0
LINE
  5
1CC
100
AcDbEntity
  8
0
  6
ByLayer
 62
  256
370
   -1
100
AcDbLine
 10
2596.4999472836
 20
1525.99995331525
 11
2596.499947283601
 21
1519.99995331525
  0
LINE
  5
1CD
100
AcDbEntity
  8
0
  6
ByLayer
 62
  256
370
   -1
100
AcDbLine
 10
2593.4999472836
 20
1519.99995331525
 11
2593.4999472836
 21
1525.99995331525
  0
LINE
  5
1CE
100
AcDbEntity
  8
0
  6
ByLayer
 62
  256
370
   -1
100
AcDbLine
 10
2590.4999472836
 20
1525.99995331525
 11
2590.499947283601
 21
1528.99995331525
  0
LINE
  5
1CF
100
AcDbEntity
  8
0
  6
ByLayer
 62
  256
370
   -1
100
AcDbLine
 10
2596.499947283601
 20
1528.99995331525
 11
2596.499947283601
 21
1529.99995331525
  0
LINE
  5
1D0
100
AcDbEntity
  8
0
  6
ByLayer
 62
  256
370
   -1
100
AcDbLine
 10
2596.499947283601
 20
1529.99995331525
 11
2593.499947283601
 21
1529.99995331525
  0
LINE
  5
1D1
100
AcDbEntity
  8
0
  6
ByLayer
 62
  256
370
   -1
100
AcDbLine
 10
2593.499947283601
 20
1529.99995331525
 11
2593.499947283601
 21
1528.99995331525
  0
LINE
  5
1D2
100
AcDbEntity
  8
0
  6
ByLayer
 62
  256
370
   -1
100
AcDbLine
 10
2599.4999472836
 20
1519.99995331525
 11
2596.499947283601
 21
1519.99995331525
  0
LINE
  5
1D3
100
AcDbEntity
  8
0
  6
ByLayer
 62
  256
370
   -1
100
AcDbLine
 10
2590.499980154936
 20
1519.999974723453
 11
2593.4999472836
 21
1519.99995331525
  0
LINE
  5
1D4
100
AcDbEntity
  8
0
  6
ByLayer
 62
  256
370
   -1
100
AcDbLine
 10
2610.999947284116
 20
1543
 11
2610.999947284118
 21
1540
  0
LINE
  5
1D5
100
AcDbEntity
  8
0
  6
ByLayer
 62
  256
370
   -1
100
AcDbLine
 10
2610.999947284118
 20
1534
 11
2610.999947284118
 21
1537
  0
LINE
  5
1D6
100
AcDbEntity
  8
0
  6
ByLayer
 62
  256
370
   -1
100
AcDbLine
 10
2613.999947284116
 20
1543
 11
2613.999947284118
 21
1540
  0
LINE
  5
1D7
100
AcDbEntity
  8
0
  6
ByLayer
 62
  256
370
   -1
100
AcDbLine
 10
2613.999947284118
 20
1534
 11
2613.999947284118
 21
1537
  0
LINE
  5
1D8
100
AcDbEntity
  8
0
  6
ByLayer
 62
  256
370
   -1
100
AcDbLine
 10
2613.999947284118
 20
1534
 11
2610.999947284118
 21
1534
  0
LINE
  5
1D9
100
AcDbEntity
  8
0
  6
ByLayer
 62
  256
370
   -1
100
AcDbLine
 10
2613.999947284118
 20
1537
 11
2619.999947284118
 21
1537
  0
LINE
  5
1DA
100
AcDbEntity
  8
0
  6
ByLayer
 62
  256
370
   -1
100
AcDbLine
 10
2619.999947284118
 20
1540
 11
2613.999947284118
 21
1540
  0
LINE
  5
1DB
100
AcDbEntity
  8
0
  6
ByLayer
 62
  256
370
   -1
100
AcDbLine
 10
2613.999947284116
 20
1543
 11
2610.999947284116
 21
1543
  0
LINE
  5
1DC
100
AcDbEntity
  8
0
  6
ByLayer
 62
  256
370
   -1
100
AcDbLine
 10
2610.999947284118
 20
1537
 11
2609.999947284118
 21
1537
  0
LINE
  5
1DD
100
AcDbEntity
  8
0
  6
ByLayer
 62
  256
370
   -1
100
AcDbLine
 10
2609.999947284118
 20
1537
 11
2609.999947284118
 21
1540
  0
LINE
  5
1DE
100
AcDbEntity
  8
0
  6
ByLayer
 62
  256
370
   -1
100
AcDbLine
 10
2609.999947284118
 20
1540
 11
2610.999947284118
 21
1540
  0
LINE
  5
1DF
100
AcDbEntity
  8
0
  6
ByLayer
 62
  256
370
   -1
100
AcDbLine
 10
2619.999947284118
 20
1534
 11
2619.999947284118
 21
1537
  0
LINE
  5
1E0
100
AcDbEntity
  8
0
  6
ByLayer
 62
  256
370
   -1
100
AcDbLine
 10
2619.999925875914
 20
1542.999967128663
 11
2619.999947284118
 21
1540
  0
LINE
  5
1E1
100
AcDbEntity
  8
0
  6
ByLayer
 62
  256
370
   -1
100
AcDbLine
 10
2539.999947282357
 20
1543.000000000001
 11
2539.999947282357
 21
1540.000000000001
  0
LINE
  5
1E2
100
AcDbEntity
  8
0
  6
ByLayer
 62
  256
370
   -1
100
AcDbLine
 10
2539.999947282357
 20
1534.000000000001
 11
2539.999947282357
 21
1537.000000000001
  0
LINE
  5
1E3
100
AcDbEntity
  8
0
  6
ByLayer
 62
  256
370
   -1
100
AcDbLine
 10
2536.999947282357
 20
1543.000000000001
 11
2536.999947282357
 21
1540.000000000001
  0
LINE
  5
1E4
100
AcDbEntity
  8
0
  6
ByLayer
 62
  256
370
   -1
100
AcDbLine
 10
2536.999947282357
 20
1534.000000000001
 11
2536.999947282357
 21
1537.000000000001
  0
LINE
  5
1E5
100
AcDbEntity
  8
0
  6
ByLayer
 62
  256
370
   -1
100
AcDbLine
 10
2536.999947282357
 20
1534.000000000001
 11
2539.999947282357
 21
1534.000000000001
  0
LINE
  5
1E6
100
AcDbEntity
  8
0
  6
ByLayer
 62
  256
370
   -1
100
AcDbLine
 10
2536.999947282357
 20
1537.000000000001
 11
2530.999947282357
 21
1537.000000000001
  0
LINE
  5
1E7
100
AcDbEntity
  8
0
  6
ByLayer
 62
  256
370
   -1
100
AcDbLine
 10
2530.999947282357
 20
1540.000000000001
 11
2536.999947282357
 21
1540.000000000001
  0
LINE
  5
1E8
100
AcDbEntity
  8
0
  6
ByLayer
 62
  256
370
   -1
100
AcDbLine
 10
2536.999947282357
 20
1543.000000000001
 11
2539.999947282357
 21
1543.000000000001
  0
LINE
  5
1E9
100
AcDbEntity
  8
0
  6
ByLayer
 62
  256
370
   -1
100
AcDbLine
 10
2539.999947282357
 20
1537.000000000001
 11
2540.999947282357
 21
1537.000000000001
  0
LINE
  5
1EA
100
AcDbEntity
  8
0
  6
ByLayer
 62
  256
370
   -1
100
AcDbLine
 10
2540.999947282357
 20
1537.000000000001
 11
2540.999947282357
 21
1540.000000000001
  0
LINE
  5
1EB
100
AcDbEntity
  8
0
  6
ByLayer
 62
  256
370
   -1
100
AcDbLine
 10
2540.999947282357
 20
1540.000000000001
 11
2539.999947282357
 21
1540.000000000001
  0
CIRCLE
  5
1EC
100
AcDbEntity
  8
0
  6
ByLayer
 62
  256
370
   -1
100
AcDbCircle
 10
2551.499947283237
 20
1542
 40
4
  0
CIRCLE
  5
1ED
100
AcDbEntity
  8
0
  6
ByLayer
 62
  256
370
   -1
100
AcDbCircle
 10
2599.499947283083
 20
1541.999999999628
 40
4
  0
LINE
  5
1EE
100
AcDbEntity
  8
0
  6
ByLayer
 62
  256
370
   -1
100
AcDbLine
 10
2567.499947283237
 20
1536
 11
2567.499947283237
 21
1548
  0
LINE
  5
1EF
100
AcDbEntity
  8
0
  6
ByLayer
 62
  256
370
   -1
100
AcDbLine
 10
2583.499947283237
 20
1536
 11
2583.499947283237
 21
1548
  0
LINE
  5
1F0
100
AcDbEntity
  8
0
  6
ByLayer
 62
  256
370
   -1
100
AcDbLine
 10
2567.499947283237
 20
1548
 11
2583.499947283237
 21
1548
  0
LINE
  5
1F1
100
AcDbEntity
  8
0
  6
ByLayer
 62
  256
370
   -1
100
AcDbLine
 10
2567.499947283237
 20
1536
 11
2583.499947283237
 21
1536
  0
LINE
  5
1F2
100
AcDbEntity
  8
0
  6
ByLayer
 62
  256
370
   -1
100
AcDbLine
 10
2619.999947284118
 20
1551
 11
2624.499947284118
 21
1551
  0
ARC
  5
1F3
100
AcDbEntity
  8
0
  6
ByLayer
 62
  256
370
   -1
100
AcDbCircle
 10
2624.499947284118
 20
1550
 40
1
100
AcDbArc
 50
359.9999999999991
 51
89.99999999999913
  0
LINE
  5
1F4
100
AcDbEntity
  8
0
  6
ByLayer
 62
  256
370
   -1
100
AcDbLine
 10
2625.499947284118
 20
1550
 11
2625.499978406729
 21
1544.000042794292
  0
LINE
  5
1F5
100
AcDbEntity
  8
0
  6
ByLayer
 62
  256
370
   -1
100
AcDbLine
 10
2619.999947283238
 20
1561.500049844082
 11
2619.999947284118
 21
1551
  0
LINE
  5
1F6
100
AcDbEntity
  8
0
  6
ByLayer
 62
  256
370
   -1
100
AcDbLine
 10
2619.999993968867
 20
1525.999957206314
 11
2624.499993968322
 21
1526.00002723294
  0
ARC
  5
1F7
100
AcDbEntity
  8
0
  6
ByLayer
 62
  256
370
   -1
100
AcDbCircle
 10
2624.49997840685
 20
1527.000027232819
 40
1
100
AcDbArc
 50
270.0008916066985
 51
0.0008916066984250606
  0
LINE
  5
1F8
100
AcDbEntity
  8
0
  6
ByLayer
 62
  256
370
   -1
100
AcDbLine
 10
2625.499947284118
 20
1533
 11
2625.499978406729
 21
1527.000042794292
  0
LINE
  5
1F9
100
AcDbEntity
  8
0
  6
ByLayer
 62
  256
370
   -1
100
AcDbLine
 10
2619.999947283237
 20
1526
 11
2619.999947283237
 21
1520
  0
LINE
  5
1FA
100
AcDbEntity
  8
0
  6
ByLayer
 62
  256
370
   -1
100
AcDbLine
 10
2530.999900597606
 20
1542.999957206315
 11
2526.499900598152
 21
1543.000027232942
  0
ARC
  5
1FB
100
AcDbEntity
  8
0
  6
ByLayer
 62
  256
370
   -1
100
AcDbCircle
 10
2526.499916159625
 20
1544.000027232821
 40
1
100
AcDbArc
 50
179.9991083932997
 51
269.9991083932997
  0
LINE
  5
1FC
100
AcDbEntity
  8
0
  6
ByLayer
 62
  256
370
   -1
100
AcDbLine
 10
2530.999947282357
 20
1534.000000000001
 11
2526.499947282357
 21
1534.000000000001
  0
ARC
  5
1FD
100
AcDbEntity
  8
0
  6
ByLayer
 62
  256
370
   -1
100
AcDbCircle
 10
2526.499947282357
 20
1533.000000000001
 40
1
100
AcDbArc
 50
89.99999999999909
 51
179.9999999999991
  0
LINE
  5
1FE
100
AcDbEntity
  8
0
  6
ByLayer
 62
  256
370
   -1
100
AcDbLine
 10
2530.999947282357
 20
1534.000000000001
 11
2530.999947282357
 21
1537.000000000001
  0
LINE
  5
1FF
100
AcDbEntity
  8
0
  6
ByLayer
 62
  256
370
   -1
100
AcDbLine
 10
2530.999968690561
 20
1542.999967128665
 11
2530.999947282357
 21
1540.000000000001
  0
LINE
  5
200
100
AcDbEntity
  8
0
  6
ByLayer
 62
  256
370
   -1
100
AcDbLine
 10
2530.999947282358
 20
1551.000000000001
 11
2526.499947282358
 21
1551.000000000001
  0
ARC
  5
201
100
AcDbEntity
  8
0
  6
ByLayer
 62
  256
370
   -1
100
AcDbCircle
 10
2526.499947282357
 20
1550.000000000001
 40
1
100
AcDbArc
 50
89.99999999999909
 51
179.9999999999991
  0
LINE
  5
202
100
AcDbEntity
  8
0
  6
ByLayer
 62
  256
370
   -1
100
AcDbLine
 10
2525.499947282357
 20
1550.000000000001
 11
2525.499916159746
 21
1544.000042794293
  0
LINE
  5
203
100
AcDbEntity
  8
0
  6
ByLayer
 62
  256
370
   -1
100
AcDbLine
 10
2530.999947283238
 20
1561.500049844083
 11
2530.999947282358
 21
1551.000000000001
  0
LINE
  5
204
100
AcDbEntity
  8
0
  6
ByLayer
 62
  256
370
   -1
100
AcDbLine
 10
2530.999900597606
 20
1525.999957206315
 11
2526.499900598151
 21
1526.000027232942
  0
ARC
  5
205
100
AcDbEntity
  8
0
  6
ByLayer
 62
  256
370
   -1
100
AcDbCircle
 10
2526.499916159624
 20
1527.000027232821
 40
1
100
AcDbArc
 50
179.9991083932997
 51
269.9991083932997
  0
LINE
  5
206
100
AcDbEntity
  8
0
  6
ByLayer
 62
  256
370
   -1
100
AcDbLine
 10
2525.499947282357
 20
1533.000000000001
 11
2525.499916159745
 21
1527.000042794293
  0
LINE
  5
207
100
AcDbEntity
  8
0
  6
ByLayer
 62
  256
370
   -1
100
AcDbLine
 10
2530.999947283237
 20
1526.000000000001
 11
2530.999947283237
 21
1520.000000000001
  0
LINE
  5
208
100
AcDbEntity
  8
0
  6
ByLayer
 62
  256
370
   -1
100
AcDbLine
 10
2530.000019845425
 20
1677.000049844189
 11
2619.000019845425
 21
1677.000049844189
  0
LINE
  5
209
100
AcDbEntity
  8
0
  6
ByLayer
 62
  256
370
   -1
100
AcDbLine
 10
2530.000019845425
 20
1677.000049844188
 11
2619.000019845425
 21
1677.000049844189
  0
CIRCLE
  5
20A
100
AcDbEntity
  8
0
  6
ByLayer
 62
  256
370
   -1
100
AcDbCircle
 10
2550.500019845425
 20
1657.500000000106
 40
4
  0
CIRCLE
  5
20B
100
AcDbEntity
  8
0
  6
ByLayer
 62
  256
370
   -1
100
AcDbCircle
 10
2598.50001984527
 20
1657.499999999735
 40
4
  0
LINE
  5
20C
100
AcDbEntity
  8
0
  6
ByLayer
 62
  256
370
   -1
100
AcDbLine
 10
2566.500019845425
 20
1651.500000000106
 11
2566.500019845425
 21
1663.500000000106
  0
LINE
  5
20D
100
AcDbEntity
  8
0
  6
ByLayer
 62
  256
370
   -1
100
AcDbLine
 10
2582.500019845425
 20
1651.500000000106
 11
2582.500019845425
 21
1663.500000000106
  0
LINE
  5
20E
100
AcDbEntity
  8
0
  6
ByLayer
 62
  256
370
   -1
100
AcDbLine
 10
2566.500019845425
 20
1663.500000000106
 11
2582.500019845425
 21
1663.500000000106
  0
LINE
  5
20F
100
AcDbEntity
  8
0
  6
ByLayer
 62
  256
370
   -1
100
AcDbLine
 10
2566.500019845425
 20
1651.500000000106
 11
2582.500019845425
 21
1651.500000000106
  0
LINE
  5
210
100
AcDbEntity
  8
0
  6
ByLayer
 62
  256
370
   -1
100
AcDbLine
 10
2530
 20
1610
 11
2619.000039690851
 21
1610.000000000001
  0
LINE
  5
211
100
AcDbEntity
  8
0
  6
ByLayer
 62
  256
370
   -1
100
AcDbLine
 10
2580.500019845425
 20
1635.500000000106
 11
2580.500019845425
 21
1630.000000000106
  0
LINE
  5
212
100
AcDbEntity
  8
0
  6
ByLayer
 62
  256
370
   -1
100
AcDbLine
 10
2592.500019845425
 20
1635.500000000106
 11
2592.500019845425
 21
1630.000000000106
  0
LINE
  5
213
100
AcDbEntity
  8
0
  6
ByLayer
 62
  256
370
   -1
100
AcDbLine
 10
2568.500019845425
 20
1635.500000000106
 11
2568.500019845425
 21
1630.000000000106
  0
LINE
  5
214
100
AcDbEntity
  8
0
  6
ByLayer
 62
  256
370
   -1
100
AcDbLine
 10
2556.500019845425
 20
1635.500000000106
 11
2556.500019845425
 21
1630.000000000106
  0
LINE
  5
215
100
AcDbEntity
  8
0
  6
ByLayer
 62
  256
370
   -1
100
AcDbLine
 10
2556.500019845425
 20
1635.500000000106
 11
2568.500019845425
 21
1635.500000000106
  0
LINE
  5
216
100
AcDbEntity
  8
0
  6
ByLayer
 62
  256
370
   -1
100
AcDbLine
 10
2556.500019845425
 20
1630.000000000106
 11
2568.500019845425
 21
1630.000000000106
  0
LINE
  5
217
100
AcDbEntity
  8
0
  6
ByLayer
 62
  256
370
   -1
100
AcDbLine
 10
2580.500019845425
 20
1635.500000000106
 11
2592.500019845425
 21
1635.500000000106
  0
LINE
  5
218
100
AcDbEntity
  8
0
  6
ByLayer
 62
  256
370
   -1
100
AcDbLine
 10
2580.500019845425
 20
1630.000000000106
 11
2592.500019845425
 21
1630.000000000106
  0
LINE
  5
219
100
AcDbEntity
  8
0
  6
ByLayer
 62
  256
370
   -1
100
AcDbLine
 10
2619.000066531055
 20
1658.49995720642
 11
2623.500066530511
 21
1658.500027233047
  0
ARC
  5
21A
100
AcDbEntity
  8
0
  6
ByLayer
 62
  256
370
   -1
100
AcDbCircle
 10
2623.500050969038
 20
1659.500027232926
 40
1
100
AcDbArc
 50
270.0008916066997
 51
0.0008916066995955048
  0
LINE
  5
21B
100
AcDbEntity
  8
0
  6
ByLayer
 62
  256
370
   -1
100
AcDbLine
 10
2619.000019846305
 20
1649.500000000107
 11
2623.500019846305
 21
1649.500000000107
  0
ARC
  5
21C
100
AcDbEntity
  8
0
  6
ByLayer
 62
  256
370
   -1
100
AcDbCircle
 10
2623.500019846305
 20
1648.500000000107
 40
1
100
AcDbArc
 50
3.053332494204976e-013
 51
90.0000000000003
  0
LINE
  5
21D
100
AcDbEntity
  8
0
  6
ByLayer
 62
  256
370
   -1
100
AcDbLine
 10
2610.000019846304
 20
1658.500000000107
 11
2610.000019846305
 21
1655.500000000107
  0
LINE
  5
21E
100
AcDbEntity
  8
0
  6
ByLayer
 62
  256
370
   -1
100
AcDbLine
 10
2610.000019846305
 20
1649.500000000107
 11
2610.000019846305
 21
1652.500000000107
  0
LINE
  5
21F
100
AcDbEntity
  8
0
  6
ByLayer
 62
  256
370
   -1
100
AcDbLine
 10
2613.000019846304
 20
1658.500000000107
 11
2613.000019846305
 21
1655.500000000107
  0
LINE
  5
220
100
AcDbEntity
  8
0
  6
ByLayer
 62
  256
370
   -1
100
AcDbLine
 10
2613.000019846305
 20
1649.500000000107
 11
2613.000019846305
 21
1652.500000000107
  0
LINE
  5
221
100
AcDbEntity
  8
0
  6
ByLayer
 62
  256
370
   -1
100
AcDbLine
 10
2613.000019846305
 20
1649.500000000107
 11
2610.000019846305
 21
1649.500000000107
  0
LINE
  5
222
100
AcDbEntity
  8
0
  6
ByLayer
 62
  256
370
   -1
100
AcDbLine
 10
2613.000019846305
 20
1652.500000000107
 11
2619.000019846305
 21
1652.500000000107
  0
LINE
  5
223
100
AcDbEntity
  8
0
  6
ByLayer
 62
  256
370
   -1
100
AcDbLine
 10
2619.000019846305
 20
1655.500000000107
 11
2613.000019846305
 21
1655.500000000107
  0
LINE
  5
224
100
AcDbEntity
  8
0
  6
ByLayer
 62
  256
370
   -1
100
AcDbLine
 10
2613.000019846304
 20
1658.500000000107
 11
2610.000019846304
 21
1658.500000000107
  0
LINE
  5
225
100
AcDbEntity
  8
0
  6
ByLayer
 62
  256
370
   -1
100
AcDbLine
 10
2610.000019846305
 20
1652.500000000107
 11
2609.000019846305
 21
1652.500000000107
  0
LINE
  5
226
100
AcDbEntity
  8
0
  6
ByLayer
 62
  256
370
   -1
100
AcDbLine
 10
2609.000019846305
 20
1652.500000000107
 11
2609.000019846305
 21
1655.500000000107
  0
LINE
  5
227
100
AcDbEntity
  8
0
  6
ByLayer
 62
  256
370
   -1
100
AcDbLine
 10
2609.000019846305
 20
1655.500000000107
 11
2610.000019846305
 21
1655.500000000107
  0
LINE
  5
228
100
AcDbEntity
  8
0
  6
ByLayer
 62
  256
370
   -1
100
AcDbLine
 10
2619.000019846305
 20
1649.500000000107
 11
2619.000019846305
 21
1652.500000000107
  0
LINE
  5
229
100
AcDbEntity
  8
0
  6
ByLayer
 62
  256
370
   -1
100
AcDbLine
 10
2618.999998438102
 20
1658.49996712877
 11
2619.000019846305
 21
1655.500000000107
  0
LINE
  5
22A
100
AcDbEntity
  8
0
  6
ByLayer
 62
  256
370
   -1
100
AcDbLine
 10
2539.000019844546
 20
1658.500000000106
 11
2539.000019844545
 21
1655.500000000106
  0
LINE
  5
22B
100
AcDbEntity
  8
0
  6
ByLayer
 62
  256
370
   -1
100
AcDbLine
 10
2539.000019844545
 20
1649.500000000106
 11
2539.000019844545
 21
1652.500000000106
  0
LINE
  5
22C
100
AcDbEntity
  8
0
  6
ByLayer
 62
  256
370
   -1
100
AcDbLine
 10
2536.000019844546
 20
1658.500000000106
 11
2536.000019844545
 21
1655.500000000106
  0
LINE
  5
22D
100
AcDbEntity
  8
0
  6
ByLayer
 62
  256
370
   -1
100
AcDbLine
 10
2536.000019844545
 20
1649.500000000106
 11
2536.000019844545
 21
1652.500000000106
  0
LINE
  5
22E
100
AcDbEntity
  8
0
  6
ByLayer
 62
  256
370
   -1
100
AcDbLine
 10
2536.000019844545
 20
1649.500000000106
 11
2539.000019844545
 21
1649.500000000106
  0
LINE
  5
22F
100
AcDbEntity
  8
0
  6
ByLayer
 62
  256
370
   -1
100
AcDbLine
 10
2536.000019844545
 20
1652.500000000106
 11
2530.000019844545
 21
1652.500000000106
  0
LINE
  5
230
100
AcDbEntity
  8
0
  6
ByLayer
 62
  256
370
   -1
100
AcDbLine
 10
2530.000019844545
 20
1655.500000000106
 11
2536.000019844545
 21
1655.500000000106
  0
LINE
  5
231
100
AcDbEntity
  8
0
  6
ByLayer
 62
  256
370
   -1
100
AcDbLine
 10
2536.000019844546
 20
1658.500000000106
 11
2539.000019844546
 21
1658.500000000106
  0
LINE
  5
232
100
AcDbEntity
  8
0
  6
ByLayer
 62
  256
370
   -1
100
AcDbLine
 10
2539.000019844545
 20
1652.500000000106
 11
2540.000019844545
 21
1652.500000000106
  0
LINE
  5
233
100
AcDbEntity
  8
0
  6
ByLayer
 62
  256
370
   -1
100
AcDbLine
 10
2540.000019844545
 20
1652.500000000106
 11
2540.000019844545
 21
1655.500000000106
  0
LINE
  5
234
100
AcDbEntity
  8
0
  6
ByLayer
 62
  256
370
   -1
100
AcDbLine
 10
2540.000019844545
 20
1655.500000000106
 11
2539.000019844545
 21
1655.500000000106
  0
LINE
  5
235
100
AcDbEntity
  8
0
  6
ByLayer
 62
  256
370
   -1
100
AcDbLine
 10
2619.000019846305
 20
1666.500000000107
 11
2623.500019846305
 21
1666.500000000107
  0
ARC
  5
236
100
AcDbEntity
  8
0
  6
ByLayer
 62
  256
370
   -1
100
AcDbCircle
 10
2623.500019846305
 20
1665.500000000107
 40
1
100
AcDbArc
 50
3.053332494204976e-013
 51
90.0000000000003
  0
LINE
  5
237
100
AcDbEntity
  8
0
  6
ByLayer
 62
  256
370
   -1
100
AcDbLine
 10
2624.500019846305
 20
1665.500000000107
 11
2624.500050968917
 21
1659.500042794398
  0
LINE
  5
238
100
AcDbEntity
  8
0
  6
ByLayer
 62
  256
370
   -1
100
AcDbLine
 10
2619.000019845425
 20
1677.000049844189
 11
2619.000019846305
 21
1666.500000000107
  0
LINE
  5
239
100
AcDbEntity
  8
0
  6
ByLayer
 62
  256
370
   -1
100
AcDbLine
 10
2619.000066531055
 20
1641.49995720642
 11
2623.500066530511
 21
1641.500027233047
  0
ARC
  5
23A
100
AcDbEntity
  8
0
  6
ByLayer
 62
  256
370
   -1
100
AcDbCircle
 10
2623.500050969038
 20
1642.500027232926
 40
1
100
AcDbArc
 50
270.0008916066997
 51
0.0008916066995955048
  0
LINE
  5
23B
100
AcDbEntity
  8
0
  6
ByLayer
 62
  256
370
   -1
100
AcDbLine
 10
2624.500019846305
 20
1648.500000000107
 11
2624.500050968917
 21
1642.500042794398
  0
LINE
  5
23C
100
AcDbEntity
  8
0
  6
ByLayer
 62
  256
370
   -1
100
AcDbLine
 10
2619.000019845425
 20
1641.500000000107
 11
2619.000019845425
 21
1635.500000000107
  0
LINE
  5
23D
100
AcDbEntity
  8
0
  6
ByLayer
 62
  256
370
   -1
100
AcDbLine
 10
2529.999973159795
 20
1658.49995720642
 11
2525.499973160339
 21
1658.500027233046
  0
ARC
  5
23E
100
AcDbEntity
  8
0
  6
ByLayer
 62
  256
370
   -1
100
AcDbCircle
 10
2525.499988721812
 20
1659.500027232925
 40
1
100
AcDbArc
 50
179.9991083933009
 51
269.9991083933009
  0
LINE
  5
23F
100
AcDbEntity
  8
0
  6
ByLayer
 62
  256
370
   -1
100
AcDbLine
 10
2530.000019844545
 20
1649.500000000106
 11
2525.500019844545
 21
1649.500000000106
  0
ARC
  5
240
100
AcDbEntity
  8
0
  6
ByLayer
 62
  256
370
   -1
100
AcDbCircle
 10
2525.500019844545
 20
1648.500000000106
 40
1
100
AcDbArc
 50
90.0000000000003
 51
180.0000000000003
  0
LINE
  5
241
100
AcDbEntity
  8
0
  6
ByLayer
 62
  256
370
   -1
100
AcDbLine
 10
2530.000019844545
 20
1649.500000000106
 11
2530.000019844545
 21
1652.500000000106
  0
LINE
  5
242
100
AcDbEntity
  8
0
  6
ByLayer
 62
  256
370
   -1
100
AcDbLine
 10
2530.000041252748
 20
1658.49996712877
 11
2530.000019844545
 21
1655.500000000106
  0
LINE
  5
243
100
AcDbEntity
  8
0
  6
ByLayer
 62
  256
370
   -1
100
AcDbLine
 10
2530.000019844545
 20
1666.500000000106
 11
2525.500019844545
 21
1666.500000000106
  0
ARC
  5
244
100
AcDbEntity
  8
0
  6
ByLayer
 62
  256
370
   -1
100
AcDbCircle
 10
2525.500019844545
 20
1665.500000000106
 40
1
100
AcDbArc
 50
90.0000000000003
 51
180.0000000000003
  0
LINE
  5
245
100
AcDbEntity
  8
0
  6
ByLayer
 62
  256
370
   -1
100
AcDbLine
 10
2524.500019844545
 20
1665.500000000106
 11
2524.499988721933
 21
1659.500042794398
  0
LINE
  5
246
100
AcDbEntity
  8
0
  6
ByLayer
 62
  256
370
   -1
100
AcDbLine
 10
2530.000019845425
 20
1677.000049844188
 11
2530.000019844545
 21
1666.500000000106
  0
LINE
  5
247
100
AcDbEntity
  8
0
  6
ByLayer
 62
  256
370
   -1
100
AcDbLine
 10
2529.999973159795
 20
1641.49995720642
 11
2525.499973160339
 21
1641.500027233046
  0
ARC
  5
248
100
AcDbEntity
  8
0
  6
ByLayer
 62
  256
370
   -1
100
AcDbCircle
 10
2525.499988721812
 20
1642.500027232925
 40
1
100
AcDbArc
 50
179.9991083933009
 51
269.9991083933009
  0
LINE
  5
249
100
AcDbEntity
  8
0
  6
ByLayer
 62
  256
370
   -1
100
AcDbLine
 10
2524.500019844545
 20
1648.500000000106
 11
2524.499988721933
 21
1642.500042794398
  0
LINE
  5
24A
100
AcDbEntity
  8
0
  6
ByLayer
 62
  256
370
   -1
100
AcDbLine
 10
2530.000019845425
 20
1641.500000000106
 11
2530.000019845425
 21
1635.500000000106
  0
LINE
  5
24B
100
AcDbEntity
  8
0
  6
ByLayer
 62
  256
370
   -1
100
AcDbLine
 10
2619.000019845425
 20
1623.800000000107
 11
2623.500019845425
 21
1623.800000000107
  0
ARC
  5
24C
100
AcDbEntity
  8
0
  6
ByLayer
 62
  256
370
   -1
100
AcDbCircle
 10
2623.500019845425
 20
1622.800000000107
 40
1
100
AcDbArc
 50
3.053332494204976e-013
 51
90.0000000000003
  0
LINE
  5
24D
100
AcDbEntity
  8
0
  6
ByLayer
 62
  256
370
   -1
100
AcDbLine
 10
2619.000066530176
 20
1615.799957206421
 11
2623.500066529631
 21
1615.800027233047
  0
ARC
  5
24E
100
AcDbEntity
  8
0
  6
ByLayer
 62
  256
370
   -1
100
AcDbCircle
 10
2623.500050968159
 20
1616.800027232926
 40
1
100
AcDbArc
 50
270.0008916066997
 51
0.0008916066995955048
  0
LINE
  5
24F
100
AcDbEntity
  8
0
  6
ByLayer
 62
  256
370
   -1
100
AcDbLine
 10
2624.500019845425
 20
1622.800000000107
 11
2624.500050968038
 21
1616.800042794399
  0
LINE
  5
250
100
AcDbEntity
  8
0
  6
ByLayer
 62
  256
370
   -1
100
AcDbLine
 10
2619.000039690851
 20
1610.000000000001
 11
2619.000066530176
 21
1615.799957206421
  0
LINE
  5
251
100
AcDbEntity
  8
0
  6
ByLayer
 62
  256
370
   -1
100
AcDbLine
 10
2619.000019845425
 20
1629.800000000106
 11
2619.000019845425
 21
1623.800000000107
  0
LINE
  5
252
100
AcDbEntity
  8
0
  6
ByLayer
 62
  256
370
   -1
100
AcDbLine
 10
2530.000019845425
 20
1623.800000000106
 11
2525.500019845425
 21
1623.800000000106
  0
ARC
  5
253
100
AcDbEntity
  8
0
  6
ByLayer
 62
  256
370
   -1
100
AcDbCircle
 10
2525.500019845425
 20
1622.800000000106
 40
1
100
AcDbArc
 50
90.0000000000003
 51
180.0000000000003
  0
LINE
  5
254
100
AcDbEntity
  8
0
  6
ByLayer
 62
  256
370
   -1
100
AcDbLine
 10
2529.999973160675
 20
1615.79995720642
 11
2525.49997316122
 21
1615.800027233047
  0
ARC
  5
255
100
AcDbEntity
  8
0
  6
ByLayer
 62
  256
370
   -1
100
AcDbCircle
 10
2525.499988722692
 20
1616.800027232926
 40
1
100
AcDbArc
 50
179.9991083933009
 51
269.9991083933009
  0
LINE
  5
256
100
AcDbEntity
  8
0
  6
ByLayer
 62
  256
370
   -1
100
AcDbLine
 10
2524.500019845425
 20
1622.800000000106
 11
2524.499988722813
 21
1616.800042794398
  0
LINE
  5
257
100
AcDbEntity
  8
0
  6
ByLayer
 62
  256
370
   -1
100
AcDbLine
 10
2530
 20
1610
 11
2529.999973160675
 21
1615.79995720642
  0
LINE
  5
258
100
AcDbEntity
  8
0
  6
ByLayer
 62
  256
370
   -1
100
AcDbLine
 10
2530.000019845425
 20
1629.800000000106
 11
2530.000019845425
 21
1623.800000000106
  0
CIRCLE
  5
259
100
AcDbEntity
  8
0
  6
ByLayer
 62
  256
370
   -1
100
AcDbCircle
 10
2574.500019845425
 20
1632.750000000106
 40
1.5
  0
LINE
  5
25A
100
AcDbEntity
  8
0
  6
ByLayer
 62
  256
370
   -1
100
AcDbLine
 10
2546.500019845425
 20
1635.500000000106
 11
2546.500019845425
 21
1629.800000000106
  0
LINE
  5
25B
100
AcDbEntity
  8
0
  6
ByLayer
 62
  256
370
   -1
100
AcDbLine
 10
2530.000019845425
 20
1629.800000000106
 11
2546.500019845425
 21
1629.800000000106
  0
LINE
  5
25C
100
AcDbEntity
  8
0
  6
ByLayer
 62
  256
370
   -1
100
AcDbLine
 10
2530.000019845425
 20
1635.500000000106
 11
2546.500019845425
 21
1635.500000000106
  0
LINE
  5
25D
100
AcDbEntity
  8
0
  6
ByLayer
 62
  256
370
   -1
100
AcDbLine
 10
2602.500019845425
 20
1635.500000000106
 11
2602.500019845425
 21
1629.800000000106
  0
LINE
  5
25E
100
AcDbEntity
  8
0
  6
ByLayer
 62
  256
370
   -1
100
AcDbLine
 10
2619.000019845425
 20
1629.800000000106
 11
2602.500019845425
 21
1629.800000000106
  0
LINE
  5
25F
100
AcDbEntity
  8
0
  6
ByLayer
 62
  256
370
   -1
100
AcDbLine
 10
2619.000019845425
 20
1635.500000000106
 11
2602.500019845425
 21
1635.500000000106
  0
LINE
  5
260
100
AcDbEntity
  8
0
  6
ByLayer
 62
  256
370
   -1
100
AcDbLine
 10
2420.000019845426
 20
1642.500099688271
 11
2509.000019845426
 21
1642.500099688272
  0
ENDSEC
  0
SECTION
  2
OBJECTS
  0
DICTIONARY
  5
C
330
0
100
AcDbDictionary
281
    1
  3
ACAD_GROUP
350
D
  0
DICTIONARY
  5
D
330
C
100
AcDbDictionary
281
    1
  0
ENDSEC
  0
EOF
