<?xml version="1.0"?>
<svg xmlns="http://www.w3.org/2000/svg" xmlns:lc="http://www.librecad.org" xmlns:xlink="http://www.w3.org/1999/xlink" width="148mm" height="74mm" viewBox="0 0 148 74">
    <g lc:layername="0" lc:is_locked="false" lc:is_construction="false" fill="none" stroke="black" stroke-width="1">
        <line x1="0" y1="17.25" x2="0" y2="27.25"/>
        <line x1="5.5" y1="16.25" x2="1" y2="16.25"/>
        <line x1="5.5" y1="28.25" x2="1" y2="28.25"/>
        <path d="M0,27.25 A1,1 0 0,0 1,28.25 "/>
        <path d="M1,16.25 A1,1 0 0,0 0,17.25 "/>
        <line x1="5.5" y1="28.25" x2="5.5" y2="32.75"/>
        <line x1="11.5" y1="29.75" x2="11.5" y2="32.75"/>
        <line x1="11.5" y1="38.75" x2="11.5" y2="35.75"/>
        <line x1="11.5" y1="38.75" x2="14.5" y2="38.75"/>
        <line x1="11.5" y1="29.75" x2="14.5" y2="29.75"/>
        <line x1="14.5" y1="29.75" x2="14.5" y2="32.75"/>
        <line x1="14.5" y1="38.75" x2="14.5" y2="35.75"/>
        <line x1="11.5" y1="35.75" x2="5.5" y2="35.75"/>
        <line x1="5.5" y1="32.75" x2="11.5" y2="32.75"/>
        <line x1="14.5" y1="35.75" x2="17.5" y2="35.75"/>
        <line x1="17.5" y1="35.75" x2="17.5" y2="32.75"/>
        <line x1="14.5" y1="32.75" x2="17.5" y2="32.75"/>
        <line x1="5.5" y1="40.25" x2="5.5" y2="35.75"/>
        <line x1="14.5" y1="32.75" x2="17.5" y2="32.75"/>
        <line x1="17.5" y1="32.75" x2="17.5" y2="35.75"/>
        <line x1="0" y1="51.25" x2="0" y2="41.25"/>
        <line x1="5.5" y1="52.25" x2="1" y2="52.25"/>
        <line x1="5.5" y1="40.25" x2="1" y2="40.25"/>
        <path d="M1,40.25 A1,1 0 0,0 0,41.25 "/>
        <path d="M0,51.25 A1,1 0 0,0 1,52.25 "/>
        <line x1="5.5" y1="0" x2="5.5" y2="16.25"/>
        <line x1="5.5" y1="52.25" x2="5.5" y2="68.5"/>
        <line x1="56.75" y1="74" x2="46.75" y2="74"/>
        <line x1="57.75" y1="68.5" x2="57.75" y2="73"/>
        <line x1="45.75" y1="68.5" x2="45.75" y2="73"/>
        <path d="M45.75,73 A1,1 0 0,0 46.75,74 "/>
        <path d="M56.75,74 A1,1 0 0,0 57.75,73 "/>
        <line x1="45.75" y1="68.5" x2="41.25" y2="68.5"/>
        <line x1="44.25" y1="62.5" x2="41.25" y2="62.5"/>
        <line x1="35.25" y1="62.5" x2="38.25" y2="62.5"/>
        <line x1="35.25" y1="62.5" x2="35.25" y2="59.5"/>
        <line x1="44.25" y1="62.5" x2="44.25" y2="59.5"/>
        <line x1="44.25" y1="59.5" x2="41.25" y2="59.5"/>
        <line x1="35.25" y1="59.5" x2="38.25" y2="59.5"/>
        <line x1="38.25" y1="62.5" x2="38.25" y2="68.5"/>
        <line x1="41.25" y1="68.5" x2="41.25" y2="62.5"/>
        <line x1="38.25" y1="59.5" x2="38.25" y2="56.5"/>
        <line x1="38.25" y1="56.5" x2="41.25" y2="56.5"/>
        <line x1="41.25" y1="59.5" x2="41.25" y2="56.5"/>
        <line x1="33.75" y1="68.5" x2="38.25" y2="68.5"/>
        <line x1="41.25" y1="59.5" x2="41.25" y2="56.5"/>
        <line x1="41.25" y1="56.5" x2="38.25" y2="56.5"/>
        <line x1="22.75" y1="74" x2="32.75" y2="74"/>
        <line x1="21.75" y1="68.5" x2="21.75" y2="73"/>
        <line x1="33.75" y1="68.5" x2="33.75" y2="73"/>
        <path d="M32.75,74 A1,1 0 0,0 33.75,73 "/>
        <path d="M21.75,73 A1,1 0 0,0 22.75,74 "/>
        <line x1="74" y1="68.5" x2="57.75" y2="68.5"/>
        <path d="M74,10 A10,10 0 0,0 64,0 "/>
        <line x1="64" y1="0" x2="5.5" y2="0"/>
        <line x1="74" y1="68.5" x2="74" y2="10"/>
        <path d="M67,52 A1.5,1.5 0 0,0 70,52 "/>
        <path d="M70,46 A1.5,1.5 0 0,0 67,46 "/>
        <line x1="70" y1="46" x2="70" y2="52"/>
        <line x1="67" y1="52" x2="67" y2="46"/>
        <path d="M70,15 A1.5,1.5 0 0,0 67,15 "/>
        <path d="M67,21 A1.5,1.5 0 0,0 70,21 "/>
        <line x1="70" y1="21" x2="70" y2="15"/>
        <line x1="67" y1="15" x2="67" y2="21"/>
        <path d="M36,52 A1.5,1.5 0 0,0 39,52 "/>
        <path d="M39,46 A1.5,1.5 0 0,0 36,46 "/>
        <line x1="36" y1="46" x2="36" y2="52"/>
        <line x1="39" y1="52" x2="39" y2="46"/>
        <path d="M39,15 A1.5,1.5 0 0,0 36,15 "/>
        <path d="M36,21 A1.5,1.5 0 0,0 39,21 "/>
        <line x1="36" y1="21" x2="36" y2="15"/>
        <line x1="39" y1="15" x2="39" y2="21"/>
        <line x1="148" y1="17.25" x2="148" y2="27.25"/>
        <path d="M147,28.25 A1,1 0 0,0 148,27.25 "/>
        <path d="M148,17.25 A1,1 0 0,0 147,16.25 "/>
        <line x1="148" y1="51.25" x2="148" y2="41.25"/>
        <path d="M148,41.25 A1,1 0 0,0 147,40.25 "/>
        <path d="M147,52.25 A1,1 0 0,0 148,51.25 "/>
        <line x1="21.75" y1="68.5" x2="5.5" y2="68.5"/>
        <path d="M64,30.5 A11,11 0 0,0 42,30.5 "/>
        <path d="M42,36.5 A11,11 0 0,0 64,36.5 "/>
        <line x1="42" y1="30.5" x2="42" y2="36.5"/>
        <line x1="64" y1="30.5" x2="64" y2="36.5"/>
        <line x1="148" y1="17.25" x2="148" y2="27.25"/>
        <line x1="142.5" y1="16.25" x2="147" y2="16.25"/>
        <line x1="142.5" y1="28.25" x2="147" y2="28.25"/>
        <path d="M148,27.25 A1,1 0 0,1 147,28.25 "/>
        <path d="M147,16.25 A1,1 0 0,1 148,17.25 "/>
        <line x1="142.5" y1="28.25" x2="142.5" y2="32.75"/>
        <line x1="136.5" y1="29.75" x2="136.5" y2="32.75"/>
        <line x1="136.5" y1="38.75" x2="136.5" y2="35.75"/>
        <line x1="136.5" y1="38.75" x2="133.5" y2="38.75"/>
        <line x1="136.5" y1="29.75" x2="133.5" y2="29.75"/>
        <line x1="133.5" y1="29.75" x2="133.5" y2="32.75"/>
        <line x1="133.5" y1="38.75" x2="133.5" y2="35.75"/>
        <line x1="136.5" y1="35.75" x2="142.5" y2="35.75"/>
        <line x1="142.5" y1="32.75" x2="136.5" y2="32.75"/>
        <line x1="133.5" y1="35.75" x2="130.5" y2="35.75"/>
        <line x1="130.5" y1="35.75" x2="130.5" y2="32.75"/>
        <line x1="133.5" y1="32.75" x2="130.5" y2="32.75"/>
        <line x1="142.5" y1="40.25" x2="142.5" y2="35.75"/>
        <line x1="133.5" y1="32.75" x2="130.5" y2="32.75"/>
        <line x1="130.5" y1="32.75" x2="130.5" y2="35.75"/>
        <line x1="148" y1="51.25" x2="148" y2="41.25"/>
        <line x1="142.5" y1="52.25" x2="147" y2="52.25"/>
        <line x1="142.5" y1="40.25" x2="147" y2="40.25"/>
        <path d="M147,40.25 A1,1 0 0,1 148,41.25 "/>
        <path d="M148,51.25 A1,1 0 0,1 147,52.25 "/>
        <line x1="142.5" y1="0" x2="142.5" y2="16.25"/>
        <line x1="142.5" y1="52.25" x2="142.5" y2="68.5"/>
        <line x1="91.25" y1="74" x2="101.25" y2="74"/>
        <line x1="90.25" y1="68.5" x2="90.25" y2="73"/>
        <line x1="102.25" y1="68.5" x2="102.25" y2="73"/>
        <path d="M102.25,73 A1,1 0 0,1 101.25,74 "/>
        <path d="M91.25,74 A1,1 0 0,1 90.25,73 "/>
        <line x1="102.25" y1="68.5" x2="106.75" y2="68.5"/>
        <line x1="103.75" y1="62.5" x2="106.75" y2="62.5"/>
        <line x1="112.75" y1="62.5" x2="109.75" y2="62.5"/>
        <line x1="112.75" y1="62.5" x2="112.75" y2="59.5"/>
        <line x1="103.75" y1="62.5" x2="103.75" y2="59.5"/>
        <line x1="103.75" y1="59.5" x2="106.75" y2="59.5"/>
        <line x1="112.75" y1="59.5" x2="109.75" y2="59.5"/>
        <line x1="109.75" y1="62.5" x2="109.75" y2="68.5"/>
        <line x1="106.75" y1="68.5" x2="106.75" y2="62.5"/>
        <line x1="109.75" y1="59.5" x2="109.75" y2="56.5"/>
        <line x1="109.75" y1="56.5" x2="106.75" y2="56.5"/>
        <line x1="106.75" y1="59.5" x2="106.75" y2="56.5"/>
        <line x1="114.25" y1="68.5" x2="109.75" y2="68.5"/>
        <line x1="106.75" y1="59.5" x2="106.75" y2="56.5"/>
        <line x1="106.75" y1="56.5" x2="109.75" y2="56.5"/>
        <line x1="125.25" y1="74" x2="115.25" y2="74"/>
        <line x1="126.25" y1="68.5" x2="126.25" y2="73"/>
        <line x1="114.25" y1="68.5" x2="114.25" y2="73"/>
        <path d="M115.25,74 A1,1 0 0,1 114.25,73 "/>
        <path d="M126.25,73 A1,1 0 0,1 125.25,74 "/>
        <line x1="74" y1="68.5" x2="90.25" y2="68.5"/>
        <path d="M74,10 A10,10 0 0,1 84,0 "/>
        <line x1="84" y1="0" x2="142.5" y2="0"/>
        <path d="M81,52 A1.5,1.5 0 1,1 78,52 "/>
        <path d="M78,46 A1.5,1.5 0 1,1 81,46 "/>
        <line x1="78" y1="46" x2="78" y2="52"/>
        <line x1="81" y1="52" x2="81" y2="46"/>
        <path d="M78,15 A1.5,1.5 0 1,1 81,15 "/>
        <path d="M81,21 A1.5,1.5 0 1,1 78,21 "/>
        <line x1="78" y1="21" x2="78" y2="15"/>
        <line x1="81" y1="15" x2="81" y2="21"/>
        <path d="M112,52 A1.5,1.5 0 1,1 109,52 "/>
        <path d="M109,46 A1.5,1.5 0 1,1 112,46 "/>
        <line x1="112" y1="46" x2="112" y2="52"/>
        <line x1="109" y1="52" x2="109" y2="46"/>
        <path d="M109,15 A1.5,1.5 0 1,1 112,15 "/>
        <path d="M112,21 A1.5,1.5 0 1,1 109,21 "/>
        <line x1="112" y1="21" x2="112" y2="15"/>
        <line x1="109" y1="15" x2="109" y2="21"/>
        <line x1="126.25" y1="68.5" x2="142.5" y2="68.5"/>
        <path d="M84,30.5 A11,11 0 1,1 106,30.5 "/>
        <path d="M106,36.5 A11,11 0 1,1 84,36.5 "/>
        <line x1="106" y1="30.5" x2="106" y2="36.5"/>
        <line x1="84" y1="30.5" x2="84" y2="36.5"/>
    </g>
    <g lc:layername="noname" lc:is_locked="false" lc:is_construction="false" fill="none" stroke="black" stroke-width="1"/>
    <g lc:layername="noname2" lc:is_locked="false" lc:is_construction="false" fill="none" stroke="black" stroke-width="1"/>
</svg>
