<?xml version="1.0"?>
<svg xmlns="http://www.w3.org/2000/svg" xmlns:lc="http://www.librecad.org" xmlns:xlink="http://www.w3.org/1999/xlink" width="220mm" height="280mm" viewBox="0 0 220 280">
    <g lc:layername="0" lc:is_locked="false" lc:is_construction="false" fill="none" stroke="black" stroke-width="1">
        <line x1="15.5" y1="128" x2="24.5" y2="128"/>
        <line x1="15.5" y1="152" x2="24.5" y2="152"/>
        <line x1="15.5" y1="152" x2="15.5" y2="128"/>
        <line x1="24.5" y1="152" x2="24.5" y2="128"/>
        <line x1="10" y1="134" x2="10" y2="130"/>
        <line x1="12.5" y1="134" x2="12.5" y2="130"/>
        <line x1="10" y1="130" x2="12.5" y2="130"/>
        <line x1="10" y1="134" x2="12.5" y2="134"/>
        <line x1="10" y1="146" x2="10" y2="150"/>
        <line x1="12.5" y1="146" x2="12.5" y2="150"/>
        <line x1="10" y1="150" x2="12.5" y2="150"/>
        <line x1="10" y1="146" x2="12.5" y2="146"/>
        <line x1="30" y1="134" x2="30" y2="130"/>
        <line x1="27.5" y1="134" x2="27.5" y2="130"/>
        <line x1="30" y1="130" x2="27.5" y2="130"/>
        <line x1="30" y1="134" x2="27.5" y2="134"/>
        <line x1="30" y1="146" x2="30" y2="150"/>
        <line x1="27.5" y1="146" x2="27.5" y2="150"/>
        <line x1="30" y1="150" x2="27.5" y2="150"/>
        <line x1="30" y1="146" x2="27.5" y2="146"/>
        <line x1="195.5" y1="250" x2="204.5" y2="250"/>
        <line x1="195.5" y1="274" x2="204.5" y2="274"/>
        <line x1="195.5" y1="274" x2="195.5" y2="250"/>
        <line x1="204.5" y1="274" x2="204.5" y2="250"/>
        <line x1="190" y1="256" x2="190" y2="252"/>
        <line x1="192.5" y1="256" x2="192.5" y2="252"/>
        <line x1="190" y1="252" x2="192.5" y2="252"/>
        <line x1="190" y1="256" x2="192.5" y2="256"/>
        <line x1="190" y1="268" x2="190" y2="272"/>
        <line x1="192.5" y1="268" x2="192.5" y2="272"/>
        <line x1="190" y1="272" x2="192.5" y2="272"/>
        <line x1="190" y1="268" x2="192.5" y2="268"/>
        <line x1="210" y1="256" x2="210" y2="252"/>
        <line x1="207.5" y1="256" x2="207.5" y2="252"/>
        <line x1="210" y1="252" x2="207.5" y2="252"/>
        <line x1="210" y1="256" x2="207.5" y2="256"/>
        <line x1="210" y1="268" x2="210" y2="272"/>
        <line x1="207.5" y1="268" x2="207.5" y2="272"/>
        <line x1="210" y1="272" x2="207.5" y2="272"/>
        <line x1="210" y1="268" x2="207.5" y2="268"/>
        <line x1="195.5" y1="6" x2="204.5" y2="6"/>
        <line x1="195.5" y1="30" x2="204.5" y2="30"/>
        <line x1="195.5" y1="30" x2="195.5" y2="6"/>
        <line x1="204.5" y1="30" x2="204.5" y2="6"/>
        <line x1="190" y1="12" x2="190" y2="8"/>
        <line x1="192.5" y1="12" x2="192.5" y2="8"/>
        <line x1="190" y1="8" x2="192.5" y2="8"/>
        <line x1="190" y1="12" x2="192.5" y2="12"/>
        <line x1="190" y1="24" x2="190" y2="28"/>
        <line x1="192.5" y1="24" x2="192.5" y2="28"/>
        <line x1="190" y1="28" x2="192.5" y2="28"/>
        <line x1="190" y1="24" x2="192.5" y2="24"/>
        <line x1="210" y1="12" x2="210" y2="8"/>
        <line x1="207.5" y1="12" x2="207.5" y2="8"/>
        <line x1="210" y1="8" x2="207.5" y2="8"/>
        <line x1="210" y1="12" x2="207.5" y2="12"/>
        <line x1="210" y1="24" x2="210" y2="28"/>
        <line x1="207.5" y1="24" x2="207.5" y2="28"/>
        <line x1="210" y1="28" x2="207.5" y2="28"/>
        <line x1="210" y1="24" x2="207.5" y2="24"/>
        <circle cx="6" cy="36" r="1.5"/>
        <circle cx="6" cy="244" r="1.5"/>
        <circle cx="214" cy="36" r="1.5"/>
        <circle cx="214" cy="244" r="1.5"/>
        <path d="M220,10 A10,10 0 0,0 210,0 "/>
        <path d="M220,10 A10,10 0 0,0 210,0 "/>
        <line x1="190" y1="0" x2="210" y2="0"/>
        <path d="M190,0 A10,10 0 0,0 182.92894103,2.92892335 "/>
        <circle cx="6" cy="36" r="1.5"/>
        <path d="M10,20 A10,10 0 0,0 0,30 "/>
        <path d="M30,30 A10,10 0 0,0 20,20 "/>
        <line x1="10" y1="20" x2="20" y2="20"/>
        <line x1="115.85786438" y1="70" x2="182.92893219" y2="2.92893219"/>
        <line x1="50" y1="70" x2="30" y2="50"/>
        <line x1="30" y1="50" x2="30" y2="30"/>
        <line x1="115.85786438" y1="70" x2="50" y2="70"/>
        <path d="M210,280 A10,10 0 0,0 220,270 "/>
        <line x1="190" y1="280" x2="210" y2="280"/>
        <path d="M182.92894103,277.07107665 A10,10 0 0,0 190,280 "/>
        <path d="M0,250 A10,10 0 0,0 10,260 "/>
        <path d="M20,260 A10,10 0 0,0 30,250 "/>
        <line x1="10" y1="260" x2="20" y2="260"/>
        <line x1="115.85786438" y1="210" x2="182.92893219" y2="277.07106781"/>
        <line x1="50" y1="210" x2="30" y2="230"/>
        <line x1="30" y1="230" x2="30" y2="250"/>
        <line x1="115.85786438" y1="210" x2="50" y2="210"/>
        <line x1="0" y1="250" x2="0" y2="30"/>
        <line x1="220" y1="270" x2="220" y2="10"/>
        <line x1="34.5" y1="115" x2="40" y2="115"/>
        <line x1="34.5" y1="115" x2="34.5" y2="103"/>
        <line x1="40" y1="115" x2="40" y2="103"/>
        <line x1="40" y1="103" x2="34.5" y2="103"/>
        <line x1="34.5" y1="91" x2="40" y2="91"/>
        <line x1="34.5" y1="91" x2="34.5" y2="79"/>
        <line x1="40" y1="91" x2="40" y2="79"/>
        <line x1="40" y1="79" x2="34.5" y2="79"/>
        <circle cx="37.25" cy="97" r="1.5"/>
        <line x1="34.5" y1="165" x2="40" y2="165"/>
        <line x1="34.5" y1="165" x2="34.5" y2="177"/>
        <line x1="40" y1="165" x2="40" y2="177"/>
        <line x1="40" y1="177" x2="34.5" y2="177"/>
        <line x1="34.5" y1="189" x2="40" y2="189"/>
        <line x1="34.5" y1="189" x2="34.5" y2="201"/>
        <line x1="40" y1="189" x2="40" y2="201"/>
        <line x1="40" y1="201" x2="34.5" y2="201"/>
        <circle cx="37.25" cy="183" r="1.5"/>
        <line x1="185.5" y1="115" x2="180" y2="115"/>
        <line x1="185.5" y1="115" x2="185.5" y2="103"/>
        <line x1="180" y1="115" x2="180" y2="103"/>
        <line x1="180" y1="103" x2="185.5" y2="103"/>
        <line x1="185.5" y1="91" x2="180" y2="91"/>
        <line x1="185.5" y1="91" x2="185.5" y2="79"/>
        <line x1="180" y1="91" x2="180" y2="79"/>
        <line x1="180" y1="79" x2="185.5" y2="79"/>
        <circle cx="182.75" cy="97" r="1.5"/>
        <line x1="185.5" y1="165" x2="180" y2="165"/>
        <line x1="185.5" y1="165" x2="185.5" y2="177"/>
        <line x1="180" y1="165" x2="180" y2="177"/>
        <line x1="180" y1="177" x2="185.5" y2="177"/>
        <line x1="185.5" y1="189" x2="180" y2="189"/>
        <line x1="185.5" y1="189" x2="185.5" y2="201"/>
        <line x1="180" y1="189" x2="180" y2="201"/>
        <line x1="180" y1="201" x2="185.5" y2="201"/>
        <circle cx="182.75" cy="183" r="1.5"/>
        <line x1="115.5" y1="82" x2="115.5" y2="94"/>
        <line x1="115.5" y1="106" x2="115.5" y2="118"/>
        <line x1="104.5" y1="82" x2="104.5" y2="94"/>
        <line x1="104.5" y1="106" x2="104.5" y2="118"/>
        <line x1="115.5" y1="198" x2="115.5" y2="186"/>
        <line x1="115.5" y1="174" x2="115.5" y2="162"/>
        <line x1="104.5" y1="198" x2="104.5" y2="186"/>
        <line x1="104.5" y1="174" x2="104.5" y2="162"/>
        <line x1="121.4" y1="82" x2="121.4" y2="94"/>
        <line x1="121.4" y1="106" x2="121.4" y2="118"/>
        <circle cx="118.65" cy="100" r="1.5"/>
        <line x1="121.4" y1="198" x2="121.4" y2="186"/>
        <line x1="121.4" y1="174" x2="121.4" y2="162"/>
        <circle cx="118.65" cy="180" r="1.5"/>
        <line x1="98.6" y1="82" x2="98.6" y2="94"/>
        <line x1="98.6" y1="106" x2="98.6" y2="118"/>
        <circle cx="101.35" cy="100" r="1.5"/>
        <line x1="98.6" y1="198" x2="98.6" y2="186"/>
        <line x1="98.6" y1="174" x2="98.6" y2="162"/>
        <circle cx="101.35" cy="180" r="1.5"/>
        <line x1="98.6" y1="198" x2="104.5" y2="198"/>
        <line x1="115.5" y1="186" x2="121.4" y2="186"/>
        <line x1="115.5" y1="198" x2="121.4" y2="198"/>
        <line x1="98.6" y1="186" x2="104.5" y2="186"/>
        <line x1="98.6" y1="162" x2="104.5" y2="162"/>
        <line x1="115.5" y1="174" x2="121.4" y2="174"/>
        <line x1="115.5" y1="162" x2="121.4" y2="162"/>
        <line x1="98.6" y1="174" x2="104.5" y2="174"/>
        <line x1="98.6" y1="118" x2="104.5" y2="118"/>
        <line x1="115.5" y1="118" x2="121.4" y2="118"/>
        <line x1="98.6" y1="106" x2="104.5" y2="106"/>
        <line x1="98.6" y1="82" x2="104.5" y2="82"/>
        <line x1="115.5" y1="82" x2="121.4" y2="82"/>
        <line x1="98.6" y1="94" x2="104.5" y2="94"/>
        <line x1="115.5" y1="94" x2="121.4" y2="94"/>
        <line x1="115.5" y1="106" x2="121.4" y2="106"/>
    </g>
    <g lc:layername="noname" lc:is_locked="false" lc:is_construction="false" fill="none" stroke="black" stroke-width="1"/>
    <g lc:layername="noname2" lc:is_locked="false" lc:is_construction="false" fill="none" stroke="black" stroke-width="1"/>
</svg>
