<?xml version="1.0"?>
<svg xmlns="http://www.w3.org/2000/svg" xmlns:lc="http://www.librecad.org" xmlns:xlink="http://www.w3.org/1999/xlink" width="530mm" height="237.00010046mm" viewBox="0 0 530 237.00010046">
    <g lc:layername="0" lc:is_locked="false" lc:is_construction="false" fill="none" stroke="black" stroke-width="1">
        <path d="M10,137.00004984 A10,10 0 0,0 0,147.00004984 "/>
        <path d="M530,147.00004984 A10,10 0 0,0 520,137.00004984 "/>
        <path d="M0,227.00010046 A10,10 0 0,0 10,237.00010046 "/>
        <path d="M520,237.00010046 A10,10 0 0,0 530,227.00010046 "/>
        <line x1="530" y1="147.00004984" x2="530" y2="227.00004984"/>
        <line x1="0" y1="147.00004984" x2="0" y2="227.00004984"/>
        <path d="M38,198.00004984 A11,11 0 0,0 38,176.00004984 "/>
        <path d="M32,176.00004984 A11,11 0 0,0 32,198.00004984 "/>
        <line x1="32" y1="176.00004984" x2="38" y2="176.00004984"/>
        <line x1="32" y1="198.00004984" x2="40" y2="198.00004984"/>
        <circle cx="500" cy="187.00004984" r="2.5"/>
        <path d="M53.50005041,173.00004984 A1.5,1.5 0 0,0 53.50005041,170.00004984 "/>
        <path d="M47.50005041,170.00004984 A1.5,1.5 0 0,0 47.50005041,173.00004984 "/>
        <line x1="47.50005041" y1="170.00004984" x2="53.50005041" y2="170.00004984"/>
        <line x1="53.50005041" y1="173.00004984" x2="47.50005041" y2="173.00004984"/>
        <path d="M16.50005041,170.00004984 A1.5,1.5 0 0,0 16.50005041,173.00004984 "/>
        <path d="M22.50005041,173.00004984 A1.5,1.5 0 0,0 22.50005041,170.00004984 "/>
        <line x1="22.50005041" y1="170.00004984" x2="16.50005041" y2="170.00004984"/>
        <line x1="16.50005041" y1="173.00004984" x2="22.50005041" y2="173.00004984"/>
        <path d="M53.50005041,204.00004984 A1.5,1.5 0 0,0 53.50005041,201.00004984 "/>
        <path d="M47.50005041,201.00004984 A1.5,1.5 0 0,0 47.50005041,204.00004984 "/>
        <line x1="47.50005041" y1="204.00004984" x2="53.50005041" y2="204.00004984"/>
        <line x1="53.50005041" y1="201.00004984" x2="47.50005041" y2="201.00004984"/>
        <path d="M16.50005041,201.00004984 A1.5,1.5 0 0,0 16.50005041,204.00004984 "/>
        <path d="M22.50005041,204.00004984 A1.5,1.5 0 0,0 22.50005041,201.00004984 "/>
        <line x1="22.50005041" y1="204.00004984" x2="16.50005041" y2="204.00004984"/>
        <line x1="16.50005041" y1="201.00004984" x2="22.50005041" y2="201.00004984"/>
        <line x1="467" y1="184.00004984" x2="476" y2="184.00004984"/>
        <line x1="467" y1="190.00004984" x2="476" y2="190.00004984"/>
        <line x1="476" y1="190.00004984" x2="476" y2="214.00004984"/>
        <line x1="476" y1="214.00004984" x2="467" y2="214.00004984"/>
        <line x1="467" y1="214.00004984" x2="467" y2="190.00004984"/>
        <line x1="476" y1="184.00004984" x2="476" y2="160.00004984"/>
        <line x1="476" y1="160.00004984" x2="467" y2="160.00004984"/>
        <line x1="467" y1="160.00004984" x2="467" y2="184.00004984"/>
        <line x1="72" y1="184.00004984" x2="81" y2="184.00004984"/>
        <line x1="72" y1="190.00004984" x2="81" y2="190.00004984"/>
        <line x1="81" y1="190.00004984" x2="81" y2="214.00004984"/>
        <line x1="81" y1="214.00004984" x2="72" y2="214.00004984"/>
        <line x1="72" y1="214.00004984" x2="72" y2="190.00004984"/>
        <line x1="81" y1="184.00004984" x2="81" y2="160.00004984"/>
        <line x1="81" y1="160.00004984" x2="72" y2="160.00004984"/>
        <line x1="72" y1="160.00004984" x2="72" y2="184.00004984"/>
        <line x1="124.00005272" y1="142.50004984" x2="124.00005272" y2="138.00004984"/>
        <path d="M124.00005272,138.00004984 A1,1 0 0,0 123.00005272,137.00004984 "/>
        <line x1="124.00005272" y1="142.50004984" x2="130" y2="142.50004984"/>
        <path d="M131,137.00004984 A1,1 0 0,0 130,138.00004984 "/>
        <line x1="130" y1="142.50004984" x2="130" y2="138.00004984"/>
        <line x1="513.5" y1="137.00002844" x2="520" y2="137.00004984"/>
        <line x1="131" y1="137.00004984" x2="417" y2="137.00004984"/>
        <line x1="513.5" y1="237.00007125" x2="520" y2="237.00004984"/>
        <line x1="118.5" y1="193.00004984" x2="118.5" y2="188.50004984"/>
        <line x1="118.5" y1="181.00004984" x2="118.5" y2="185.50004984"/>
        <line x1="124" y1="204.00004984" x2="124" y2="194.00004984"/>
        <line x1="118.5" y1="205.00004984" x2="123" y2="205.00004984"/>
        <line x1="118.5" y1="193.00004984" x2="123" y2="193.00004984"/>
        <path d="M124,194.00004984 A1,1 0 0,0 123,193.00004984 "/>
        <path d="M123,205.00004984 A1,1 0 0,0 124,204.00004984 "/>
        <line x1="118.5" y1="193.00004984" x2="118.5" y2="188.50004984"/>
        <line x1="118.5" y1="181.00004984" x2="118.5" y2="185.50004984"/>
        <line x1="124" y1="170.00004984" x2="124" y2="180.00004984"/>
        <line x1="118.5" y1="169.00004984" x2="123" y2="169.00004984"/>
        <line x1="118.5" y1="181.00004984" x2="123" y2="181.00004984"/>
        <path d="M123,181.00004984 A1,1 0 0,0 124,180.00004984 "/>
        <path d="M124,170.00004984 A1,1 0 0,0 123,169.00004984 "/>
        <line x1="109.5" y1="191.50004984" x2="109.5" y2="188.50004984"/>
        <line x1="109.5" y1="182.50004984" x2="109.5" y2="185.50004984"/>
        <line x1="112.5" y1="191.50004984" x2="112.5" y2="188.50004984"/>
        <line x1="112.5" y1="182.50004984" x2="112.5" y2="185.50004984"/>
        <line x1="112.5" y1="182.50004984" x2="109.5" y2="182.50004984"/>
        <line x1="112.5" y1="185.50004984" x2="118.5" y2="185.50004984"/>
        <line x1="118.5" y1="188.50004984" x2="112.5" y2="188.50004984"/>
        <line x1="112.5" y1="191.50004984" x2="109.5" y2="191.50004984"/>
        <line x1="109.5" y1="185.50004984" x2="108.5" y2="185.50004984"/>
        <line x1="108.5" y1="185.50004984" x2="108.5" y2="188.50004984"/>
        <line x1="108.5" y1="188.50004984" x2="109.5" y2="188.50004984"/>
        <line x1="120" y1="169.00004984" x2="118.5" y2="169.00004984"/>
        <line x1="118.5" y1="217.00004984" x2="118.5" y2="205.00004984"/>
        <line x1="118.5" y1="193.00004984" x2="118.5" y2="188.50004984"/>
        <line x1="118.5" y1="185.50004984" x2="118.5" y2="181.00004984"/>
        <line x1="118.5" y1="169.00004984" x2="118.5" y2="157.00004984"/>
        <line x1="429.5" y1="193.00004984" x2="429.5" y2="188.50004984"/>
        <line x1="429.5" y1="181.00004984" x2="429.5" y2="185.50004984"/>
        <line x1="424" y1="204.00004984" x2="424" y2="194.00004984"/>
        <line x1="429.5" y1="205.00004984" x2="425" y2="205.00004984"/>
        <line x1="429.5" y1="193.00004984" x2="425" y2="193.00004984"/>
        <path d="M424,194.00004984 A1,1 0 0,1 425,193.00004984 "/>
        <path d="M425,205.00004984 A1,1 0 0,1 424,204.00004984 "/>
        <line x1="429.5" y1="193.00004984" x2="429.5" y2="188.50004984"/>
        <line x1="429.5" y1="181.00004984" x2="429.5" y2="185.50004984"/>
        <line x1="424" y1="170.00004984" x2="424" y2="180.00004984"/>
        <line x1="429.5" y1="169.00004984" x2="425" y2="169.00004984"/>
        <line x1="429.5" y1="181.00004984" x2="425" y2="181.00004984"/>
        <path d="M425,181.00004984 A1,1 0 0,1 424,180.00004984 "/>
        <path d="M424,170.00004984 A1,1 0 0,1 425,169.00004984 "/>
        <line x1="438.5" y1="191.50004984" x2="438.5" y2="188.50004984"/>
        <line x1="438.5" y1="182.50004984" x2="438.5" y2="185.50004984"/>
        <line x1="435.5" y1="191.50004984" x2="435.5" y2="188.50004984"/>
        <line x1="435.5" y1="182.50004984" x2="435.5" y2="185.50004984"/>
        <line x1="435.5" y1="182.50004984" x2="438.5" y2="182.50004984"/>
        <line x1="435.5" y1="185.50004984" x2="429.5" y2="185.50004984"/>
        <line x1="429.5" y1="188.50004984" x2="435.5" y2="188.50004984"/>
        <line x1="435.5" y1="191.50004984" x2="438.5" y2="191.50004984"/>
        <line x1="438.5" y1="185.50004984" x2="439.5" y2="185.50004984"/>
        <line x1="439.5" y1="185.50004984" x2="439.5" y2="188.50004984"/>
        <line x1="439.5" y1="188.50004984" x2="438.5" y2="188.50004984"/>
        <line x1="428" y1="169.00004984" x2="429.5" y2="169.00004984"/>
        <line x1="429.5" y1="217.00004984" x2="429.5" y2="205.00004984"/>
        <line x1="429.5" y1="193.00004984" x2="429.5" y2="188.50004984"/>
        <line x1="429.5" y1="185.50004984" x2="429.5" y2="181.00004984"/>
        <line x1="429.5" y1="169.00004984" x2="429.5" y2="157.00004984"/>
        <line x1="429.5" y1="157.00004984" x2="118.5" y2="157.00004984"/>
        <line x1="118.5" y1="217.00004984" x2="429.5" y2="217.00004984"/>
        <line x1="34" y1="142.50004984" x2="34" y2="138.00004984"/>
        <path d="M34,138.00004984 A1,1 0 0,0 33,137.00004984 "/>
        <line x1="10" y1="137.00004984" x2="33" y2="137.00004984"/>
        <line x1="10" y1="237.00004984" x2="33" y2="237.00004984"/>
        <line x1="40.00001434" y1="142.50004984" x2="40.00001434" y2="138.00004984"/>
        <line x1="116" y1="151.50004984" x2="113" y2="151.50004984"/>
        <line x1="107" y1="151.50004984" x2="110" y2="151.50004984"/>
        <line x1="116" y1="148.50004984" x2="113" y2="148.50004984"/>
        <line x1="107" y1="148.50004984" x2="110" y2="148.50004984"/>
        <line x1="107" y1="148.50004984" x2="107" y2="151.50004984"/>
        <line x1="110" y1="148.50004984" x2="110" y2="142.50004984"/>
        <line x1="113" y1="142.50004984" x2="113" y2="148.50004984"/>
        <line x1="116" y1="148.50004984" x2="116" y2="151.50004984"/>
        <line x1="116" y1="142.50004984" x2="116" y2="138.00004984"/>
        <line x1="113" y1="142.50004984" x2="116" y2="142.50004984"/>
        <path d="M117,137.00002844 A1,1 0 0,0 116,138.00002844 "/>
        <line x1="110" y1="151.50004984" x2="110" y2="152.50004984"/>
        <line x1="110" y1="152.50004984" x2="113" y2="152.50004984"/>
        <line x1="113" y1="152.50004984" x2="113" y2="151.50004984"/>
        <line x1="107" y1="142.50004984" x2="107" y2="138.00004984"/>
        <path d="M106,137.00002844 A1,1 0 0,1 107,138.00002844 "/>
        <line x1="107" y1="142.50004984" x2="110" y2="142.50004984"/>
        <line x1="117" y1="137.00002844" x2="123" y2="137.00004984"/>
        <line x1="98.99993426" y1="142.50004984" x2="98.99993426" y2="138.00004984"/>
        <path d="M98.99993426,138.00004984 A1,1 0 0,1 99.99993426,137.00004984 "/>
        <line x1="99.99993426" y1="137.00004984" x2="106" y2="137.00004984"/>
        <line x1="47.99996713" y1="151.50004984" x2="50.99996713" y2="151.50004984"/>
        <line x1="56.99996713" y1="151.50004984" x2="53.99996713" y2="151.50004984"/>
        <line x1="47.99996713" y1="148.50004984" x2="50.99996713" y2="148.50004984"/>
        <line x1="56.99996713" y1="148.50004984" x2="53.99996713" y2="148.50004984"/>
        <line x1="56.99996713" y1="148.50004984" x2="56.99996713" y2="151.50004984"/>
        <line x1="53.99996713" y1="148.50004984" x2="53.99996713" y2="142.50004984"/>
        <line x1="50.99996713" y1="142.50004984" x2="50.99996713" y2="148.50004984"/>
        <line x1="47.99996713" y1="148.50004984" x2="47.99996713" y2="151.50004984"/>
        <line x1="53.99996713" y1="151.50004984" x2="53.99996713" y2="152.50004984"/>
        <line x1="53.99996713" y1="152.50004984" x2="50.99996713" y2="152.50004984"/>
        <line x1="50.99996713" y1="152.50004984" x2="50.99996713" y2="151.50004984"/>
        <line x1="56.99996713" y1="142.50004984" x2="53.99996713" y2="142.50004984"/>
        <line x1="40.00001434" y1="142.50004984" x2="40.00001434" y2="138.00004984"/>
        <path d="M40.00001434,138.00004984 A1,1 0 0,1 41.00001434,137.00004984 "/>
        <line x1="56.99996713" y1="142.50004984" x2="56.99996713" y2="138.00004984"/>
        <path d="M57.99996713,137.00002844 A1,1 0 0,0 56.99996713,138.00002844 "/>
        <line x1="65" y1="142.50004984" x2="65" y2="138.00004984"/>
        <path d="M65,138.00004984 A1,1 0 0,0 64,137.00004984 "/>
        <line x1="48" y1="142.50007125" x2="48" y2="138.00007125"/>
        <path d="M47,137.00004984 A1,1 0 0,1 48,138.00004984 "/>
        <line x1="34" y1="142.50004984" x2="40.00001434" y2="142.50004984"/>
        <line x1="65" y1="142.50004984" x2="98.99993426" y2="142.50004984"/>
        <line x1="58" y1="137.00004984" x2="64" y2="137.00004984"/>
        <line x1="41.00001434" y1="137.00004984" x2="47" y2="137.00004984"/>
        <line x1="48" y1="142.50007125" x2="50.99996713" y2="142.50004984"/>
        <line x1="124.00005272" y1="231.50004984" x2="124.00005272" y2="236.00004984"/>
        <path d="M124.00005272,236.00004984 A1,1 0 0,1 123.00005272,237.00004984 "/>
        <line x1="124.00005272" y1="231.50004984" x2="130" y2="231.50004984"/>
        <path d="M131,237.00004984 A1,1 0 0,1 130,236.00004984 "/>
        <line x1="130" y1="231.50004984" x2="130" y2="236.00004984"/>
        <line x1="34" y1="231.50004984" x2="34" y2="236.00004984"/>
        <path d="M34,236.00004984 A1,1 0 0,1 33,237.00004984 "/>
        <line x1="40.00001434" y1="231.50004984" x2="40.00001434" y2="236.00004984"/>
        <line x1="116" y1="222.50004984" x2="113" y2="222.50004984"/>
        <line x1="107" y1="222.50004984" x2="110" y2="222.50004984"/>
        <line x1="116" y1="225.50004984" x2="113" y2="225.50004984"/>
        <line x1="107" y1="225.50004984" x2="110" y2="225.50004984"/>
        <line x1="107" y1="225.50004984" x2="107" y2="222.50004984"/>
        <line x1="110" y1="225.50004984" x2="110" y2="231.50004984"/>
        <line x1="113" y1="231.50004984" x2="113" y2="225.50004984"/>
        <line x1="116" y1="225.50004984" x2="116" y2="222.50004984"/>
        <line x1="116" y1="231.50004984" x2="116" y2="236.00004984"/>
        <line x1="113" y1="231.50004984" x2="116" y2="231.50004984"/>
        <path d="M117,237.00007125 A1,1 0 0,1 116,236.00007125 "/>
        <line x1="110" y1="222.50004984" x2="110" y2="221.50004984"/>
        <line x1="110" y1="221.50004984" x2="113" y2="221.50004984"/>
        <line x1="113" y1="221.50004984" x2="113" y2="222.50004984"/>
        <line x1="107" y1="231.50004984" x2="107" y2="236.00004984"/>
        <path d="M106,237.00007125 A1,1 0 0,0 107,236.00007125 "/>
        <line x1="107" y1="231.50004984" x2="110" y2="231.50004984"/>
        <line x1="117" y1="237.00007125" x2="123" y2="237.00004984"/>
        <line x1="98.99993426" y1="231.50004984" x2="98.99993426" y2="236.00004984"/>
        <path d="M98.99993426,236.00004984 A1,1 0 0,0 99.99993426,237.00004984 "/>
        <line x1="99.99993426" y1="237.00004984" x2="106" y2="237.00004984"/>
        <line x1="47.99996713" y1="222.50004984" x2="50.99996713" y2="222.50004984"/>
        <line x1="56.99996713" y1="222.50004984" x2="53.99996713" y2="222.50004984"/>
        <line x1="47.99996713" y1="225.50004984" x2="50.99996713" y2="225.50004984"/>
        <line x1="56.99996713" y1="225.50004984" x2="53.99996713" y2="225.50004984"/>
        <line x1="56.99996713" y1="225.50004984" x2="56.99996713" y2="222.50004984"/>
        <line x1="53.99996713" y1="225.50004984" x2="53.99996713" y2="231.50004984"/>
        <line x1="50.99996713" y1="231.50004984" x2="50.99996713" y2="225.50004984"/>
        <line x1="47.99996713" y1="225.50004984" x2="47.99996713" y2="222.50004984"/>
        <line x1="53.99996713" y1="222.50004984" x2="53.99996713" y2="221.50004984"/>
        <line x1="53.99996713" y1="221.50004984" x2="50.99996713" y2="221.50004984"/>
        <line x1="50.99996713" y1="221.50004984" x2="50.99996713" y2="222.50004984"/>
        <line x1="56.99996713" y1="231.50004984" x2="53.99996713" y2="231.50004984"/>
        <line x1="40.00001434" y1="231.50004984" x2="40.00001434" y2="236.00004984"/>
        <path d="M40.00001434,236.00004984 A1,1 0 0,0 41.00001434,237.00004984 "/>
        <line x1="56.99996713" y1="231.50004984" x2="56.99996713" y2="236.00004984"/>
        <path d="M57.99996713,237.00007125 A1,1 0 0,1 56.99996713,236.00007125 "/>
        <line x1="65" y1="231.50004984" x2="65" y2="236.00004984"/>
        <path d="M65,236.00004984 A1,1 0 0,1 64,237.00004984 "/>
        <line x1="48" y1="231.50002844" x2="48" y2="236.00002844"/>
        <path d="M47,237.00004984 A1,1 0 0,0 48,236.00004984 "/>
        <line x1="34" y1="231.50004984" x2="40.00001434" y2="231.50004984"/>
        <line x1="65" y1="231.50004984" x2="98.99993426" y2="231.50004984"/>
        <line x1="58" y1="237.00004984" x2="64" y2="237.00004984"/>
        <line x1="41.00001434" y1="237.00004984" x2="47" y2="237.00004984"/>
        <line x1="48" y1="231.50002844" x2="50.99996713" y2="231.50004984"/>
        <line x1="107.5" y1="157.00004984" x2="113" y2="156.99996426"/>
        <line x1="113" y1="172.00001697" x2="107.5" y2="172.00004984"/>
        <line x1="113" y1="156.99996426" x2="113" y2="163.00004984"/>
        <line x1="107.5" y1="163.00004984" x2="107.5" y2="157.00004984"/>
        <line x1="107.5" y1="163.00004984" x2="113" y2="163.00004984"/>
        <line x1="107.5" y1="178.00004984" x2="113" y2="178.00004984"/>
        <line x1="113" y1="178.00004984" x2="113" y2="172.00001697"/>
        <line x1="107.5" y1="178.00004984" x2="107.5" y2="172.00004984"/>
        <line x1="107.5" y1="217.00004984" x2="113" y2="217.00013543"/>
        <line x1="113" y1="202.00008272" x2="107.5" y2="202.00004984"/>
        <line x1="113" y1="217.00013543" x2="113" y2="211.00004984"/>
        <line x1="107.5" y1="211.00004984" x2="107.5" y2="217.00004984"/>
        <line x1="107.5" y1="211.00004984" x2="113" y2="211.00004984"/>
        <line x1="107.5" y1="196.00004984" x2="113" y2="196.00004984"/>
        <line x1="113" y1="196.00004984" x2="113" y2="202.00008272"/>
        <line x1="107.5" y1="196.00004984" x2="107.5" y2="202.00004984"/>
        <circle cx="110.25000502" cy="167.50004163" r="1.5"/>
        <circle cx="110.25000502" cy="206.50005806" r="1.5"/>
        <line x1="423.99994728" y1="142.50004984" x2="423.99994728" y2="138.00004984"/>
        <path d="M423.99994728,138.00004984 A1,1 0 0,1 424.99994728,137.00004984 "/>
        <line x1="423.99994728" y1="142.50004984" x2="418" y2="142.50004984"/>
        <path d="M417,137.00004984 A1,1 0 0,1 418,138.00004984 "/>
        <line x1="418" y1="142.50004984" x2="418" y2="138.00004984"/>
        <line x1="429.5" y1="193.00004984" x2="429.5" y2="188.50004984"/>
        <line x1="429.5" y1="181.00004984" x2="429.5" y2="185.50004984"/>
        <line x1="424" y1="204.00004984" x2="424" y2="194.00004984"/>
        <line x1="429.5" y1="205.00004984" x2="425" y2="205.00004984"/>
        <line x1="429.5" y1="193.00004984" x2="425" y2="193.00004984"/>
        <path d="M424,194.00004984 A1,1 0 0,1 425,193.00004984 "/>
        <path d="M425,205.00004984 A1,1 0 0,1 424,204.00004984 "/>
        <line x1="429.5" y1="193.00004984" x2="429.5" y2="188.50004984"/>
        <line x1="429.5" y1="181.00004984" x2="429.5" y2="185.50004984"/>
        <line x1="424" y1="170.00004984" x2="424" y2="180.00004984"/>
        <line x1="429.5" y1="169.00004984" x2="425" y2="169.00004984"/>
        <line x1="429.5" y1="181.00004984" x2="425" y2="181.00004984"/>
        <path d="M425,181.00004984 A1,1 0 0,1 424,180.00004984 "/>
        <path d="M424,170.00004984 A1,1 0 0,1 425,169.00004984 "/>
        <line x1="438.5" y1="191.50004984" x2="438.5" y2="188.50004984"/>
        <line x1="438.5" y1="182.50004984" x2="438.5" y2="185.50004984"/>
        <line x1="435.5" y1="191.50004984" x2="435.5" y2="188.50004984"/>
        <line x1="435.5" y1="182.50004984" x2="435.5" y2="185.50004984"/>
        <line x1="435.5" y1="182.50004984" x2="438.5" y2="182.50004984"/>
        <line x1="435.5" y1="185.50004984" x2="429.5" y2="185.50004984"/>
        <line x1="429.5" y1="188.50004984" x2="435.5" y2="188.50004984"/>
        <line x1="435.5" y1="191.50004984" x2="438.5" y2="191.50004984"/>
        <line x1="438.5" y1="185.50004984" x2="439.5" y2="185.50004984"/>
        <line x1="439.5" y1="185.50004984" x2="439.5" y2="188.50004984"/>
        <line x1="439.5" y1="188.50004984" x2="438.5" y2="188.50004984"/>
        <line x1="428" y1="169.00004984" x2="429.5" y2="169.00004984"/>
        <line x1="429.5" y1="217.00004984" x2="429.5" y2="205.00004984"/>
        <line x1="429.5" y1="193.00004984" x2="429.5" y2="188.50004984"/>
        <line x1="429.5" y1="185.50004984" x2="429.5" y2="181.00004984"/>
        <line x1="429.5" y1="169.00004984" x2="429.5" y2="157.00004984"/>
        <line x1="514" y1="142.50004984" x2="514" y2="138.00004984"/>
        <path d="M514,138.00004984 A1,1 0 0,1 515,137.00004984 "/>
        <line x1="507.99998566" y1="142.50004984" x2="507.99998566" y2="138.00004984"/>
        <line x1="432" y1="151.50004984" x2="435" y2="151.50004984"/>
        <line x1="441" y1="151.50004984" x2="438" y2="151.50004984"/>
        <line x1="432" y1="148.50004984" x2="435" y2="148.50004984"/>
        <line x1="441" y1="148.50004984" x2="438" y2="148.50004984"/>
        <line x1="441" y1="148.50004984" x2="441" y2="151.50004984"/>
        <line x1="438" y1="148.50004984" x2="438" y2="142.50004984"/>
        <line x1="435" y1="142.50004984" x2="435" y2="148.50004984"/>
        <line x1="432" y1="148.50004984" x2="432" y2="151.50004984"/>
        <line x1="432" y1="142.50004984" x2="432" y2="138.00004984"/>
        <line x1="435" y1="142.50004984" x2="432" y2="142.50004984"/>
        <path d="M431,137.00002844 A1,1 0 0,1 432,138.00002844 "/>
        <line x1="438" y1="151.50004984" x2="438" y2="152.50004984"/>
        <line x1="438" y1="152.50004984" x2="435" y2="152.50004984"/>
        <line x1="435" y1="152.50004984" x2="435" y2="151.50004984"/>
        <line x1="441" y1="142.50004984" x2="441" y2="138.00004984"/>
        <path d="M442,137.00002844 A1,1 0 0,0 441,138.00002844 "/>
        <line x1="441" y1="142.50004984" x2="438" y2="142.50004984"/>
        <line x1="431" y1="137.00002844" x2="425" y2="137.00004984"/>
        <line x1="449.00006574" y1="142.50004984" x2="449.00006574" y2="138.00004984"/>
        <path d="M449.00006574,138.00004984 A1,1 0 0,0 448.00006574,137.00004984 "/>
        <line x1="448.00006574" y1="137.00004984" x2="442" y2="137.00004984"/>
        <line x1="500.00003287" y1="151.50004984" x2="497.00003287" y2="151.50004984"/>
        <line x1="491.00003287" y1="151.50004984" x2="494.00003287" y2="151.50004984"/>
        <line x1="500.00003287" y1="148.50004984" x2="497.00003287" y2="148.50004984"/>
        <line x1="491.00003287" y1="148.50004984" x2="494.00003287" y2="148.50004984"/>
        <line x1="491.00003287" y1="148.50004984" x2="491.00003287" y2="151.50004984"/>
        <line x1="494.00003287" y1="148.50004984" x2="494.00003287" y2="142.50004984"/>
        <line x1="497.00003287" y1="142.50004984" x2="497.00003287" y2="148.50004984"/>
        <line x1="500.00003287" y1="148.50004984" x2="500.00003287" y2="151.50004984"/>
        <line x1="494.00003287" y1="151.50004984" x2="494.00003287" y2="152.50004984"/>
        <line x1="494.00003287" y1="152.50004984" x2="497.00003287" y2="152.50004984"/>
        <line x1="497.00003287" y1="152.50004984" x2="497.00003287" y2="151.50004984"/>
        <line x1="491.00003287" y1="142.50004984" x2="494.00003287" y2="142.50004984"/>
        <line x1="507.99998566" y1="142.50004984" x2="507.99998566" y2="138.00004984"/>
        <path d="M507.99998566,138.00004984 A1,1 0 0,0 506.99998566,137.00004984 "/>
        <line x1="491.00003287" y1="142.50004984" x2="491.00003287" y2="138.00004984"/>
        <path d="M490.00003287,137.00002844 A1,1 0 0,1 491.00003287,138.00002844 "/>
        <line x1="483" y1="142.50004984" x2="483" y2="138.00004984"/>
        <path d="M483,138.00004984 A1,1 0 0,1 484,137.00004984 "/>
        <line x1="500" y1="142.50007125" x2="500" y2="138.00007125"/>
        <path d="M501,137.00004984 A1,1 0 0,0 500,138.00004984 "/>
        <line x1="514" y1="142.50004984" x2="507.99998566" y2="142.50004984"/>
        <line x1="483" y1="142.50004984" x2="449.00006574" y2="142.50004984"/>
        <line x1="490" y1="137.00004984" x2="484" y2="137.00004984"/>
        <line x1="506.99998566" y1="137.00004984" x2="501" y2="137.00004984"/>
        <line x1="500" y1="142.50007125" x2="497.00003287" y2="142.50004984"/>
        <line x1="423.99994728" y1="231.50004984" x2="423.99994728" y2="236.00004984"/>
        <path d="M423.99994728,236.00004984 A1,1 0 0,0 424.99994728,237.00004984 "/>
        <line x1="423.99994728" y1="231.50004984" x2="418" y2="231.50004984"/>
        <path d="M417,237.00004984 A1,1 0 0,0 418,236.00004984 "/>
        <line x1="418" y1="231.50004984" x2="418" y2="236.00004984"/>
        <line x1="514" y1="231.50004984" x2="514" y2="236.00004984"/>
        <path d="M514,236.00004984 A1,1 0 0,0 515,237.00004984 "/>
        <line x1="507.99998566" y1="231.50004984" x2="507.99998566" y2="236.00004984"/>
        <line x1="432" y1="222.50004984" x2="435" y2="222.50004984"/>
        <line x1="441" y1="222.50004984" x2="438" y2="222.50004984"/>
        <line x1="432" y1="225.50004984" x2="435" y2="225.50004984"/>
        <line x1="441" y1="225.50004984" x2="438" y2="225.50004984"/>
        <line x1="441" y1="225.50004984" x2="441" y2="222.50004984"/>
        <line x1="438" y1="225.50004984" x2="438" y2="231.50004984"/>
        <line x1="435" y1="231.50004984" x2="435" y2="225.50004984"/>
        <line x1="432" y1="225.50004984" x2="432" y2="222.50004984"/>
        <line x1="432" y1="231.50004984" x2="432" y2="236.00004984"/>
        <line x1="435" y1="231.50004984" x2="432" y2="231.50004984"/>
        <path d="M431,237.00007125 A1,1 0 0,0 432,236.00007125 "/>
        <line x1="438" y1="222.50004984" x2="438" y2="221.50004984"/>
        <line x1="438" y1="221.50004984" x2="435" y2="221.50004984"/>
        <line x1="435" y1="221.50004984" x2="435" y2="222.50004984"/>
        <line x1="441" y1="231.50004984" x2="441" y2="236.00004984"/>
        <path d="M442,237.00007125 A1,1 0 0,1 441,236.00007125 "/>
        <line x1="441" y1="231.50004984" x2="438" y2="231.50004984"/>
        <line x1="431" y1="237.00007125" x2="425" y2="237.00004984"/>
        <line x1="449.00006574" y1="231.50004984" x2="449.00006574" y2="236.00004984"/>
        <path d="M449.00006574,236.00004984 A1,1 0 0,1 448.00006574,237.00004984 "/>
        <line x1="448.00006574" y1="237.00004984" x2="442" y2="237.00004984"/>
        <line x1="500.00003287" y1="222.50004984" x2="497.00003287" y2="222.50004984"/>
        <line x1="491.00003287" y1="222.50004984" x2="494.00003287" y2="222.50004984"/>
        <line x1="500.00003287" y1="225.50004984" x2="497.00003287" y2="225.50004984"/>
        <line x1="491.00003287" y1="225.50004984" x2="494.00003287" y2="225.50004984"/>
        <line x1="491.00003287" y1="225.50004984" x2="491.00003287" y2="222.50004984"/>
        <line x1="494.00003287" y1="225.50004984" x2="494.00003287" y2="231.50004984"/>
        <line x1="497.00003287" y1="231.50004984" x2="497.00003287" y2="225.50004984"/>
        <line x1="500.00003287" y1="225.50004984" x2="500.00003287" y2="222.50004984"/>
        <line x1="494.00003287" y1="222.50004984" x2="494.00003287" y2="221.50004984"/>
        <line x1="494.00003287" y1="221.50004984" x2="497.00003287" y2="221.50004984"/>
        <line x1="497.00003287" y1="221.50004984" x2="497.00003287" y2="222.50004984"/>
        <line x1="491.00003287" y1="231.50004984" x2="494.00003287" y2="231.50004984"/>
        <line x1="507.99998566" y1="231.50004984" x2="507.99998566" y2="236.00004984"/>
        <path d="M507.99998566,236.00004984 A1,1 0 0,1 506.99998566,237.00004984 "/>
        <line x1="491.00003287" y1="231.50004984" x2="491.00003287" y2="236.00004984"/>
        <path d="M490.00003287,237.00007125 A1,1 0 0,0 491.00003287,236.00007125 "/>
        <line x1="483" y1="231.50004984" x2="483" y2="236.00004984"/>
        <path d="M483,236.00004984 A1,1 0 0,0 484,237.00004984 "/>
        <line x1="500" y1="231.50002844" x2="500" y2="236.00002844"/>
        <path d="M501,237.00004984 A1,1 0 0,1 500,236.00004984 "/>
        <line x1="514" y1="231.50004984" x2="507.99998566" y2="231.50004984"/>
        <line x1="483" y1="231.50004984" x2="449.00006574" y2="231.50004984"/>
        <line x1="490" y1="237.00004984" x2="484" y2="237.00004984"/>
        <line x1="506.99998566" y1="237.00004984" x2="501" y2="237.00004984"/>
        <line x1="500" y1="231.50002844" x2="497.00003287" y2="231.50004984"/>
        <line x1="440.5" y1="157.00004984" x2="435" y2="156.99996426"/>
        <line x1="435" y1="172.00001697" x2="440.5" y2="172.00004984"/>
        <line x1="435" y1="156.99996426" x2="435" y2="163.00004984"/>
        <line x1="440.5" y1="163.00004984" x2="440.5" y2="157.00004984"/>
        <line x1="440.5" y1="163.00004984" x2="435" y2="163.00004984"/>
        <line x1="440.5" y1="178.00004984" x2="435" y2="178.00004984"/>
        <line x1="435" y1="178.00004984" x2="435" y2="172.00001697"/>
        <line x1="440.5" y1="178.00004984" x2="440.5" y2="172.00004984"/>
        <line x1="440.5" y1="217.00004984" x2="435" y2="217.00013543"/>
        <line x1="435" y1="202.00008272" x2="440.5" y2="202.00004984"/>
        <line x1="435" y1="217.00013543" x2="435" y2="211.00004984"/>
        <line x1="440.5" y1="211.00004984" x2="440.5" y2="217.00004984"/>
        <line x1="440.5" y1="211.00004984" x2="435" y2="211.00004984"/>
        <line x1="440.5" y1="196.00004984" x2="435" y2="196.00004984"/>
        <line x1="435" y1="196.00004984" x2="435" y2="202.00008272"/>
        <line x1="440.5" y1="196.00004984" x2="440.5" y2="202.00004984"/>
        <circle cx="437.74999498" cy="167.50004163" r="1.5"/>
        <circle cx="437.74999498" cy="206.50005806" r="1.5"/>
        <line x1="131" y1="237.00004984" x2="417" y2="237.00004984"/>
        <circle cx="64.5" cy="81.00004984" r="3.5"/>
        <circle cx="46.5" cy="81.00004984" r="5"/>
        <line x1="93.99993426" y1="87.00004984" x2="94.00001985" y2="92.50004984"/>
        <line x1="76.99996713" y1="92.50004984" x2="76.99993426" y2="87.00004984"/>
        <line x1="68.99993426" y1="87.00004984" x2="68.99993426" y2="92.50004984"/>
        <line x1="85.99993426" y1="87.00004984" x2="85.99993426" y2="92.50004984"/>
        <line x1="85.99993426" y1="87.00004984" x2="93.99993426" y2="87.00004984"/>
        <line x1="94.00001985" y1="92.50004984" x2="85.99993426" y2="92.50004984"/>
        <line x1="68.99993426" y1="92.50004984" x2="76.99996713" y2="92.50004984"/>
        <line x1="68.99993426" y1="87.00004984" x2="76.99993426" y2="87.00004984"/>
        <line x1="85.99993426" y1="87.00004984" x2="93.99993426" y2="87.00004984"/>
        <line x1="10" y1="87.00004984" x2="9.99991441" y2="92.50004984"/>
        <line x1="26.99996713" y1="92.50004984" x2="27" y2="87.00004984"/>
        <line x1="35" y1="87.00004984" x2="35" y2="92.50004984"/>
        <line x1="18" y1="87.00004984" x2="18" y2="92.50004984"/>
        <line x1="18" y1="87.00004984" x2="10" y2="87.00004984"/>
        <line x1="9.99991441" y1="92.50004984" x2="18" y2="92.50004984"/>
        <line x1="35" y1="92.50004984" x2="26.99996713" y2="92.50004984"/>
        <line x1="35" y1="87.00004984" x2="27" y2="87.00004984"/>
        <line x1="18" y1="87.00004984" x2="10" y2="87.00004984"/>
        <line x1="88.50001985" y1="98.50013543" x2="94.00001985" y2="98.50004984"/>
        <line x1="94.00001985" y1="115.50010256" x2="88.50001985" y2="115.50013543"/>
        <line x1="88.50001985" y1="123.50013543" x2="94.00001985" y2="123.50013543"/>
        <line x1="88.50001985" y1="106.50013543" x2="94.00001985" y2="106.50013543"/>
        <line x1="88.50001985" y1="106.50013543" x2="88.50001985" y2="98.50013543"/>
        <line x1="94.00001985" y1="98.50004984" x2="94.00001985" y2="106.50013543"/>
        <line x1="94.00001985" y1="123.50013543" x2="94.00001985" y2="115.50010256"/>
        <line x1="88.50001985" y1="123.50013543" x2="88.50001985" y2="115.50013543"/>
        <line x1="88.50001985" y1="106.50013543" x2="88.50001985" y2="98.50013543"/>
        <path d="M90,134.00009969 A10,10 0 0,0 100,124.00009969 "/>
        <path d="M14,134.00009969 A10,10 0 0,1 4,124.00009969 "/>
        <line x1="90" y1="134.00009969" x2="14" y2="134.00009969"/>
        <line x1="77.50001985" y1="98.50030661" x2="83.00001985" y2="98.50022102"/>
        <line x1="83.00001985" y1="115.50027374" x2="77.50001985" y2="115.50030661"/>
        <line x1="77.50001985" y1="123.50030661" x2="83.00001985" y2="123.50030661"/>
        <line x1="77.50001985" y1="106.50030661" x2="83.00001985" y2="106.50030661"/>
        <line x1="77.50001985" y1="106.50030661" x2="77.50001985" y2="98.50030661"/>
        <line x1="83.00001985" y1="98.50022102" x2="83.00001985" y2="106.50030661"/>
        <line x1="83.00001985" y1="123.50030661" x2="83.00001985" y2="115.50027374"/>
        <line x1="77.50001985" y1="123.50030661" x2="77.50001985" y2="115.50030661"/>
        <line x1="77.50001985" y1="106.50030661" x2="77.50001985" y2="98.50030661"/>
        <line x1="88.5" y1="73.00004984" x2="94" y2="72.99996426"/>
        <line x1="88.5" y1="81.00004984" x2="94" y2="81.00004984"/>
        <line x1="88.5" y1="81.00004984" x2="88.5" y2="73.00004984"/>
        <path d="M90,67.00004984 A10,10 0 0,1 100,77.00004984 "/>
        <path d="M14,67.00004984 A10,10 0 0,0 4,77.00004984 "/>
        <line x1="14" y1="67.00004984" x2="90" y2="67.00004984"/>
        <line x1="100" y1="77.00004984" x2="100" y2="124.00009969"/>
        <line x1="4" y1="77.00004984" x2="4" y2="124.00009969"/>
        <circle cx="81.49994248" cy="89.75005487" r="1.5"/>
        <circle cx="22.50000822" cy="89.75005487" r="1.5"/>
        <circle cx="80.25001985" cy="111.00029017" r="1.5"/>
        <circle cx="91.25001985" cy="111.000119" r="1.5"/>
        <line x1="94" y1="73.00004984" x2="94" y2="81.00004984"/>
        <circle cx="64.5" cy="53.00004984" r="3.5"/>
        <circle cx="46.5" cy="53.00004984" r="5"/>
        <line x1="93.99993426" y1="47.00004984" x2="94.00001985" y2="41.50004984"/>
        <line x1="76.99996713" y1="41.50004984" x2="76.99993426" y2="47.00004984"/>
        <line x1="68.99993426" y1="47.00004984" x2="68.99993426" y2="41.50004984"/>
        <line x1="85.99993426" y1="47.00004984" x2="85.99993426" y2="41.50004984"/>
        <line x1="85.99993426" y1="47.00004984" x2="93.99993426" y2="47.00004984"/>
        <line x1="94.00001985" y1="41.50004984" x2="85.99993426" y2="41.50004984"/>
        <line x1="68.99993426" y1="41.50004984" x2="76.99996713" y2="41.50004984"/>
        <line x1="68.99993426" y1="47.00004984" x2="76.99993426" y2="47.00004984"/>
        <line x1="85.99993426" y1="47.00004984" x2="93.99993426" y2="47.00004984"/>
        <line x1="10" y1="47.00004984" x2="9.99991441" y2="41.50004984"/>
        <line x1="26.99996713" y1="41.50004984" x2="27" y2="47.00004984"/>
        <line x1="35" y1="47.00004984" x2="35" y2="41.50004984"/>
        <line x1="18" y1="47.00004984" x2="18" y2="41.50004984"/>
        <line x1="18" y1="47.00004984" x2="10" y2="47.00004984"/>
        <line x1="9.99991441" y1="41.50004984" x2="18" y2="41.50004984"/>
        <line x1="35" y1="41.50004984" x2="26.99996713" y2="41.50004984"/>
        <line x1="35" y1="47.00004984" x2="27" y2="47.00004984"/>
        <line x1="18" y1="47.00004984" x2="10" y2="47.00004984"/>
        <line x1="88.50001985" y1="35.49996426" x2="94.00001985" y2="35.50004984"/>
        <line x1="94.00001985" y1="18.49999713" x2="88.50001985" y2="18.49996426"/>
        <line x1="88.50001985" y1="10.49996426" x2="94.00001985" y2="10.49996426"/>
        <line x1="88.50001985" y1="27.49996426" x2="94.00001985" y2="27.49996426"/>
        <line x1="88.50001985" y1="27.49996426" x2="88.50001985" y2="35.49996426"/>
        <line x1="94.00001985" y1="35.50004984" x2="94.00001985" y2="27.49996426"/>
        <line x1="94.00001985" y1="10.49996426" x2="94.00001985" y2="18.49999713"/>
        <line x1="88.50001985" y1="10.49996426" x2="88.50001985" y2="18.49996426"/>
        <line x1="88.50001985" y1="27.49996426" x2="88.50001985" y2="35.49996426"/>
        <path d="M90,0 A10,10 0 0,1 100,10 "/>
        <path d="M14,0 A10,10 0 0,0 4,10 "/>
        <line x1="90" y1="0" x2="14" y2="0"/>
        <line x1="77.50001985" y1="35.49979308" x2="83.00001985" y2="35.49987867"/>
        <line x1="83.00001985" y1="18.49982595" x2="77.50001985" y2="18.49979308"/>
        <line x1="77.50001985" y1="10.49979308" x2="83.00001985" y2="10.49979308"/>
        <line x1="77.50001985" y1="27.49979308" x2="83.00001985" y2="27.49979308"/>
        <line x1="77.50001985" y1="27.49979308" x2="77.50001985" y2="35.49979308"/>
        <line x1="83.00001985" y1="35.49987867" x2="83.00001985" y2="27.49979308"/>
        <line x1="83.00001985" y1="10.49979308" x2="83.00001985" y2="18.49982595"/>
        <line x1="77.50001985" y1="10.49979308" x2="77.50001985" y2="18.49979308"/>
        <line x1="77.50001985" y1="27.49979308" x2="77.50001985" y2="35.49979308"/>
        <line x1="88.5" y1="61.00004984" x2="94" y2="61.00013543"/>
        <line x1="88.5" y1="53.00004984" x2="94" y2="53.00004984"/>
        <line x1="88.5" y1="53.00004984" x2="88.5" y2="61.00004984"/>
        <path d="M90,67.00004984 A10,10 0 0,0 100,57.00004984 "/>
        <path d="M14,67.00004984 A10,10 0 0,1 4,57.00004984 "/>
        <line x1="100" y1="57.00004984" x2="100" y2="10"/>
        <line x1="4" y1="57.00004984" x2="4" y2="10"/>
        <circle cx="81.49994248" cy="44.25004482" r="1.5"/>
        <circle cx="22.50000822" cy="44.25004482" r="1.5"/>
        <circle cx="80.25001985" cy="22.99980952" r="1.5"/>
        <circle cx="91.25001985" cy="22.99998069" r="1.5"/>
        <line x1="94" y1="61.00004984" x2="94" y2="53.00004984"/>
        <circle cx="135.5" cy="81.00004984" r="3.5"/>
        <circle cx="153.5" cy="81.00004984" r="5"/>
        <line x1="106.00006574" y1="87.00004984" x2="105.99998015" y2="92.50004984"/>
        <line x1="123.00003287" y1="92.50004984" x2="123.00006574" y2="87.00004984"/>
        <line x1="131.00006574" y1="87.00004984" x2="131.00006574" y2="92.50004984"/>
        <line x1="114.00006574" y1="87.00004984" x2="114.00006574" y2="92.50004984"/>
        <line x1="114.00006574" y1="87.00004984" x2="106.00006574" y2="87.00004984"/>
        <line x1="105.99998015" y1="92.50004984" x2="114.00006574" y2="92.50004984"/>
        <line x1="131.00006574" y1="92.50004984" x2="123.00003287" y2="92.50004984"/>
        <line x1="131.00006574" y1="87.00004984" x2="123.00006574" y2="87.00004984"/>
        <line x1="114.00006574" y1="87.00004984" x2="106.00006574" y2="87.00004984"/>
        <line x1="190" y1="87.00004984" x2="190.00008559" y2="92.50004984"/>
        <line x1="173.00003287" y1="92.50004984" x2="173" y2="87.00004984"/>
        <line x1="165" y1="87.00004984" x2="165" y2="92.50004984"/>
        <line x1="182" y1="87.00004984" x2="182" y2="92.50004984"/>
        <line x1="182" y1="87.00004984" x2="190" y2="87.00004984"/>
        <line x1="190.00008559" y1="92.50004984" x2="182" y2="92.50004984"/>
        <line x1="165" y1="92.50004984" x2="173.00003287" y2="92.50004984"/>
        <line x1="165" y1="87.00004984" x2="173" y2="87.00004984"/>
        <line x1="182" y1="87.00004984" x2="190" y2="87.00004984"/>
        <line x1="111.49998015" y1="98.50013543" x2="105.99998015" y2="98.50004984"/>
        <line x1="105.99998015" y1="115.50010256" x2="111.49998015" y2="115.50013543"/>
        <line x1="111.49998015" y1="123.50013543" x2="105.99998015" y2="123.50013543"/>
        <line x1="111.49998015" y1="106.50013543" x2="105.99998015" y2="106.50013543"/>
        <line x1="111.49998015" y1="106.50013543" x2="111.49998015" y2="98.50013543"/>
        <line x1="105.99998015" y1="98.50004984" x2="105.99998015" y2="106.50013543"/>
        <line x1="105.99998015" y1="123.50013543" x2="105.99998015" y2="115.50010256"/>
        <line x1="111.49998015" y1="123.50013543" x2="111.49998015" y2="115.50013543"/>
        <line x1="111.49998015" y1="106.50013543" x2="111.49998015" y2="98.50013543"/>
        <path d="M110,134.00009969 A10,10 0 0,1 100,124.00009969 "/>
        <path d="M186,134.00009969 A10,10 0 0,0 196,124.00009969 "/>
        <line x1="110" y1="134.00009969" x2="186" y2="134.00009969"/>
        <line x1="122.49998015" y1="98.50030661" x2="116.99998015" y2="98.50022102"/>
        <line x1="116.99998015" y1="115.50027374" x2="122.49998015" y2="115.50030661"/>
        <line x1="122.49998015" y1="123.50030661" x2="116.99998015" y2="123.50030661"/>
        <line x1="122.49998015" y1="106.50030661" x2="116.99998015" y2="106.50030661"/>
        <line x1="122.49998015" y1="106.50030661" x2="122.49998015" y2="98.50030661"/>
        <line x1="116.99998015" y1="98.50022102" x2="116.99998015" y2="106.50030661"/>
        <line x1="116.99998015" y1="123.50030661" x2="116.99998015" y2="115.50027374"/>
        <line x1="122.49998015" y1="123.50030661" x2="122.49998015" y2="115.50030661"/>
        <line x1="122.49998015" y1="106.50030661" x2="122.49998015" y2="98.50030661"/>
        <line x1="111.5" y1="73.00004984" x2="106" y2="72.99996426"/>
        <line x1="111.5" y1="81.00004984" x2="106" y2="81.00004984"/>
        <line x1="111.5" y1="81.00004984" x2="111.5" y2="73.00004984"/>
        <path d="M110,67.00004984 A10,10 0 0,0 100,77.00004984 "/>
        <path d="M186,67.00004984 A10,10 0 0,1 196,77.00004984 "/>
        <line x1="186" y1="67.00004984" x2="110" y2="67.00004984"/>
        <line x1="196" y1="77.00004984" x2="196" y2="124.00009969"/>
        <circle cx="118.50005752" cy="89.75005487" r="1.5"/>
        <circle cx="177.49999178" cy="89.75005487" r="1.5"/>
        <circle cx="119.74998015" cy="111.00029017" r="1.5"/>
        <circle cx="108.74998015" cy="111.000119" r="1.5"/>
        <line x1="106" y1="73.00004984" x2="106" y2="81.00004984"/>
        <circle cx="135.5" cy="53.00004984" r="3.5"/>
        <circle cx="153.5" cy="53.00004984" r="5"/>
        <line x1="106.00006574" y1="47.00004984" x2="105.99998015" y2="41.50004984"/>
        <line x1="123.00003287" y1="41.50004984" x2="123.00006574" y2="47.00004984"/>
        <line x1="131.00006574" y1="47.00004984" x2="131.00006574" y2="41.50004984"/>
        <line x1="114.00006574" y1="47.00004984" x2="114.00006574" y2="41.50004984"/>
        <line x1="114.00006574" y1="47.00004984" x2="106.00006574" y2="47.00004984"/>
        <line x1="105.99998015" y1="41.50004984" x2="114.00006574" y2="41.50004984"/>
        <line x1="131.00006574" y1="41.50004984" x2="123.00003287" y2="41.50004984"/>
        <line x1="131.00006574" y1="47.00004984" x2="123.00006574" y2="47.00004984"/>
        <line x1="114.00006574" y1="47.00004984" x2="106.00006574" y2="47.00004984"/>
        <line x1="190" y1="47.00004984" x2="190.00008559" y2="41.50004984"/>
        <line x1="173.00003287" y1="41.50004984" x2="173" y2="47.00004984"/>
        <line x1="165" y1="47.00004984" x2="165" y2="41.50004984"/>
        <line x1="182" y1="47.00004984" x2="182" y2="41.50004984"/>
        <line x1="182" y1="47.00004984" x2="190" y2="47.00004984"/>
        <line x1="190.00008559" y1="41.50004984" x2="182" y2="41.50004984"/>
        <line x1="165" y1="41.50004984" x2="173.00003287" y2="41.50004984"/>
        <line x1="165" y1="47.00004984" x2="173" y2="47.00004984"/>
        <line x1="182" y1="47.00004984" x2="190" y2="47.00004984"/>
        <line x1="111.49998015" y1="35.49996426" x2="105.99998015" y2="35.50004984"/>
        <line x1="105.99998015" y1="18.49999713" x2="111.49998015" y2="18.49996426"/>
        <line x1="111.49998015" y1="10.49996426" x2="105.99998015" y2="10.49996426"/>
        <line x1="111.49998015" y1="27.49996426" x2="105.99998015" y2="27.49996426"/>
        <line x1="111.49998015" y1="27.49996426" x2="111.49998015" y2="35.49996426"/>
        <line x1="105.99998015" y1="35.50004984" x2="105.99998015" y2="27.49996426"/>
        <line x1="105.99998015" y1="10.49996426" x2="105.99998015" y2="18.49999713"/>
        <line x1="111.49998015" y1="10.49996426" x2="111.49998015" y2="18.49996426"/>
        <line x1="111.49998015" y1="27.49996426" x2="111.49998015" y2="35.49996426"/>
        <path d="M110,0 A10,10 0 0,0 100,10 "/>
        <path d="M186,0 A10,10 0 0,1 196,10 "/>
        <line x1="110" y1="0" x2="186" y2="0"/>
        <line x1="122.49998015" y1="35.49979308" x2="116.99998015" y2="35.49987867"/>
        <line x1="116.99998015" y1="18.49982595" x2="122.49998015" y2="18.49979308"/>
        <line x1="122.49998015" y1="10.49979308" x2="116.99998015" y2="10.49979308"/>
        <line x1="122.49998015" y1="27.49979308" x2="116.99998015" y2="27.49979308"/>
        <line x1="122.49998015" y1="27.49979308" x2="122.49998015" y2="35.49979308"/>
        <line x1="116.99998015" y1="35.49987867" x2="116.99998015" y2="27.49979308"/>
        <line x1="116.99998015" y1="10.49979308" x2="116.99998015" y2="18.49982595"/>
        <line x1="122.49998015" y1="10.49979308" x2="122.49998015" y2="18.49979308"/>
        <line x1="122.49998015" y1="27.49979308" x2="122.49998015" y2="35.49979308"/>
        <line x1="111.5" y1="61.00004984" x2="106" y2="61.00013543"/>
        <line x1="111.5" y1="53.00004984" x2="106" y2="53.00004984"/>
        <line x1="111.5" y1="53.00004984" x2="111.5" y2="61.00004984"/>
        <path d="M110,67.00004984 A10,10 0 0,1 100,57.00004984 "/>
        <path d="M186,67.00004984 A10,10 0 0,0 196,57.00004984 "/>
        <line x1="196" y1="57.00004984" x2="196" y2="10"/>
        <circle cx="118.50005752" cy="44.25004482" r="1.5"/>
        <circle cx="177.49999178" cy="44.25004482" r="1.5"/>
        <circle cx="119.74998015" cy="22.99980952" r="1.5"/>
        <circle cx="108.74998015" cy="22.99998069" r="1.5"/>
        <line x1="106" y1="61.00004984" x2="106" y2="53.00004984"/>
        <line x1="271.50004984" y1="37.00004984" x2="271.50004984" y2="126.00004984"/>
        <circle cx="252" cy="57.50004984" r="4"/>
        <circle cx="252" cy="105.50004984" r="4"/>
        <line x1="246" y1="73.50004984" x2="258" y2="73.50004984"/>
        <line x1="246" y1="89.50004984" x2="258" y2="89.50004984"/>
        <line x1="258" y1="73.50004984" x2="258" y2="89.50004984"/>
        <line x1="246" y1="73.50004984" x2="246" y2="89.50004984"/>
        <line x1="224.3" y1="126.00004984" x2="224.3" y2="111.50004984"/>
        <line x1="230" y1="126.00004984" x2="230" y2="111.50004984"/>
        <line x1="230" y1="111.50004984" x2="224.3" y2="111.50004984"/>
        <line x1="224.3" y1="37.00004984" x2="224.3" y2="51.50004984"/>
        <line x1="230" y1="37.00004984" x2="230" y2="51.50004984"/>
        <line x1="230" y1="51.50004984" x2="224.3" y2="51.50004984"/>
        <line x1="204.5" y1="37.00003" x2="204.5" y2="126.00006969"/>
        <line x1="230" y1="87.50004984" x2="224.5" y2="87.50004984"/>
        <line x1="230" y1="99.50004984" x2="224.5" y2="99.50004984"/>
        <line x1="230" y1="75.50004984" x2="224.5" y2="75.50004984"/>
        <line x1="230" y1="63.50004984" x2="224.5" y2="63.50004984"/>
        <line x1="230" y1="63.50004984" x2="230" y2="75.50004984"/>
        <line x1="224.5" y1="63.50004984" x2="224.5" y2="75.50004984"/>
        <line x1="230" y1="87.50004984" x2="230" y2="99.50004984"/>
        <line x1="224.5" y1="87.50004984" x2="224.5" y2="99.50004984"/>
        <line x1="252.99995721" y1="126.00009653" x2="253.00002723" y2="130.50009653"/>
        <path d="M254.00004279,131.50008097 A1,1 0 0,1 253.00002723,130.50009653 "/>
        <line x1="244" y1="126.00004985" x2="244" y2="130.50004985"/>
        <path d="M243,131.50004985 A1,1 0 0,0 244,130.50004985 "/>
        <line x1="253" y1="117.00004985" x2="250" y2="117.00004985"/>
        <line x1="244" y1="117.00004985" x2="247" y2="117.00004985"/>
        <line x1="253" y1="120.00004985" x2="250" y2="120.00004985"/>
        <line x1="244" y1="120.00004985" x2="247" y2="120.00004985"/>
        <line x1="244" y1="120.00004985" x2="244" y2="117.00004985"/>
        <line x1="247" y1="120.00004985" x2="247" y2="126.00004985"/>
        <line x1="250" y1="126.00004985" x2="250" y2="120.00004985"/>
        <line x1="253" y1="120.00004985" x2="253" y2="117.00004985"/>
        <line x1="247" y1="117.00004985" x2="247" y2="116.00004985"/>
        <line x1="247" y1="116.00004985" x2="250" y2="116.00004985"/>
        <line x1="250" y1="116.00004985" x2="250" y2="117.00004985"/>
        <line x1="244" y1="126.00004985" x2="247" y2="126.00004985"/>
        <line x1="252.99996713" y1="126.00002844" x2="250" y2="126.00004985"/>
        <line x1="253" y1="46.00004984" x2="250" y2="46.00004984"/>
        <line x1="244" y1="46.00004984" x2="247" y2="46.00004984"/>
        <line x1="253" y1="43.00004984" x2="250" y2="43.00004984"/>
        <line x1="244" y1="43.00004984" x2="247" y2="43.00004984"/>
        <line x1="244" y1="43.00004984" x2="244" y2="46.00004984"/>
        <line x1="247" y1="43.00004984" x2="247" y2="37.00004984"/>
        <line x1="250" y1="37.00004984" x2="250" y2="43.00004984"/>
        <line x1="253" y1="43.00004984" x2="253" y2="46.00004984"/>
        <line x1="247" y1="46.00004984" x2="247" y2="47.00004984"/>
        <line x1="247" y1="47.00004984" x2="250" y2="47.00004984"/>
        <line x1="250" y1="47.00004984" x2="250" y2="46.00004984"/>
        <line x1="261" y1="126.00004985" x2="261" y2="130.50004985"/>
        <path d="M260,131.50004985 A1,1 0 0,0 261,130.50004985 "/>
        <line x1="260" y1="131.50004985" x2="254.00004279" y2="131.50008097"/>
        <line x1="271.50004984" y1="126.00004984" x2="261" y2="126.00004985"/>
        <line x1="235.99995721" y1="126.00009653" x2="236.00002723" y2="130.50009653"/>
        <path d="M237.00004279,131.50008097 A1,1 0 0,1 236.00002723,130.50009653 "/>
        <line x1="243" y1="131.50004985" x2="237.00004279" y2="131.50008097"/>
        <line x1="236" y1="126.00004984" x2="230" y2="126.00004984"/>
        <line x1="252.99995721" y1="37.00000316" x2="253.00002723" y2="32.50000316"/>
        <path d="M254.00004279,31.50001872 A1,1 0 0,0 253.00002723,32.50000316 "/>
        <line x1="244" y1="37.00004984" x2="244" y2="32.50004984"/>
        <path d="M243,31.50004984 A1,1 0 0,1 244,32.50004984 "/>
        <line x1="244" y1="37.00004984" x2="247" y2="37.00004984"/>
        <line x1="252.99996713" y1="37.00007125" x2="250" y2="37.00004984"/>
        <line x1="261" y1="37.00004984" x2="261" y2="32.50004984"/>
        <path d="M260,31.50004984 A1,1 0 0,1 261,32.50004984 "/>
        <line x1="260" y1="31.50004984" x2="254.00004279" y2="31.50001872"/>
        <line x1="271.50004984" y1="37.00004984" x2="261" y2="37.00004984"/>
        <line x1="235.99995721" y1="37.00000316" x2="236.00002723" y2="32.50000316"/>
        <path d="M237.00004279,31.50001872 A1,1 0 0,0 236.00002723,32.50000316 "/>
        <line x1="243" y1="31.50004984" x2="237.00004279" y2="31.50001872"/>
        <line x1="236" y1="37.00004984" x2="230" y2="37.00004984"/>
        <line x1="218.3" y1="126.00004984" x2="218.3" y2="130.50004984"/>
        <path d="M217.3,131.50004984 A1,1 0 0,0 218.3,130.50004984 "/>
        <line x1="210.29995721" y1="126.00009653" x2="210.30002723" y2="130.50009653"/>
        <path d="M211.30004279,131.50008097 A1,1 0 0,1 210.30002723,130.50009653 "/>
        <line x1="217.3" y1="131.50004984" x2="211.30004279" y2="131.50008097"/>
        <line x1="204.5" y1="126.00006969" x2="210.29995721" y2="126.00009653"/>
        <line x1="224.3" y1="126.00004984" x2="218.3" y2="126.00004984"/>
        <line x1="218.3" y1="37.00004984" x2="218.3" y2="32.50004984"/>
        <path d="M217.3,31.50004984 A1,1 0 0,1 218.3,32.50004984 "/>
        <line x1="210.29995721" y1="37.00000316" x2="210.30002723" y2="32.50000316"/>
        <path d="M211.30004279,31.50001872 A1,1 0 0,0 210.30002723,32.50000316 "/>
        <line x1="217.3" y1="31.50004984" x2="211.30004279" y2="31.50001872"/>
        <line x1="204.5" y1="37.00003" x2="210.29995721" y2="37.00000316"/>
        <line x1="224.3" y1="37.00004984" x2="218.3" y2="37.00004984"/>
        <line x1="271.50004984" y1="37.00004984" x2="271.50004984" y2="126.00004984"/>
        <circle cx="291.00009969" cy="57.50004984" r="4"/>
        <circle cx="291.00009969" cy="105.50004984" r="4"/>
        <line x1="297.00009969" y1="73.50004984" x2="285.00009969" y2="73.50004984"/>
        <line x1="297.00009969" y1="89.50004984" x2="285.00009969" y2="89.50004984"/>
        <line x1="285.00009969" y1="73.50004984" x2="285.00009969" y2="89.50004984"/>
        <line x1="297.00009969" y1="73.50004984" x2="297.00009969" y2="89.50004984"/>
        <line x1="318.70009969" y1="126.00004984" x2="318.70009969" y2="111.50004984"/>
        <line x1="313.00009969" y1="126.00004984" x2="313.00009969" y2="111.50004984"/>
        <line x1="313.00009969" y1="111.50004984" x2="318.70009969" y2="111.50004984"/>
        <line x1="318.70009969" y1="37.00004984" x2="318.70009969" y2="51.50004984"/>
        <line x1="313.00009969" y1="37.00004984" x2="313.00009969" y2="51.50004984"/>
        <line x1="313.00009969" y1="51.50004984" x2="318.70009969" y2="51.50004984"/>
        <line x1="338.50009969" y1="37.00003" x2="338.50009969" y2="126.00006969"/>
        <line x1="313.00009969" y1="87.50004984" x2="318.50009969" y2="87.50004984"/>
        <line x1="313.00009969" y1="99.50004984" x2="318.50009969" y2="99.50004984"/>
        <line x1="313.00009969" y1="75.50004984" x2="318.50009969" y2="75.50004984"/>
        <line x1="313.00009969" y1="63.50004984" x2="318.50009969" y2="63.50004984"/>
        <line x1="313.00009969" y1="63.50004984" x2="313.00009969" y2="75.50004984"/>
        <line x1="318.50009969" y1="63.50004984" x2="318.50009969" y2="75.50004984"/>
        <line x1="313.00009969" y1="87.50004984" x2="313.00009969" y2="99.50004984"/>
        <line x1="318.50009969" y1="87.50004984" x2="318.50009969" y2="99.50004984"/>
        <line x1="290.00014248" y1="126.00009653" x2="290.00007246" y2="130.50009653"/>
        <path d="M289.00005689,131.50008097 A1,1 0 0,0 290.00007246,130.50009653 "/>
        <line x1="299.00009969" y1="126.00004985" x2="299.00009969" y2="130.50004985"/>
        <path d="M300.00009969,131.50004985 A1,1 0 0,1 299.00009969,130.50004985 "/>
        <line x1="290.00009969" y1="117.00004985" x2="293.00009969" y2="117.00004985"/>
        <line x1="299.00009969" y1="117.00004985" x2="296.00009969" y2="117.00004985"/>
        <line x1="290.00009969" y1="120.00004985" x2="293.00009969" y2="120.00004985"/>
        <line x1="299.00009969" y1="120.00004985" x2="296.00009969" y2="120.00004985"/>
        <line x1="299.00009969" y1="120.00004985" x2="299.00009969" y2="117.00004985"/>
        <line x1="296.00009969" y1="120.00004985" x2="296.00009969" y2="126.00004985"/>
        <line x1="293.00009969" y1="126.00004985" x2="293.00009969" y2="120.00004985"/>
        <line x1="290.00009969" y1="120.00004985" x2="290.00009969" y2="117.00004985"/>
        <line x1="296.00009969" y1="117.00004985" x2="296.00009969" y2="116.00004985"/>
        <line x1="296.00009969" y1="116.00004985" x2="293.00009969" y2="116.00004985"/>
        <line x1="293.00009969" y1="116.00004985" x2="293.00009969" y2="117.00004985"/>
        <line x1="299.00009969" y1="126.00004985" x2="296.00009969" y2="126.00004985"/>
        <line x1="290.00013256" y1="126.00002844" x2="293.00009969" y2="126.00004985"/>
        <line x1="290.00009969" y1="46.00004984" x2="293.00009969" y2="46.00004984"/>
        <line x1="299.00009969" y1="46.00004984" x2="296.00009969" y2="46.00004984"/>
        <line x1="290.00009969" y1="43.00004984" x2="293.00009969" y2="43.00004984"/>
        <line x1="299.00009969" y1="43.00004984" x2="296.00009969" y2="43.00004984"/>
        <line x1="299.00009969" y1="43.00004984" x2="299.00009969" y2="46.00004984"/>
        <line x1="296.00009969" y1="43.00004984" x2="296.00009969" y2="37.00004984"/>
        <line x1="293.00009969" y1="37.00004984" x2="293.00009969" y2="43.00004984"/>
        <line x1="290.00009969" y1="43.00004984" x2="290.00009969" y2="46.00004984"/>
        <line x1="296.00009969" y1="46.00004984" x2="296.00009969" y2="47.00004984"/>
        <line x1="296.00009969" y1="47.00004984" x2="293.00009969" y2="47.00004984"/>
        <line x1="293.00009969" y1="47.00004984" x2="293.00009969" y2="46.00004984"/>
        <line x1="282.00009969" y1="126.00004985" x2="282.00009969" y2="130.50004985"/>
        <path d="M283.00009969,131.50004985 A1,1 0 0,1 282.00009969,130.50004985 "/>
        <line x1="283.00009969" y1="131.50004985" x2="289.00005689" y2="131.50008097"/>
        <line x1="271.50004984" y1="126.00004984" x2="282.00009969" y2="126.00004985"/>
        <line x1="307.00014248" y1="126.00009653" x2="307.00007246" y2="130.50009653"/>
        <path d="M306.00005689,131.50008097 A1,1 0 0,0 307.00007246,130.50009653 "/>
        <line x1="300.00009969" y1="131.50004985" x2="306.00005689" y2="131.50008097"/>
        <line x1="307.00009969" y1="126.00004984" x2="313.00009969" y2="126.00004984"/>
        <line x1="290.00014248" y1="37.00000316" x2="290.00007246" y2="32.50000316"/>
        <path d="M289.00005689,31.50001872 A1,1 0 0,1 290.00007246,32.50000316 "/>
        <line x1="299.00009969" y1="37.00004984" x2="299.00009969" y2="32.50004984"/>
        <path d="M300.00009969,31.50004984 A1,1 0 0,0 299.00009969,32.50004984 "/>
        <line x1="299.00009969" y1="37.00004984" x2="296.00009969" y2="37.00004984"/>
        <line x1="290.00013256" y1="37.00007125" x2="293.00009969" y2="37.00004984"/>
        <line x1="282.00009969" y1="37.00004984" x2="282.00009969" y2="32.50004984"/>
        <path d="M283.00009969,31.50004984 A1,1 0 0,0 282.00009969,32.50004984 "/>
        <line x1="283.00009969" y1="31.50004984" x2="289.00005689" y2="31.50001872"/>
        <line x1="271.50004984" y1="37.00004984" x2="282.00009969" y2="37.00004984"/>
        <line x1="307.00014248" y1="37.00000316" x2="307.00007246" y2="32.50000316"/>
        <path d="M306.00005689,31.50001872 A1,1 0 0,1 307.00007246,32.50000316 "/>
        <line x1="300.00009969" y1="31.50004984" x2="306.00005689" y2="31.50001872"/>
        <line x1="307.00009969" y1="37.00004984" x2="313.00009969" y2="37.00004984"/>
        <line x1="324.70009969" y1="126.00004984" x2="324.70009969" y2="130.50004984"/>
        <path d="M325.70009969,131.50004984 A1,1 0 0,1 324.70009969,130.50004984 "/>
        <line x1="332.70014248" y1="126.00009653" x2="332.70007246" y2="130.50009653"/>
        <path d="M331.70005689,131.50008097 A1,1 0 0,0 332.70007246,130.50009653 "/>
        <line x1="325.70009969" y1="131.50004984" x2="331.70005689" y2="131.50008097"/>
        <line x1="338.50009969" y1="126.00006969" x2="332.70014248" y2="126.00009653"/>
        <line x1="318.70009969" y1="126.00004984" x2="324.70009969" y2="126.00004984"/>
        <line x1="324.70009969" y1="37.00004984" x2="324.70009969" y2="32.50004984"/>
        <path d="M325.70009969,31.50004984 A1,1 0 0,0 324.70009969,32.50004984 "/>
        <line x1="332.70014248" y1="37.00000316" x2="332.70007246" y2="32.50000316"/>
        <path d="M331.70005689,31.50001872 A1,1 0 0,1 332.70007246,32.50000316 "/>
        <line x1="325.70009969" y1="31.50004984" x2="331.70005689" y2="31.50001872"/>
        <line x1="338.50009969" y1="37.00003" x2="332.70014248" y2="37.00000316"/>
        <line x1="318.70009969" y1="37.00004984" x2="324.70009969" y2="37.00004984"/>
        <line x1="433.99994728" y1="127.00004984" x2="439.99994728" y2="127.00004984"/>
        <line x1="356.99994728" y1="127.00004984" x2="350.99994728" y2="127.00004984"/>
        <line x1="390.99994728" y1="127.00004984" x2="390.99994728" y2="125.00004984"/>
        <line x1="390.99994728" y1="125.00004984" x2="399.99994728" y2="125.00004984"/>
        <line x1="399.99994728" y1="125.00004984" x2="399.99994728" y2="127.00004984"/>
        <line x1="356.99994728" y1="127.00004984" x2="356.99994728" y2="125.00004984"/>
        <line x1="356.99994728" y1="125.00004984" x2="359.99994728" y2="125.00004984"/>
        <line x1="359.99994728" y1="125.00004984" x2="359.99994728" y2="127.00004984"/>
        <line x1="430.99994728" y1="127.00004984" x2="430.99994728" y2="125.00004984"/>
        <line x1="430.99994728" y1="125.00004984" x2="433.99994728" y2="125.00004984"/>
        <line x1="433.99994728" y1="125.00004984" x2="433.99994728" y2="127.00004984"/>
        <line x1="425.49999008" y1="127.00004984" x2="425.49999008" y2="131.50004984"/>
        <path d="M424.49999008,132.50004984 A1,1 0 0,0 425.49999008,131.50004984 "/>
        <line x1="419.49994728" y1="127.00009653" x2="419.50001731" y2="131.50009653"/>
        <path d="M420.50003287,132.50008097 A1,1 0 0,1 419.50001731,131.50009653 "/>
        <line x1="420.50003287" y1="132.50008097" x2="424.49999008" y2="132.50004984"/>
        <line x1="410.49999008" y1="127.00004984" x2="410.49999008" y2="131.50004984"/>
        <path d="M409.49999008,132.50004984 A1,1 0 0,0 410.49999008,131.50004984 "/>
        <line x1="404.49994728" y1="127.00009653" x2="404.50001731" y2="131.50009653"/>
        <path d="M405.50003287,132.50008097 A1,1 0 0,1 404.50001731,131.50009653 "/>
        <line x1="405.50003287" y1="132.50008097" x2="409.49999008" y2="132.50004984"/>
        <line x1="386.49997514" y1="127.00004984" x2="386.49997514" y2="131.50004984"/>
        <path d="M385.49997514,132.50004984 A1,1 0 0,0 386.49997514,131.50004984 "/>
        <line x1="380.49993234" y1="127.00009653" x2="380.50000237" y2="131.50009653"/>
        <path d="M381.50001793,132.50008097 A1,1 0 0,1 380.50000237,131.50009653 "/>
        <line x1="381.50001793" y1="132.50008097" x2="385.49997514" y2="132.50004984"/>
        <line x1="371.49995117" y1="127.00004984" x2="371.49995117" y2="131.50004984"/>
        <path d="M370.49995117,132.50004984 A1,1 0 0,0 371.49995117,131.50004984 "/>
        <line x1="365.49990838" y1="127.00009653" x2="365.49997841" y2="131.50009653"/>
        <path d="M366.49999397,132.50008097 A1,1 0 0,1 365.49997841,131.50009653 "/>
        <line x1="366.49999397" y1="132.50008097" x2="370.49995117" y2="132.50004984"/>
        <line x1="425.49999008" y1="127.00004984" x2="430.99994728" y2="127.00004984"/>
        <line x1="404.49994728" y1="127.00009653" x2="399.99994728" y2="127.00004984"/>
        <line x1="390.99994728" y1="127.00004984" x2="386.49997514" y2="127.00004984"/>
        <line x1="359.99994728" y1="127.00004984" x2="365.49990838" y2="127.00009653"/>
        <line x1="350.99994728" y1="85.5" x2="439.99994728" y2="85.5"/>
        <line x1="439.99999397" y1="104.00009264" x2="444.49999397" y2="104.00002261"/>
        <path d="M445.49997841,103.00000705 A1,1 0 0,1 444.49999397,104.00002261 "/>
        <line x1="439.99994728" y1="113.00004984" x2="444.49994728" y2="113.00004984"/>
        <path d="M445.49994728,114.00004984 A1,1 0 0,0 444.49994728,113.00004984 "/>
        <line x1="371.4999183" y1="118.00007125" x2="374.4999183" y2="118.00007125"/>
        <line x1="380.4999183" y1="118.00007125" x2="377.4999183" y2="118.00007125"/>
        <line x1="371.4999183" y1="121.00007125" x2="374.4999183" y2="121.00007125"/>
        <line x1="380.4999183" y1="121.00007125" x2="377.4999183" y2="121.00007125"/>
        <line x1="380.4999183" y1="121.00007125" x2="380.4999183" y2="118.00007125"/>
        <line x1="377.4999183" y1="121.00007125" x2="377.4999183" y2="127.00007125"/>
        <line x1="374.4999183" y1="127.00007125" x2="374.4999183" y2="121.00007125"/>
        <line x1="371.4999183" y1="121.00007125" x2="371.4999183" y2="118.00007125"/>
        <line x1="377.4999183" y1="118.00007125" x2="377.4999183" y2="117.00007125"/>
        <line x1="377.4999183" y1="117.00007125" x2="374.4999183" y2="117.00007125"/>
        <line x1="374.4999183" y1="117.00007125" x2="374.4999183" y2="118.00007125"/>
        <line x1="380.4999183" y1="127.00007125" x2="377.4999183" y2="127.00007125"/>
        <line x1="371.49995117" y1="127.00004984" x2="374.4999183" y2="127.00007125"/>
        <line x1="410.49994728" y1="118.00009653" x2="413.49994728" y2="118.00009653"/>
        <line x1="419.49994728" y1="118.00009653" x2="416.49994728" y2="118.00009653"/>
        <line x1="410.49994728" y1="121.00009653" x2="413.49994728" y2="121.00009653"/>
        <line x1="419.49994728" y1="121.00009653" x2="416.49994728" y2="121.00009653"/>
        <line x1="419.49994728" y1="121.00009653" x2="419.49994728" y2="118.00009653"/>
        <line x1="416.49994728" y1="121.00009653" x2="416.49994728" y2="127.00009653"/>
        <line x1="413.49994728" y1="127.00009653" x2="413.49994728" y2="121.00009653"/>
        <line x1="410.49994728" y1="121.00009653" x2="410.49994728" y2="118.00009653"/>
        <line x1="416.49994728" y1="118.00009653" x2="416.49994728" y2="117.00009653"/>
        <line x1="416.49994728" y1="117.00009653" x2="413.49994728" y2="117.00009653"/>
        <line x1="413.49994728" y1="117.00009653" x2="413.49994728" y2="118.00009653"/>
        <line x1="419.49994728" y1="127.00009653" x2="416.49994728" y2="127.00009653"/>
        <line x1="410.49998015" y1="127.00007512" x2="413.49994728" y2="127.00009653"/>
        <line x1="430.99994728" y1="104.00004984" x2="430.99994728" y2="107.00004984"/>
        <line x1="430.99994728" y1="113.00004984" x2="430.99994728" y2="110.00004984"/>
        <line x1="433.99994728" y1="104.00004984" x2="433.99994728" y2="107.00004984"/>
        <line x1="433.99994728" y1="113.00004984" x2="433.99994728" y2="110.00004984"/>
        <line x1="433.99994728" y1="113.00004984" x2="430.99994728" y2="113.00004984"/>
        <line x1="433.99994728" y1="110.00004984" x2="439.99994728" y2="110.00004984"/>
        <line x1="439.99994728" y1="107.00004984" x2="433.99994728" y2="107.00004984"/>
        <line x1="433.99994728" y1="104.00004984" x2="430.99994728" y2="104.00004984"/>
        <line x1="430.99994728" y1="110.00004984" x2="429.99994728" y2="110.00004984"/>
        <line x1="429.99994728" y1="110.00004984" x2="429.99994728" y2="107.00004984"/>
        <line x1="429.99994728" y1="107.00004984" x2="430.99994728" y2="107.00004984"/>
        <line x1="439.99994728" y1="113.00004984" x2="439.99994728" y2="110.00004984"/>
        <line x1="439.99992588" y1="104.00008272" x2="439.99994728" y2="107.00004984"/>
        <line x1="359.99994728" y1="104.00004984" x2="359.99994728" y2="107.00004984"/>
        <line x1="359.99994728" y1="113.00004984" x2="359.99994728" y2="110.00004984"/>
        <line x1="356.99994728" y1="104.00004984" x2="356.99994728" y2="107.00004984"/>
        <line x1="356.99994728" y1="113.00004984" x2="356.99994728" y2="110.00004984"/>
        <line x1="356.99994728" y1="113.00004984" x2="359.99994728" y2="113.00004984"/>
        <line x1="356.99994728" y1="110.00004984" x2="350.99994728" y2="110.00004984"/>
        <line x1="350.99994728" y1="107.00004984" x2="356.99994728" y2="107.00004984"/>
        <line x1="356.99994728" y1="104.00004984" x2="359.99994728" y2="104.00004984"/>
        <line x1="359.99994728" y1="110.00004984" x2="360.99994728" y2="110.00004984"/>
        <line x1="360.99994728" y1="110.00004984" x2="360.99994728" y2="107.00004984"/>
        <line x1="360.99994728" y1="107.00004984" x2="359.99994728" y2="107.00004984"/>
        <circle cx="371.49994728" cy="105.00004984" r="4"/>
        <circle cx="419.49994728" cy="105.00004984" r="4"/>
        <line x1="387.49994728" y1="111.00004984" x2="387.49994728" y2="99.00004984"/>
        <line x1="403.49994728" y1="111.00004984" x2="403.49994728" y2="99.00004984"/>
        <line x1="387.49994728" y1="99.00004984" x2="403.49994728" y2="99.00004984"/>
        <line x1="387.49994728" y1="111.00004984" x2="403.49994728" y2="111.00004984"/>
        <line x1="439.99994728" y1="96.00004984" x2="444.49994728" y2="96.00004984"/>
        <path d="M445.49994728,97.00004984 A1,1 0 0,0 444.49994728,96.00004984 "/>
        <line x1="445.49994728" y1="97.00004984" x2="445.49997841" y2="103.00000705"/>
        <line x1="439.99994728" y1="85.5" x2="439.99994728" y2="96.00004984"/>
        <line x1="439.99999397" y1="121.00009264" x2="444.49999397" y2="121.00002261"/>
        <path d="M445.49997841,120.00000705 A1,1 0 0,1 444.49999397,121.00002261 "/>
        <line x1="445.49994728" y1="114.00004984" x2="445.49997841" y2="120.00000705"/>
        <line x1="439.99994728" y1="121.00004984" x2="439.99994728" y2="127.00004984"/>
        <line x1="350.9999006" y1="104.00009264" x2="346.4999006" y2="104.00002261"/>
        <path d="M345.49991616,103.00000705 A1,1 0 0,0 346.4999006,104.00002261 "/>
        <line x1="350.99994728" y1="113.00004984" x2="346.49994728" y2="113.00004984"/>
        <path d="M345.49994728,114.00004984 A1,1 0 0,1 346.49994728,113.00004984 "/>
        <line x1="350.99994728" y1="113.00004984" x2="350.99994728" y2="110.00004984"/>
        <line x1="350.99996869" y1="104.00008272" x2="350.99994728" y2="107.00004984"/>
        <line x1="350.99994728" y1="96.00004984" x2="346.49994728" y2="96.00004984"/>
        <path d="M345.49994728,97.00004984 A1,1 0 0,1 346.49994728,96.00004984 "/>
        <line x1="345.49994728" y1="97.00004984" x2="345.49991616" y2="103.00000705"/>
        <line x1="350.99994728" y1="85.5" x2="350.99994728" y2="96.00004984"/>
        <line x1="350.9999006" y1="121.00009264" x2="346.4999006" y2="121.00002261"/>
        <path d="M345.49991616,120.00000705 A1,1 0 0,0 346.4999006,121.00002261 "/>
        <line x1="345.49994728" y1="114.00004984" x2="345.49991616" y2="120.00000705"/>
        <line x1="350.99994728" y1="121.00004984" x2="350.99994728" y2="127.00004984"/>
        <line x1="433.99994728" y1="43.99995016" x2="439.99994728" y2="43.99995016"/>
        <line x1="356.99994728" y1="43.99995016" x2="350.99994728" y2="43.99995016"/>
        <line x1="390.99994728" y1="43.99995016" x2="390.99994728" y2="45.99995016"/>
        <line x1="390.99994728" y1="45.99995016" x2="399.99994728" y2="45.99995016"/>
        <line x1="399.99994728" y1="45.99995016" x2="399.99994728" y2="43.99995016"/>
        <line x1="356.99994728" y1="43.99995016" x2="356.99994728" y2="45.99995016"/>
        <line x1="356.99994728" y1="45.99995016" x2="359.99994728" y2="45.99995016"/>
        <line x1="359.99994728" y1="45.99995016" x2="359.99994728" y2="43.99995016"/>
        <line x1="430.99994728" y1="43.99995016" x2="430.99994728" y2="45.99995016"/>
        <line x1="430.99994728" y1="45.99995016" x2="433.99994728" y2="45.99995016"/>
        <line x1="433.99994728" y1="45.99995016" x2="433.99994728" y2="43.99995016"/>
        <line x1="425.49999008" y1="43.99995016" x2="425.49999008" y2="39.49995016"/>
        <path d="M424.49999008,38.49995016 A1,1 0 0,1 425.49999008,39.49995016 "/>
        <line x1="419.49994728" y1="43.99990347" x2="419.50001731" y2="39.49990347"/>
        <path d="M420.50003287,38.49991903 A1,1 0 0,0 419.50001731,39.49990347 "/>
        <line x1="420.50003287" y1="38.49991903" x2="424.49999008" y2="38.49995016"/>
        <line x1="410.49999008" y1="43.99995016" x2="410.49999008" y2="39.49995016"/>
        <path d="M409.49999008,38.49995016 A1,1 0 0,1 410.49999008,39.49995016 "/>
        <line x1="404.49994728" y1="43.99990347" x2="404.50001731" y2="39.49990347"/>
        <path d="M405.50003287,38.49991903 A1,1 0 0,0 404.50001731,39.49990347 "/>
        <line x1="405.50003287" y1="38.49991903" x2="409.49999008" y2="38.49995016"/>
        <line x1="386.49997514" y1="43.99995016" x2="386.49997514" y2="39.49995016"/>
        <path d="M385.49997514,38.49995016 A1,1 0 0,1 386.49997514,39.49995016 "/>
        <line x1="380.49993234" y1="43.99990347" x2="380.50000237" y2="39.49990347"/>
        <path d="M381.50001793,38.49991903 A1,1 0 0,0 380.50000237,39.49990347 "/>
        <line x1="381.50001793" y1="38.49991903" x2="385.49997514" y2="38.49995016"/>
        <line x1="371.49995117" y1="43.99995016" x2="371.49995117" y2="39.49995016"/>
        <path d="M370.49995117,38.49995016 A1,1 0 0,1 371.49995117,39.49995016 "/>
        <line x1="365.49990838" y1="43.99990347" x2="365.49997841" y2="39.49990347"/>
        <path d="M366.49999397,38.49991903 A1,1 0 0,0 365.49997841,39.49990347 "/>
        <line x1="366.49999397" y1="38.49991903" x2="370.49995117" y2="38.49995016"/>
        <line x1="425.49999008" y1="43.99995016" x2="430.99994728" y2="43.99995016"/>
        <line x1="404.49994728" y1="43.99990347" x2="399.99994728" y2="43.99995016"/>
        <line x1="390.99994728" y1="43.99995016" x2="386.49997514" y2="43.99995016"/>
        <line x1="359.99994728" y1="43.99995016" x2="365.49990838" y2="43.99990347"/>
        <line x1="350.99994728" y1="85.5" x2="439.99994728" y2="85.5"/>
        <line x1="439.99999397" y1="66.99990736" x2="444.49999397" y2="66.99997739"/>
        <path d="M445.49997841,67.99999295 A1,1 0 0,0 444.49999397,66.99997739 "/>
        <line x1="439.99994728" y1="57.99995016" x2="444.49994728" y2="57.99995016"/>
        <path d="M445.49994728,56.99995016 A1,1 0 0,1 444.49994728,57.99995016 "/>
        <line x1="371.4999183" y1="52.99992875" x2="374.4999183" y2="52.99992875"/>
        <line x1="380.4999183" y1="52.99992875" x2="377.4999183" y2="52.99992875"/>
        <line x1="371.4999183" y1="49.99992875" x2="374.4999183" y2="49.99992875"/>
        <line x1="380.4999183" y1="49.99992875" x2="377.4999183" y2="49.99992875"/>
        <line x1="380.4999183" y1="49.99992875" x2="380.4999183" y2="52.99992875"/>
        <line x1="377.4999183" y1="49.99992875" x2="377.4999183" y2="43.99992875"/>
        <line x1="374.4999183" y1="43.99992875" x2="374.4999183" y2="49.99992875"/>
        <line x1="371.4999183" y1="49.99992875" x2="371.4999183" y2="52.99992875"/>
        <line x1="377.4999183" y1="52.99992875" x2="377.4999183" y2="53.99992875"/>
        <line x1="377.4999183" y1="53.99992875" x2="374.4999183" y2="53.99992875"/>
        <line x1="374.4999183" y1="53.99992875" x2="374.4999183" y2="52.99992875"/>
        <line x1="380.4999183" y1="43.99992875" x2="377.4999183" y2="43.99992875"/>
        <line x1="371.49995117" y1="43.99995016" x2="374.4999183" y2="43.99992875"/>
        <line x1="410.49994728" y1="52.99990347" x2="413.49994728" y2="52.99990347"/>
        <line x1="419.49994728" y1="52.99990347" x2="416.49994728" y2="52.99990347"/>
        <line x1="410.49994728" y1="49.99990347" x2="413.49994728" y2="49.99990347"/>
        <line x1="419.49994728" y1="49.99990347" x2="416.49994728" y2="49.99990347"/>
        <line x1="419.49994728" y1="49.99990347" x2="419.49994728" y2="52.99990347"/>
        <line x1="416.49994728" y1="49.99990347" x2="416.49994728" y2="43.99990347"/>
        <line x1="413.49994728" y1="43.99990347" x2="413.49994728" y2="49.99990347"/>
        <line x1="410.49994728" y1="49.99990347" x2="410.49994728" y2="52.99990347"/>
        <line x1="416.49994728" y1="52.99990347" x2="416.49994728" y2="53.99990347"/>
        <line x1="416.49994728" y1="53.99990347" x2="413.49994728" y2="53.99990347"/>
        <line x1="413.49994728" y1="53.99990347" x2="413.49994728" y2="52.99990347"/>
        <line x1="419.49994728" y1="43.99990347" x2="416.49994728" y2="43.99990347"/>
        <line x1="410.49998015" y1="43.99992488" x2="413.49994728" y2="43.99990347"/>
        <line x1="430.99994728" y1="66.99995016" x2="430.99994728" y2="63.99995016"/>
        <line x1="430.99994728" y1="57.99995016" x2="430.99994728" y2="60.99995016"/>
        <line x1="433.99994728" y1="66.99995016" x2="433.99994728" y2="63.99995016"/>
        <line x1="433.99994728" y1="57.99995016" x2="433.99994728" y2="60.99995016"/>
        <line x1="433.99994728" y1="57.99995016" x2="430.99994728" y2="57.99995016"/>
        <line x1="433.99994728" y1="60.99995016" x2="439.99994728" y2="60.99995016"/>
        <line x1="439.99994728" y1="63.99995016" x2="433.99994728" y2="63.99995016"/>
        <line x1="433.99994728" y1="66.99995016" x2="430.99994728" y2="66.99995016"/>
        <line x1="430.99994728" y1="60.99995016" x2="429.99994728" y2="60.99995016"/>
        <line x1="429.99994728" y1="60.99995016" x2="429.99994728" y2="63.99995016"/>
        <line x1="429.99994728" y1="63.99995016" x2="430.99994728" y2="63.99995016"/>
        <line x1="439.99994728" y1="57.99995016" x2="439.99994728" y2="60.99995016"/>
        <line x1="439.99992588" y1="66.99991728" x2="439.99994728" y2="63.99995016"/>
        <line x1="359.99994728" y1="66.99995016" x2="359.99994728" y2="63.99995016"/>
        <line x1="359.99994728" y1="57.99995016" x2="359.99994728" y2="60.99995016"/>
        <line x1="356.99994728" y1="66.99995016" x2="356.99994728" y2="63.99995016"/>
        <line x1="356.99994728" y1="57.99995016" x2="356.99994728" y2="60.99995016"/>
        <line x1="356.99994728" y1="57.99995016" x2="359.99994728" y2="57.99995016"/>
        <line x1="356.99994728" y1="60.99995016" x2="350.99994728" y2="60.99995016"/>
        <line x1="350.99994728" y1="63.99995016" x2="356.99994728" y2="63.99995016"/>
        <line x1="356.99994728" y1="66.99995016" x2="359.99994728" y2="66.99995016"/>
        <line x1="359.99994728" y1="60.99995016" x2="360.99994728" y2="60.99995016"/>
        <line x1="360.99994728" y1="60.99995016" x2="360.99994728" y2="63.99995016"/>
        <line x1="360.99994728" y1="63.99995016" x2="359.99994728" y2="63.99995016"/>
        <circle cx="371.49994728" cy="65.99995016" r="4"/>
        <circle cx="419.49994728" cy="65.99995016" r="4"/>
        <line x1="387.49994728" y1="59.99995016" x2="387.49994728" y2="71.99995016"/>
        <line x1="403.49994728" y1="59.99995016" x2="403.49994728" y2="71.99995016"/>
        <line x1="387.49994728" y1="71.99995016" x2="403.49994728" y2="71.99995016"/>
        <line x1="387.49994728" y1="59.99995016" x2="403.49994728" y2="59.99995016"/>
        <line x1="439.99994728" y1="74.99995016" x2="444.49994728" y2="74.99995016"/>
        <path d="M445.49994728,73.99995016 A1,1 0 0,1 444.49994728,74.99995016 "/>
        <line x1="445.49994728" y1="73.99995016" x2="445.49997841" y2="67.99999295"/>
        <line x1="439.99994728" y1="85.5" x2="439.99994728" y2="74.99995016"/>
        <line x1="439.99999397" y1="49.99990736" x2="444.49999397" y2="49.99997739"/>
        <path d="M445.49997841,50.99999295 A1,1 0 0,0 444.49999397,49.99997739 "/>
        <line x1="445.49994728" y1="56.99995016" x2="445.49997841" y2="50.99999295"/>
        <line x1="439.99994728" y1="49.99995016" x2="439.99994728" y2="43.99995016"/>
        <line x1="350.9999006" y1="66.99990736" x2="346.4999006" y2="66.99997739"/>
        <path d="M345.49991616,67.99999295 A1,1 0 0,1 346.4999006,66.99997739 "/>
        <line x1="350.99994728" y1="57.99995016" x2="346.49994728" y2="57.99995016"/>
        <path d="M345.49994728,56.99995016 A1,1 0 0,0 346.49994728,57.99995016 "/>
        <line x1="350.99994728" y1="57.99995016" x2="350.99994728" y2="60.99995016"/>
        <line x1="350.99996869" y1="66.99991728" x2="350.99994728" y2="63.99995016"/>
        <line x1="350.99994728" y1="74.99995016" x2="346.49994728" y2="74.99995016"/>
        <path d="M345.49994728,73.99995016 A1,1 0 0,0 346.49994728,74.99995016 "/>
        <line x1="345.49994728" y1="73.99995016" x2="345.49991616" y2="67.99999295"/>
        <line x1="350.99994728" y1="85.5" x2="350.99994728" y2="74.99995016"/>
        <line x1="350.9999006" y1="49.99990736" x2="346.4999006" y2="49.99997739"/>
        <path d="M345.49991616,50.99999295 A1,1 0 0,1 346.4999006,49.99997739 "/>
        <line x1="345.49994728" y1="56.99995016" x2="345.49991616" y2="50.99999295"/>
        <line x1="350.99994728" y1="49.99995016" x2="350.99994728" y2="43.99995016"/>
        <line x1="115" y1="167.00004984" x2="115" y2="169.00004984"/>
        <line x1="115" y1="169.00004984" x2="117" y2="169.00004984"/>
        <line x1="117" y1="169.00004984" x2="117" y2="167.00004984"/>
        <line x1="117" y1="167.00004984" x2="115" y2="167.00004984"/>
        <line x1="115" y1="157.00004984" x2="115" y2="159.00004984"/>
        <line x1="115" y1="159.00004984" x2="117" y2="159.00004984"/>
        <line x1="117" y1="159.00004984" x2="117" y2="157.00004984"/>
        <line x1="117" y1="157.00004984" x2="115" y2="157.00004984"/>
        <line x1="115" y1="207.00004984" x2="115" y2="205.00004984"/>
        <line x1="115" y1="205.00004984" x2="117" y2="205.00004984"/>
        <line x1="117" y1="205.00004984" x2="117" y2="207.00004984"/>
        <line x1="117" y1="207.00004984" x2="115" y2="207.00004984"/>
        <line x1="115" y1="217.00004984" x2="115" y2="215.00004984"/>
        <line x1="115" y1="215.00004984" x2="117" y2="215.00004984"/>
        <line x1="117" y1="215.00004984" x2="117" y2="217.00004984"/>
        <line x1="117" y1="217.00004984" x2="115" y2="217.00004984"/>
        <line x1="433" y1="167.00004984" x2="433" y2="169.00004984"/>
        <line x1="433" y1="169.00004984" x2="431" y2="169.00004984"/>
        <line x1="431" y1="169.00004984" x2="431" y2="167.00004984"/>
        <line x1="431" y1="167.00004984" x2="433" y2="167.00004984"/>
        <line x1="433" y1="157.00004984" x2="433" y2="159.00004984"/>
        <line x1="433" y1="159.00004984" x2="431" y2="159.00004984"/>
        <line x1="431" y1="159.00004984" x2="431" y2="157.00004984"/>
        <line x1="431" y1="157.00004984" x2="433" y2="157.00004984"/>
        <line x1="433" y1="207.00004984" x2="433" y2="205.00004984"/>
        <line x1="433" y1="205.00004984" x2="431" y2="205.00004984"/>
        <line x1="431" y1="205.00004984" x2="431" y2="207.00004984"/>
        <line x1="431" y1="207.00004984" x2="433" y2="207.00004984"/>
        <line x1="433" y1="217.00004984" x2="433" y2="215.00004984"/>
        <line x1="433" y1="215.00004984" x2="431" y2="215.00004984"/>
        <line x1="431" y1="215.00004984" x2="431" y2="217.00004984"/>
        <line x1="431" y1="217.00004984" x2="433" y2="217.00004984"/>
    </g>
    <g lc:layername="noname" lc:is_locked="false" lc:is_construction="false" fill="none" stroke="black" stroke-width="1"/>
    <g lc:layername="noname2" lc:is_locked="false" lc:is_construction="false" fill="none" stroke="black" stroke-width="1"/>
</svg>
